%TF.GenerationSoftware,KiCad,Pcbnew,8.0.1*%
%TF.CreationDate,2024-04-13T21:31:32-05:00*%
%TF.ProjectId,ECE445-Wattbalance-PCB,45434534-3435-42d5-9761-747462616c61,rev?*%
%TF.SameCoordinates,Original*%
%TF.FileFunction,Soldermask,Bot*%
%TF.FilePolarity,Negative*%
%FSLAX46Y46*%
G04 Gerber Fmt 4.6, Leading zero omitted, Abs format (unit mm)*
G04 Created by KiCad (PCBNEW 8.0.1) date 2024-04-13 21:31:32*
%MOMM*%
%LPD*%
G01*
G04 APERTURE LIST*
G04 Aperture macros list*
%AMRoundRect*
0 Rectangle with rounded corners*
0 $1 Rounding radius*
0 $2 $3 $4 $5 $6 $7 $8 $9 X,Y pos of 4 corners*
0 Add a 4 corners polygon primitive as box body*
4,1,4,$2,$3,$4,$5,$6,$7,$8,$9,$2,$3,0*
0 Add four circle primitives for the rounded corners*
1,1,$1+$1,$2,$3*
1,1,$1+$1,$4,$5*
1,1,$1+$1,$6,$7*
1,1,$1+$1,$8,$9*
0 Add four rect primitives between the rounded corners*
20,1,$1+$1,$2,$3,$4,$5,0*
20,1,$1+$1,$4,$5,$6,$7,0*
20,1,$1+$1,$6,$7,$8,$9,0*
20,1,$1+$1,$8,$9,$2,$3,0*%
G04 Aperture macros list end*
%ADD10RoundRect,0.250000X-0.620000X-0.845000X0.620000X-0.845000X0.620000X0.845000X-0.620000X0.845000X0*%
%ADD11O,1.740000X2.190000*%
%ADD12RoundRect,0.250000X0.620000X0.845000X-0.620000X0.845000X-0.620000X-0.845000X0.620000X-0.845000X0*%
%ADD13C,1.700000*%
%ADD14RoundRect,0.250000X-0.600000X-0.600000X0.600000X-0.600000X0.600000X0.600000X-0.600000X0.600000X0*%
%ADD15C,0.854000*%
%ADD16O,1.904000X1.104000*%
%ADD17O,2.604000X1.104000*%
%ADD18RoundRect,0.250000X0.600000X0.600000X-0.600000X0.600000X-0.600000X-0.600000X0.600000X-0.600000X0*%
%ADD19C,3.200000*%
%ADD20R,2.200000X2.200000*%
%ADD21O,2.200000X2.200000*%
%ADD22C,1.500000*%
%ADD23R,1.800000X1.800000*%
%ADD24C,1.800000*%
%ADD25O,1.700000X1.700000*%
%ADD26R,1.700000X1.700000*%
%ADD27C,2.000000*%
G04 APERTURE END LIST*
D10*
%TO.C,J13*%
X113175000Y-62250000D03*
D11*
X115715000Y-62250000D03*
%TD*%
D10*
%TO.C,J12*%
X106045000Y-62250000D03*
D11*
X108585000Y-62250000D03*
%TD*%
D10*
%TO.C,J11*%
X98915000Y-62250000D03*
D11*
X101455000Y-62250000D03*
%TD*%
D12*
%TO.C,J6*%
X142875000Y-130790000D03*
D11*
X140335000Y-130790000D03*
%TD*%
D13*
%TO.C,J1*%
X98425000Y-92075000D03*
X95885000Y-92075000D03*
X98425000Y-89535000D03*
X95885000Y-89535000D03*
X98425000Y-86995000D03*
D14*
X95885000Y-86995000D03*
%TD*%
D15*
%TO.C,J2*%
X206460000Y-67745000D03*
X206460000Y-66895000D03*
X206460000Y-66045000D03*
X206460000Y-65195000D03*
X206460000Y-64345000D03*
X206460000Y-63495000D03*
X206460000Y-62645000D03*
X206460000Y-61795000D03*
X207810000Y-61795000D03*
X207810000Y-62645000D03*
X207810000Y-63495000D03*
X207810000Y-64345000D03*
X207810000Y-65195000D03*
X207810000Y-66045000D03*
X207810000Y-66895000D03*
X207810000Y-67745000D03*
D16*
X210820000Y-69095000D03*
X210820000Y-60445000D03*
D17*
X207440000Y-69095000D03*
X207440000Y-60445000D03*
%TD*%
D18*
%TO.C,J3*%
X205857500Y-101605000D03*
D13*
X203317500Y-101605000D03*
X205857500Y-99065000D03*
X203317500Y-99065000D03*
X205857500Y-96525000D03*
X203317500Y-96525000D03*
%TD*%
D11*
%TO.C,J7*%
X176530000Y-131425000D03*
D12*
X179070000Y-131425000D03*
%TD*%
D19*
%TO.C,H3*%
X208915000Y-141605000D03*
%TD*%
D20*
%TO.C,D11*%
X154305000Y-97790000D03*
D21*
X146685000Y-97790000D03*
%TD*%
D20*
%TO.C,D12*%
X145415000Y-105410000D03*
D21*
X153035000Y-105410000D03*
%TD*%
D22*
%TO.C,Y1*%
X145960000Y-61595000D03*
X141080000Y-61595000D03*
%TD*%
D23*
%TO.C,D3*%
X187320000Y-132080000D03*
D24*
X189860000Y-132080000D03*
%TD*%
D23*
%TO.C,D5*%
X203830000Y-132080000D03*
D24*
X206370000Y-132080000D03*
%TD*%
D20*
%TO.C,D13*%
X191135000Y-114300000D03*
D21*
X183515000Y-114300000D03*
%TD*%
D25*
%TO.C,J4*%
X93980000Y-68575000D03*
X93980000Y-71115000D03*
X93980000Y-73655000D03*
X93980000Y-76195000D03*
D26*
X93980000Y-78735000D03*
%TD*%
D11*
%TO.C,J10*%
X167640000Y-131425000D03*
D12*
X170180000Y-131425000D03*
%TD*%
D10*
%TO.C,J9*%
X120650000Y-62250000D03*
D11*
X123190000Y-62250000D03*
%TD*%
D19*
%TO.C,H2*%
X94615000Y-53340000D03*
%TD*%
D12*
%TO.C,J8*%
X161925000Y-131445000D03*
D11*
X159385000Y-131445000D03*
%TD*%
D20*
%TO.C,D10*%
X136525000Y-87630000D03*
D21*
X144145000Y-87630000D03*
%TD*%
D23*
%TO.C,D4*%
X195575000Y-132080000D03*
D24*
X198115000Y-132080000D03*
%TD*%
D20*
%TO.C,D9*%
X140970000Y-97790000D03*
D21*
X133350000Y-97790000D03*
%TD*%
D11*
%TO.C,J5*%
X130810000Y-130790000D03*
D12*
X133350000Y-130790000D03*
%TD*%
D20*
%TO.C,D14*%
X179070000Y-114300000D03*
D21*
X171450000Y-114300000D03*
%TD*%
D19*
%TO.C,H1*%
X208915000Y-53340000D03*
%TD*%
%TO.C,H4*%
X94615000Y-141605000D03*
%TD*%
D27*
%TO.C,F1*%
X205090000Y-80010000D03*
X193690000Y-80010000D03*
%TD*%
M02*
