%TF.GenerationSoftware,KiCad,Pcbnew,8.0.1*%
%TF.CreationDate,2024-04-13T21:31:32-05:00*%
%TF.ProjectId,ECE445-Wattbalance-PCB,45434534-3435-42d5-9761-747462616c61,rev?*%
%TF.SameCoordinates,Original*%
%TF.FileFunction,Paste,Top*%
%TF.FilePolarity,Positive*%
%FSLAX46Y46*%
G04 Gerber Fmt 4.6, Leading zero omitted, Abs format (unit mm)*
G04 Created by KiCad (PCBNEW 8.0.1) date 2024-04-13 21:31:32*
%MOMM*%
%LPD*%
G01*
G04 APERTURE LIST*
G04 Aperture macros list*
%AMRoundRect*
0 Rectangle with rounded corners*
0 $1 Rounding radius*
0 $2 $3 $4 $5 $6 $7 $8 $9 X,Y pos of 4 corners*
0 Add a 4 corners polygon primitive as box body*
4,1,4,$2,$3,$4,$5,$6,$7,$8,$9,$2,$3,0*
0 Add four circle primitives for the rounded corners*
1,1,$1+$1,$2,$3*
1,1,$1+$1,$4,$5*
1,1,$1+$1,$6,$7*
1,1,$1+$1,$8,$9*
0 Add four rect primitives between the rounded corners*
20,1,$1+$1,$2,$3,$4,$5,0*
20,1,$1+$1,$4,$5,$6,$7,0*
20,1,$1+$1,$6,$7,$8,$9,0*
20,1,$1+$1,$8,$9,$2,$3,0*%
G04 Aperture macros list end*
%ADD10RoundRect,0.075000X-0.150000X-0.075000X0.150000X-0.075000X0.150000X0.075000X-0.150000X0.075000X0*%
%ADD11RoundRect,0.250000X-0.475000X0.337500X-0.475000X-0.337500X0.475000X-0.337500X0.475000X0.337500X0*%
%ADD12RoundRect,0.150000X-0.825000X-0.150000X0.825000X-0.150000X0.825000X0.150000X-0.825000X0.150000X0*%
%ADD13R,0.882000X0.537000*%
%ADD14R,1.050000X0.450000*%
%ADD15RoundRect,0.250000X0.337500X0.475000X-0.337500X0.475000X-0.337500X-0.475000X0.337500X-0.475000X0*%
%ADD16RoundRect,0.250000X0.350000X0.450000X-0.350000X0.450000X-0.350000X-0.450000X0.350000X-0.450000X0*%
%ADD17RoundRect,0.250000X-0.350000X-0.450000X0.350000X-0.450000X0.350000X0.450000X-0.350000X0.450000X0*%
%ADD18RoundRect,0.250000X-0.450000X0.350000X-0.450000X-0.350000X0.450000X-0.350000X0.450000X0.350000X0*%
%ADD19RoundRect,0.150000X0.650000X0.150000X-0.650000X0.150000X-0.650000X-0.150000X0.650000X-0.150000X0*%
%ADD20RoundRect,0.250000X-0.337500X-0.475000X0.337500X-0.475000X0.337500X0.475000X-0.337500X0.475000X0*%
%ADD21RoundRect,0.250000X0.475000X-0.337500X0.475000X0.337500X-0.475000X0.337500X-0.475000X-0.337500X0*%
%ADD22R,1.750000X0.450000*%
%ADD23RoundRect,0.250000X0.450000X-0.350000X0.450000X0.350000X-0.450000X0.350000X-0.450000X-0.350000X0*%
%ADD24RoundRect,0.150000X0.825000X0.150000X-0.825000X0.150000X-0.825000X-0.150000X0.825000X-0.150000X0*%
%ADD25RoundRect,0.150000X0.150000X-0.512500X0.150000X0.512500X-0.150000X0.512500X-0.150000X-0.512500X0*%
%ADD26RoundRect,0.225000X0.225000X0.375000X-0.225000X0.375000X-0.225000X-0.375000X0.225000X-0.375000X0*%
%ADD27RoundRect,0.250000X0.850000X0.350000X-0.850000X0.350000X-0.850000X-0.350000X0.850000X-0.350000X0*%
%ADD28RoundRect,0.250000X1.275000X1.125000X-1.275000X1.125000X-1.275000X-1.125000X1.275000X-1.125000X0*%
%ADD29R,0.550000X1.600000*%
%ADD30R,1.600000X0.550000*%
G04 APERTURE END LIST*
D10*
%TO.C,U8*%
X189800000Y-69350000D03*
X189800000Y-69850000D03*
X189800000Y-70350000D03*
X191200000Y-70350000D03*
X191200000Y-69350000D03*
%TD*%
D11*
%TO.C,C18*%
X179070000Y-122322500D03*
X179070000Y-120247500D03*
%TD*%
D12*
%TO.C,U9*%
X182310000Y-97790000D03*
X182310000Y-99060000D03*
X182310000Y-100330000D03*
X182310000Y-101600000D03*
X187260000Y-101600000D03*
X187260000Y-100330000D03*
X187260000Y-99060000D03*
X187260000Y-97790000D03*
%TD*%
D13*
%TO.C,U5*%
X118645000Y-114227500D03*
X118645000Y-115122500D03*
X118645000Y-116017500D03*
X118645000Y-116912500D03*
X120115000Y-114227500D03*
X120115000Y-115122500D03*
X120115000Y-116017500D03*
X120115000Y-116912500D03*
D14*
X116605000Y-117845000D03*
X116605000Y-117195000D03*
X116605000Y-116545000D03*
X116605000Y-115895000D03*
X116605000Y-115245000D03*
X116605000Y-114595000D03*
X116605000Y-113945000D03*
X116605000Y-113295000D03*
X122155000Y-113295000D03*
X122155000Y-113945000D03*
X122155000Y-114595000D03*
X122155000Y-115245000D03*
X122155000Y-115895000D03*
X122155000Y-116545000D03*
X122155000Y-117195000D03*
X122155000Y-117845000D03*
%TD*%
D15*
%TO.C,C10*%
X119147500Y-107315000D03*
X117072500Y-107315000D03*
%TD*%
D11*
%TO.C,C3*%
X140335000Y-68177500D03*
X140335000Y-70252500D03*
%TD*%
D16*
%TO.C,R10*%
X164195000Y-90170000D03*
X162195000Y-90170000D03*
%TD*%
%TO.C,R1*%
X169275000Y-81915000D03*
X167275000Y-81915000D03*
%TD*%
D17*
%TO.C,R9*%
X136160000Y-93345000D03*
X138160000Y-93345000D03*
%TD*%
D18*
%TO.C,R5*%
X206375000Y-123460000D03*
X206375000Y-125460000D03*
%TD*%
D15*
%TO.C,C8*%
X159152500Y-64135000D03*
X157077500Y-64135000D03*
%TD*%
D18*
%TO.C,R18*%
X123190000Y-106950000D03*
X123190000Y-108950000D03*
%TD*%
D19*
%TO.C,U2*%
X104985000Y-118110000D03*
X104985000Y-116840000D03*
X104985000Y-115570000D03*
X104985000Y-114300000D03*
X112185000Y-114300000D03*
X112185000Y-115570000D03*
X112185000Y-116840000D03*
X112185000Y-118110000D03*
%TD*%
D20*
%TO.C,C11*%
X117072500Y-102870000D03*
X119147500Y-102870000D03*
%TD*%
D21*
%TO.C,C7*%
X190500000Y-63267500D03*
X190500000Y-61192500D03*
%TD*%
D20*
%TO.C,C17*%
X158347500Y-118745000D03*
X160422500Y-118745000D03*
%TD*%
%TO.C,C14*%
X164697500Y-100330000D03*
X166772500Y-100330000D03*
%TD*%
D15*
%TO.C,C12*%
X114067500Y-108585000D03*
X111992500Y-108585000D03*
%TD*%
D16*
%TO.C,R13*%
X151495000Y-90170000D03*
X149495000Y-90170000D03*
%TD*%
D15*
%TO.C,C4*%
X155977500Y-71120000D03*
X153902500Y-71120000D03*
%TD*%
D11*
%TO.C,C9*%
X189865000Y-88497500D03*
X189865000Y-90572500D03*
%TD*%
D16*
%TO.C,R14*%
X157115000Y-124460000D03*
X159115000Y-124460000D03*
%TD*%
%TO.C,R16*%
X159750000Y-111125000D03*
X157750000Y-111125000D03*
%TD*%
D22*
%TO.C,U3*%
X179495000Y-59910000D03*
X179495000Y-60560000D03*
X179495000Y-61210000D03*
X179495000Y-61860000D03*
X179495000Y-62510000D03*
X179495000Y-63160000D03*
X179495000Y-63810000D03*
X179495000Y-64460000D03*
X179495000Y-65110000D03*
X179495000Y-65760000D03*
X179495000Y-66410000D03*
X179495000Y-67060000D03*
X179495000Y-67710000D03*
X179495000Y-68360000D03*
X172295000Y-68360000D03*
X172295000Y-67710000D03*
X172295000Y-67060000D03*
X172295000Y-66410000D03*
X172295000Y-65760000D03*
X172295000Y-65110000D03*
X172295000Y-64460000D03*
X172295000Y-63810000D03*
X172295000Y-63160000D03*
X172295000Y-62510000D03*
X172295000Y-61860000D03*
X172295000Y-61210000D03*
X172295000Y-60560000D03*
X172295000Y-59910000D03*
%TD*%
D18*
%TO.C,R7*%
X192405000Y-123460000D03*
X192405000Y-125460000D03*
%TD*%
%TO.C,R17*%
X159385000Y-105680000D03*
X159385000Y-107680000D03*
%TD*%
D11*
%TO.C,C2*%
X146380000Y-68102500D03*
X146380000Y-70177500D03*
%TD*%
D23*
%TO.C,R6*%
X198755000Y-125460000D03*
X198755000Y-123460000D03*
%TD*%
D16*
%TO.C,R11*%
X164195000Y-95250000D03*
X162195000Y-95250000D03*
%TD*%
D11*
%TO.C,C1*%
X107315000Y-110892500D03*
X107315000Y-108817500D03*
%TD*%
%TO.C,C6*%
X177800000Y-73257500D03*
X177800000Y-75332500D03*
%TD*%
D17*
%TO.C,R4*%
X198390000Y-61595000D03*
X200390000Y-61595000D03*
%TD*%
D24*
%TO.C,U7*%
X152970000Y-116205000D03*
X152970000Y-114935000D03*
X152970000Y-113665000D03*
X152970000Y-112395000D03*
X148020000Y-112395000D03*
X148020000Y-113665000D03*
X148020000Y-114935000D03*
X148020000Y-116205000D03*
%TD*%
D16*
%TO.C,R3*%
X200390000Y-68580000D03*
X198390000Y-68580000D03*
%TD*%
D18*
%TO.C,R12*%
X139065000Y-112125000D03*
X139065000Y-110125000D03*
%TD*%
D16*
%TO.C,R20*%
X179435000Y-106045000D03*
X177435000Y-106045000D03*
%TD*%
D11*
%TO.C,C20*%
X192405000Y-94847500D03*
X192405000Y-96922500D03*
%TD*%
%TO.C,C21*%
X177800000Y-99292500D03*
X177800000Y-101367500D03*
%TD*%
D16*
%TO.C,R15*%
X151495000Y-125095000D03*
X149495000Y-125095000D03*
%TD*%
%TO.C,R8*%
X136255000Y-107315000D03*
X134255000Y-107315000D03*
%TD*%
D15*
%TO.C,C19*%
X159152500Y-60325000D03*
X157077500Y-60325000D03*
%TD*%
D25*
%TO.C,U6*%
X159070000Y-101467500D03*
X160020000Y-101467500D03*
X160970000Y-101467500D03*
X160970000Y-99192500D03*
X160020000Y-99192500D03*
X159070000Y-99192500D03*
%TD*%
D18*
%TO.C,R2*%
X158750000Y-69485000D03*
X158750000Y-71485000D03*
%TD*%
D15*
%TO.C,C15*%
X166772500Y-103505000D03*
X164697500Y-103505000D03*
%TD*%
D16*
%TO.C,R19*%
X185785000Y-106045000D03*
X183785000Y-106045000D03*
%TD*%
D26*
%TO.C,D1*%
X114045000Y-86995000D03*
X110745000Y-86995000D03*
%TD*%
D27*
%TO.C,U4*%
X184745000Y-90545000D03*
X184745000Y-88265000D03*
D28*
X180120000Y-89790000D03*
X180120000Y-86740000D03*
X176770000Y-89790000D03*
X176770000Y-86740000D03*
D27*
X184745000Y-85985000D03*
%TD*%
D29*
%TO.C,U1*%
X156585000Y-75760000D03*
X157385000Y-75760000D03*
X158185000Y-75760000D03*
X158985000Y-75760000D03*
X159785000Y-75760000D03*
X160585000Y-75760000D03*
X161385000Y-75760000D03*
X162185000Y-75760000D03*
D30*
X163635000Y-77210000D03*
X163635000Y-78010000D03*
X163635000Y-78810000D03*
X163635000Y-79610000D03*
X163635000Y-80410000D03*
X163635000Y-81210000D03*
X163635000Y-82010000D03*
X163635000Y-82810000D03*
D29*
X162185000Y-84260000D03*
X161385000Y-84260000D03*
X160585000Y-84260000D03*
X159785000Y-84260000D03*
X158985000Y-84260000D03*
X158185000Y-84260000D03*
X157385000Y-84260000D03*
X156585000Y-84260000D03*
D30*
X155135000Y-82810000D03*
X155135000Y-82010000D03*
X155135000Y-81210000D03*
X155135000Y-80410000D03*
X155135000Y-79610000D03*
X155135000Y-78810000D03*
X155135000Y-78010000D03*
X155135000Y-77210000D03*
%TD*%
D26*
%TO.C,D2*%
X173100000Y-78740000D03*
X169800000Y-78740000D03*
%TD*%
D21*
%TO.C,C5*%
X151130000Y-75967500D03*
X151130000Y-73892500D03*
%TD*%
D11*
%TO.C,C13*%
X133350000Y-117072500D03*
X133350000Y-119147500D03*
%TD*%
%TO.C,C16*%
X139065000Y-115167500D03*
X139065000Y-117242500D03*
%TD*%
M02*
