M48
; DRILL file {KiCad 8.0.1} date 2024-04-13T21:31:29-0500
; FORMAT={-:-/ absolute / inch / decimal}
; #@! TF.CreationDate,2024-04-13T21:31:29-05:00
; #@! TF.GenerationSoftware,Kicad,Pcbnew,8.0.1
; #@! TF.FileFunction,Plated,1,2,PTH
FMAT,2
INCH
; #@! TA.AperFunction,Plated,PTH,ViaDrill
T1C0.0157
; #@! TA.AperFunction,Plated,PTH,ComponentDrill
T2C0.0157
; #@! TA.AperFunction,Plated,PTH,ComponentDrill
T3C0.0236
; #@! TA.AperFunction,Plated,PTH,ComponentDrill
T4C0.0315
; #@! TA.AperFunction,Plated,PTH,ComponentDrill
T5C0.0354
; #@! TA.AperFunction,Plated,PTH,ComponentDrill
T6C0.0394
; #@! TA.AperFunction,Plated,PTH,ComponentDrill
T7C0.0433
; #@! TA.AperFunction,Plated,PTH,ComponentDrill
T8C0.0469
%
G90
G05
T1
X4.05Y-3.7
X4.1Y-2.725
X4.125Y-3.5036
X4.25Y-3.4536
X4.275Y-3.5464
X4.325Y-3.575
X4.35Y-4.4
X4.45Y-3.5214
X4.45Y-3.8
X4.5Y-4.55
X4.5Y-4.65
X4.525Y-3.325
X4.55Y-4.125
X4.6Y-3.3903
X4.625Y-4.375
X4.65Y-3.475
X4.75Y-3.725
X4.75Y-4.6714
X4.825Y-4.125
X4.867Y-4.6426
X4.9Y-4.525
X4.9205Y-4.5854
X5.025Y-4.05
X5.05Y-3.475
X5.05Y-4.425
X5.1Y-2.925
X5.1Y-3.275
X5.1Y-4.45
X5.125Y-4.325
X5.1607Y-3.4233
X5.1652Y-3.6036
X5.175Y-4.275
X5.2Y-3.25
X5.2Y-3.425
X5.2214Y-4.2964
X5.2786Y-4.1
X5.2827Y-2.9923
X5.375Y-4.075
X5.425Y-3.175
X5.45Y-3.1
X5.5Y-3.425
X5.525Y-3.625
X5.675Y-4.525
X5.725Y-4.3
X5.8Y-2.875
X5.8Y-3.0
X5.8214Y-3.175
X5.8214Y-3.2214
X5.825Y-3.425
X5.825Y-3.4928
X5.875Y-2.675
X5.875Y-3.2964
X5.9036Y-3.05
X5.95Y-2.825
X5.95Y-3.225
X5.95Y-3.425
X5.975Y-3.2964
X5.9786Y-3.175
X6.0Y-3.475
X6.003Y-3.0426
X6.025Y-3.325
X6.0661Y-3.6113
X6.075Y-2.875
X6.1288Y-3.3331
X6.1499Y-3.4464
X6.15Y-2.925
X6.15Y-4.075
X6.15Y-4.3
X6.1714Y-3.25
X6.175Y-3.05
X6.175Y-3.1
X6.1856Y-2.9
X6.1893Y-3.4464
X6.2Y-3.675
X6.225Y-2.9
X6.225Y-4.075
X6.2286Y-3.2
X6.2286Y-3.25
X6.2286Y-3.4464
X6.2286Y-3.6036
X6.2677Y-3.4418
X6.325Y-3.05
X6.325Y-4.125
X6.325Y-4.525
X6.3488Y-3.4
X6.35Y-2.825
X6.35Y-2.9
X6.35Y-3.225
X6.3673Y-3.4423
X6.375Y-3.65
X6.4Y-2.5
X6.4Y-2.725
X6.4Y-4.975
X6.45Y-2.375
X6.45Y-2.9286
X6.45Y-3.4
X6.575Y-3.1
X6.625Y-3.325
X6.6274Y-3.6714
X6.7Y-4.7
X6.85Y-3.85
X6.8786Y-3.05
X6.9Y-2.95
X6.9Y-3.175
X6.925Y-2.625
X6.9278Y-2.9214
X6.95Y-2.825
X7.0Y-3.225
X7.025Y-3.275
X7.075Y-3.7
X7.25Y-2.475
X7.275Y-2.625
X7.325Y-2.5
X7.35Y-2.725
X7.475Y-3.35
X7.5Y-3.875
X7.5Y-4.1
X7.5028Y-3.3222
X7.525Y-2.6
X7.575Y-2.675
X7.625Y-2.8
X7.675Y-3.45
X7.7Y-4.925
X7.725Y-3.65
X7.725Y-4.0
X7.7822Y-4.15
X7.9Y-3.125
X7.95Y-4.45
T2
X8.1283Y-2.4329
X8.1283Y-2.4663
X8.1283Y-2.4998
X8.1283Y-2.5333
X8.1283Y-2.5667
X8.1283Y-2.6002
X8.1283Y-2.6337
X8.1283Y-2.6671
X8.1815Y-2.4329
X8.1815Y-2.4663
X8.1815Y-2.4998
X8.1815Y-2.5333
X8.1815Y-2.5667
X8.1815Y-2.6002
X8.1815Y-2.6337
X8.1815Y-2.6671
T4
X5.5543Y-2.425
X5.7465Y-2.425
T5
X7.3748Y-5.2
X7.4748Y-5.2
X7.6998Y-5.2
X7.7998Y-5.2
X8.0248Y-5.2
X8.1248Y-5.2
T6
X3.7Y-2.6998
X3.7Y-2.7998
X3.7Y-2.8998
X3.7Y-2.9998
X3.7Y-3.0998
X3.775Y-3.425
X3.775Y-3.525
X3.775Y-3.625
X3.875Y-3.425
X3.875Y-3.525
X3.875Y-3.625
X7.6256Y-3.15
X8.0046Y-3.8002
X8.0046Y-3.9002
X8.0046Y-4.0002
X8.0744Y-3.15
X8.1046Y-3.8002
X8.1046Y-3.9002
X8.1046Y-4.0002
T7
X5.25Y-3.85
X5.375Y-3.45
X5.55Y-3.85
X5.675Y-3.45
X5.725Y-4.15
X5.775Y-3.85
X6.025Y-4.15
X6.075Y-3.85
X6.75Y-4.5
X7.05Y-4.5
X7.225Y-4.5
X7.525Y-4.5
T8
X3.8943Y-2.4508
X3.9943Y-2.4508
X4.175Y-2.4508
X4.275Y-2.4508
X4.4557Y-2.4508
X4.5557Y-2.4508
X4.75Y-2.4508
X4.85Y-2.4508
X5.15Y-5.1492
X5.25Y-5.1492
X5.525Y-5.1492
X5.625Y-5.1492
X6.275Y-5.175
X6.375Y-5.175
X6.6Y-5.1742
X6.7Y-5.1742
X6.95Y-5.1742
X7.05Y-5.1742
T3
G00X8.1374Y-2.3797
M15
G01X8.1965Y-2.3797
M16
G05
G00X8.1374Y-2.7203
M15
G01X8.1965Y-2.7203
M16
G05
G00X8.2843Y-2.3797
M15
G01X8.3157Y-2.3797
M16
G05
G00X8.2843Y-2.7203
M15
G01X8.3157Y-2.7203
M16
G05
M30
