%TF.GenerationSoftware,KiCad,Pcbnew,8.0.1*%
%TF.CreationDate,2024-04-13T21:31:32-05:00*%
%TF.ProjectId,ECE445-Wattbalance-PCB,45434534-3435-42d5-9761-747462616c61,rev?*%
%TF.SameCoordinates,Original*%
%TF.FileFunction,Copper,L2,Bot*%
%TF.FilePolarity,Positive*%
%FSLAX46Y46*%
G04 Gerber Fmt 4.6, Leading zero omitted, Abs format (unit mm)*
G04 Created by KiCad (PCBNEW 8.0.1) date 2024-04-13 21:31:32*
%MOMM*%
%LPD*%
G01*
G04 APERTURE LIST*
G04 Aperture macros list*
%AMRoundRect*
0 Rectangle with rounded corners*
0 $1 Rounding radius*
0 $2 $3 $4 $5 $6 $7 $8 $9 X,Y pos of 4 corners*
0 Add a 4 corners polygon primitive as box body*
4,1,4,$2,$3,$4,$5,$6,$7,$8,$9,$2,$3,0*
0 Add four circle primitives for the rounded corners*
1,1,$1+$1,$2,$3*
1,1,$1+$1,$4,$5*
1,1,$1+$1,$6,$7*
1,1,$1+$1,$8,$9*
0 Add four rect primitives between the rounded corners*
20,1,$1+$1,$2,$3,$4,$5,0*
20,1,$1+$1,$4,$5,$6,$7,0*
20,1,$1+$1,$6,$7,$8,$9,0*
20,1,$1+$1,$8,$9,$2,$3,0*%
G04 Aperture macros list end*
%TA.AperFunction,ComponentPad*%
%ADD10RoundRect,0.250000X-0.620000X-0.845000X0.620000X-0.845000X0.620000X0.845000X-0.620000X0.845000X0*%
%TD*%
%TA.AperFunction,ComponentPad*%
%ADD11O,1.740000X2.190000*%
%TD*%
%TA.AperFunction,ComponentPad*%
%ADD12RoundRect,0.250000X0.620000X0.845000X-0.620000X0.845000X-0.620000X-0.845000X0.620000X-0.845000X0*%
%TD*%
%TA.AperFunction,ComponentPad*%
%ADD13C,1.700000*%
%TD*%
%TA.AperFunction,ComponentPad*%
%ADD14RoundRect,0.250000X-0.600000X-0.600000X0.600000X-0.600000X0.600000X0.600000X-0.600000X0.600000X0*%
%TD*%
%TA.AperFunction,ComponentPad*%
%ADD15C,0.650000*%
%TD*%
%TA.AperFunction,ComponentPad*%
%ADD16O,1.700000X0.900000*%
%TD*%
%TA.AperFunction,ComponentPad*%
%ADD17O,2.400000X0.900000*%
%TD*%
%TA.AperFunction,ComponentPad*%
%ADD18RoundRect,0.250000X0.600000X0.600000X-0.600000X0.600000X-0.600000X-0.600000X0.600000X-0.600000X0*%
%TD*%
%TA.AperFunction,ComponentPad*%
%ADD19R,2.200000X2.200000*%
%TD*%
%TA.AperFunction,ComponentPad*%
%ADD20O,2.200000X2.200000*%
%TD*%
%TA.AperFunction,ComponentPad*%
%ADD21C,1.500000*%
%TD*%
%TA.AperFunction,ComponentPad*%
%ADD22R,1.800000X1.800000*%
%TD*%
%TA.AperFunction,ComponentPad*%
%ADD23C,1.800000*%
%TD*%
%TA.AperFunction,ComponentPad*%
%ADD24O,1.700000X1.700000*%
%TD*%
%TA.AperFunction,ComponentPad*%
%ADD25R,1.700000X1.700000*%
%TD*%
%TA.AperFunction,ComponentPad*%
%ADD26C,2.000000*%
%TD*%
%TA.AperFunction,ViaPad*%
%ADD27C,0.800000*%
%TD*%
%TA.AperFunction,Conductor*%
%ADD28C,0.254000*%
%TD*%
G04 APERTURE END LIST*
D10*
%TO.P,J13,1,Pin_1*%
%TO.N,+3.3V*%
X113175000Y-62250000D03*
D11*
%TO.P,J13,2,Pin_2*%
%TO.N,GND*%
X115715000Y-62250000D03*
%TD*%
D10*
%TO.P,J12,1,Pin_1*%
%TO.N,+3.3V*%
X106045000Y-62250000D03*
D11*
%TO.P,J12,2,Pin_2*%
%TO.N,GND*%
X108585000Y-62250000D03*
%TD*%
D10*
%TO.P,J11,1,Pin_1*%
%TO.N,+3.3V*%
X98915000Y-62250000D03*
D11*
%TO.P,J11,2,Pin_2*%
%TO.N,GND*%
X101455000Y-62250000D03*
%TD*%
D12*
%TO.P,J6,1,Pin_1*%
%TO.N,/CoilB+*%
X142875000Y-130790000D03*
D11*
%TO.P,J6,2,Pin_2*%
%TO.N,GND*%
X140335000Y-130790000D03*
%TD*%
D13*
%TO.P,J1,6,GND*%
%TO.N,GND*%
X98425000Y-92075000D03*
%TO.P,J1,5,~{RST}*%
%TO.N,/RST*%
X95885000Y-92075000D03*
%TO.P,J1,4,MOSI*%
%TO.N,/MOSI*%
X98425000Y-89535000D03*
%TO.P,J1,3,SCK*%
%TO.N,/SCK*%
X95885000Y-89535000D03*
%TO.P,J1,2,VCC*%
%TO.N,Net-(D1-A)*%
X98425000Y-86995000D03*
D14*
%TO.P,J1,1,MISO*%
%TO.N,/MISO*%
X95885000Y-86995000D03*
%TD*%
D15*
%TO.P,J2,A1,GND*%
%TO.N,GND*%
X206460000Y-67745000D03*
%TO.P,J2,A4,VBUS*%
%TO.N,Net-(J2-VBUS)*%
X206460000Y-66895000D03*
%TO.P,J2,A5,CC1*%
%TO.N,Net-(J2-CC1)*%
X206460000Y-66045000D03*
%TO.P,J2,A6,DP1*%
%TO.N,Net-(J2-DP1)*%
X206460000Y-65195000D03*
%TO.P,J2,A7,DN1*%
%TO.N,Net-(J2-DN1)*%
X206460000Y-64345000D03*
%TO.P,J2,A8,SBU1*%
%TO.N,unconnected-(J2-SBU1-PadA8)*%
X206460000Y-63495000D03*
%TO.P,J2,A9,VBUS__1*%
%TO.N,Net-(J2-VBUS)*%
X206460000Y-62645000D03*
%TO.P,J2,A12,GND__1*%
%TO.N,GND*%
X206460000Y-61795000D03*
%TO.P,J2,B1,GND__2*%
X207810000Y-61795000D03*
%TO.P,J2,B4,VBUS__2*%
%TO.N,Net-(J2-VBUS)*%
X207810000Y-62645000D03*
%TO.P,J2,B5,CC2*%
%TO.N,Net-(J2-CC2)*%
X207810000Y-63495000D03*
%TO.P,J2,B6,DP2*%
%TO.N,Net-(J2-DP1)*%
X207810000Y-64345000D03*
%TO.P,J2,B7,DN2*%
%TO.N,Net-(J2-DN1)*%
X207810000Y-65195000D03*
%TO.P,J2,B8,SBU2*%
%TO.N,unconnected-(J2-SBU2-PadB8)*%
X207810000Y-66045000D03*
%TO.P,J2,B9,VBUS__3*%
%TO.N,Net-(J2-VBUS)*%
X207810000Y-66895000D03*
%TO.P,J2,B12,GND__3*%
%TO.N,GND*%
X207810000Y-67745000D03*
D16*
%TO.P,J2,S1,SHELL*%
X210820000Y-69095000D03*
%TO.P,J2,S2,SHELL__1*%
X210820000Y-60445000D03*
D17*
%TO.P,J2,S3,SHELL__2*%
X207440000Y-69095000D03*
%TO.P,J2,S4,SHELL__3*%
X207440000Y-60445000D03*
%TD*%
D18*
%TO.P,J3,1,Pin_1*%
%TO.N,+5V*%
X205857500Y-101605000D03*
D13*
%TO.P,J3,2,Pin_2*%
%TO.N,/HE_SCK*%
X203317500Y-101605000D03*
%TO.P,J3,3,Pin_3*%
%TO.N,Net-(J3-Pin_3)*%
X205857500Y-99065000D03*
%TO.P,J3,4,Pin_4*%
%TO.N,GND*%
X203317500Y-99065000D03*
%TO.P,J3,5,Pin_5*%
%TO.N,Net-(J3-Pin_5)*%
X205857500Y-96525000D03*
%TO.P,J3,6,Pin_6*%
%TO.N,/HE_MISO*%
X203317500Y-96525000D03*
%TD*%
D11*
%TO.P,J7,2,Pin_2*%
%TO.N,GND*%
X176530000Y-131425000D03*
D12*
%TO.P,J7,1,Pin_1*%
%TO.N,/EXT+*%
X179070000Y-131425000D03*
%TD*%
D19*
%TO.P,D11,1,K*%
%TO.N,/CoilB_ADC*%
X154305000Y-97790000D03*
D20*
%TO.P,D11,2,A*%
%TO.N,GND*%
X146685000Y-97790000D03*
%TD*%
D19*
%TO.P,D12,1,K*%
%TO.N,+3.3V*%
X145415000Y-105410000D03*
D20*
%TO.P,D12,2,A*%
%TO.N,/CoilB_ADC*%
X153035000Y-105410000D03*
%TD*%
D21*
%TO.P,Y1,1,1*%
%TO.N,Net-(U1-XTAL2{slash}PB7)*%
X145960000Y-61595000D03*
%TO.P,Y1,2,2*%
%TO.N,Net-(U1-XTAL1{slash}PB6)*%
X141080000Y-61595000D03*
%TD*%
D22*
%TO.P,D3,1,K*%
%TO.N,/TXLED*%
X187320000Y-132080000D03*
D23*
%TO.P,D3,2,A*%
%TO.N,Net-(D3-A)*%
X189860000Y-132080000D03*
%TD*%
D22*
%TO.P,D5,1,K*%
%TO.N,GND*%
X203830000Y-132080000D03*
D23*
%TO.P,D5,2,A*%
%TO.N,Net-(D5-A)*%
X206370000Y-132080000D03*
%TD*%
D19*
%TO.P,D13,1,K*%
%TO.N,+3.3V*%
X191135000Y-114300000D03*
D20*
%TO.P,D13,2,A*%
%TO.N,/EXT_ADC*%
X183515000Y-114300000D03*
%TD*%
D24*
%TO.P,J4,5,Pin_5*%
%TO.N,/OUTE*%
X93980000Y-68575000D03*
%TO.P,J4,4,Pin_4*%
%TO.N,/OUTD*%
X93980000Y-71115000D03*
%TO.P,J4,3,Pin_3*%
%TO.N,/OUTC*%
X93980000Y-73655000D03*
%TO.P,J4,2,Pin_2*%
%TO.N,/OUTB*%
X93980000Y-76195000D03*
D25*
%TO.P,J4,1,Pin_1*%
%TO.N,/OUTA*%
X93980000Y-78735000D03*
%TD*%
D11*
%TO.P,J10,2,Pin_2*%
%TO.N,GND*%
X167640000Y-131425000D03*
D12*
%TO.P,J10,1,Pin_1*%
%TO.N,+5V*%
X170180000Y-131425000D03*
%TD*%
D10*
%TO.P,J9,1,Pin_1*%
%TO.N,+3.3V*%
X120650000Y-62250000D03*
D11*
%TO.P,J9,2,Pin_2*%
%TO.N,GND*%
X123190000Y-62250000D03*
%TD*%
D12*
%TO.P,J8,1,Pin_1*%
%TO.N,-5V*%
X161925000Y-131445000D03*
D11*
%TO.P,J8,2,Pin_2*%
%TO.N,GND*%
X159385000Y-131445000D03*
%TD*%
D19*
%TO.P,D10,1,K*%
%TO.N,/CoilA_ADC*%
X136525000Y-87630000D03*
D20*
%TO.P,D10,2,A*%
%TO.N,GND*%
X144145000Y-87630000D03*
%TD*%
D22*
%TO.P,D4,1,K*%
%TO.N,/RXLED*%
X195575000Y-132080000D03*
D23*
%TO.P,D4,2,A*%
%TO.N,Net-(D4-A)*%
X198115000Y-132080000D03*
%TD*%
D19*
%TO.P,D9,1,K*%
%TO.N,+3.3V*%
X140970000Y-97790000D03*
D20*
%TO.P,D9,2,A*%
%TO.N,/CoilA_ADC*%
X133350000Y-97790000D03*
%TD*%
D11*
%TO.P,J5,2,Pin_2*%
%TO.N,/CoilA-*%
X130810000Y-130790000D03*
D12*
%TO.P,J5,1,Pin_1*%
%TO.N,/CoilA+*%
X133350000Y-130790000D03*
%TD*%
D19*
%TO.P,D14,1,K*%
%TO.N,/EXT_ADC*%
X179070000Y-114300000D03*
D20*
%TO.P,D14,2,A*%
%TO.N,GND*%
X171450000Y-114300000D03*
%TD*%
D26*
%TO.P,F1,1*%
%TO.N,Net-(J2-VBUS)*%
X205090000Y-80010000D03*
%TO.P,F1,2*%
%TO.N,+5V*%
X193690000Y-80010000D03*
%TD*%
D27*
%TO.N,GND*%
X140335000Y-92075000D03*
X129540000Y-83185000D03*
X147955000Y-86995000D03*
X154305000Y-73025000D03*
X160655000Y-114935000D03*
X156210000Y-103505000D03*
X120650000Y-94615000D03*
X128270000Y-88265000D03*
X118110000Y-88265000D03*
X113030000Y-96520000D03*
X170180000Y-119380000D03*
X201930000Y-113030000D03*
X200660000Y-79375000D03*
X177800000Y-81915000D03*
X175260000Y-80645000D03*
X186690000Y-69215000D03*
X184785000Y-66675000D03*
X175895000Y-66675000D03*
X167005000Y-78740000D03*
X151130000Y-81915000D03*
%TO.N,+3.3V*%
X137795000Y-80645000D03*
X147863000Y-80645000D03*
X145415000Y-109220000D03*
X168336567Y-93253000D03*
%TO.N,/H_SLEEP*%
X123620936Y-117922000D03*
X132623000Y-109128000D03*
X154079500Y-91726366D03*
X124981943Y-116468000D03*
X156206994Y-87538000D03*
X155670383Y-84660751D03*
%TO.N,+3.3V*%
X136525000Y-103505000D03*
X127635000Y-102870000D03*
%TO.N,/ACS70331_Vout*%
X163830000Y-74387000D03*
X151130000Y-71755000D03*
X131080880Y-86953010D03*
X147320000Y-73025000D03*
X131196000Y-91532000D03*
X110490000Y-111760000D03*
%TO.N,/CoilA_ADC*%
X147863000Y-81823000D03*
X139700000Y-86995000D03*
X151857000Y-80645000D03*
X156845000Y-77470000D03*
%TO.N,/OUTD*%
X156210000Y-74295000D03*
X129540000Y-74295000D03*
%TO.N,/OUTE*%
X104140000Y-69215000D03*
X134181567Y-76003433D03*
X149952000Y-77470000D03*
X152476843Y-77283000D03*
%TO.N,Net-(U1-XTAL2{slash}PB7)*%
X151765000Y-83728000D03*
X149225000Y-67945000D03*
%TO.N,/H_FAULT*%
X132080000Y-82550000D03*
X132080000Y-86995000D03*
%TO.N,/PWMA*%
X114300000Y-118110000D03*
X129540000Y-113030000D03*
X131445000Y-108585000D03*
X134077000Y-104140000D03*
X147955000Y-88716000D03*
X156753000Y-82550000D03*
%TO.N,/OUTC*%
X153035000Y-84455000D03*
X151130000Y-86995000D03*
%TO.N,/OUTB*%
X114935000Y-84455000D03*
X116840000Y-86114000D03*
%TO.N,/PWMB*%
X158207000Y-87538000D03*
X158207000Y-82550000D03*
%TO.N,/MOSI*%
X161260000Y-86360000D03*
X113030000Y-89443000D03*
X104775000Y-88992000D03*
X107950000Y-87722000D03*
%TO.N,/MISO*%
X108585000Y-90078000D03*
X161728433Y-87433433D03*
%TO.N,/CoilB_ADC*%
X160655000Y-77470000D03*
X152400000Y-88265000D03*
%TO.N,+5V*%
X178435000Y-83185000D03*
X179705000Y-93980000D03*
%TO.N,/PWMB*%
X158207000Y-91532000D03*
X130175000Y-109855000D03*
X128270000Y-112395000D03*
X120650000Y-118653000D03*
%TO.N,+3.3V*%
X122555000Y-104775000D03*
X115570000Y-104775000D03*
%TO.N,/SCL*%
X158207000Y-81280000D03*
X159200353Y-87422871D03*
%TO.N,/SDA*%
X156845000Y-78740000D03*
X157206997Y-87538000D03*
X157480000Y-93345000D03*
X161925000Y-92710000D03*
%TO.N,/HE_SCK*%
X196215000Y-92710000D03*
X176530000Y-71755000D03*
%TO.N,Net-(J3-Pin_3)*%
X190572109Y-84382891D03*
X175967109Y-74203000D03*
%TO.N,/HE_MISO*%
X175260000Y-74930000D03*
X189865000Y-85090000D03*
%TO.N,Net-(J3-Pin_5)*%
X194945000Y-87630000D03*
X174717000Y-77470000D03*
%TO.N,/RX*%
X157114997Y-73660000D03*
X162560000Y-69215000D03*
%TO.N,/TX*%
X163830000Y-60325000D03*
X162560000Y-63500000D03*
X161290000Y-71755000D03*
X158115000Y-73660000D03*
%TO.N,/EXT_ADC*%
X161290000Y-73660000D03*
X173990000Y-97790000D03*
%TO.N,+3.3V*%
X168275000Y-84455000D03*
X161290000Y-81915000D03*
%TO.N,/TXLED*%
X184150000Y-62865000D03*
X197669000Y-105410000D03*
%TO.N,/RXLED*%
X186055000Y-63500000D03*
X195580000Y-125095000D03*
%TO.N,Net-(U1-XTAL1{slash}PB6)*%
X149225000Y-83728000D03*
X147320000Y-76200000D03*
%TO.N,/SCK*%
X163830000Y-86360000D03*
X109855000Y-90805000D03*
%TO.N,/RST*%
X102870000Y-93980000D03*
X138430000Y-78740000D03*
%TO.N,+5V*%
X191135000Y-66040000D03*
X193675000Y-71120000D03*
X192405000Y-67945000D03*
X190500000Y-98425000D03*
X196215000Y-101600000D03*
X117475000Y-111125000D03*
X144145000Y-114935000D03*
%TO.N,-5V*%
X162560000Y-126365000D03*
X156210000Y-109220000D03*
X190500000Y-104140000D03*
%TO.N,Net-(U6-VOUT)*%
X158115000Y-103505000D03*
X160655000Y-104775000D03*
%TO.N,/CoilA-*%
X124460000Y-114935000D03*
X114300000Y-115570000D03*
%TD*%
D28*
%TO.N,/CoilA_ADC*%
X153035000Y-80645000D02*
X155575000Y-78105000D01*
X155575000Y-78105000D02*
X156210000Y-78105000D01*
X151857000Y-80645000D02*
X153035000Y-80645000D01*
X156210000Y-78105000D02*
X156845000Y-77470000D01*
%TO.N,Net-(U1-XTAL2{slash}PB7)*%
X150403000Y-83728000D02*
X149133000Y-82458000D01*
X149133000Y-68037000D02*
X149225000Y-67945000D01*
X151765000Y-83728000D02*
X150403000Y-83728000D01*
X149133000Y-82458000D02*
X149133000Y-68037000D01*
%TO.N,+3.3V*%
X146685000Y-80645000D02*
X137795000Y-80645000D01*
X147863000Y-80645000D02*
X146685000Y-80645000D01*
%TO.N,/OUTC*%
X153035000Y-84455000D02*
X151130000Y-86360000D01*
X151130000Y-86360000D02*
X151130000Y-86995000D01*
%TO.N,+3.3V*%
X146685000Y-109220000D02*
X145415000Y-109220000D01*
X168336567Y-93253000D02*
X162652000Y-93253000D01*
X162652000Y-93253000D02*
X146685000Y-109220000D01*
%TO.N,/H_SLEEP*%
X124981943Y-116560993D02*
X123620936Y-117922000D01*
X124981943Y-116468000D02*
X124981943Y-116560993D01*
X132807000Y-109128000D02*
X132623000Y-109128000D01*
X150208634Y-91726366D02*
X132807000Y-109128000D01*
X154079500Y-91726366D02*
X150208634Y-91726366D01*
X155670383Y-87001389D02*
X156206994Y-87538000D01*
X155670383Y-84660751D02*
X155670383Y-87001389D01*
%TO.N,+3.3V*%
X135890000Y-102870000D02*
X136525000Y-103505000D01*
X127635000Y-102870000D02*
X135890000Y-102870000D01*
%TO.N,/ACS70331_Vout*%
X154397000Y-75022000D02*
X163195000Y-75022000D01*
X151130000Y-71755000D02*
X154397000Y-75022000D01*
X140516000Y-79829000D02*
X147320000Y-73025000D01*
X133772866Y-79829000D02*
X140516000Y-79829000D01*
X131080880Y-82520986D02*
X133772866Y-79829000D01*
X131080880Y-86953010D02*
X131080880Y-82520986D01*
X110490000Y-108826866D02*
X127784866Y-91532000D01*
X110490000Y-111760000D02*
X110490000Y-108826866D01*
X127784866Y-91532000D02*
X131196000Y-91532000D01*
X163195000Y-75022000D02*
X163830000Y-74387000D01*
%TO.N,/CoilA_ADC*%
X142691000Y-86995000D02*
X139700000Y-86995000D01*
X147863000Y-81823000D02*
X142691000Y-86995000D01*
%TO.N,Net-(U1-XTAL1{slash}PB6)*%
X148590000Y-77470000D02*
X147320000Y-76200000D01*
X149225000Y-83728000D02*
X148590000Y-83093000D01*
X148590000Y-83093000D02*
X148590000Y-77470000D01*
%TO.N,/OUTD*%
X129540000Y-74295000D02*
X136617000Y-67218000D01*
X149672994Y-67218000D02*
X156210000Y-73755006D01*
X136617000Y-67218000D02*
X149672994Y-67218000D01*
X156210000Y-73755006D02*
X156210000Y-74295000D01*
%TO.N,/OUTE*%
X110928433Y-76003433D02*
X104140000Y-69215000D01*
X134181567Y-76003433D02*
X110928433Y-76003433D01*
X150139000Y-77283000D02*
X149952000Y-77470000D01*
X152476843Y-77283000D02*
X150139000Y-77283000D01*
%TO.N,/H_FAULT*%
X132080000Y-86995000D02*
X132080000Y-82550000D01*
%TO.N,/PWMA*%
X115570000Y-119380000D02*
X114300000Y-118110000D01*
X123190000Y-119380000D02*
X115570000Y-119380000D01*
X134077000Y-105953000D02*
X131445000Y-108585000D01*
X129540000Y-113030000D02*
X123190000Y-119380000D01*
X134077000Y-104140000D02*
X134077000Y-105953000D01*
X150587000Y-88716000D02*
X147955000Y-88716000D01*
X156753000Y-82550000D02*
X150587000Y-88716000D01*
%TO.N,/SCL*%
X158750000Y-81280000D02*
X158207000Y-81280000D01*
X159563000Y-82093000D02*
X158750000Y-81280000D01*
X159563000Y-87060224D02*
X159563000Y-82093000D01*
X159200353Y-87422871D02*
X159563000Y-87060224D01*
%TO.N,/SDA*%
X157480000Y-87264997D02*
X157480000Y-79375000D01*
X157206997Y-87538000D02*
X157480000Y-87264997D01*
X157480000Y-79375000D02*
X156845000Y-78740000D01*
%TO.N,/OUTB*%
X116594000Y-86114000D02*
X114935000Y-84455000D01*
X116840000Y-86114000D02*
X116594000Y-86114000D01*
%TO.N,/PWMB*%
X158207000Y-82550000D02*
X158207000Y-87538000D01*
%TO.N,/MOSI*%
X160744000Y-86876000D02*
X161260000Y-86360000D01*
X160744000Y-87548052D02*
X160744000Y-86876000D01*
X158849052Y-89443000D02*
X160744000Y-87548052D01*
X146142000Y-89443000D02*
X158849052Y-89443000D01*
%TO.N,/CoilB_ADC*%
X160563000Y-86026134D02*
X160563000Y-77562000D01*
X160290000Y-86299134D02*
X160563000Y-86026134D01*
X160563000Y-77562000D02*
X160655000Y-77470000D01*
X160290000Y-87360000D02*
X160290000Y-86299134D01*
X152400000Y-88265000D02*
X159385000Y-88265000D01*
X159385000Y-88265000D02*
X160290000Y-87360000D01*
%TO.N,/MOSI*%
X113030000Y-89443000D02*
X146142000Y-89443000D01*
X106045000Y-87722000D02*
X107950000Y-87722000D01*
X104775000Y-88992000D02*
X106045000Y-87722000D01*
%TO.N,/MISO*%
X110220003Y-90170000D02*
X110128003Y-90078000D01*
X159150186Y-90170000D02*
X110220003Y-90170000D01*
X161728433Y-87591753D02*
X159150186Y-90170000D01*
X110128003Y-90078000D02*
X108585000Y-90078000D01*
X161728433Y-87433433D02*
X161728433Y-87591753D01*
%TO.N,+5V*%
X178435000Y-83185000D02*
X178435000Y-90170000D01*
X182245000Y-93980000D02*
X186055000Y-93980000D01*
X179705000Y-93980000D02*
X182245000Y-93980000D01*
X178435000Y-90170000D02*
X182245000Y-93980000D01*
X186055000Y-93980000D02*
X190500000Y-98425000D01*
%TO.N,/PWMB*%
X155302000Y-91532000D02*
X158207000Y-91532000D01*
X136979000Y-109855000D02*
X155302000Y-91532000D01*
X130175000Y-109855000D02*
X136979000Y-109855000D01*
X128028134Y-112395000D02*
X128270000Y-112395000D01*
X121770134Y-118653000D02*
X128028134Y-112395000D01*
X120650000Y-118653000D02*
X121770134Y-118653000D01*
%TO.N,+3.3V*%
X115570000Y-104775000D02*
X122555000Y-104775000D01*
%TO.N,/SDA*%
X158115000Y-92710000D02*
X157480000Y-93345000D01*
X161925000Y-92710000D02*
X158115000Y-92710000D01*
%TO.N,/HE_SCK*%
X176530000Y-71755000D02*
X180098134Y-71755000D01*
X196215000Y-87871866D02*
X196215000Y-92710000D01*
X180098134Y-71755000D02*
X196215000Y-87871866D01*
%TO.N,Net-(J3-Pin_3)*%
X180392218Y-74203000D02*
X175967109Y-74203000D01*
X190572109Y-84382891D02*
X180392218Y-74203000D01*
%TO.N,/HE_MISO*%
X189865000Y-85090000D02*
X179705000Y-74930000D01*
X179705000Y-74930000D02*
X175260000Y-74930000D01*
%TO.N,Net-(J3-Pin_5)*%
X184877000Y-87630000D02*
X194945000Y-87630000D01*
X174717000Y-77470000D02*
X184877000Y-87630000D01*
%TO.N,/RX*%
X157114997Y-73390003D02*
X157114997Y-73660000D01*
X161290000Y-69215000D02*
X157114997Y-73390003D01*
X162560000Y-69215000D02*
X161290000Y-69215000D01*
%TO.N,/TX*%
X162560000Y-61595000D02*
X163830000Y-60325000D01*
X162560000Y-63500000D02*
X162560000Y-61595000D01*
X158115000Y-73660000D02*
X159385000Y-73660000D01*
X159385000Y-73660000D02*
X161290000Y-71755000D01*
%TO.N,/EXT_ADC*%
X172720000Y-73660000D02*
X161290000Y-73660000D01*
X173990000Y-74930000D02*
X172720000Y-73660000D01*
X173990000Y-97790000D02*
X173990000Y-74930000D01*
%TO.N,+3.3V*%
X163830000Y-84455000D02*
X161290000Y-81915000D01*
X168275000Y-84455000D02*
X163830000Y-84455000D01*
%TO.N,/TXLED*%
X184785000Y-62230000D02*
X184150000Y-62865000D01*
X188353134Y-62230000D02*
X184785000Y-62230000D01*
X197669000Y-105410000D02*
X197669000Y-71545866D01*
X197669000Y-71545866D02*
X188353134Y-62230000D01*
%TO.N,/RXLED*%
X186055000Y-64528134D02*
X186055000Y-63500000D01*
X196942000Y-123733000D02*
X196942000Y-75415134D01*
X195580000Y-125095000D02*
X196942000Y-123733000D01*
X196942000Y-75415134D02*
X186055000Y-64528134D01*
%TO.N,/SCK*%
X159385000Y-90805000D02*
X163830000Y-86360000D01*
X109855000Y-90805000D02*
X159385000Y-90805000D01*
%TO.N,/RST*%
X138430000Y-78740000D02*
X137795000Y-79375000D01*
X137795000Y-79375000D02*
X117475000Y-79375000D01*
X117475000Y-79375000D02*
X102870000Y-93980000D01*
%TO.N,+5V*%
X191135000Y-66675000D02*
X192405000Y-67945000D01*
X191135000Y-66040000D02*
X191135000Y-66675000D01*
X192405000Y-69850000D02*
X192405000Y-67945000D01*
X193675000Y-71120000D02*
X192405000Y-69850000D01*
%TO.N,Net-(J2-DN1)*%
X206887932Y-64345000D02*
X206460000Y-64345000D01*
X207737932Y-65195000D02*
X206887932Y-64345000D01*
X207810000Y-65195000D02*
X207737932Y-65195000D01*
%TO.N,Net-(J2-VBUS)*%
X207810000Y-62645000D02*
X206460000Y-62645000D01*
X208269619Y-62645000D02*
X207810000Y-62645000D01*
X208462000Y-66702619D02*
X208462000Y-62837381D01*
X208462000Y-62837381D02*
X208269619Y-62645000D01*
X208269619Y-66895000D02*
X208462000Y-66702619D01*
X207810000Y-66895000D02*
X208269619Y-66895000D01*
%TO.N,+5V*%
X193675000Y-101600000D02*
X190500000Y-98425000D01*
X196215000Y-101600000D02*
X193675000Y-101600000D01*
X140335000Y-111125000D02*
X117475000Y-111125000D01*
X144145000Y-114935000D02*
X140335000Y-111125000D01*
%TO.N,-5V*%
X165735000Y-123190000D02*
X165735000Y-109220000D01*
X162560000Y-126365000D02*
X165735000Y-123190000D01*
X156210000Y-109220000D02*
X165735000Y-109220000D01*
X165735000Y-109220000D02*
X185420000Y-109220000D01*
X185420000Y-109220000D02*
X190500000Y-104140000D01*
%TO.N,Net-(U6-VOUT)*%
X159385000Y-104775000D02*
X158115000Y-103505000D01*
X160655000Y-104775000D02*
X159385000Y-104775000D01*
%TO.N,/CoilA-*%
X123825000Y-115570000D02*
X124460000Y-114935000D01*
X114300000Y-115570000D02*
X123825000Y-115570000D01*
%TD*%
%TA.AperFunction,Conductor*%
%TO.N,GND*%
G36*
X132479624Y-80022185D02*
G01*
X132525379Y-80074989D01*
X132535323Y-80144147D01*
X132506298Y-80207703D01*
X132500266Y-80214181D01*
X130680872Y-82033575D01*
X130641628Y-82072819D01*
X130593466Y-82120980D01*
X130593465Y-82120982D01*
X130524113Y-82224775D01*
X130522466Y-82229379D01*
X130477494Y-82337950D01*
X130477492Y-82337958D01*
X130455760Y-82447211D01*
X130455761Y-82447212D01*
X130453380Y-82459185D01*
X130453380Y-86256544D01*
X130433695Y-86323583D01*
X130421530Y-86339516D01*
X130348346Y-86420795D01*
X130253701Y-86584725D01*
X130253698Y-86584732D01*
X130196572Y-86760550D01*
X130195206Y-86764754D01*
X130175420Y-86953010D01*
X130195206Y-87141266D01*
X130195207Y-87141269D01*
X130253698Y-87321287D01*
X130253701Y-87321294D01*
X130348347Y-87485226D01*
X130450237Y-87598386D01*
X130475009Y-87625898D01*
X130628145Y-87737158D01*
X130628150Y-87737161D01*
X130801072Y-87814152D01*
X130801077Y-87814154D01*
X130986234Y-87853510D01*
X130986235Y-87853510D01*
X131175524Y-87853510D01*
X131175526Y-87853510D01*
X131360683Y-87814154D01*
X131490447Y-87756378D01*
X131559694Y-87747093D01*
X131613768Y-87769341D01*
X131627269Y-87779150D01*
X131627270Y-87779151D01*
X131800192Y-87856142D01*
X131800197Y-87856144D01*
X131985354Y-87895500D01*
X131985355Y-87895500D01*
X132174644Y-87895500D01*
X132174646Y-87895500D01*
X132359803Y-87856144D01*
X132532730Y-87779151D01*
X132685871Y-87667888D01*
X132812533Y-87527216D01*
X132907179Y-87363284D01*
X132965674Y-87183256D01*
X132985460Y-86995000D01*
X132965674Y-86806744D01*
X132907179Y-86626716D01*
X132812533Y-86462784D01*
X132739350Y-86381506D01*
X132709120Y-86318515D01*
X132707500Y-86298534D01*
X132707500Y-83246465D01*
X132727185Y-83179426D01*
X132739343Y-83163500D01*
X132812533Y-83082216D01*
X132907179Y-82918284D01*
X132965674Y-82738256D01*
X132985460Y-82550000D01*
X132965674Y-82361744D01*
X132907179Y-82181716D01*
X132812533Y-82017784D01*
X132734685Y-81931325D01*
X132729690Y-81925777D01*
X132699460Y-81862785D01*
X132708086Y-81793450D01*
X132734156Y-81755127D01*
X133996466Y-80492819D01*
X134057789Y-80459334D01*
X134084147Y-80456500D01*
X136771636Y-80456500D01*
X136838675Y-80476185D01*
X136884430Y-80528989D01*
X136894956Y-80593460D01*
X136889540Y-80645000D01*
X136909326Y-80833256D01*
X136909327Y-80833259D01*
X136967818Y-81013277D01*
X136967821Y-81013284D01*
X137062467Y-81177216D01*
X137165986Y-81292185D01*
X137189129Y-81317888D01*
X137342265Y-81429148D01*
X137342270Y-81429151D01*
X137515192Y-81506142D01*
X137515197Y-81506144D01*
X137700354Y-81545500D01*
X137700355Y-81545500D01*
X137889644Y-81545500D01*
X137889646Y-81545500D01*
X138074803Y-81506144D01*
X138247730Y-81429151D01*
X138400871Y-81317888D01*
X138404799Y-81313525D01*
X138464286Y-81276879D01*
X138496947Y-81272500D01*
X146623197Y-81272500D01*
X146926250Y-81272500D01*
X146993289Y-81292185D01*
X147039044Y-81344989D01*
X147048988Y-81414147D01*
X147037192Y-81448220D01*
X147038462Y-81448786D01*
X147035818Y-81454722D01*
X147005928Y-81546716D01*
X146977326Y-81634744D01*
X146961203Y-81788143D01*
X146960011Y-81799489D01*
X146933426Y-81864103D01*
X146924371Y-81874208D01*
X142467400Y-86331181D01*
X142406077Y-86364666D01*
X142379719Y-86367500D01*
X140401947Y-86367500D01*
X140334908Y-86347815D01*
X140309800Y-86326476D01*
X140305871Y-86322112D01*
X140305869Y-86322111D01*
X140305867Y-86322108D01*
X140305864Y-86322106D01*
X140152734Y-86210851D01*
X140152729Y-86210848D01*
X139979807Y-86133857D01*
X139979802Y-86133855D01*
X139834001Y-86102865D01*
X139794646Y-86094500D01*
X139605354Y-86094500D01*
X139572897Y-86101398D01*
X139420197Y-86133855D01*
X139420192Y-86133857D01*
X139247270Y-86210848D01*
X139247265Y-86210851D01*
X139094129Y-86322111D01*
X138967466Y-86462785D01*
X138872821Y-86626715D01*
X138872818Y-86626722D01*
X138814327Y-86806740D01*
X138814326Y-86806744D01*
X138794540Y-86995000D01*
X138814326Y-87183256D01*
X138814327Y-87183259D01*
X138872818Y-87363277D01*
X138872821Y-87363284D01*
X138967467Y-87527216D01*
X139073528Y-87645008D01*
X139094129Y-87667888D01*
X139247265Y-87779148D01*
X139247270Y-87779151D01*
X139420192Y-87856142D01*
X139420197Y-87856144D01*
X139605354Y-87895500D01*
X139605355Y-87895500D01*
X139794644Y-87895500D01*
X139794646Y-87895500D01*
X139979803Y-87856144D01*
X140152730Y-87779151D01*
X140305871Y-87667888D01*
X140309799Y-87663525D01*
X140369286Y-87626879D01*
X140401947Y-87622500D01*
X142424838Y-87622500D01*
X142491877Y-87642185D01*
X142537632Y-87694989D01*
X142548456Y-87736771D01*
X142559812Y-87881072D01*
X142618603Y-88125956D01*
X142714980Y-88358631D01*
X142846568Y-88573362D01*
X142846570Y-88573366D01*
X142878686Y-88610969D01*
X142907256Y-88674730D01*
X142896818Y-88743816D01*
X142850687Y-88796292D01*
X142784395Y-88815500D01*
X138249500Y-88815500D01*
X138182461Y-88795815D01*
X138136706Y-88743011D01*
X138125500Y-88691500D01*
X138125499Y-86482129D01*
X138125498Y-86482123D01*
X138125497Y-86482116D01*
X138119091Y-86422517D01*
X138118448Y-86420794D01*
X138068797Y-86287671D01*
X138068793Y-86287664D01*
X137982547Y-86172455D01*
X137982544Y-86172452D01*
X137867335Y-86086206D01*
X137867328Y-86086202D01*
X137732482Y-86035908D01*
X137732483Y-86035908D01*
X137672883Y-86029501D01*
X137672881Y-86029500D01*
X137672873Y-86029500D01*
X137672864Y-86029500D01*
X135377129Y-86029500D01*
X135377123Y-86029501D01*
X135317516Y-86035908D01*
X135182671Y-86086202D01*
X135182664Y-86086206D01*
X135067455Y-86172452D01*
X135067452Y-86172455D01*
X134981206Y-86287664D01*
X134981202Y-86287671D01*
X134930908Y-86422517D01*
X134924501Y-86482116D01*
X134924500Y-86482127D01*
X134924500Y-87626879D01*
X134924501Y-88691500D01*
X134904816Y-88758539D01*
X134852013Y-88804294D01*
X134800501Y-88815500D01*
X113731947Y-88815500D01*
X113664908Y-88795815D01*
X113639800Y-88774476D01*
X113635871Y-88770112D01*
X113635869Y-88770111D01*
X113635867Y-88770108D01*
X113635864Y-88770106D01*
X113482734Y-88658851D01*
X113482729Y-88658848D01*
X113309807Y-88581857D01*
X113309802Y-88581855D01*
X113164001Y-88550865D01*
X113124646Y-88542500D01*
X112935354Y-88542500D01*
X112902897Y-88549398D01*
X112750197Y-88581855D01*
X112750192Y-88581857D01*
X112577270Y-88658848D01*
X112577265Y-88658851D01*
X112424129Y-88770111D01*
X112297466Y-88910785D01*
X112202821Y-89074715D01*
X112202818Y-89074722D01*
X112156636Y-89216857D01*
X112144326Y-89254744D01*
X112133234Y-89360284D01*
X112125753Y-89431462D01*
X112099168Y-89496076D01*
X112041871Y-89536061D01*
X112002432Y-89542500D01*
X110493656Y-89542500D01*
X110430980Y-89524096D01*
X110430610Y-89524790D01*
X110427277Y-89523009D01*
X110426617Y-89522815D01*
X110425297Y-89521950D01*
X110425240Y-89521920D01*
X110425236Y-89521917D01*
X110372688Y-89500151D01*
X110362850Y-89496076D01*
X110311038Y-89474614D01*
X110311030Y-89474612D01*
X110189810Y-89450500D01*
X110189806Y-89450500D01*
X109286947Y-89450500D01*
X109219908Y-89430815D01*
X109194800Y-89409476D01*
X109190871Y-89405112D01*
X109190869Y-89405111D01*
X109190867Y-89405108D01*
X109190864Y-89405106D01*
X109037734Y-89293851D01*
X109037729Y-89293848D01*
X108864807Y-89216857D01*
X108864803Y-89216856D01*
X108804294Y-89203994D01*
X108742813Y-89170801D01*
X108709036Y-89109638D01*
X108713690Y-89039923D01*
X108742393Y-88995025D01*
X113282419Y-84455000D01*
X114029540Y-84455000D01*
X114049326Y-84643256D01*
X114049327Y-84643259D01*
X114107818Y-84823277D01*
X114107821Y-84823284D01*
X114202467Y-84987216D01*
X114304120Y-85100113D01*
X114329129Y-85127888D01*
X114482265Y-85239148D01*
X114482270Y-85239151D01*
X114655192Y-85316142D01*
X114655197Y-85316144D01*
X114840354Y-85355500D01*
X114896719Y-85355500D01*
X114963758Y-85375185D01*
X114984400Y-85391819D01*
X115961906Y-86369325D01*
X115992155Y-86418686D01*
X116012817Y-86482274D01*
X116012821Y-86482284D01*
X116107467Y-86646216D01*
X116221397Y-86772748D01*
X116234129Y-86786888D01*
X116387265Y-86898148D01*
X116387270Y-86898151D01*
X116560192Y-86975142D01*
X116560197Y-86975144D01*
X116745354Y-87014500D01*
X116745355Y-87014500D01*
X116934644Y-87014500D01*
X116934646Y-87014500D01*
X117119803Y-86975144D01*
X117292730Y-86898151D01*
X117445871Y-86786888D01*
X117572533Y-86646216D01*
X117667179Y-86482284D01*
X117725674Y-86302256D01*
X117745460Y-86114000D01*
X117725674Y-85925744D01*
X117667179Y-85745716D01*
X117572533Y-85581784D01*
X117445871Y-85441112D01*
X117378025Y-85391819D01*
X117292734Y-85329851D01*
X117292729Y-85329848D01*
X117119807Y-85252857D01*
X117119802Y-85252855D01*
X116974001Y-85221865D01*
X116934646Y-85213500D01*
X116745354Y-85213500D01*
X116745350Y-85213500D01*
X116675598Y-85228326D01*
X116605930Y-85223010D01*
X116562136Y-85194717D01*
X115873628Y-84506209D01*
X115840143Y-84444886D01*
X115837990Y-84431506D01*
X115820674Y-84266744D01*
X115762179Y-84086716D01*
X115667533Y-83922784D01*
X115540871Y-83782112D01*
X115540870Y-83782111D01*
X115387734Y-83670851D01*
X115387729Y-83670848D01*
X115214807Y-83593857D01*
X115214802Y-83593855D01*
X115069001Y-83562865D01*
X115029646Y-83554500D01*
X114840354Y-83554500D01*
X114807897Y-83561398D01*
X114655197Y-83593855D01*
X114655192Y-83593857D01*
X114482270Y-83670848D01*
X114482265Y-83670851D01*
X114329129Y-83782111D01*
X114202466Y-83922785D01*
X114107821Y-84086715D01*
X114107818Y-84086722D01*
X114051447Y-84260216D01*
X114049326Y-84266744D01*
X114029540Y-84455000D01*
X113282419Y-84455000D01*
X117698600Y-80038819D01*
X117759923Y-80005334D01*
X117786281Y-80002500D01*
X132412585Y-80002500D01*
X132479624Y-80022185D01*
G37*
%TD.AperFunction*%
%TA.AperFunction,Conductor*%
G36*
X147881834Y-82794098D02*
G01*
X147937767Y-82835970D01*
X147962184Y-82901434D01*
X147962500Y-82910280D01*
X147962500Y-83154807D01*
X147986612Y-83276028D01*
X147986614Y-83276034D01*
X148008136Y-83327992D01*
X148008136Y-83327993D01*
X148033915Y-83390229D01*
X148033921Y-83390241D01*
X148061000Y-83430766D01*
X148061001Y-83430767D01*
X148073497Y-83449468D01*
X148102590Y-83493010D01*
X148102591Y-83493011D01*
X148286371Y-83676790D01*
X148319856Y-83738113D01*
X148322010Y-83751505D01*
X148339326Y-83916256D01*
X148339327Y-83916259D01*
X148397818Y-84096277D01*
X148397821Y-84096284D01*
X148492467Y-84260216D01*
X148595986Y-84375185D01*
X148619129Y-84400888D01*
X148772265Y-84512148D01*
X148772270Y-84512151D01*
X148945192Y-84589142D01*
X148945197Y-84589144D01*
X149130354Y-84628500D01*
X149130355Y-84628500D01*
X149319644Y-84628500D01*
X149319646Y-84628500D01*
X149504803Y-84589144D01*
X149677730Y-84512151D01*
X149830871Y-84400888D01*
X149927989Y-84293027D01*
X149987473Y-84256380D01*
X150057330Y-84257710D01*
X150089028Y-84272899D01*
X150105760Y-84284079D01*
X150105773Y-84284086D01*
X150219960Y-84331383D01*
X150219965Y-84331385D01*
X150219969Y-84331385D01*
X150219970Y-84331386D01*
X150341194Y-84355500D01*
X150341197Y-84355500D01*
X151063053Y-84355500D01*
X151130092Y-84375185D01*
X151155199Y-84396523D01*
X151159129Y-84400888D01*
X151159132Y-84400891D01*
X151159135Y-84400893D01*
X151312265Y-84512148D01*
X151312270Y-84512151D01*
X151485192Y-84589142D01*
X151485197Y-84589144D01*
X151670354Y-84628500D01*
X151670355Y-84628500D01*
X151674718Y-84628500D01*
X151741757Y-84648185D01*
X151787512Y-84700989D01*
X151797456Y-84770147D01*
X151768431Y-84833703D01*
X151762399Y-84840181D01*
X151245365Y-85357216D01*
X150729992Y-85872589D01*
X150686289Y-85916292D01*
X150642586Y-85959994D01*
X150642585Y-85959996D01*
X150573233Y-86063789D01*
X150571586Y-86068393D01*
X150526614Y-86176964D01*
X150526612Y-86176972D01*
X150506094Y-86280118D01*
X150506095Y-86280119D01*
X150502500Y-86298193D01*
X150502500Y-86298534D01*
X150502450Y-86298704D01*
X150501903Y-86304259D01*
X150500849Y-86304155D01*
X150482815Y-86365573D01*
X150470650Y-86381506D01*
X150397466Y-86462785D01*
X150302821Y-86626715D01*
X150302818Y-86626722D01*
X150244327Y-86806740D01*
X150244326Y-86806744D01*
X150224540Y-86995000D01*
X150244326Y-87183256D01*
X150244327Y-87183259D01*
X150302818Y-87363277D01*
X150302821Y-87363284D01*
X150397467Y-87527216D01*
X150503528Y-87645008D01*
X150524129Y-87667888D01*
X150536157Y-87676627D01*
X150578823Y-87731957D01*
X150584802Y-87801570D01*
X150552196Y-87863365D01*
X150550954Y-87864626D01*
X150363398Y-88052182D01*
X150302078Y-88085666D01*
X150275719Y-88088500D01*
X148656947Y-88088500D01*
X148589908Y-88068815D01*
X148564800Y-88047476D01*
X148560871Y-88043112D01*
X148560869Y-88043111D01*
X148560867Y-88043108D01*
X148560864Y-88043106D01*
X148407734Y-87931851D01*
X148407729Y-87931848D01*
X148234807Y-87854857D01*
X148234802Y-87854855D01*
X148077723Y-87821468D01*
X148049646Y-87815500D01*
X147860354Y-87815500D01*
X147832277Y-87821468D01*
X147675197Y-87854855D01*
X147675192Y-87854857D01*
X147502270Y-87931848D01*
X147502265Y-87931851D01*
X147349129Y-88043111D01*
X147222466Y-88183785D01*
X147127821Y-88347715D01*
X147127818Y-88347722D01*
X147069327Y-88527740D01*
X147069326Y-88527744D01*
X147053970Y-88673853D01*
X147050753Y-88704462D01*
X147024168Y-88769076D01*
X146966871Y-88809061D01*
X146927432Y-88815500D01*
X145505605Y-88815500D01*
X145438566Y-88795815D01*
X145392811Y-88743011D01*
X145382867Y-88673853D01*
X145411314Y-88610969D01*
X145443429Y-88573366D01*
X145443431Y-88573362D01*
X145575019Y-88358631D01*
X145671396Y-88125956D01*
X145730188Y-87881067D01*
X145730272Y-87880000D01*
X144635748Y-87880000D01*
X144657518Y-87842292D01*
X144695000Y-87702409D01*
X144695000Y-87557591D01*
X144657518Y-87417708D01*
X144635748Y-87380000D01*
X145730271Y-87380000D01*
X145730271Y-87379999D01*
X145730188Y-87378932D01*
X145671396Y-87134043D01*
X145575019Y-86901368D01*
X145443431Y-86686637D01*
X145443428Y-86686632D01*
X145279869Y-86495130D01*
X145088367Y-86331571D01*
X145088362Y-86331568D01*
X144873631Y-86199980D01*
X144691392Y-86124495D01*
X144636989Y-86080654D01*
X144614924Y-86014360D01*
X144632203Y-85946661D01*
X144651157Y-85922261D01*
X147750821Y-82822597D01*
X147812142Y-82789114D01*
X147881834Y-82794098D01*
G37*
%TD.AperFunction*%
%TA.AperFunction,Conductor*%
G36*
X204432425Y-99826373D02*
G01*
X204485619Y-99750405D01*
X204540196Y-99706781D01*
X204609695Y-99699588D01*
X204672049Y-99731110D01*
X204688769Y-99750405D01*
X204819005Y-99936401D01*
X204986099Y-100103495D01*
X204986104Y-100103499D01*
X204987468Y-100104643D01*
X204987907Y-100105303D01*
X204989927Y-100107323D01*
X204989521Y-100107728D01*
X205026169Y-100162815D01*
X205027276Y-100232676D01*
X204990437Y-100292046D01*
X204946767Y-100317336D01*
X204938169Y-100320184D01*
X204938163Y-100320187D01*
X204788842Y-100412289D01*
X204664789Y-100536342D01*
X204572687Y-100685663D01*
X204572683Y-100685673D01*
X204569835Y-100694268D01*
X204530060Y-100751711D01*
X204465544Y-100778531D01*
X204396768Y-100766214D01*
X204360017Y-100737233D01*
X204359824Y-100737427D01*
X204358182Y-100735785D01*
X204357142Y-100734965D01*
X204355994Y-100733597D01*
X204188902Y-100566506D01*
X204188901Y-100566505D01*
X204002905Y-100436269D01*
X203959281Y-100381692D01*
X203952088Y-100312193D01*
X203983610Y-100249839D01*
X204002905Y-100233119D01*
X204078873Y-100179925D01*
X203446909Y-99547962D01*
X203510493Y-99530925D01*
X203624507Y-99465099D01*
X203717599Y-99372007D01*
X203783425Y-99257993D01*
X203800462Y-99194410D01*
X204432425Y-99826373D01*
G37*
%TD.AperFunction*%
%TA.AperFunction,Conductor*%
G36*
X204672355Y-97191546D02*
G01*
X204689075Y-97210842D01*
X204819001Y-97396396D01*
X204819006Y-97396402D01*
X204986097Y-97563493D01*
X204986103Y-97563498D01*
X205171658Y-97693425D01*
X205215283Y-97748002D01*
X205222477Y-97817500D01*
X205190954Y-97879855D01*
X205171658Y-97896575D01*
X204986097Y-98026505D01*
X204819005Y-98193597D01*
X204688769Y-98379595D01*
X204634192Y-98423220D01*
X204564694Y-98430414D01*
X204502339Y-98398891D01*
X204485619Y-98379595D01*
X204432425Y-98303626D01*
X204432425Y-98303625D01*
X203800462Y-98935589D01*
X203783425Y-98872007D01*
X203717599Y-98757993D01*
X203624507Y-98664901D01*
X203510493Y-98599075D01*
X203446910Y-98582037D01*
X204078873Y-97950073D01*
X204078873Y-97950072D01*
X204002905Y-97896880D01*
X203959280Y-97842304D01*
X203952086Y-97772805D01*
X203983608Y-97710451D01*
X204002899Y-97693734D01*
X204188901Y-97563495D01*
X204355995Y-97396401D01*
X204485925Y-97210842D01*
X204540502Y-97167217D01*
X204610000Y-97160023D01*
X204672355Y-97191546D01*
G37*
%TD.AperFunction*%
%TA.AperFunction,Conductor*%
G36*
X97239855Y-90201546D02*
G01*
X97256575Y-90220842D01*
X97386500Y-90406395D01*
X97386505Y-90406401D01*
X97553599Y-90573495D01*
X97739158Y-90703425D01*
X97739594Y-90703730D01*
X97783218Y-90758307D01*
X97790411Y-90827806D01*
X97758889Y-90890160D01*
X97739593Y-90906880D01*
X97663626Y-90960072D01*
X97663625Y-90960072D01*
X98295590Y-91592037D01*
X98232007Y-91609075D01*
X98117993Y-91674901D01*
X98024901Y-91767993D01*
X97959075Y-91882007D01*
X97942037Y-91945590D01*
X97310073Y-91313626D01*
X97256881Y-91389594D01*
X97202304Y-91433219D01*
X97132806Y-91440413D01*
X97070451Y-91408891D01*
X97053730Y-91389594D01*
X96923494Y-91203597D01*
X96756402Y-91036506D01*
X96756396Y-91036501D01*
X96570842Y-90906575D01*
X96527217Y-90851998D01*
X96520023Y-90782500D01*
X96551546Y-90720145D01*
X96570842Y-90703425D01*
X96703958Y-90610216D01*
X96756401Y-90573495D01*
X96923495Y-90406401D01*
X97053425Y-90220842D01*
X97108002Y-90177217D01*
X97177500Y-90170023D01*
X97239855Y-90201546D01*
G37*
%TD.AperFunction*%
%TA.AperFunction,Conductor*%
G36*
X207613345Y-67697142D02*
G01*
X207610000Y-67705218D01*
X207610000Y-67784782D01*
X207640448Y-67858291D01*
X207696709Y-67914552D01*
X207770218Y-67945000D01*
X207849782Y-67945000D01*
X207923291Y-67914552D01*
X207979552Y-67858291D01*
X208002803Y-67802156D01*
X208011429Y-67862147D01*
X207982404Y-67925703D01*
X207976372Y-67932181D01*
X207690000Y-68218552D01*
X207690000Y-68795000D01*
X207190000Y-68795000D01*
X207190000Y-68352537D01*
X207107135Y-68269672D01*
X207073650Y-68208349D01*
X207078634Y-68138657D01*
X207107135Y-68094310D01*
X207475811Y-67725634D01*
X207537134Y-67692149D01*
X207589270Y-67692025D01*
X207613345Y-67697142D01*
G37*
%TD.AperFunction*%
%TA.AperFunction,Conductor*%
G36*
X207690000Y-61321447D02*
G01*
X207976372Y-61607819D01*
X208009857Y-61669142D01*
X208004873Y-61738834D01*
X208003804Y-61740261D01*
X207979552Y-61681709D01*
X207923291Y-61625448D01*
X207849782Y-61595000D01*
X207770218Y-61595000D01*
X207696709Y-61625448D01*
X207640448Y-61681709D01*
X207610000Y-61755218D01*
X207610000Y-61834782D01*
X207613344Y-61842857D01*
X207589273Y-61847974D01*
X207519606Y-61842658D01*
X207475812Y-61814365D01*
X207107135Y-61445688D01*
X207073650Y-61384365D01*
X207078634Y-61314673D01*
X207107135Y-61270325D01*
X207190000Y-61187460D01*
X207190000Y-60745000D01*
X207690000Y-60745000D01*
X207690000Y-61321447D01*
G37*
%TD.AperFunction*%
%TA.AperFunction,Conductor*%
G36*
X212668039Y-57169685D02*
G01*
X212713794Y-57222489D01*
X212725000Y-57274000D01*
X212725000Y-137671000D01*
X212705315Y-137738039D01*
X212652511Y-137783794D01*
X212601000Y-137795000D01*
X90929000Y-137795000D01*
X90861961Y-137775315D01*
X90816206Y-137722511D01*
X90805000Y-137671000D01*
X90805000Y-131122866D01*
X129439500Y-131122866D01*
X129473227Y-131335809D01*
X129473246Y-131335926D01*
X129539908Y-131541089D01*
X129637843Y-131733299D01*
X129764641Y-131907821D01*
X129917179Y-132060359D01*
X130091701Y-132187157D01*
X130283911Y-132285092D01*
X130489074Y-132351754D01*
X130556796Y-132362480D01*
X130702134Y-132385500D01*
X130702139Y-132385500D01*
X130917866Y-132385500D01*
X131036230Y-132366752D01*
X131130926Y-132351754D01*
X131336089Y-132285092D01*
X131528299Y-132187157D01*
X131702821Y-132060359D01*
X131844807Y-131918372D01*
X131906126Y-131884890D01*
X131975818Y-131889874D01*
X132031752Y-131931745D01*
X132044864Y-131953645D01*
X132045181Y-131954326D01*
X132045186Y-131954334D01*
X132137288Y-132103656D01*
X132261344Y-132227712D01*
X132410666Y-132319814D01*
X132577203Y-132374999D01*
X132679991Y-132385500D01*
X134020008Y-132385499D01*
X134122797Y-132374999D01*
X134289334Y-132319814D01*
X134438656Y-132227712D01*
X134562712Y-132103656D01*
X134654814Y-131954334D01*
X134709999Y-131787797D01*
X134720500Y-131685009D01*
X134720500Y-131122820D01*
X138965000Y-131122820D01*
X138998734Y-131335809D01*
X139065372Y-131540901D01*
X139163271Y-131733036D01*
X139290025Y-131907496D01*
X139290025Y-131907497D01*
X139442502Y-132059974D01*
X139616963Y-132186728D01*
X139809098Y-132284627D01*
X140014190Y-132351266D01*
X140085000Y-132362481D01*
X140085000Y-131332709D01*
X140105339Y-131344452D01*
X140256667Y-131385000D01*
X140413333Y-131385000D01*
X140564661Y-131344452D01*
X140585000Y-131332709D01*
X140585000Y-132362480D01*
X140655809Y-132351266D01*
X140860901Y-132284627D01*
X141053036Y-132186728D01*
X141227493Y-132059977D01*
X141369578Y-131917892D01*
X141430901Y-131884407D01*
X141500593Y-131889391D01*
X141556527Y-131931262D01*
X141569640Y-131953165D01*
X141570181Y-131954325D01*
X141570185Y-131954331D01*
X141570186Y-131954334D01*
X141662288Y-132103656D01*
X141786344Y-132227712D01*
X141935666Y-132319814D01*
X142102203Y-132374999D01*
X142204991Y-132385500D01*
X143545008Y-132385499D01*
X143647797Y-132374999D01*
X143814334Y-132319814D01*
X143963656Y-132227712D01*
X144087712Y-132103656D01*
X144179814Y-131954334D01*
X144234999Y-131787797D01*
X144236018Y-131777820D01*
X158015000Y-131777820D01*
X158048734Y-131990809D01*
X158115372Y-132195901D01*
X158213271Y-132388036D01*
X158340025Y-132562496D01*
X158340025Y-132562497D01*
X158492502Y-132714974D01*
X158666963Y-132841728D01*
X158859098Y-132939627D01*
X159064190Y-133006266D01*
X159135000Y-133017481D01*
X159135000Y-131987709D01*
X159155339Y-131999452D01*
X159306667Y-132040000D01*
X159463333Y-132040000D01*
X159614661Y-131999452D01*
X159635000Y-131987709D01*
X159635000Y-133017480D01*
X159705809Y-133006266D01*
X159910901Y-132939627D01*
X160103036Y-132841728D01*
X160277493Y-132714977D01*
X160419578Y-132572892D01*
X160480901Y-132539407D01*
X160550593Y-132544391D01*
X160606527Y-132586262D01*
X160619640Y-132608165D01*
X160620181Y-132609325D01*
X160620185Y-132609331D01*
X160620186Y-132609334D01*
X160712288Y-132758656D01*
X160836344Y-132882712D01*
X160985666Y-132974814D01*
X161152203Y-133029999D01*
X161254991Y-133040500D01*
X162595008Y-133040499D01*
X162697797Y-133029999D01*
X162704222Y-133027870D01*
X185919500Y-133027870D01*
X185919501Y-133027876D01*
X185925908Y-133087483D01*
X185976202Y-133222328D01*
X185976206Y-133222335D01*
X186062452Y-133337544D01*
X186062455Y-133337547D01*
X186177664Y-133423793D01*
X186177671Y-133423797D01*
X186312517Y-133474091D01*
X186312516Y-133474091D01*
X186319444Y-133474835D01*
X186372127Y-133480500D01*
X188267872Y-133480499D01*
X188327483Y-133474091D01*
X188462331Y-133423796D01*
X188577546Y-133337546D01*
X188663796Y-133222331D01*
X188663885Y-133222093D01*
X188692455Y-133145493D01*
X188734326Y-133089559D01*
X188799790Y-133065141D01*
X188868063Y-133079992D01*
X188899866Y-133104843D01*
X188907302Y-133112920D01*
X188908215Y-133113912D01*
X188908222Y-133113918D01*
X189091365Y-133256464D01*
X189091371Y-133256468D01*
X189091374Y-133256470D01*
X189295497Y-133366936D01*
X189409487Y-133406068D01*
X189515015Y-133442297D01*
X189515017Y-133442297D01*
X189515019Y-133442298D01*
X189743951Y-133480500D01*
X189743952Y-133480500D01*
X189976048Y-133480500D01*
X189976049Y-133480500D01*
X190204981Y-133442298D01*
X190424503Y-133366936D01*
X190628626Y-133256470D01*
X190811784Y-133113913D01*
X190890992Y-133027870D01*
X194174500Y-133027870D01*
X194174501Y-133027876D01*
X194180908Y-133087483D01*
X194231202Y-133222328D01*
X194231206Y-133222335D01*
X194317452Y-133337544D01*
X194317455Y-133337547D01*
X194432664Y-133423793D01*
X194432671Y-133423797D01*
X194567517Y-133474091D01*
X194567516Y-133474091D01*
X194574444Y-133474835D01*
X194627127Y-133480500D01*
X196522872Y-133480499D01*
X196582483Y-133474091D01*
X196717331Y-133423796D01*
X196832546Y-133337546D01*
X196918796Y-133222331D01*
X196918885Y-133222093D01*
X196947455Y-133145493D01*
X196989326Y-133089559D01*
X197054790Y-133065141D01*
X197123063Y-133079992D01*
X197154866Y-133104843D01*
X197162302Y-133112920D01*
X197163215Y-133113912D01*
X197163222Y-133113918D01*
X197346365Y-133256464D01*
X197346371Y-133256468D01*
X197346374Y-133256470D01*
X197550497Y-133366936D01*
X197664487Y-133406068D01*
X197770015Y-133442297D01*
X197770017Y-133442297D01*
X197770019Y-133442298D01*
X197998951Y-133480500D01*
X197998952Y-133480500D01*
X198231048Y-133480500D01*
X198231049Y-133480500D01*
X198459981Y-133442298D01*
X198679503Y-133366936D01*
X198883626Y-133256470D01*
X199066784Y-133113913D01*
X199146016Y-133027844D01*
X202430000Y-133027844D01*
X202436401Y-133087372D01*
X202436403Y-133087379D01*
X202486645Y-133222086D01*
X202486649Y-133222093D01*
X202572809Y-133337187D01*
X202572812Y-133337190D01*
X202687906Y-133423350D01*
X202687913Y-133423354D01*
X202822620Y-133473596D01*
X202822627Y-133473598D01*
X202882155Y-133479999D01*
X202882172Y-133480000D01*
X203580000Y-133480000D01*
X203580000Y-132455277D01*
X203656306Y-132499333D01*
X203770756Y-132530000D01*
X203889244Y-132530000D01*
X204003694Y-132499333D01*
X204080000Y-132455277D01*
X204080000Y-133480000D01*
X204777828Y-133480000D01*
X204777844Y-133479999D01*
X204837372Y-133473598D01*
X204837379Y-133473596D01*
X204972086Y-133423354D01*
X204972093Y-133423350D01*
X205087187Y-133337190D01*
X205087190Y-133337187D01*
X205173350Y-133222093D01*
X205173355Y-133222084D01*
X205202075Y-133145081D01*
X205243945Y-133089147D01*
X205309409Y-133064729D01*
X205377682Y-133079580D01*
X205409484Y-133104428D01*
X205418216Y-133113913D01*
X205418219Y-133113915D01*
X205418222Y-133113918D01*
X205601365Y-133256464D01*
X205601371Y-133256468D01*
X205601374Y-133256470D01*
X205805497Y-133366936D01*
X205919487Y-133406068D01*
X206025015Y-133442297D01*
X206025017Y-133442297D01*
X206025019Y-133442298D01*
X206253951Y-133480500D01*
X206253952Y-133480500D01*
X206486048Y-133480500D01*
X206486049Y-133480500D01*
X206714981Y-133442298D01*
X206934503Y-133366936D01*
X207138626Y-133256470D01*
X207321784Y-133113913D01*
X207478979Y-132943153D01*
X207605924Y-132748849D01*
X207699157Y-132536300D01*
X207756134Y-132311305D01*
X207758306Y-132285092D01*
X207775300Y-132080006D01*
X207775300Y-132079993D01*
X207756135Y-131848702D01*
X207756133Y-131848691D01*
X207699157Y-131623699D01*
X207605924Y-131411151D01*
X207478983Y-131216852D01*
X207478980Y-131216849D01*
X207478979Y-131216847D01*
X207321784Y-131046087D01*
X207321779Y-131046083D01*
X207321777Y-131046081D01*
X207138634Y-130903535D01*
X207138628Y-130903531D01*
X206934504Y-130793064D01*
X206934495Y-130793061D01*
X206714984Y-130717702D01*
X206524450Y-130685908D01*
X206486049Y-130679500D01*
X206253951Y-130679500D01*
X206215550Y-130685908D01*
X206025015Y-130717702D01*
X205805504Y-130793061D01*
X205805495Y-130793064D01*
X205601371Y-130903531D01*
X205601365Y-130903535D01*
X205418222Y-131046081D01*
X205418215Y-131046087D01*
X205409484Y-131055572D01*
X205349595Y-131091561D01*
X205279757Y-131089458D01*
X205222143Y-131049932D01*
X205202075Y-131014918D01*
X205173355Y-130937915D01*
X205173350Y-130937906D01*
X205087190Y-130822812D01*
X205087187Y-130822809D01*
X204972093Y-130736649D01*
X204972086Y-130736645D01*
X204837379Y-130686403D01*
X204837372Y-130686401D01*
X204777844Y-130680000D01*
X204080000Y-130680000D01*
X204080000Y-131704722D01*
X204003694Y-131660667D01*
X203889244Y-131630000D01*
X203770756Y-131630000D01*
X203656306Y-131660667D01*
X203580000Y-131704722D01*
X203580000Y-130680000D01*
X202882155Y-130680000D01*
X202822627Y-130686401D01*
X202822620Y-130686403D01*
X202687913Y-130736645D01*
X202687906Y-130736649D01*
X202572812Y-130822809D01*
X202572809Y-130822812D01*
X202486649Y-130937906D01*
X202486645Y-130937913D01*
X202436403Y-131072620D01*
X202436401Y-131072627D01*
X202430000Y-131132155D01*
X202430000Y-131830000D01*
X203454722Y-131830000D01*
X203410667Y-131906306D01*
X203380000Y-132020756D01*
X203380000Y-132139244D01*
X203410667Y-132253694D01*
X203454722Y-132330000D01*
X202430000Y-132330000D01*
X202430000Y-133027844D01*
X199146016Y-133027844D01*
X199223979Y-132943153D01*
X199350924Y-132748849D01*
X199444157Y-132536300D01*
X199501134Y-132311305D01*
X199503306Y-132285092D01*
X199520300Y-132080006D01*
X199520300Y-132079993D01*
X199501135Y-131848702D01*
X199501133Y-131848691D01*
X199444157Y-131623699D01*
X199350924Y-131411151D01*
X199223983Y-131216852D01*
X199223980Y-131216849D01*
X199223979Y-131216847D01*
X199066784Y-131046087D01*
X199066779Y-131046083D01*
X199066777Y-131046081D01*
X198883634Y-130903535D01*
X198883628Y-130903531D01*
X198679504Y-130793064D01*
X198679495Y-130793061D01*
X198459984Y-130717702D01*
X198269450Y-130685908D01*
X198231049Y-130679500D01*
X197998951Y-130679500D01*
X197960550Y-130685908D01*
X197770015Y-130717702D01*
X197550504Y-130793061D01*
X197550495Y-130793064D01*
X197346371Y-130903531D01*
X197346365Y-130903535D01*
X197163222Y-131046081D01*
X197163218Y-131046085D01*
X197163216Y-131046086D01*
X197163216Y-131046087D01*
X197159677Y-131049932D01*
X197154866Y-131055158D01*
X197094979Y-131091148D01*
X197025141Y-131089047D01*
X196967525Y-131049522D01*
X196947455Y-131014507D01*
X196918797Y-130937671D01*
X196918793Y-130937664D01*
X196832547Y-130822455D01*
X196832544Y-130822452D01*
X196717335Y-130736206D01*
X196717328Y-130736202D01*
X196582482Y-130685908D01*
X196582483Y-130685908D01*
X196522883Y-130679501D01*
X196522881Y-130679500D01*
X196522873Y-130679500D01*
X196522864Y-130679500D01*
X194627129Y-130679500D01*
X194627123Y-130679501D01*
X194567516Y-130685908D01*
X194432671Y-130736202D01*
X194432664Y-130736206D01*
X194317455Y-130822452D01*
X194317452Y-130822455D01*
X194231206Y-130937664D01*
X194231202Y-130937671D01*
X194180908Y-131072517D01*
X194174501Y-131132116D01*
X194174500Y-131132135D01*
X194174500Y-133027870D01*
X190890992Y-133027870D01*
X190968979Y-132943153D01*
X191095924Y-132748849D01*
X191189157Y-132536300D01*
X191246134Y-132311305D01*
X191248306Y-132285092D01*
X191265300Y-132080006D01*
X191265300Y-132079993D01*
X191246135Y-131848702D01*
X191246133Y-131848691D01*
X191189157Y-131623699D01*
X191095924Y-131411151D01*
X190968983Y-131216852D01*
X190968980Y-131216849D01*
X190968979Y-131216847D01*
X190811784Y-131046087D01*
X190811779Y-131046083D01*
X190811777Y-131046081D01*
X190628634Y-130903535D01*
X190628628Y-130903531D01*
X190424504Y-130793064D01*
X190424495Y-130793061D01*
X190204984Y-130717702D01*
X190014450Y-130685908D01*
X189976049Y-130679500D01*
X189743951Y-130679500D01*
X189705550Y-130685908D01*
X189515015Y-130717702D01*
X189295504Y-130793061D01*
X189295495Y-130793064D01*
X189091371Y-130903531D01*
X189091365Y-130903535D01*
X188908222Y-131046081D01*
X188908218Y-131046085D01*
X188908216Y-131046086D01*
X188908216Y-131046087D01*
X188904677Y-131049932D01*
X188899866Y-131055158D01*
X188839979Y-131091148D01*
X188770141Y-131089047D01*
X188712525Y-131049522D01*
X188692455Y-131014507D01*
X188663797Y-130937671D01*
X188663793Y-130937664D01*
X188577547Y-130822455D01*
X188577544Y-130822452D01*
X188462335Y-130736206D01*
X188462328Y-130736202D01*
X188327482Y-130685908D01*
X188327483Y-130685908D01*
X188267883Y-130679501D01*
X188267881Y-130679500D01*
X188267873Y-130679500D01*
X188267864Y-130679500D01*
X186372129Y-130679500D01*
X186372123Y-130679501D01*
X186312516Y-130685908D01*
X186177671Y-130736202D01*
X186177664Y-130736206D01*
X186062455Y-130822452D01*
X186062452Y-130822455D01*
X185976206Y-130937664D01*
X185976202Y-130937671D01*
X185925908Y-131072517D01*
X185919501Y-131132116D01*
X185919500Y-131132135D01*
X185919500Y-133027870D01*
X162704222Y-133027870D01*
X162864334Y-132974814D01*
X163013656Y-132882712D01*
X163137712Y-132758656D01*
X163229814Y-132609334D01*
X163284999Y-132442797D01*
X163295500Y-132340009D01*
X163295500Y-131757820D01*
X166270000Y-131757820D01*
X166303734Y-131970809D01*
X166370372Y-132175901D01*
X166468271Y-132368036D01*
X166595025Y-132542496D01*
X166595025Y-132542497D01*
X166747502Y-132694974D01*
X166921963Y-132821728D01*
X167114098Y-132919627D01*
X167319190Y-132986266D01*
X167390000Y-132997481D01*
X167390000Y-131967709D01*
X167410339Y-131979452D01*
X167561667Y-132020000D01*
X167718333Y-132020000D01*
X167869661Y-131979452D01*
X167890000Y-131967709D01*
X167890000Y-132997480D01*
X167960809Y-132986266D01*
X168165901Y-132919627D01*
X168358036Y-132821728D01*
X168532493Y-132694977D01*
X168674578Y-132552892D01*
X168735901Y-132519407D01*
X168805593Y-132524391D01*
X168861527Y-132566262D01*
X168874640Y-132588165D01*
X168875181Y-132589325D01*
X168875185Y-132589331D01*
X168875186Y-132589334D01*
X168967288Y-132738656D01*
X169091344Y-132862712D01*
X169240666Y-132954814D01*
X169407203Y-133009999D01*
X169509991Y-133020500D01*
X170850008Y-133020499D01*
X170952797Y-133009999D01*
X171119334Y-132954814D01*
X171268656Y-132862712D01*
X171392712Y-132738656D01*
X171484814Y-132589334D01*
X171539999Y-132422797D01*
X171550500Y-132320009D01*
X171550500Y-131757820D01*
X175160000Y-131757820D01*
X175193734Y-131970809D01*
X175260372Y-132175901D01*
X175358271Y-132368036D01*
X175485025Y-132542496D01*
X175485025Y-132542497D01*
X175637502Y-132694974D01*
X175811963Y-132821728D01*
X176004098Y-132919627D01*
X176209190Y-132986266D01*
X176280000Y-132997481D01*
X176280000Y-131967709D01*
X176300339Y-131979452D01*
X176451667Y-132020000D01*
X176608333Y-132020000D01*
X176759661Y-131979452D01*
X176780000Y-131967709D01*
X176780000Y-132997480D01*
X176850809Y-132986266D01*
X177055901Y-132919627D01*
X177248036Y-132821728D01*
X177422493Y-132694977D01*
X177564578Y-132552892D01*
X177625901Y-132519407D01*
X177695593Y-132524391D01*
X177751527Y-132566262D01*
X177764640Y-132588165D01*
X177765181Y-132589325D01*
X177765185Y-132589331D01*
X177765186Y-132589334D01*
X177857288Y-132738656D01*
X177981344Y-132862712D01*
X178130666Y-132954814D01*
X178297203Y-133009999D01*
X178399991Y-133020500D01*
X179740008Y-133020499D01*
X179842797Y-133009999D01*
X180009334Y-132954814D01*
X180158656Y-132862712D01*
X180282712Y-132738656D01*
X180374814Y-132589334D01*
X180429999Y-132422797D01*
X180440500Y-132320009D01*
X180440499Y-130529992D01*
X180429999Y-130427203D01*
X180374814Y-130260666D01*
X180282712Y-130111344D01*
X180158656Y-129987288D01*
X180041761Y-129915187D01*
X180009336Y-129895187D01*
X180009331Y-129895185D01*
X179974771Y-129883733D01*
X179842797Y-129840001D01*
X179842795Y-129840000D01*
X179740010Y-129829500D01*
X178399998Y-129829500D01*
X178399981Y-129829501D01*
X178297203Y-129840000D01*
X178297200Y-129840001D01*
X178130668Y-129895185D01*
X178130663Y-129895187D01*
X177981342Y-129987289D01*
X177857289Y-130111342D01*
X177765182Y-130260672D01*
X177764638Y-130261840D01*
X177764051Y-130262505D01*
X177761395Y-130266813D01*
X177760658Y-130266358D01*
X177718461Y-130314275D01*
X177651266Y-130333422D01*
X177584387Y-130313201D01*
X177564579Y-130297107D01*
X177422497Y-130155025D01*
X177248036Y-130028271D01*
X177055899Y-129930372D01*
X176850805Y-129863733D01*
X176780000Y-129852518D01*
X176780000Y-130882290D01*
X176759661Y-130870548D01*
X176608333Y-130830000D01*
X176451667Y-130830000D01*
X176300339Y-130870548D01*
X176280000Y-130882290D01*
X176280000Y-129852518D01*
X176279999Y-129852518D01*
X176209194Y-129863733D01*
X176004100Y-129930372D01*
X175811963Y-130028271D01*
X175637503Y-130155025D01*
X175637502Y-130155025D01*
X175485025Y-130307502D01*
X175485025Y-130307503D01*
X175358271Y-130481963D01*
X175260372Y-130674098D01*
X175193734Y-130879190D01*
X175160000Y-131092179D01*
X175160000Y-131175000D01*
X175987291Y-131175000D01*
X175975548Y-131195339D01*
X175935000Y-131346667D01*
X175935000Y-131503333D01*
X175975548Y-131654661D01*
X175987291Y-131675000D01*
X175160000Y-131675000D01*
X175160000Y-131757820D01*
X171550500Y-131757820D01*
X171550499Y-130529992D01*
X171539999Y-130427203D01*
X171484814Y-130260666D01*
X171392712Y-130111344D01*
X171268656Y-129987288D01*
X171151761Y-129915187D01*
X171119336Y-129895187D01*
X171119331Y-129895185D01*
X171084771Y-129883733D01*
X170952797Y-129840001D01*
X170952795Y-129840000D01*
X170850010Y-129829500D01*
X169509998Y-129829500D01*
X169509981Y-129829501D01*
X169407203Y-129840000D01*
X169407200Y-129840001D01*
X169240668Y-129895185D01*
X169240663Y-129895187D01*
X169091342Y-129987289D01*
X168967289Y-130111342D01*
X168875182Y-130260672D01*
X168874638Y-130261840D01*
X168874051Y-130262505D01*
X168871395Y-130266813D01*
X168870658Y-130266358D01*
X168828461Y-130314275D01*
X168761266Y-130333422D01*
X168694387Y-130313201D01*
X168674579Y-130297107D01*
X168532497Y-130155025D01*
X168358036Y-130028271D01*
X168165899Y-129930372D01*
X167960805Y-129863733D01*
X167890000Y-129852518D01*
X167890000Y-130882290D01*
X167869661Y-130870548D01*
X167718333Y-130830000D01*
X167561667Y-130830000D01*
X167410339Y-130870548D01*
X167390000Y-130882290D01*
X167390000Y-129852518D01*
X167389999Y-129852518D01*
X167319194Y-129863733D01*
X167114100Y-129930372D01*
X166921963Y-130028271D01*
X166747503Y-130155025D01*
X166747502Y-130155025D01*
X166595025Y-130307502D01*
X166595025Y-130307503D01*
X166468271Y-130481963D01*
X166370372Y-130674098D01*
X166303734Y-130879190D01*
X166270000Y-131092179D01*
X166270000Y-131175000D01*
X167097291Y-131175000D01*
X167085548Y-131195339D01*
X167045000Y-131346667D01*
X167045000Y-131503333D01*
X167085548Y-131654661D01*
X167097291Y-131675000D01*
X166270000Y-131675000D01*
X166270000Y-131757820D01*
X163295500Y-131757820D01*
X163295499Y-130549992D01*
X163284999Y-130447203D01*
X163229814Y-130280666D01*
X163137712Y-130131344D01*
X163013656Y-130007288D01*
X162864334Y-129915186D01*
X162697797Y-129860001D01*
X162697795Y-129860000D01*
X162595010Y-129849500D01*
X161254998Y-129849500D01*
X161254981Y-129849501D01*
X161152203Y-129860000D01*
X161152200Y-129860001D01*
X160985668Y-129915185D01*
X160985663Y-129915187D01*
X160836342Y-130007289D01*
X160712289Y-130131342D01*
X160620182Y-130280672D01*
X160619638Y-130281840D01*
X160619051Y-130282505D01*
X160616395Y-130286813D01*
X160615658Y-130286358D01*
X160573461Y-130334275D01*
X160506266Y-130353422D01*
X160439387Y-130333201D01*
X160419579Y-130317107D01*
X160277497Y-130175025D01*
X160103036Y-130048271D01*
X159910899Y-129950372D01*
X159705805Y-129883733D01*
X159635000Y-129872518D01*
X159635000Y-130902290D01*
X159614661Y-130890548D01*
X159463333Y-130850000D01*
X159306667Y-130850000D01*
X159155339Y-130890548D01*
X159135000Y-130902290D01*
X159135000Y-129872518D01*
X159134999Y-129872518D01*
X159064194Y-129883733D01*
X158859100Y-129950372D01*
X158666963Y-130048271D01*
X158492503Y-130175025D01*
X158492502Y-130175025D01*
X158340025Y-130327502D01*
X158340025Y-130327503D01*
X158213271Y-130501963D01*
X158115372Y-130694098D01*
X158048734Y-130899190D01*
X158015000Y-131112179D01*
X158015000Y-131195000D01*
X158842291Y-131195000D01*
X158830548Y-131215339D01*
X158790000Y-131366667D01*
X158790000Y-131523333D01*
X158830548Y-131674661D01*
X158842291Y-131695000D01*
X158015000Y-131695000D01*
X158015000Y-131777820D01*
X144236018Y-131777820D01*
X144245500Y-131685009D01*
X144245499Y-129894992D01*
X144234999Y-129792203D01*
X144179814Y-129625666D01*
X144087712Y-129476344D01*
X143963656Y-129352288D01*
X143814334Y-129260186D01*
X143647797Y-129205001D01*
X143647795Y-129205000D01*
X143545010Y-129194500D01*
X142204998Y-129194500D01*
X142204981Y-129194501D01*
X142102203Y-129205000D01*
X142102200Y-129205001D01*
X141935668Y-129260185D01*
X141935663Y-129260187D01*
X141786342Y-129352289D01*
X141662289Y-129476342D01*
X141570182Y-129625672D01*
X141569638Y-129626840D01*
X141569051Y-129627505D01*
X141566395Y-129631813D01*
X141565658Y-129631358D01*
X141523461Y-129679275D01*
X141456266Y-129698422D01*
X141389387Y-129678201D01*
X141369579Y-129662107D01*
X141227497Y-129520025D01*
X141053036Y-129393271D01*
X140860899Y-129295372D01*
X140655805Y-129228733D01*
X140585000Y-129217518D01*
X140585000Y-130247290D01*
X140564661Y-130235548D01*
X140413333Y-130195000D01*
X140256667Y-130195000D01*
X140105339Y-130235548D01*
X140085000Y-130247290D01*
X140085000Y-129217518D01*
X140084999Y-129217518D01*
X140014194Y-129228733D01*
X139809100Y-129295372D01*
X139616963Y-129393271D01*
X139442503Y-129520025D01*
X139442502Y-129520025D01*
X139290025Y-129672502D01*
X139290025Y-129672503D01*
X139163271Y-129846963D01*
X139065372Y-130039098D01*
X138998734Y-130244190D01*
X138965000Y-130457179D01*
X138965000Y-130540000D01*
X139792291Y-130540000D01*
X139780548Y-130560339D01*
X139740000Y-130711667D01*
X139740000Y-130868333D01*
X139780548Y-131019661D01*
X139792291Y-131040000D01*
X138965000Y-131040000D01*
X138965000Y-131122820D01*
X134720500Y-131122820D01*
X134720499Y-129894992D01*
X134709999Y-129792203D01*
X134654814Y-129625666D01*
X134562712Y-129476344D01*
X134438656Y-129352288D01*
X134289334Y-129260186D01*
X134122797Y-129205001D01*
X134122795Y-129205000D01*
X134020010Y-129194500D01*
X132679998Y-129194500D01*
X132679981Y-129194501D01*
X132577203Y-129205000D01*
X132577200Y-129205001D01*
X132410668Y-129260185D01*
X132410663Y-129260187D01*
X132261342Y-129352289D01*
X132137289Y-129476342D01*
X132045179Y-129625677D01*
X132044861Y-129626360D01*
X132044518Y-129626748D01*
X132041395Y-129631813D01*
X132040529Y-129631278D01*
X131998683Y-129678794D01*
X131931487Y-129697939D01*
X131864608Y-129677716D01*
X131844804Y-129661624D01*
X131702823Y-129519643D01*
X131702821Y-129519641D01*
X131528299Y-129392843D01*
X131336089Y-129294908D01*
X131130926Y-129228246D01*
X131130924Y-129228245D01*
X131130922Y-129228245D01*
X130917866Y-129194500D01*
X130917861Y-129194500D01*
X130702139Y-129194500D01*
X130702134Y-129194500D01*
X130489077Y-129228245D01*
X130283908Y-129294909D01*
X130091700Y-129392843D01*
X129992129Y-129465186D01*
X129917179Y-129519641D01*
X129917177Y-129519643D01*
X129917176Y-129519643D01*
X129764643Y-129672176D01*
X129764643Y-129672177D01*
X129764641Y-129672179D01*
X129710186Y-129747129D01*
X129637843Y-129846700D01*
X129539909Y-130038908D01*
X129473245Y-130244077D01*
X129439500Y-130457133D01*
X129439500Y-131122866D01*
X90805000Y-131122866D01*
X90805000Y-93980000D01*
X101964540Y-93980000D01*
X101984326Y-94168256D01*
X101984327Y-94168259D01*
X102042818Y-94348277D01*
X102042821Y-94348284D01*
X102137467Y-94512216D01*
X102227204Y-94611879D01*
X102264129Y-94652888D01*
X102417265Y-94764148D01*
X102417270Y-94764151D01*
X102590192Y-94841142D01*
X102590197Y-94841144D01*
X102775354Y-94880500D01*
X102775355Y-94880500D01*
X102964644Y-94880500D01*
X102964646Y-94880500D01*
X103149803Y-94841144D01*
X103322730Y-94764151D01*
X103475871Y-94652888D01*
X103602533Y-94512216D01*
X103697179Y-94348284D01*
X103755674Y-94168256D01*
X103772989Y-94003505D01*
X103799572Y-93938894D01*
X103808619Y-93928798D01*
X107500291Y-90237126D01*
X107561612Y-90203643D01*
X107631304Y-90208627D01*
X107687237Y-90250499D01*
X107705901Y-90286491D01*
X107757818Y-90446278D01*
X107757821Y-90446284D01*
X107852467Y-90610216D01*
X107951448Y-90720145D01*
X107979129Y-90750888D01*
X108132265Y-90862148D01*
X108132270Y-90862151D01*
X108305192Y-90939142D01*
X108305197Y-90939144D01*
X108490354Y-90978500D01*
X108490355Y-90978500D01*
X108679644Y-90978500D01*
X108679646Y-90978500D01*
X108836918Y-90945071D01*
X108906584Y-90950387D01*
X108962318Y-90992524D01*
X108980629Y-91028043D01*
X109027818Y-91173277D01*
X109027821Y-91173284D01*
X109122467Y-91337216D01*
X109208909Y-91433219D01*
X109249129Y-91477888D01*
X109402265Y-91589148D01*
X109402270Y-91589151D01*
X109575192Y-91666142D01*
X109575197Y-91666144D01*
X109760354Y-91705500D01*
X109760355Y-91705500D01*
X109949644Y-91705500D01*
X109949646Y-91705500D01*
X110134803Y-91666144D01*
X110307730Y-91589151D01*
X110460871Y-91477888D01*
X110464799Y-91473525D01*
X110524286Y-91436879D01*
X110556947Y-91432500D01*
X126697585Y-91432500D01*
X126764624Y-91452185D01*
X126810379Y-91504989D01*
X126820323Y-91574147D01*
X126791298Y-91637703D01*
X126785266Y-91644181D01*
X110089992Y-108339455D01*
X110046289Y-108383158D01*
X110002586Y-108426860D01*
X110002585Y-108426862D01*
X109933233Y-108530655D01*
X109931586Y-108535259D01*
X109886614Y-108643830D01*
X109886612Y-108643838D01*
X109865083Y-108752066D01*
X109865084Y-108752067D01*
X109862500Y-108765057D01*
X109862500Y-111063534D01*
X109842815Y-111130573D01*
X109830650Y-111146506D01*
X109757466Y-111227785D01*
X109662821Y-111391715D01*
X109662818Y-111391722D01*
X109629819Y-111493284D01*
X109604326Y-111571744D01*
X109584540Y-111760000D01*
X109604326Y-111948256D01*
X109604327Y-111948259D01*
X109662818Y-112128277D01*
X109662821Y-112128284D01*
X109757467Y-112292216D01*
X109815899Y-112357111D01*
X109884129Y-112432888D01*
X110037265Y-112544148D01*
X110037270Y-112544151D01*
X110210192Y-112621142D01*
X110210197Y-112621144D01*
X110395354Y-112660500D01*
X110395355Y-112660500D01*
X110584644Y-112660500D01*
X110584646Y-112660500D01*
X110769803Y-112621144D01*
X110942730Y-112544151D01*
X111095871Y-112432888D01*
X111222533Y-112292216D01*
X111317179Y-112128284D01*
X111375674Y-111948256D01*
X111395460Y-111760000D01*
X111375674Y-111571744D01*
X111317179Y-111391716D01*
X111222533Y-111227784D01*
X111149350Y-111146506D01*
X111119120Y-111083515D01*
X111117500Y-111063534D01*
X111117500Y-109138146D01*
X111137185Y-109071107D01*
X111153814Y-109050470D01*
X114773310Y-105430973D01*
X114834631Y-105397490D01*
X114904323Y-105402474D01*
X114953138Y-105435682D01*
X114964127Y-105447886D01*
X114964130Y-105447889D01*
X115117265Y-105559148D01*
X115117270Y-105559151D01*
X115290192Y-105636142D01*
X115290197Y-105636144D01*
X115475354Y-105675500D01*
X115475355Y-105675500D01*
X115664644Y-105675500D01*
X115664646Y-105675500D01*
X115849803Y-105636144D01*
X116022730Y-105559151D01*
X116175871Y-105447888D01*
X116179799Y-105443525D01*
X116239286Y-105406879D01*
X116271947Y-105402500D01*
X121853053Y-105402500D01*
X121920092Y-105422185D01*
X121945199Y-105443523D01*
X121949127Y-105447886D01*
X121949132Y-105447891D01*
X121949135Y-105447893D01*
X122102265Y-105559148D01*
X122102270Y-105559151D01*
X122275192Y-105636142D01*
X122275197Y-105636144D01*
X122460354Y-105675500D01*
X122460355Y-105675500D01*
X122649644Y-105675500D01*
X122649646Y-105675500D01*
X122834803Y-105636144D01*
X123007730Y-105559151D01*
X123160871Y-105447888D01*
X123287533Y-105307216D01*
X123382179Y-105143284D01*
X123440674Y-104963256D01*
X123460460Y-104775000D01*
X123440674Y-104586744D01*
X123382179Y-104406716D01*
X123287533Y-104242784D01*
X123160871Y-104102112D01*
X123160870Y-104102111D01*
X123007734Y-103990851D01*
X123007729Y-103990848D01*
X122834807Y-103913857D01*
X122834802Y-103913855D01*
X122689001Y-103882865D01*
X122649646Y-103874500D01*
X122460354Y-103874500D01*
X122427897Y-103881398D01*
X122275197Y-103913855D01*
X122275192Y-103913857D01*
X122102270Y-103990848D01*
X122102265Y-103990851D01*
X121949135Y-104102106D01*
X121949132Y-104102108D01*
X121947175Y-104104281D01*
X121945200Y-104106474D01*
X121885714Y-104143121D01*
X121853053Y-104147500D01*
X116356146Y-104147500D01*
X116289107Y-104127815D01*
X116243352Y-104075011D01*
X116233408Y-104005853D01*
X116262433Y-103942297D01*
X116268465Y-103935819D01*
X122414285Y-97790000D01*
X131744551Y-97790000D01*
X131764317Y-98041151D01*
X131823126Y-98286110D01*
X131919533Y-98518859D01*
X132051160Y-98733653D01*
X132051161Y-98733656D01*
X132051164Y-98733659D01*
X132214776Y-98925224D01*
X132363066Y-99051875D01*
X132406343Y-99088838D01*
X132406345Y-99088838D01*
X132426661Y-99101288D01*
X132621140Y-99220466D01*
X132779702Y-99286144D01*
X132853889Y-99316873D01*
X133098852Y-99375683D01*
X133350000Y-99395449D01*
X133601148Y-99375683D01*
X133846111Y-99316873D01*
X134078859Y-99220466D01*
X134293659Y-99088836D01*
X134485224Y-98925224D01*
X134648836Y-98733659D01*
X134780466Y-98518859D01*
X134876873Y-98286111D01*
X134935683Y-98041148D01*
X134955449Y-97790000D01*
X134935683Y-97538852D01*
X134876873Y-97293889D01*
X134780466Y-97061141D01*
X134780466Y-97061140D01*
X134648839Y-96846346D01*
X134648838Y-96846343D01*
X134611875Y-96803066D01*
X134485224Y-96654776D01*
X134294136Y-96491571D01*
X134293656Y-96491161D01*
X134293653Y-96491160D01*
X134078859Y-96359533D01*
X133846110Y-96263126D01*
X133601151Y-96204317D01*
X133350000Y-96184551D01*
X133098848Y-96204317D01*
X132853889Y-96263126D01*
X132621140Y-96359533D01*
X132406346Y-96491160D01*
X132406343Y-96491161D01*
X132214776Y-96654776D01*
X132051161Y-96846343D01*
X132051160Y-96846346D01*
X131919533Y-97061140D01*
X131823126Y-97293889D01*
X131764317Y-97538848D01*
X131744551Y-97790000D01*
X122414285Y-97790000D01*
X128008466Y-92195819D01*
X128069789Y-92162334D01*
X128096147Y-92159500D01*
X130494053Y-92159500D01*
X130561092Y-92179185D01*
X130586199Y-92200523D01*
X130590129Y-92204888D01*
X130590132Y-92204891D01*
X130590135Y-92204893D01*
X130743265Y-92316148D01*
X130743270Y-92316151D01*
X130916192Y-92393142D01*
X130916197Y-92393144D01*
X131101354Y-92432500D01*
X131101355Y-92432500D01*
X131290644Y-92432500D01*
X131290646Y-92432500D01*
X131475803Y-92393144D01*
X131648730Y-92316151D01*
X131801871Y-92204888D01*
X131928533Y-92064216D01*
X132023179Y-91900284D01*
X132081674Y-91720256D01*
X132100247Y-91543536D01*
X132126832Y-91478924D01*
X132184129Y-91438939D01*
X132223568Y-91432500D01*
X149315719Y-91432500D01*
X149382758Y-91452185D01*
X149428513Y-91504989D01*
X149438457Y-91574147D01*
X149409432Y-91637703D01*
X149403400Y-91644181D01*
X142782180Y-98265400D01*
X142720857Y-98298885D01*
X142651165Y-98293901D01*
X142595232Y-98252029D01*
X142570815Y-98186565D01*
X142570499Y-98177719D01*
X142570499Y-96642129D01*
X142570498Y-96642123D01*
X142570497Y-96642116D01*
X142564091Y-96582517D01*
X142542638Y-96524999D01*
X142513797Y-96447671D01*
X142513793Y-96447664D01*
X142427547Y-96332455D01*
X142427544Y-96332452D01*
X142312335Y-96246206D01*
X142312328Y-96246202D01*
X142177482Y-96195908D01*
X142177483Y-96195908D01*
X142117883Y-96189501D01*
X142117881Y-96189500D01*
X142117873Y-96189500D01*
X142117864Y-96189500D01*
X139822129Y-96189500D01*
X139822123Y-96189501D01*
X139762516Y-96195908D01*
X139627671Y-96246202D01*
X139627664Y-96246206D01*
X139512455Y-96332452D01*
X139512452Y-96332455D01*
X139426206Y-96447664D01*
X139426202Y-96447671D01*
X139375908Y-96582517D01*
X139369501Y-96642116D01*
X139369501Y-96642123D01*
X139369500Y-96642135D01*
X139369500Y-98937870D01*
X139369501Y-98937876D01*
X139375908Y-98997483D01*
X139426202Y-99132328D01*
X139426206Y-99132335D01*
X139512452Y-99247544D01*
X139512455Y-99247547D01*
X139627664Y-99333793D01*
X139627671Y-99333797D01*
X139762517Y-99384091D01*
X139762516Y-99384091D01*
X139769444Y-99384835D01*
X139822127Y-99390500D01*
X141357718Y-99390499D01*
X141424757Y-99410184D01*
X141470512Y-99462987D01*
X141480456Y-99532146D01*
X141451431Y-99595702D01*
X141445399Y-99602180D01*
X137624950Y-103422629D01*
X137563627Y-103456114D01*
X137493935Y-103451130D01*
X137438002Y-103409258D01*
X137413949Y-103347911D01*
X137410674Y-103316744D01*
X137352179Y-103136716D01*
X137257533Y-102972784D01*
X137130871Y-102832112D01*
X137130870Y-102832111D01*
X136977734Y-102720851D01*
X136977729Y-102720848D01*
X136804807Y-102643857D01*
X136804802Y-102643855D01*
X136659001Y-102612865D01*
X136619646Y-102604500D01*
X136619645Y-102604500D01*
X136563281Y-102604500D01*
X136496242Y-102584815D01*
X136475600Y-102568181D01*
X136290011Y-102382591D01*
X136290010Y-102382590D01*
X136252905Y-102357798D01*
X136252904Y-102357797D01*
X136187238Y-102313920D01*
X136187226Y-102313913D01*
X136153785Y-102300062D01*
X136073035Y-102266614D01*
X136073027Y-102266612D01*
X135951807Y-102242500D01*
X135951803Y-102242500D01*
X128336947Y-102242500D01*
X128269908Y-102222815D01*
X128244800Y-102201476D01*
X128240871Y-102197112D01*
X128240869Y-102197111D01*
X128240867Y-102197108D01*
X128240864Y-102197106D01*
X128087734Y-102085851D01*
X128087729Y-102085848D01*
X127914807Y-102008857D01*
X127914802Y-102008855D01*
X127769001Y-101977865D01*
X127729646Y-101969500D01*
X127540354Y-101969500D01*
X127507897Y-101976398D01*
X127355197Y-102008855D01*
X127355192Y-102008857D01*
X127182270Y-102085848D01*
X127182265Y-102085851D01*
X127029129Y-102197111D01*
X126902466Y-102337785D01*
X126807821Y-102501715D01*
X126807818Y-102501722D01*
X126749327Y-102681740D01*
X126749326Y-102681744D01*
X126729540Y-102870000D01*
X126749326Y-103058256D01*
X126749327Y-103058259D01*
X126807818Y-103238277D01*
X126807821Y-103238284D01*
X126902467Y-103402216D01*
X126996259Y-103506382D01*
X127029129Y-103542888D01*
X127182265Y-103654148D01*
X127182270Y-103654151D01*
X127355192Y-103731142D01*
X127355197Y-103731144D01*
X127540354Y-103770500D01*
X127540355Y-103770500D01*
X127729644Y-103770500D01*
X127729646Y-103770500D01*
X127914803Y-103731144D01*
X128087730Y-103654151D01*
X128240871Y-103542888D01*
X128244799Y-103538525D01*
X128304286Y-103501879D01*
X128336947Y-103497500D01*
X133193365Y-103497500D01*
X133260404Y-103517185D01*
X133306159Y-103569989D01*
X133316103Y-103639147D01*
X133300753Y-103683499D01*
X133249820Y-103771718D01*
X133249818Y-103771722D01*
X133191327Y-103951740D01*
X133191326Y-103951744D01*
X133171540Y-104140000D01*
X133191326Y-104328256D01*
X133191327Y-104328259D01*
X133249818Y-104508277D01*
X133249821Y-104508284D01*
X133295117Y-104586740D01*
X133344467Y-104672216D01*
X133417651Y-104753494D01*
X133447880Y-104816484D01*
X133449500Y-104836465D01*
X133449500Y-105641719D01*
X133429815Y-105708758D01*
X133413181Y-105729400D01*
X131494400Y-107648181D01*
X131433077Y-107681666D01*
X131406719Y-107684500D01*
X131350354Y-107684500D01*
X131317897Y-107691398D01*
X131165197Y-107723855D01*
X131165192Y-107723857D01*
X130992270Y-107800848D01*
X130992265Y-107800851D01*
X130839129Y-107912111D01*
X130712466Y-108052785D01*
X130617821Y-108216715D01*
X130617818Y-108216722D01*
X130571636Y-108358857D01*
X130559326Y-108396744D01*
X130539540Y-108585000D01*
X130559326Y-108773256D01*
X130559327Y-108773259D01*
X130577706Y-108829824D01*
X130579701Y-108899665D01*
X130543621Y-108959498D01*
X130480920Y-108990326D01*
X130433995Y-108989433D01*
X130407862Y-108983878D01*
X130269646Y-108954500D01*
X130080354Y-108954500D01*
X130056840Y-108959498D01*
X129895197Y-108993855D01*
X129895192Y-108993857D01*
X129722270Y-109070848D01*
X129722265Y-109070851D01*
X129569129Y-109182111D01*
X129442466Y-109322785D01*
X129347821Y-109486715D01*
X129347818Y-109486722D01*
X129289327Y-109666740D01*
X129289326Y-109666744D01*
X129269540Y-109855000D01*
X129289326Y-110043256D01*
X129289327Y-110043259D01*
X129347818Y-110223277D01*
X129347820Y-110223281D01*
X129347821Y-110223284D01*
X129371246Y-110263857D01*
X129398753Y-110311501D01*
X129415225Y-110379401D01*
X129392372Y-110445428D01*
X129337450Y-110488618D01*
X129291365Y-110497500D01*
X118176947Y-110497500D01*
X118109908Y-110477815D01*
X118084800Y-110456476D01*
X118080871Y-110452112D01*
X118080869Y-110452111D01*
X118080867Y-110452108D01*
X118080864Y-110452106D01*
X117927734Y-110340851D01*
X117927729Y-110340848D01*
X117754807Y-110263857D01*
X117754802Y-110263855D01*
X117609001Y-110232865D01*
X117569646Y-110224500D01*
X117380354Y-110224500D01*
X117347897Y-110231398D01*
X117195197Y-110263855D01*
X117195192Y-110263857D01*
X117022270Y-110340848D01*
X117022265Y-110340851D01*
X116869129Y-110452111D01*
X116742466Y-110592785D01*
X116647821Y-110756715D01*
X116647818Y-110756722D01*
X116589327Y-110936740D01*
X116589326Y-110936744D01*
X116569540Y-111125000D01*
X116589326Y-111313256D01*
X116589327Y-111313259D01*
X116647818Y-111493277D01*
X116647821Y-111493284D01*
X116742467Y-111657216D01*
X116836259Y-111761382D01*
X116869129Y-111797888D01*
X117022265Y-111909148D01*
X117022270Y-111909151D01*
X117195192Y-111986142D01*
X117195197Y-111986144D01*
X117380354Y-112025500D01*
X117380355Y-112025500D01*
X117569644Y-112025500D01*
X117569646Y-112025500D01*
X117754803Y-111986144D01*
X117927730Y-111909151D01*
X118080871Y-111797888D01*
X118084799Y-111793525D01*
X118144286Y-111756879D01*
X118176947Y-111752500D01*
X127386365Y-111752500D01*
X127453404Y-111772185D01*
X127499159Y-111824989D01*
X127509103Y-111894147D01*
X127493753Y-111938499D01*
X127442821Y-112026716D01*
X127420166Y-112096436D01*
X127389917Y-112145796D01*
X125256690Y-114279023D01*
X125195367Y-114312508D01*
X125125675Y-114307524D01*
X125076860Y-114274315D01*
X125065877Y-114262117D01*
X125065869Y-114262110D01*
X124912734Y-114150851D01*
X124912729Y-114150848D01*
X124739807Y-114073857D01*
X124739802Y-114073855D01*
X124594001Y-114042865D01*
X124554646Y-114034500D01*
X124365354Y-114034500D01*
X124332897Y-114041398D01*
X124180197Y-114073855D01*
X124180192Y-114073857D01*
X124007270Y-114150848D01*
X124007265Y-114150851D01*
X123854129Y-114262111D01*
X123727466Y-114402785D01*
X123632821Y-114566715D01*
X123632818Y-114566722D01*
X123574327Y-114746740D01*
X123574326Y-114746744D01*
X123565421Y-114831463D01*
X123538839Y-114896076D01*
X123481542Y-114936061D01*
X123442102Y-114942500D01*
X115001947Y-114942500D01*
X114934908Y-114922815D01*
X114909800Y-114901476D01*
X114905871Y-114897112D01*
X114905869Y-114897111D01*
X114905867Y-114897108D01*
X114905864Y-114897106D01*
X114752734Y-114785851D01*
X114752729Y-114785848D01*
X114579807Y-114708857D01*
X114579802Y-114708855D01*
X114434001Y-114677865D01*
X114394646Y-114669500D01*
X114205354Y-114669500D01*
X114172897Y-114676398D01*
X114020197Y-114708855D01*
X114020192Y-114708857D01*
X113847270Y-114785848D01*
X113847265Y-114785851D01*
X113694129Y-114897111D01*
X113567466Y-115037785D01*
X113472821Y-115201715D01*
X113472818Y-115201722D01*
X113439819Y-115303284D01*
X113414326Y-115381744D01*
X113394540Y-115570000D01*
X113414326Y-115758256D01*
X113414327Y-115758259D01*
X113472818Y-115938277D01*
X113472821Y-115938284D01*
X113567467Y-116102216D01*
X113657204Y-116201879D01*
X113694129Y-116242888D01*
X113847265Y-116354148D01*
X113847270Y-116354151D01*
X114020192Y-116431142D01*
X114020197Y-116431144D01*
X114205354Y-116470500D01*
X114205355Y-116470500D01*
X114394644Y-116470500D01*
X114394646Y-116470500D01*
X114579803Y-116431144D01*
X114752730Y-116354151D01*
X114905871Y-116242888D01*
X114909799Y-116238525D01*
X114969286Y-116201879D01*
X115001947Y-116197500D01*
X123038853Y-116197500D01*
X123105892Y-116217185D01*
X123151647Y-116269989D01*
X123161591Y-116339147D01*
X123132566Y-116402703D01*
X123126534Y-116409181D01*
X121546534Y-117989181D01*
X121485211Y-118022666D01*
X121458853Y-118025500D01*
X121351947Y-118025500D01*
X121284908Y-118005815D01*
X121259800Y-117984476D01*
X121255871Y-117980112D01*
X121255869Y-117980111D01*
X121255867Y-117980108D01*
X121255864Y-117980106D01*
X121102734Y-117868851D01*
X121102729Y-117868848D01*
X120929807Y-117791857D01*
X120929802Y-117791855D01*
X120784001Y-117760865D01*
X120744646Y-117752500D01*
X120555354Y-117752500D01*
X120522897Y-117759398D01*
X120370197Y-117791855D01*
X120370192Y-117791857D01*
X120197270Y-117868848D01*
X120197265Y-117868851D01*
X120044129Y-117980111D01*
X119917466Y-118120785D01*
X119822821Y-118284715D01*
X119822818Y-118284722D01*
X119764327Y-118464740D01*
X119764326Y-118464744D01*
X119762904Y-118478277D01*
X119745753Y-118641462D01*
X119719168Y-118706076D01*
X119661871Y-118746061D01*
X119622432Y-118752500D01*
X115881281Y-118752500D01*
X115814242Y-118732815D01*
X115793600Y-118716181D01*
X115238628Y-118161209D01*
X115205143Y-118099886D01*
X115202990Y-118086506D01*
X115185674Y-117921744D01*
X115127179Y-117741716D01*
X115032533Y-117577784D01*
X114905871Y-117437112D01*
X114905870Y-117437111D01*
X114752734Y-117325851D01*
X114752729Y-117325848D01*
X114579807Y-117248857D01*
X114579802Y-117248855D01*
X114434001Y-117217865D01*
X114394646Y-117209500D01*
X114205354Y-117209500D01*
X114172897Y-117216398D01*
X114020197Y-117248855D01*
X114020192Y-117248857D01*
X113847270Y-117325848D01*
X113847265Y-117325851D01*
X113694129Y-117437111D01*
X113567466Y-117577785D01*
X113472821Y-117741715D01*
X113472818Y-117741722D01*
X113431512Y-117868851D01*
X113414326Y-117921744D01*
X113394540Y-118110000D01*
X113414326Y-118298256D01*
X113414327Y-118298259D01*
X113472818Y-118478277D01*
X113472821Y-118478284D01*
X113567467Y-118642216D01*
X113694129Y-118782888D01*
X113847265Y-118894148D01*
X113847270Y-118894151D01*
X114020192Y-118971142D01*
X114020197Y-118971144D01*
X114205354Y-119010500D01*
X114261719Y-119010500D01*
X114328758Y-119030185D01*
X114349400Y-119046819D01*
X115082589Y-119780008D01*
X115169992Y-119867411D01*
X115169993Y-119867412D01*
X115272760Y-119936079D01*
X115272773Y-119936086D01*
X115386960Y-119983383D01*
X115386965Y-119983385D01*
X115386969Y-119983385D01*
X115386970Y-119983386D01*
X115508194Y-120007500D01*
X115508197Y-120007500D01*
X123251804Y-120007500D01*
X123251805Y-120007499D01*
X123373035Y-119983386D01*
X123453784Y-119949937D01*
X123487233Y-119936083D01*
X123590008Y-119867411D01*
X123677411Y-119780008D01*
X129490600Y-113966819D01*
X129551923Y-113933334D01*
X129578281Y-113930500D01*
X129634644Y-113930500D01*
X129634646Y-113930500D01*
X129819803Y-113891144D01*
X129992730Y-113814151D01*
X130145871Y-113702888D01*
X130272533Y-113562216D01*
X130367179Y-113398284D01*
X130425674Y-113218256D01*
X130445460Y-113030000D01*
X130425674Y-112841744D01*
X130367179Y-112661716D01*
X130272533Y-112497784D01*
X130145871Y-112357112D01*
X130145870Y-112357111D01*
X129992734Y-112245851D01*
X129992729Y-112245848D01*
X129819807Y-112168857D01*
X129819802Y-112168855D01*
X129674001Y-112137865D01*
X129634646Y-112129500D01*
X129445354Y-112129500D01*
X129368687Y-112145796D01*
X129260121Y-112168872D01*
X129190453Y-112163556D01*
X129134720Y-112121419D01*
X129116409Y-112085899D01*
X129097182Y-112026724D01*
X129097180Y-112026721D01*
X129097179Y-112026716D01*
X129046247Y-111938499D01*
X129029775Y-111870599D01*
X129052628Y-111804572D01*
X129107550Y-111761382D01*
X129153635Y-111752500D01*
X140023719Y-111752500D01*
X140090758Y-111772185D01*
X140111400Y-111788819D01*
X143206371Y-114883790D01*
X143239856Y-114945113D01*
X143242010Y-114958505D01*
X143259326Y-115123256D01*
X143259327Y-115123259D01*
X143317818Y-115303277D01*
X143317821Y-115303284D01*
X143412467Y-115467216D01*
X143530611Y-115598428D01*
X143539129Y-115607888D01*
X143692265Y-115719148D01*
X143692270Y-115719151D01*
X143865192Y-115796142D01*
X143865197Y-115796144D01*
X144050354Y-115835500D01*
X144050355Y-115835500D01*
X144239644Y-115835500D01*
X144239646Y-115835500D01*
X144424803Y-115796144D01*
X144597730Y-115719151D01*
X144750871Y-115607888D01*
X144877533Y-115467216D01*
X144972179Y-115303284D01*
X145030674Y-115123256D01*
X145050460Y-114935000D01*
X145030674Y-114746744D01*
X144972179Y-114566716D01*
X144877533Y-114402784D01*
X144750871Y-114262112D01*
X144750870Y-114262111D01*
X144597734Y-114150851D01*
X144597729Y-114150848D01*
X144424807Y-114073857D01*
X144424802Y-114073855D01*
X144279001Y-114042865D01*
X144239646Y-114034500D01*
X144239645Y-114034500D01*
X144183281Y-114034500D01*
X144116242Y-114014815D01*
X144095600Y-113998181D01*
X140735011Y-110637591D01*
X140735007Y-110637588D01*
X140632239Y-110568920D01*
X140632226Y-110568913D01*
X140598785Y-110555062D01*
X140518035Y-110521614D01*
X140518027Y-110521612D01*
X140396807Y-110497500D01*
X140396803Y-110497500D01*
X137523281Y-110497500D01*
X137456242Y-110477815D01*
X137410487Y-110425011D01*
X137400543Y-110355853D01*
X137429568Y-110292297D01*
X137435600Y-110285819D01*
X137466411Y-110255008D01*
X140073238Y-107648181D01*
X143608748Y-104112670D01*
X143670069Y-104079187D01*
X143739761Y-104084171D01*
X143795694Y-104126043D01*
X143820111Y-104191507D01*
X143819717Y-104213603D01*
X143814500Y-104262127D01*
X143814500Y-104262128D01*
X143814500Y-104262132D01*
X143814500Y-106557870D01*
X143814501Y-106557876D01*
X143820908Y-106617483D01*
X143871202Y-106752328D01*
X143871206Y-106752335D01*
X143957452Y-106867544D01*
X143957455Y-106867547D01*
X144072664Y-106953793D01*
X144072671Y-106953797D01*
X144207517Y-107004091D01*
X144207516Y-107004091D01*
X144214444Y-107004835D01*
X144267127Y-107010500D01*
X146562872Y-107010499D01*
X146622483Y-107004091D01*
X146757331Y-106953796D01*
X146872546Y-106867546D01*
X146958796Y-106752331D01*
X147009091Y-106617483D01*
X147015500Y-106557873D01*
X147015499Y-104262128D01*
X147009091Y-104202517D01*
X146975017Y-104111161D01*
X146958797Y-104067671D01*
X146958793Y-104067664D01*
X146872547Y-103952455D01*
X146872544Y-103952452D01*
X146757335Y-103866206D01*
X146757328Y-103866202D01*
X146622482Y-103815908D01*
X146622483Y-103815908D01*
X146562883Y-103809501D01*
X146562881Y-103809500D01*
X146562873Y-103809500D01*
X146562864Y-103809500D01*
X144267129Y-103809500D01*
X144267121Y-103809501D01*
X144218606Y-103814716D01*
X144149846Y-103802308D01*
X144098710Y-103754697D01*
X144081433Y-103686997D01*
X144103500Y-103620703D01*
X144117667Y-103603751D01*
X155525600Y-92195819D01*
X155586923Y-92162334D01*
X155613281Y-92159500D01*
X157478719Y-92159500D01*
X157545758Y-92179185D01*
X157591513Y-92231989D01*
X157601457Y-92301147D01*
X157572432Y-92364703D01*
X157566400Y-92371181D01*
X157529400Y-92408181D01*
X157468077Y-92441666D01*
X157441719Y-92444500D01*
X157385354Y-92444500D01*
X157352897Y-92451398D01*
X157200197Y-92483855D01*
X157200192Y-92483857D01*
X157027270Y-92560848D01*
X157027265Y-92560851D01*
X156874129Y-92672111D01*
X156747466Y-92812785D01*
X156652821Y-92976715D01*
X156652818Y-92976722D01*
X156606636Y-93118857D01*
X156594326Y-93156744D01*
X156574540Y-93345000D01*
X156594326Y-93533256D01*
X156594327Y-93533259D01*
X156652818Y-93713277D01*
X156652821Y-93713284D01*
X156747467Y-93877216D01*
X156861182Y-94003509D01*
X156874129Y-94017888D01*
X157027265Y-94129148D01*
X157027270Y-94129151D01*
X157200192Y-94206142D01*
X157200197Y-94206144D01*
X157385354Y-94245500D01*
X157385355Y-94245500D01*
X157574644Y-94245500D01*
X157574646Y-94245500D01*
X157759803Y-94206144D01*
X157932730Y-94129151D01*
X158085871Y-94017888D01*
X158212533Y-93877216D01*
X158307179Y-93713284D01*
X158365674Y-93533256D01*
X158374578Y-93448536D01*
X158401161Y-93383924D01*
X158458458Y-93343939D01*
X158497898Y-93337500D01*
X161223053Y-93337500D01*
X161290092Y-93357185D01*
X161315199Y-93378523D01*
X161319129Y-93382888D01*
X161319132Y-93382891D01*
X161319133Y-93382892D01*
X161356532Y-93410063D01*
X161384442Y-93430341D01*
X161427108Y-93485669D01*
X161433089Y-93555282D01*
X161400484Y-93617078D01*
X161399239Y-93618340D01*
X156117180Y-98900399D01*
X156055857Y-98933884D01*
X155986165Y-98928900D01*
X155930232Y-98887028D01*
X155905815Y-98821564D01*
X155905499Y-98812744D01*
X155905499Y-96642128D01*
X155899091Y-96582517D01*
X155877638Y-96524999D01*
X155848797Y-96447671D01*
X155848793Y-96447664D01*
X155762547Y-96332455D01*
X155762544Y-96332452D01*
X155647335Y-96246206D01*
X155647328Y-96246202D01*
X155512482Y-96195908D01*
X155512483Y-96195908D01*
X155452883Y-96189501D01*
X155452881Y-96189500D01*
X155452873Y-96189500D01*
X155452864Y-96189500D01*
X153157129Y-96189500D01*
X153157123Y-96189501D01*
X153097516Y-96195908D01*
X152962671Y-96246202D01*
X152962664Y-96246206D01*
X152847455Y-96332452D01*
X152847452Y-96332455D01*
X152761206Y-96447664D01*
X152761202Y-96447671D01*
X152710908Y-96582517D01*
X152704501Y-96642116D01*
X152704501Y-96642123D01*
X152704500Y-96642135D01*
X152704500Y-98937870D01*
X152704501Y-98937876D01*
X152710908Y-98997483D01*
X152761202Y-99132328D01*
X152761206Y-99132335D01*
X152847452Y-99247544D01*
X152847455Y-99247547D01*
X152962664Y-99333793D01*
X152962671Y-99333797D01*
X153097517Y-99384091D01*
X153097516Y-99384091D01*
X153104444Y-99384835D01*
X153157127Y-99390500D01*
X155327719Y-99390499D01*
X155394758Y-99410184D01*
X155440513Y-99462987D01*
X155450457Y-99532146D01*
X155421432Y-99595702D01*
X155415400Y-99602180D01*
X146461400Y-108556181D01*
X146400077Y-108589666D01*
X146373719Y-108592500D01*
X146116947Y-108592500D01*
X146049908Y-108572815D01*
X146024800Y-108551476D01*
X146020871Y-108547112D01*
X146020869Y-108547111D01*
X146020867Y-108547108D01*
X146020864Y-108547106D01*
X145867734Y-108435851D01*
X145867729Y-108435848D01*
X145694807Y-108358857D01*
X145694802Y-108358855D01*
X145549001Y-108327865D01*
X145509646Y-108319500D01*
X145320354Y-108319500D01*
X145287897Y-108326398D01*
X145135197Y-108358855D01*
X145135192Y-108358857D01*
X144962270Y-108435848D01*
X144962265Y-108435851D01*
X144809129Y-108547111D01*
X144682466Y-108687785D01*
X144587821Y-108851715D01*
X144587818Y-108851722D01*
X144529327Y-109031740D01*
X144529326Y-109031744D01*
X144509540Y-109220000D01*
X144529326Y-109408256D01*
X144529327Y-109408259D01*
X144587818Y-109588277D01*
X144587821Y-109588284D01*
X144682467Y-109752216D01*
X144778351Y-109858706D01*
X144809129Y-109892888D01*
X144962265Y-110004148D01*
X144962270Y-110004151D01*
X145135192Y-110081142D01*
X145135197Y-110081144D01*
X145320354Y-110120500D01*
X145320355Y-110120500D01*
X145509644Y-110120500D01*
X145509646Y-110120500D01*
X145694803Y-110081144D01*
X145867730Y-110004151D01*
X146020871Y-109892888D01*
X146024799Y-109888525D01*
X146084286Y-109851879D01*
X146116947Y-109847500D01*
X146746804Y-109847500D01*
X146746805Y-109847499D01*
X146868035Y-109823386D01*
X146948784Y-109789937D01*
X146982233Y-109776083D01*
X147085008Y-109707411D01*
X147172411Y-109620008D01*
X147572419Y-109220000D01*
X155304540Y-109220000D01*
X155324326Y-109408256D01*
X155324327Y-109408259D01*
X155382818Y-109588277D01*
X155382821Y-109588284D01*
X155477467Y-109752216D01*
X155573351Y-109858706D01*
X155604129Y-109892888D01*
X155757265Y-110004148D01*
X155757270Y-110004151D01*
X155930192Y-110081142D01*
X155930197Y-110081144D01*
X156115354Y-110120500D01*
X156115355Y-110120500D01*
X156304644Y-110120500D01*
X156304646Y-110120500D01*
X156489803Y-110081144D01*
X156662730Y-110004151D01*
X156815871Y-109892888D01*
X156819799Y-109888525D01*
X156879286Y-109851879D01*
X156911947Y-109847500D01*
X164983500Y-109847500D01*
X165050539Y-109867185D01*
X165096294Y-109919989D01*
X165107500Y-109971500D01*
X165107500Y-122878719D01*
X165087815Y-122945758D01*
X165071181Y-122966400D01*
X162609400Y-125428181D01*
X162548077Y-125461666D01*
X162521719Y-125464500D01*
X162465354Y-125464500D01*
X162432897Y-125471398D01*
X162280197Y-125503855D01*
X162280192Y-125503857D01*
X162107270Y-125580848D01*
X162107265Y-125580851D01*
X161954129Y-125692111D01*
X161827466Y-125832785D01*
X161732821Y-125996715D01*
X161732818Y-125996722D01*
X161674327Y-126176740D01*
X161674326Y-126176744D01*
X161654540Y-126365000D01*
X161674326Y-126553256D01*
X161674327Y-126553259D01*
X161732818Y-126733277D01*
X161732821Y-126733284D01*
X161827467Y-126897216D01*
X161954129Y-127037888D01*
X162107265Y-127149148D01*
X162107270Y-127149151D01*
X162280192Y-127226142D01*
X162280197Y-127226144D01*
X162465354Y-127265500D01*
X162465355Y-127265500D01*
X162654644Y-127265500D01*
X162654646Y-127265500D01*
X162839803Y-127226144D01*
X163012730Y-127149151D01*
X163165871Y-127037888D01*
X163292533Y-126897216D01*
X163387179Y-126733284D01*
X163445674Y-126553256D01*
X163462989Y-126388505D01*
X163489572Y-126323894D01*
X163498619Y-126313798D01*
X166222411Y-123590008D01*
X166231452Y-123576476D01*
X166249167Y-123549966D01*
X166249167Y-123549965D01*
X166291083Y-123487233D01*
X166338385Y-123373035D01*
X166362500Y-123251803D01*
X166362500Y-114550000D01*
X169864728Y-114550000D01*
X169864811Y-114551067D01*
X169923603Y-114795956D01*
X170019980Y-115028631D01*
X170151568Y-115243362D01*
X170151571Y-115243367D01*
X170315130Y-115434869D01*
X170506632Y-115598428D01*
X170506637Y-115598431D01*
X170721368Y-115730019D01*
X170954043Y-115826396D01*
X171198932Y-115885188D01*
X171199999Y-115885271D01*
X171200000Y-115885271D01*
X171200000Y-114790747D01*
X171237708Y-114812518D01*
X171377591Y-114850000D01*
X171522409Y-114850000D01*
X171662292Y-114812518D01*
X171700000Y-114790747D01*
X171700000Y-115885271D01*
X171701067Y-115885188D01*
X171945956Y-115826396D01*
X172178631Y-115730019D01*
X172393362Y-115598431D01*
X172393367Y-115598428D01*
X172569647Y-115447870D01*
X177469500Y-115447870D01*
X177469501Y-115447876D01*
X177475908Y-115507483D01*
X177526202Y-115642328D01*
X177526206Y-115642335D01*
X177612452Y-115757544D01*
X177612455Y-115757547D01*
X177727664Y-115843793D01*
X177727671Y-115843797D01*
X177862517Y-115894091D01*
X177862516Y-115894091D01*
X177869444Y-115894835D01*
X177922127Y-115900500D01*
X180217872Y-115900499D01*
X180277483Y-115894091D01*
X180412331Y-115843796D01*
X180527546Y-115757546D01*
X180613796Y-115642331D01*
X180664091Y-115507483D01*
X180670500Y-115447873D01*
X180670499Y-114300000D01*
X181909551Y-114300000D01*
X181929317Y-114551151D01*
X181988126Y-114796110D01*
X182084533Y-115028859D01*
X182216160Y-115243653D01*
X182216161Y-115243656D01*
X182216164Y-115243659D01*
X182379776Y-115435224D01*
X182528066Y-115561875D01*
X182571343Y-115598838D01*
X182571345Y-115598838D01*
X182591661Y-115611288D01*
X182786140Y-115730466D01*
X182944702Y-115796144D01*
X183018889Y-115826873D01*
X183263852Y-115885683D01*
X183515000Y-115905449D01*
X183766148Y-115885683D01*
X184011111Y-115826873D01*
X184243859Y-115730466D01*
X184458659Y-115598836D01*
X184635417Y-115447870D01*
X189534500Y-115447870D01*
X189534501Y-115447876D01*
X189540908Y-115507483D01*
X189591202Y-115642328D01*
X189591206Y-115642335D01*
X189677452Y-115757544D01*
X189677455Y-115757547D01*
X189792664Y-115843793D01*
X189792671Y-115843797D01*
X189927517Y-115894091D01*
X189927516Y-115894091D01*
X189934444Y-115894835D01*
X189987127Y-115900500D01*
X192282872Y-115900499D01*
X192342483Y-115894091D01*
X192477331Y-115843796D01*
X192592546Y-115757546D01*
X192678796Y-115642331D01*
X192729091Y-115507483D01*
X192735500Y-115447873D01*
X192735499Y-113152128D01*
X192729091Y-113092517D01*
X192695170Y-113001571D01*
X192678797Y-112957671D01*
X192678793Y-112957664D01*
X192592547Y-112842455D01*
X192592544Y-112842452D01*
X192477335Y-112756206D01*
X192477328Y-112756202D01*
X192342482Y-112705908D01*
X192342483Y-112705908D01*
X192282883Y-112699501D01*
X192282881Y-112699500D01*
X192282873Y-112699500D01*
X192282864Y-112699500D01*
X189987129Y-112699500D01*
X189987123Y-112699501D01*
X189927516Y-112705908D01*
X189792671Y-112756202D01*
X189792664Y-112756206D01*
X189677455Y-112842452D01*
X189677452Y-112842455D01*
X189591206Y-112957664D01*
X189591202Y-112957671D01*
X189540908Y-113092517D01*
X189534501Y-113152116D01*
X189534501Y-113152123D01*
X189534500Y-113152135D01*
X189534500Y-115447870D01*
X184635417Y-115447870D01*
X184650224Y-115435224D01*
X184813836Y-115243659D01*
X184945466Y-115028859D01*
X185041873Y-114796111D01*
X185100683Y-114551148D01*
X185120449Y-114300000D01*
X185100683Y-114048852D01*
X185041873Y-113803889D01*
X184945466Y-113571141D01*
X184945466Y-113571140D01*
X184813839Y-113356346D01*
X184813838Y-113356343D01*
X184761873Y-113295500D01*
X184650224Y-113164776D01*
X184459136Y-113001571D01*
X184458656Y-113001161D01*
X184458653Y-113001160D01*
X184243859Y-112869533D01*
X184011110Y-112773126D01*
X183766151Y-112714317D01*
X183515000Y-112694551D01*
X183263848Y-112714317D01*
X183018889Y-112773126D01*
X182786140Y-112869533D01*
X182571346Y-113001160D01*
X182571343Y-113001161D01*
X182379776Y-113164776D01*
X182216161Y-113356343D01*
X182216160Y-113356346D01*
X182084533Y-113571140D01*
X181988126Y-113803889D01*
X181929317Y-114048848D01*
X181909551Y-114300000D01*
X180670499Y-114300000D01*
X180670499Y-113152128D01*
X180664091Y-113092517D01*
X180630170Y-113001571D01*
X180613797Y-112957671D01*
X180613793Y-112957664D01*
X180527547Y-112842455D01*
X180527544Y-112842452D01*
X180412335Y-112756206D01*
X180412328Y-112756202D01*
X180277482Y-112705908D01*
X180277483Y-112705908D01*
X180217883Y-112699501D01*
X180217881Y-112699500D01*
X180217873Y-112699500D01*
X180217864Y-112699500D01*
X177922129Y-112699500D01*
X177922123Y-112699501D01*
X177862516Y-112705908D01*
X177727671Y-112756202D01*
X177727664Y-112756206D01*
X177612455Y-112842452D01*
X177612452Y-112842455D01*
X177526206Y-112957664D01*
X177526202Y-112957671D01*
X177475908Y-113092517D01*
X177469501Y-113152116D01*
X177469501Y-113152123D01*
X177469500Y-113152135D01*
X177469500Y-115447870D01*
X172569647Y-115447870D01*
X172584869Y-115434869D01*
X172748428Y-115243367D01*
X172748431Y-115243362D01*
X172880019Y-115028631D01*
X172976396Y-114795956D01*
X173035188Y-114551067D01*
X173035272Y-114550000D01*
X171940748Y-114550000D01*
X171962518Y-114512292D01*
X172000000Y-114372409D01*
X172000000Y-114227591D01*
X171962518Y-114087708D01*
X171940748Y-114050000D01*
X173035271Y-114050000D01*
X173035271Y-114049999D01*
X173035188Y-114048932D01*
X172976396Y-113804043D01*
X172880019Y-113571368D01*
X172748431Y-113356637D01*
X172748428Y-113356632D01*
X172584869Y-113165130D01*
X172393367Y-113001571D01*
X172393362Y-113001568D01*
X172178631Y-112869980D01*
X171945956Y-112773603D01*
X171701064Y-112714811D01*
X171700000Y-112714726D01*
X171700000Y-113809252D01*
X171662292Y-113787482D01*
X171522409Y-113750000D01*
X171377591Y-113750000D01*
X171237708Y-113787482D01*
X171200000Y-113809252D01*
X171200000Y-112714726D01*
X171198935Y-112714811D01*
X170954043Y-112773603D01*
X170721368Y-112869980D01*
X170506637Y-113001568D01*
X170506632Y-113001571D01*
X170315130Y-113165130D01*
X170151571Y-113356632D01*
X170151568Y-113356637D01*
X170019980Y-113571368D01*
X169923603Y-113804043D01*
X169864811Y-114048932D01*
X169864728Y-114049999D01*
X169864729Y-114050000D01*
X170959252Y-114050000D01*
X170937482Y-114087708D01*
X170900000Y-114227591D01*
X170900000Y-114372409D01*
X170937482Y-114512292D01*
X170959252Y-114550000D01*
X169864728Y-114550000D01*
X166362500Y-114550000D01*
X166362500Y-109971500D01*
X166382185Y-109904461D01*
X166434989Y-109858706D01*
X166486500Y-109847500D01*
X185481804Y-109847500D01*
X185481805Y-109847499D01*
X185603035Y-109823386D01*
X185683784Y-109789937D01*
X185717233Y-109776083D01*
X185820008Y-109707411D01*
X185907411Y-109620008D01*
X190450600Y-105076819D01*
X190511923Y-105043334D01*
X190538281Y-105040500D01*
X190594644Y-105040500D01*
X190594646Y-105040500D01*
X190779803Y-105001144D01*
X190952730Y-104924151D01*
X191105871Y-104812888D01*
X191232533Y-104672216D01*
X191327179Y-104508284D01*
X191385674Y-104328256D01*
X191405460Y-104140000D01*
X191385674Y-103951744D01*
X191327179Y-103771716D01*
X191232533Y-103607784D01*
X191105871Y-103467112D01*
X191105870Y-103467111D01*
X190952734Y-103355851D01*
X190952729Y-103355848D01*
X190779807Y-103278857D01*
X190779802Y-103278855D01*
X190634001Y-103247865D01*
X190594646Y-103239500D01*
X190405354Y-103239500D01*
X190372897Y-103246398D01*
X190220197Y-103278855D01*
X190220192Y-103278857D01*
X190047270Y-103355848D01*
X190047265Y-103355851D01*
X189894129Y-103467111D01*
X189767466Y-103607785D01*
X189672821Y-103771715D01*
X189672818Y-103771722D01*
X189614327Y-103951740D01*
X189614326Y-103951744D01*
X189600932Y-104079187D01*
X189597011Y-104116489D01*
X189570426Y-104181103D01*
X189561371Y-104191208D01*
X185196400Y-108556181D01*
X185135077Y-108589666D01*
X185108719Y-108592500D01*
X156911947Y-108592500D01*
X156844908Y-108572815D01*
X156819800Y-108551476D01*
X156815871Y-108547112D01*
X156815869Y-108547111D01*
X156815867Y-108547108D01*
X156815864Y-108547106D01*
X156662734Y-108435851D01*
X156662729Y-108435848D01*
X156489807Y-108358857D01*
X156489802Y-108358855D01*
X156344001Y-108327865D01*
X156304646Y-108319500D01*
X156115354Y-108319500D01*
X156082897Y-108326398D01*
X155930197Y-108358855D01*
X155930192Y-108358857D01*
X155757270Y-108435848D01*
X155757265Y-108435851D01*
X155604129Y-108547111D01*
X155477466Y-108687785D01*
X155382821Y-108851715D01*
X155382818Y-108851722D01*
X155324327Y-109031740D01*
X155324326Y-109031744D01*
X155304540Y-109220000D01*
X147572419Y-109220000D01*
X151235919Y-105556498D01*
X151297240Y-105523015D01*
X151366932Y-105527999D01*
X151422865Y-105569871D01*
X151447215Y-105634448D01*
X151449317Y-105661148D01*
X151460747Y-105708758D01*
X151508126Y-105906110D01*
X151604533Y-106138859D01*
X151736160Y-106353653D01*
X151736161Y-106353656D01*
X151736164Y-106353659D01*
X151899776Y-106545224D01*
X152048066Y-106671875D01*
X152091343Y-106708838D01*
X152091346Y-106708839D01*
X152306140Y-106840466D01*
X152538889Y-106936873D01*
X152783852Y-106995683D01*
X153035000Y-107015449D01*
X153286148Y-106995683D01*
X153531111Y-106936873D01*
X153763859Y-106840466D01*
X153978659Y-106708836D01*
X154170224Y-106545224D01*
X154333836Y-106353659D01*
X154465466Y-106138859D01*
X154561873Y-105906111D01*
X154620683Y-105661148D01*
X154640449Y-105410000D01*
X154620683Y-105158852D01*
X154561873Y-104913889D01*
X154465466Y-104681141D01*
X154465466Y-104681140D01*
X154333839Y-104466346D01*
X154333838Y-104466343D01*
X154296875Y-104423066D01*
X154170224Y-104274776D01*
X153978679Y-104111181D01*
X153978656Y-104111161D01*
X153978653Y-104111160D01*
X153763859Y-103979533D01*
X153531110Y-103883126D01*
X153352066Y-103840142D01*
X153286148Y-103824317D01*
X153259448Y-103822215D01*
X153194161Y-103797330D01*
X153152692Y-103741098D01*
X153148207Y-103671373D01*
X153181498Y-103610919D01*
X153287417Y-103505000D01*
X157209540Y-103505000D01*
X157229326Y-103693256D01*
X157229327Y-103693259D01*
X157287818Y-103873277D01*
X157287821Y-103873284D01*
X157382467Y-104037216D01*
X157489714Y-104156325D01*
X157509129Y-104177888D01*
X157662265Y-104289148D01*
X157662270Y-104289151D01*
X157835192Y-104366142D01*
X157835197Y-104366144D01*
X158020354Y-104405500D01*
X158076719Y-104405500D01*
X158143758Y-104425185D01*
X158164400Y-104441819D01*
X158897589Y-105175008D01*
X158944321Y-105221740D01*
X158984993Y-105262412D01*
X159087760Y-105331079D01*
X159087773Y-105331086D01*
X159154781Y-105358841D01*
X159201965Y-105378385D01*
X159201969Y-105378385D01*
X159201970Y-105378386D01*
X159323194Y-105402500D01*
X159323197Y-105402500D01*
X159953053Y-105402500D01*
X160020092Y-105422185D01*
X160045199Y-105443523D01*
X160049127Y-105447886D01*
X160049132Y-105447891D01*
X160049135Y-105447893D01*
X160202265Y-105559148D01*
X160202270Y-105559151D01*
X160375192Y-105636142D01*
X160375197Y-105636144D01*
X160560354Y-105675500D01*
X160560355Y-105675500D01*
X160749644Y-105675500D01*
X160749646Y-105675500D01*
X160934803Y-105636144D01*
X161107730Y-105559151D01*
X161260871Y-105447888D01*
X161387533Y-105307216D01*
X161482179Y-105143284D01*
X161540674Y-104963256D01*
X161560460Y-104775000D01*
X161540674Y-104586744D01*
X161482179Y-104406716D01*
X161387533Y-104242784D01*
X161260871Y-104102112D01*
X161260870Y-104102111D01*
X161107734Y-103990851D01*
X161107729Y-103990848D01*
X160934807Y-103913857D01*
X160934802Y-103913855D01*
X160789001Y-103882865D01*
X160749646Y-103874500D01*
X160560354Y-103874500D01*
X160527897Y-103881398D01*
X160375197Y-103913855D01*
X160375192Y-103913857D01*
X160202270Y-103990848D01*
X160202265Y-103990851D01*
X160049135Y-104102106D01*
X160049132Y-104102108D01*
X160047175Y-104104281D01*
X160045200Y-104106474D01*
X159985714Y-104143121D01*
X159953053Y-104147500D01*
X159696281Y-104147500D01*
X159629242Y-104127815D01*
X159608600Y-104111181D01*
X159053628Y-103556209D01*
X159020143Y-103494886D01*
X159017990Y-103481506D01*
X159000674Y-103316744D01*
X158942179Y-103136716D01*
X158847533Y-102972784D01*
X158720871Y-102832112D01*
X158720870Y-102832111D01*
X158567734Y-102720851D01*
X158567729Y-102720848D01*
X158394807Y-102643857D01*
X158394802Y-102643855D01*
X158249001Y-102612865D01*
X158209646Y-102604500D01*
X158020354Y-102604500D01*
X157987897Y-102611398D01*
X157835197Y-102643855D01*
X157835192Y-102643857D01*
X157662270Y-102720848D01*
X157662265Y-102720851D01*
X157509129Y-102832111D01*
X157382466Y-102972785D01*
X157287821Y-103136715D01*
X157287818Y-103136722D01*
X157241636Y-103278857D01*
X157229326Y-103316744D01*
X157209540Y-103505000D01*
X153287417Y-103505000D01*
X162875600Y-93916819D01*
X162936923Y-93883334D01*
X162963281Y-93880500D01*
X167634620Y-93880500D01*
X167701659Y-93900185D01*
X167726766Y-93921523D01*
X167730696Y-93925888D01*
X167730699Y-93925891D01*
X167730702Y-93925893D01*
X167883832Y-94037148D01*
X167883837Y-94037151D01*
X168056759Y-94114142D01*
X168056764Y-94114144D01*
X168241921Y-94153500D01*
X168241922Y-94153500D01*
X168431211Y-94153500D01*
X168431213Y-94153500D01*
X168616370Y-94114144D01*
X168789297Y-94037151D01*
X168942438Y-93925888D01*
X169069100Y-93785216D01*
X169163746Y-93621284D01*
X169222241Y-93441256D01*
X169242027Y-93253000D01*
X169222241Y-93064744D01*
X169163746Y-92884716D01*
X169069100Y-92720784D01*
X168942438Y-92580112D01*
X168942437Y-92580111D01*
X168789301Y-92468851D01*
X168789296Y-92468848D01*
X168616374Y-92391857D01*
X168616369Y-92391855D01*
X168470568Y-92360865D01*
X168431213Y-92352500D01*
X168241921Y-92352500D01*
X168209464Y-92359398D01*
X168056764Y-92391855D01*
X168056759Y-92391857D01*
X167883837Y-92468848D01*
X167883832Y-92468851D01*
X167730702Y-92580106D01*
X167730699Y-92580108D01*
X167728742Y-92582281D01*
X167726767Y-92584474D01*
X167667281Y-92621121D01*
X167634620Y-92625500D01*
X162933141Y-92625500D01*
X162866102Y-92605815D01*
X162820347Y-92553011D01*
X162811850Y-92527280D01*
X162810674Y-92521750D01*
X162810674Y-92521744D01*
X162752179Y-92341716D01*
X162657533Y-92177784D01*
X162530871Y-92037112D01*
X162530870Y-92037111D01*
X162377734Y-91925851D01*
X162377729Y-91925848D01*
X162204807Y-91848857D01*
X162204802Y-91848855D01*
X162059001Y-91817865D01*
X162019646Y-91809500D01*
X161830354Y-91809500D01*
X161797897Y-91816398D01*
X161645197Y-91848855D01*
X161645192Y-91848857D01*
X161472270Y-91925848D01*
X161472265Y-91925851D01*
X161319135Y-92037106D01*
X161319132Y-92037108D01*
X161317175Y-92039281D01*
X161315200Y-92041474D01*
X161255714Y-92078121D01*
X161223053Y-92082500D01*
X159143750Y-92082500D01*
X159076711Y-92062815D01*
X159030956Y-92010011D01*
X159021012Y-91940853D01*
X159032807Y-91906779D01*
X159031538Y-91906214D01*
X159034174Y-91900292D01*
X159034179Y-91900284D01*
X159092674Y-91720256D01*
X159111247Y-91543536D01*
X159137832Y-91478924D01*
X159195129Y-91438939D01*
X159234568Y-91432500D01*
X159446804Y-91432500D01*
X159446805Y-91432499D01*
X159568035Y-91408386D01*
X159648784Y-91374937D01*
X159682233Y-91361083D01*
X159785008Y-91292411D01*
X159872411Y-91205008D01*
X163780600Y-87296819D01*
X163841923Y-87263334D01*
X163868281Y-87260500D01*
X163924644Y-87260500D01*
X163924646Y-87260500D01*
X164109803Y-87221144D01*
X164282730Y-87144151D01*
X164435871Y-87032888D01*
X164562533Y-86892216D01*
X164657179Y-86728284D01*
X164715674Y-86548256D01*
X164735460Y-86360000D01*
X164715674Y-86171744D01*
X164657179Y-85991716D01*
X164562533Y-85827784D01*
X164435871Y-85687112D01*
X164435870Y-85687111D01*
X164282734Y-85575851D01*
X164282729Y-85575848D01*
X164109807Y-85498857D01*
X164109802Y-85498855D01*
X163964001Y-85467865D01*
X163924646Y-85459500D01*
X163735354Y-85459500D01*
X163702897Y-85466398D01*
X163550197Y-85498855D01*
X163550192Y-85498857D01*
X163377270Y-85575848D01*
X163377265Y-85575851D01*
X163224129Y-85687111D01*
X163097466Y-85827785D01*
X163002821Y-85991715D01*
X163002818Y-85991722D01*
X162956636Y-86133857D01*
X162944326Y-86171744D01*
X162929042Y-86317169D01*
X162927011Y-86336489D01*
X162900426Y-86401103D01*
X162891371Y-86411208D01*
X162525123Y-86777456D01*
X162463800Y-86810941D01*
X162394108Y-86805957D01*
X162345293Y-86772748D01*
X162334310Y-86760550D01*
X162334302Y-86760543D01*
X162196245Y-86660239D01*
X162153579Y-86604909D01*
X162145809Y-86546964D01*
X162165460Y-86360000D01*
X162145674Y-86171744D01*
X162087179Y-85991716D01*
X161992533Y-85827784D01*
X161865871Y-85687112D01*
X161865870Y-85687111D01*
X161712734Y-85575851D01*
X161712729Y-85575848D01*
X161539807Y-85498857D01*
X161539802Y-85498855D01*
X161394001Y-85467865D01*
X161354646Y-85459500D01*
X161354645Y-85459500D01*
X161314500Y-85459500D01*
X161247461Y-85439815D01*
X161201706Y-85387011D01*
X161190500Y-85335500D01*
X161190500Y-83002281D01*
X161210185Y-82935242D01*
X161262989Y-82889487D01*
X161332147Y-82879543D01*
X161395703Y-82908568D01*
X161402181Y-82914600D01*
X163429985Y-84942406D01*
X163429992Y-84942412D01*
X163532756Y-85011076D01*
X163532759Y-85011077D01*
X163532767Y-85011083D01*
X163532773Y-85011085D01*
X163532774Y-85011086D01*
X163646960Y-85058383D01*
X163646965Y-85058385D01*
X163646969Y-85058385D01*
X163646970Y-85058386D01*
X163768193Y-85082500D01*
X163768196Y-85082500D01*
X163768197Y-85082500D01*
X167573053Y-85082500D01*
X167640092Y-85102185D01*
X167665199Y-85123523D01*
X167669129Y-85127888D01*
X167669132Y-85127891D01*
X167669135Y-85127893D01*
X167822265Y-85239148D01*
X167822270Y-85239151D01*
X167995192Y-85316142D01*
X167995197Y-85316144D01*
X168180354Y-85355500D01*
X168180355Y-85355500D01*
X168369644Y-85355500D01*
X168369646Y-85355500D01*
X168554803Y-85316144D01*
X168727730Y-85239151D01*
X168880871Y-85127888D01*
X169007533Y-84987216D01*
X169102179Y-84823284D01*
X169160674Y-84643256D01*
X169180460Y-84455000D01*
X169160674Y-84266744D01*
X169102179Y-84086716D01*
X169007533Y-83922784D01*
X168880871Y-83782112D01*
X168880870Y-83782111D01*
X168727734Y-83670851D01*
X168727729Y-83670848D01*
X168554807Y-83593857D01*
X168554802Y-83593855D01*
X168409001Y-83562865D01*
X168369646Y-83554500D01*
X168180354Y-83554500D01*
X168147897Y-83561398D01*
X167995197Y-83593855D01*
X167995192Y-83593857D01*
X167822270Y-83670848D01*
X167822265Y-83670851D01*
X167669135Y-83782106D01*
X167669132Y-83782108D01*
X167667175Y-83784281D01*
X167665200Y-83786474D01*
X167605714Y-83823121D01*
X167573053Y-83827500D01*
X164141282Y-83827500D01*
X164074243Y-83807815D01*
X164053601Y-83791181D01*
X162228628Y-81966209D01*
X162195143Y-81904886D01*
X162192990Y-81891506D01*
X162175674Y-81726744D01*
X162117179Y-81546716D01*
X162022533Y-81382784D01*
X161895871Y-81242112D01*
X161895870Y-81242111D01*
X161742734Y-81130851D01*
X161742729Y-81130848D01*
X161569807Y-81053857D01*
X161569802Y-81053855D01*
X161424001Y-81022865D01*
X161384646Y-81014500D01*
X161314500Y-81014500D01*
X161247461Y-80994815D01*
X161201706Y-80942011D01*
X161190500Y-80890500D01*
X161190500Y-78257196D01*
X161210185Y-78190157D01*
X161241614Y-78156878D01*
X161260871Y-78142888D01*
X161387533Y-78002216D01*
X161482179Y-77838284D01*
X161540674Y-77658256D01*
X161560460Y-77470000D01*
X161540674Y-77281744D01*
X161482179Y-77101716D01*
X161387533Y-76937784D01*
X161260871Y-76797112D01*
X161247753Y-76787581D01*
X161107734Y-76685851D01*
X161107729Y-76685848D01*
X160934807Y-76608857D01*
X160934802Y-76608855D01*
X160789001Y-76577865D01*
X160749646Y-76569500D01*
X160560354Y-76569500D01*
X160527897Y-76576398D01*
X160375197Y-76608855D01*
X160375192Y-76608857D01*
X160202270Y-76685848D01*
X160202265Y-76685851D01*
X160049129Y-76797111D01*
X159922466Y-76937785D01*
X159827821Y-77101715D01*
X159827818Y-77101722D01*
X159790499Y-77216580D01*
X159769326Y-77281744D01*
X159749540Y-77470000D01*
X159769326Y-77658256D01*
X159769327Y-77658259D01*
X159827818Y-77838277D01*
X159827821Y-77838284D01*
X159905310Y-77972500D01*
X159918887Y-77996015D01*
X159935500Y-78058015D01*
X159935500Y-81278719D01*
X159915815Y-81345758D01*
X159863011Y-81391513D01*
X159793853Y-81401457D01*
X159730297Y-81372432D01*
X159723819Y-81366400D01*
X159150005Y-80792586D01*
X159141850Y-80787138D01*
X159141848Y-80787137D01*
X159047238Y-80723920D01*
X159047226Y-80723913D01*
X159005917Y-80706803D01*
X158933035Y-80676614D01*
X158933027Y-80676612D01*
X158903285Y-80670696D01*
X158841374Y-80638312D01*
X158835326Y-80632051D01*
X158812871Y-80607112D01*
X158812869Y-80607110D01*
X158659734Y-80495851D01*
X158659729Y-80495848D01*
X158486807Y-80418857D01*
X158486802Y-80418855D01*
X158341001Y-80387865D01*
X158301646Y-80379500D01*
X158231500Y-80379500D01*
X158164461Y-80359815D01*
X158118706Y-80307011D01*
X158107500Y-80255500D01*
X158107500Y-79313196D01*
X158107499Y-79313195D01*
X158090079Y-79225615D01*
X158090079Y-79225612D01*
X158085282Y-79201500D01*
X158083386Y-79191966D01*
X158038407Y-79083379D01*
X158036763Y-79078784D01*
X157967414Y-78974996D01*
X157967413Y-78974994D01*
X157967411Y-78974992D01*
X157880008Y-78887589D01*
X157783628Y-78791209D01*
X157750143Y-78729886D01*
X157747990Y-78716506D01*
X157730674Y-78551744D01*
X157672179Y-78371716D01*
X157577533Y-78207784D01*
X157559693Y-78187971D01*
X157529464Y-78124981D01*
X157538089Y-78055646D01*
X157559694Y-78022028D01*
X157564500Y-78016690D01*
X157577533Y-78002216D01*
X157672179Y-77838284D01*
X157730674Y-77658256D01*
X157750460Y-77470000D01*
X157730674Y-77281744D01*
X157672179Y-77101716D01*
X157577533Y-76937784D01*
X157450871Y-76797112D01*
X157437753Y-76787581D01*
X157297734Y-76685851D01*
X157297729Y-76685848D01*
X157124807Y-76608857D01*
X157124802Y-76608855D01*
X156979001Y-76577865D01*
X156939646Y-76569500D01*
X156750354Y-76569500D01*
X156717897Y-76576398D01*
X156565197Y-76608855D01*
X156565192Y-76608857D01*
X156392270Y-76685848D01*
X156392265Y-76685851D01*
X156239129Y-76797111D01*
X156112466Y-76937785D01*
X156017821Y-77101715D01*
X156017818Y-77101722D01*
X155980499Y-77216580D01*
X155959326Y-77281744D01*
X155950421Y-77366463D01*
X155923839Y-77431076D01*
X155866542Y-77471061D01*
X155827102Y-77477500D01*
X155513194Y-77477500D01*
X155391970Y-77501613D01*
X155391960Y-77501616D01*
X155277774Y-77548913D01*
X155277756Y-77548923D01*
X155174992Y-77617587D01*
X155174985Y-77617593D01*
X152811400Y-79981181D01*
X152750077Y-80014666D01*
X152723719Y-80017500D01*
X152558947Y-80017500D01*
X152491908Y-79997815D01*
X152466800Y-79976476D01*
X152462871Y-79972112D01*
X152462869Y-79972111D01*
X152462867Y-79972108D01*
X152462864Y-79972106D01*
X152309734Y-79860851D01*
X152309729Y-79860848D01*
X152136807Y-79783857D01*
X152136802Y-79783855D01*
X151991001Y-79752865D01*
X151951646Y-79744500D01*
X151762354Y-79744500D01*
X151729897Y-79751398D01*
X151577197Y-79783855D01*
X151577192Y-79783857D01*
X151404270Y-79860848D01*
X151404265Y-79860851D01*
X151251129Y-79972111D01*
X151124466Y-80112785D01*
X151029821Y-80276715D01*
X151029818Y-80276722D01*
X150983636Y-80418857D01*
X150971326Y-80456744D01*
X150951540Y-80645000D01*
X150971326Y-80833256D01*
X150971327Y-80833259D01*
X151029818Y-81013277D01*
X151029821Y-81013284D01*
X151124467Y-81177216D01*
X151227986Y-81292185D01*
X151251129Y-81317888D01*
X151404265Y-81429148D01*
X151404270Y-81429151D01*
X151577192Y-81506142D01*
X151577197Y-81506144D01*
X151762354Y-81545500D01*
X151762355Y-81545500D01*
X151951644Y-81545500D01*
X151951646Y-81545500D01*
X152136803Y-81506144D01*
X152309730Y-81429151D01*
X152462871Y-81317888D01*
X152466799Y-81313525D01*
X152526286Y-81276879D01*
X152558947Y-81272500D01*
X153096804Y-81272500D01*
X153096805Y-81272499D01*
X153218035Y-81248386D01*
X153299841Y-81214500D01*
X153332233Y-81201083D01*
X153435008Y-81132411D01*
X153522411Y-81045008D01*
X153580970Y-80986449D01*
X153580982Y-80986435D01*
X155745051Y-78822368D01*
X155806372Y-78788885D01*
X155876064Y-78793869D01*
X155931997Y-78835741D01*
X155956050Y-78897086D01*
X155959326Y-78928256D01*
X155959327Y-78928259D01*
X156017818Y-79108277D01*
X156017821Y-79108284D01*
X156112467Y-79272216D01*
X156149365Y-79313195D01*
X156239129Y-79412888D01*
X156392265Y-79524148D01*
X156392270Y-79524151D01*
X156565192Y-79601142D01*
X156565193Y-79601142D01*
X156565197Y-79601144D01*
X156750354Y-79640500D01*
X156750356Y-79640500D01*
X156754280Y-79641334D01*
X156815762Y-79674526D01*
X156849539Y-79735689D01*
X156852500Y-79762624D01*
X156852500Y-81525500D01*
X156832815Y-81592539D01*
X156780011Y-81638294D01*
X156728500Y-81649500D01*
X156658354Y-81649500D01*
X156625897Y-81656398D01*
X156473197Y-81688855D01*
X156473192Y-81688857D01*
X156300270Y-81765848D01*
X156300265Y-81765851D01*
X156147129Y-81877111D01*
X156020466Y-82017785D01*
X155925821Y-82181715D01*
X155925818Y-82181722D01*
X155867327Y-82361740D01*
X155867326Y-82361744D01*
X155858343Y-82447212D01*
X155850011Y-82526489D01*
X155823426Y-82591103D01*
X155814371Y-82601208D01*
X154119710Y-84295869D01*
X154058387Y-84329354D01*
X153988695Y-84324370D01*
X153932762Y-84282498D01*
X153914098Y-84246506D01*
X153862181Y-84086721D01*
X153862178Y-84086715D01*
X153767533Y-83922784D01*
X153640871Y-83782112D01*
X153640870Y-83782111D01*
X153487734Y-83670851D01*
X153487729Y-83670848D01*
X153314807Y-83593857D01*
X153314802Y-83593855D01*
X153169001Y-83562865D01*
X153129646Y-83554500D01*
X152940354Y-83554500D01*
X152808096Y-83582612D01*
X152783081Y-83587929D01*
X152713414Y-83582612D01*
X152657681Y-83540474D01*
X152639371Y-83504959D01*
X152602095Y-83390233D01*
X152592181Y-83359721D01*
X152592178Y-83359715D01*
X152576196Y-83332033D01*
X152497533Y-83195784D01*
X152370871Y-83055112D01*
X152370870Y-83055111D01*
X152217734Y-82943851D01*
X152217729Y-82943848D01*
X152044807Y-82866857D01*
X152044802Y-82866855D01*
X151899001Y-82835865D01*
X151859646Y-82827500D01*
X151670354Y-82827500D01*
X151637897Y-82834398D01*
X151485197Y-82866855D01*
X151485192Y-82866857D01*
X151312270Y-82943848D01*
X151312265Y-82943851D01*
X151159135Y-83055106D01*
X151159132Y-83055108D01*
X151157175Y-83057281D01*
X151155200Y-83059474D01*
X151095714Y-83096121D01*
X151063053Y-83100500D01*
X150714281Y-83100500D01*
X150647242Y-83080815D01*
X150626600Y-83064181D01*
X149796819Y-82234400D01*
X149763334Y-82173077D01*
X149760500Y-82146719D01*
X149760500Y-78494500D01*
X149780185Y-78427461D01*
X149832989Y-78381706D01*
X149884500Y-78370500D01*
X150046644Y-78370500D01*
X150046646Y-78370500D01*
X150231803Y-78331144D01*
X150404730Y-78254151D01*
X150557871Y-78142888D01*
X150684533Y-78002216D01*
X150688339Y-77995623D01*
X150701690Y-77972500D01*
X150752257Y-77924284D01*
X150809077Y-77910500D01*
X151774896Y-77910500D01*
X151841935Y-77930185D01*
X151867042Y-77951523D01*
X151870936Y-77955848D01*
X151870975Y-77955891D01*
X151870978Y-77955893D01*
X152024108Y-78067148D01*
X152024113Y-78067151D01*
X152197035Y-78144142D01*
X152197040Y-78144144D01*
X152382197Y-78183500D01*
X152382198Y-78183500D01*
X152571487Y-78183500D01*
X152571489Y-78183500D01*
X152756646Y-78144144D01*
X152929573Y-78067151D01*
X153082714Y-77955888D01*
X153209376Y-77815216D01*
X153304022Y-77651284D01*
X153362517Y-77471256D01*
X153382303Y-77283000D01*
X153362517Y-77094744D01*
X153304022Y-76914716D01*
X153209376Y-76750784D01*
X153082714Y-76610112D01*
X153082713Y-76610111D01*
X152929577Y-76498851D01*
X152929572Y-76498848D01*
X152756650Y-76421857D01*
X152756645Y-76421855D01*
X152598569Y-76388256D01*
X152571489Y-76382500D01*
X152382197Y-76382500D01*
X152355117Y-76388256D01*
X152197040Y-76421855D01*
X152197035Y-76421857D01*
X152024113Y-76498848D01*
X152024108Y-76498851D01*
X151870978Y-76610106D01*
X151870975Y-76610108D01*
X151869018Y-76612281D01*
X151867043Y-76614474D01*
X151807557Y-76651121D01*
X151774896Y-76655500D01*
X150362923Y-76655500D01*
X150312487Y-76644779D01*
X150231807Y-76608857D01*
X150231802Y-76608855D01*
X150086001Y-76577865D01*
X150046646Y-76569500D01*
X149884500Y-76569500D01*
X149817461Y-76549815D01*
X149771706Y-76497011D01*
X149760500Y-76445500D01*
X149760500Y-68732196D01*
X149780185Y-68665157D01*
X149811614Y-68631878D01*
X149830871Y-68617888D01*
X149911441Y-68528405D01*
X149970928Y-68491757D01*
X150040785Y-68493088D01*
X150091272Y-68523697D01*
X155356899Y-73789324D01*
X155390384Y-73850647D01*
X155385400Y-73920339D01*
X155382922Y-73926403D01*
X155336636Y-74068857D01*
X155324326Y-74106744D01*
X155308522Y-74257112D01*
X155305753Y-74283462D01*
X155279168Y-74348076D01*
X155221871Y-74388061D01*
X155182432Y-74394500D01*
X154708281Y-74394500D01*
X154641242Y-74374815D01*
X154620600Y-74358181D01*
X152068628Y-71806209D01*
X152035143Y-71744886D01*
X152032990Y-71731506D01*
X152015674Y-71566744D01*
X151957179Y-71386716D01*
X151862533Y-71222784D01*
X151735871Y-71082112D01*
X151735870Y-71082111D01*
X151582734Y-70970851D01*
X151582729Y-70970848D01*
X151409807Y-70893857D01*
X151409802Y-70893855D01*
X151264001Y-70862865D01*
X151224646Y-70854500D01*
X151035354Y-70854500D01*
X151002897Y-70861398D01*
X150850197Y-70893855D01*
X150850192Y-70893857D01*
X150677270Y-70970848D01*
X150677265Y-70970851D01*
X150524129Y-71082111D01*
X150397466Y-71222785D01*
X150302821Y-71386715D01*
X150302818Y-71386722D01*
X150269819Y-71488284D01*
X150244326Y-71566744D01*
X150224540Y-71755000D01*
X150244326Y-71943256D01*
X150244327Y-71943259D01*
X150302818Y-72123277D01*
X150302821Y-72123284D01*
X150397467Y-72287216D01*
X150487204Y-72386879D01*
X150524129Y-72427888D01*
X150677265Y-72539148D01*
X150677270Y-72539151D01*
X150850192Y-72616142D01*
X150850197Y-72616144D01*
X151035354Y-72655500D01*
X151091719Y-72655500D01*
X151158758Y-72675185D01*
X151179400Y-72691819D01*
X153909589Y-75422008D01*
X153958798Y-75471217D01*
X153996993Y-75509412D01*
X154099760Y-75578079D01*
X154099773Y-75578086D01*
X154144504Y-75596614D01*
X154144505Y-75596614D01*
X154213966Y-75625386D01*
X154335192Y-75649499D01*
X154335196Y-75649500D01*
X154335197Y-75649500D01*
X163256804Y-75649500D01*
X163256805Y-75649499D01*
X163378035Y-75625386D01*
X163458784Y-75591937D01*
X163492233Y-75578083D01*
X163595008Y-75509411D01*
X163682411Y-75422008D01*
X163780600Y-75323819D01*
X163841923Y-75290334D01*
X163868281Y-75287500D01*
X163924644Y-75287500D01*
X163924646Y-75287500D01*
X164109803Y-75248144D01*
X164282730Y-75171151D01*
X164435871Y-75059888D01*
X164562533Y-74919216D01*
X164657179Y-74755284D01*
X164715674Y-74575256D01*
X164734247Y-74398536D01*
X164760832Y-74333924D01*
X164818129Y-74293939D01*
X164857568Y-74287500D01*
X172408719Y-74287500D01*
X172475758Y-74307185D01*
X172496400Y-74323819D01*
X173326181Y-75153600D01*
X173359666Y-75214923D01*
X173362500Y-75241281D01*
X173362500Y-97093534D01*
X173342815Y-97160573D01*
X173330650Y-97176506D01*
X173257466Y-97257785D01*
X173162821Y-97421715D01*
X173162818Y-97421722D01*
X173104327Y-97601740D01*
X173104326Y-97601744D01*
X173084540Y-97790000D01*
X173104326Y-97978256D01*
X173104327Y-97978259D01*
X173162818Y-98158277D01*
X173162821Y-98158284D01*
X173257467Y-98322216D01*
X173354889Y-98430414D01*
X173384129Y-98462888D01*
X173537265Y-98574148D01*
X173537270Y-98574151D01*
X173710192Y-98651142D01*
X173710197Y-98651144D01*
X173895354Y-98690500D01*
X173895355Y-98690500D01*
X174084644Y-98690500D01*
X174084646Y-98690500D01*
X174269803Y-98651144D01*
X174442730Y-98574151D01*
X174595871Y-98462888D01*
X174722533Y-98322216D01*
X174817179Y-98158284D01*
X174875674Y-97978256D01*
X174895460Y-97790000D01*
X174875674Y-97601744D01*
X174817179Y-97421716D01*
X174722533Y-97257784D01*
X174649350Y-97176506D01*
X174619120Y-97113515D01*
X174617500Y-97093534D01*
X174617500Y-78557281D01*
X174637185Y-78490242D01*
X174689989Y-78444487D01*
X174759147Y-78434543D01*
X174822703Y-78463568D01*
X174829181Y-78469600D01*
X178432400Y-82072819D01*
X178465885Y-82134142D01*
X178460901Y-82203834D01*
X178419029Y-82259767D01*
X178353565Y-82284184D01*
X178344719Y-82284500D01*
X178340354Y-82284500D01*
X178307897Y-82291398D01*
X178155197Y-82323855D01*
X178155192Y-82323857D01*
X177982270Y-82400848D01*
X177982265Y-82400851D01*
X177829129Y-82512111D01*
X177702466Y-82652785D01*
X177607821Y-82816715D01*
X177607818Y-82816722D01*
X177566512Y-82943851D01*
X177549326Y-82996744D01*
X177529540Y-83185000D01*
X177549326Y-83373256D01*
X177549327Y-83373259D01*
X177607818Y-83553277D01*
X177607821Y-83553284D01*
X177702467Y-83717216D01*
X177775651Y-83798494D01*
X177805880Y-83861484D01*
X177807500Y-83881465D01*
X177807500Y-90231807D01*
X177831612Y-90353027D01*
X177831614Y-90353035D01*
X177865062Y-90433785D01*
X177878915Y-90467230D01*
X177885490Y-90477071D01*
X177947585Y-90570003D01*
X177947591Y-90570011D01*
X180518400Y-93140819D01*
X180551885Y-93202142D01*
X180546901Y-93271834D01*
X180505029Y-93327767D01*
X180439565Y-93352184D01*
X180430719Y-93352500D01*
X180406947Y-93352500D01*
X180339908Y-93332815D01*
X180314800Y-93311476D01*
X180310871Y-93307112D01*
X180310869Y-93307111D01*
X180310867Y-93307108D01*
X180310864Y-93307106D01*
X180157734Y-93195851D01*
X180157729Y-93195848D01*
X179984807Y-93118857D01*
X179984802Y-93118855D01*
X179839001Y-93087865D01*
X179799646Y-93079500D01*
X179610354Y-93079500D01*
X179577897Y-93086398D01*
X179425197Y-93118855D01*
X179425192Y-93118857D01*
X179252270Y-93195848D01*
X179252265Y-93195851D01*
X179099129Y-93307111D01*
X178972466Y-93447785D01*
X178877821Y-93611715D01*
X178877818Y-93611722D01*
X178821447Y-93785216D01*
X178819326Y-93791744D01*
X178799540Y-93980000D01*
X178819326Y-94168256D01*
X178819327Y-94168259D01*
X178877818Y-94348277D01*
X178877821Y-94348284D01*
X178972467Y-94512216D01*
X179062204Y-94611879D01*
X179099129Y-94652888D01*
X179252265Y-94764148D01*
X179252270Y-94764151D01*
X179425192Y-94841142D01*
X179425197Y-94841144D01*
X179610354Y-94880500D01*
X179610355Y-94880500D01*
X179799644Y-94880500D01*
X179799646Y-94880500D01*
X179984803Y-94841144D01*
X180157730Y-94764151D01*
X180310871Y-94652888D01*
X180314799Y-94648525D01*
X180374286Y-94611879D01*
X180406947Y-94607500D01*
X182183197Y-94607500D01*
X182306803Y-94607500D01*
X185743719Y-94607500D01*
X185810758Y-94627185D01*
X185831400Y-94643819D01*
X189561371Y-98373790D01*
X189594856Y-98435113D01*
X189597010Y-98448505D01*
X189614326Y-98613256D01*
X189614327Y-98613259D01*
X189672818Y-98793277D01*
X189672821Y-98793284D01*
X189767467Y-98957216D01*
X189885611Y-99088428D01*
X189894129Y-99097888D01*
X190047265Y-99209148D01*
X190047270Y-99209151D01*
X190220192Y-99286142D01*
X190220197Y-99286144D01*
X190405354Y-99325500D01*
X190461719Y-99325500D01*
X190528758Y-99345185D01*
X190549400Y-99361819D01*
X193187589Y-102000008D01*
X193256236Y-102068655D01*
X193274993Y-102087412D01*
X193377760Y-102156079D01*
X193377773Y-102156086D01*
X193487351Y-102201474D01*
X193491965Y-102203385D01*
X193491969Y-102203385D01*
X193491970Y-102203386D01*
X193613194Y-102227500D01*
X193613197Y-102227500D01*
X195513053Y-102227500D01*
X195580092Y-102247185D01*
X195605199Y-102268523D01*
X195609129Y-102272888D01*
X195609132Y-102272891D01*
X195609135Y-102272893D01*
X195762265Y-102384148D01*
X195762270Y-102384151D01*
X195935192Y-102461142D01*
X195935197Y-102461144D01*
X196120354Y-102500500D01*
X196120355Y-102500500D01*
X196190500Y-102500500D01*
X196257539Y-102520185D01*
X196303294Y-102572989D01*
X196314500Y-102624500D01*
X196314500Y-123421719D01*
X196294815Y-123488758D01*
X196278181Y-123509400D01*
X195629400Y-124158181D01*
X195568077Y-124191666D01*
X195541719Y-124194500D01*
X195485354Y-124194500D01*
X195452897Y-124201398D01*
X195300197Y-124233855D01*
X195300192Y-124233857D01*
X195127270Y-124310848D01*
X195127265Y-124310851D01*
X194974129Y-124422111D01*
X194847466Y-124562785D01*
X194752821Y-124726715D01*
X194752818Y-124726722D01*
X194694327Y-124906740D01*
X194694326Y-124906744D01*
X194674540Y-125095000D01*
X194694326Y-125283256D01*
X194694327Y-125283259D01*
X194752818Y-125463277D01*
X194752821Y-125463284D01*
X194847467Y-125627216D01*
X194905899Y-125692111D01*
X194974129Y-125767888D01*
X195127265Y-125879148D01*
X195127270Y-125879151D01*
X195300192Y-125956142D01*
X195300197Y-125956144D01*
X195485354Y-125995500D01*
X195485355Y-125995500D01*
X195674644Y-125995500D01*
X195674646Y-125995500D01*
X195859803Y-125956144D01*
X196032730Y-125879151D01*
X196185871Y-125767888D01*
X196312533Y-125627216D01*
X196407179Y-125463284D01*
X196465674Y-125283256D01*
X196482989Y-125118505D01*
X196509572Y-125053894D01*
X196518619Y-125043798D01*
X197429411Y-124133008D01*
X197498083Y-124030233D01*
X197517676Y-123982930D01*
X197545386Y-123916034D01*
X197569500Y-123794803D01*
X197569500Y-123671197D01*
X197569500Y-106434500D01*
X197589185Y-106367461D01*
X197641989Y-106321706D01*
X197693500Y-106310500D01*
X197763644Y-106310500D01*
X197763646Y-106310500D01*
X197948803Y-106271144D01*
X198121730Y-106194151D01*
X198274871Y-106082888D01*
X198401533Y-105942216D01*
X198496179Y-105778284D01*
X198554674Y-105598256D01*
X198574460Y-105410000D01*
X198554674Y-105221744D01*
X198496179Y-105041716D01*
X198401533Y-104877784D01*
X198328350Y-104796506D01*
X198298120Y-104733515D01*
X198296500Y-104713534D01*
X198296500Y-101605000D01*
X201961841Y-101605000D01*
X201982436Y-101840403D01*
X201982438Y-101840413D01*
X202043594Y-102068655D01*
X202043596Y-102068659D01*
X202043597Y-102068663D01*
X202127999Y-102249663D01*
X202143465Y-102282830D01*
X202143467Y-102282834D01*
X202214411Y-102384151D01*
X202279005Y-102476401D01*
X202446099Y-102643495D01*
X202500724Y-102681744D01*
X202639665Y-102779032D01*
X202639667Y-102779033D01*
X202639670Y-102779035D01*
X202853837Y-102878903D01*
X203082092Y-102940063D01*
X203258534Y-102955500D01*
X203317499Y-102960659D01*
X203317500Y-102960659D01*
X203317501Y-102960659D01*
X203376466Y-102955500D01*
X203552908Y-102940063D01*
X203781163Y-102878903D01*
X203995330Y-102779035D01*
X204188901Y-102643495D01*
X204355995Y-102476401D01*
X204356004Y-102476388D01*
X204357136Y-102475040D01*
X204357793Y-102474602D01*
X204359823Y-102472573D01*
X204360230Y-102472980D01*
X204415305Y-102436334D01*
X204485166Y-102435220D01*
X204544538Y-102472053D01*
X204569835Y-102515733D01*
X204572686Y-102524334D01*
X204664788Y-102673656D01*
X204788844Y-102797712D01*
X204938166Y-102889814D01*
X205104703Y-102944999D01*
X205207491Y-102955500D01*
X206507508Y-102955499D01*
X206610297Y-102944999D01*
X206776834Y-102889814D01*
X206926156Y-102797712D01*
X207050212Y-102673656D01*
X207142314Y-102524334D01*
X207197499Y-102357797D01*
X207208000Y-102255009D01*
X207207999Y-100954992D01*
X207206077Y-100936181D01*
X207197499Y-100852203D01*
X207197498Y-100852200D01*
X207164199Y-100751711D01*
X207142314Y-100685666D01*
X207050212Y-100536344D01*
X206926156Y-100412288D01*
X206776834Y-100320186D01*
X206768233Y-100317336D01*
X206710790Y-100277564D01*
X206683967Y-100213048D01*
X206696282Y-100144272D01*
X206725267Y-100107517D01*
X206725073Y-100107323D01*
X206726719Y-100105676D01*
X206727540Y-100104636D01*
X206728888Y-100103504D01*
X206728901Y-100103495D01*
X206895995Y-99936401D01*
X207031535Y-99742830D01*
X207131403Y-99528663D01*
X207192563Y-99300408D01*
X207213159Y-99065000D01*
X207192563Y-98829592D01*
X207144748Y-98651142D01*
X207131405Y-98601344D01*
X207131404Y-98601343D01*
X207131403Y-98601337D01*
X207031535Y-98387171D01*
X207026231Y-98379595D01*
X206895994Y-98193597D01*
X206728902Y-98026506D01*
X206728896Y-98026501D01*
X206543342Y-97896575D01*
X206499717Y-97841998D01*
X206492523Y-97772500D01*
X206524046Y-97710145D01*
X206543342Y-97693425D01*
X206618428Y-97640849D01*
X206728901Y-97563495D01*
X206895995Y-97396401D01*
X207031535Y-97202830D01*
X207131403Y-96988663D01*
X207192563Y-96760408D01*
X207213159Y-96525000D01*
X207192563Y-96289592D01*
X207131403Y-96061337D01*
X207031535Y-95847171D01*
X207025925Y-95839158D01*
X206895994Y-95653597D01*
X206728902Y-95486506D01*
X206728895Y-95486501D01*
X206535334Y-95350967D01*
X206535330Y-95350965D01*
X206535328Y-95350964D01*
X206321163Y-95251097D01*
X206321159Y-95251096D01*
X206321155Y-95251094D01*
X206092913Y-95189938D01*
X206092903Y-95189936D01*
X205857501Y-95169341D01*
X205857499Y-95169341D01*
X205622096Y-95189936D01*
X205622086Y-95189938D01*
X205393844Y-95251094D01*
X205393835Y-95251098D01*
X205179671Y-95350964D01*
X205179669Y-95350965D01*
X204986097Y-95486505D01*
X204819005Y-95653597D01*
X204689075Y-95839158D01*
X204634498Y-95882783D01*
X204565000Y-95889977D01*
X204502645Y-95858454D01*
X204485925Y-95839158D01*
X204355994Y-95653597D01*
X204188902Y-95486506D01*
X204188895Y-95486501D01*
X203995334Y-95350967D01*
X203995330Y-95350965D01*
X203995328Y-95350964D01*
X203781163Y-95251097D01*
X203781159Y-95251096D01*
X203781155Y-95251094D01*
X203552913Y-95189938D01*
X203552903Y-95189936D01*
X203317501Y-95169341D01*
X203317499Y-95169341D01*
X203082096Y-95189936D01*
X203082086Y-95189938D01*
X202853844Y-95251094D01*
X202853835Y-95251098D01*
X202639671Y-95350964D01*
X202639669Y-95350965D01*
X202446097Y-95486505D01*
X202279005Y-95653597D01*
X202143465Y-95847169D01*
X202143464Y-95847171D01*
X202043598Y-96061335D01*
X202043594Y-96061344D01*
X201982438Y-96289586D01*
X201982436Y-96289596D01*
X201961841Y-96524999D01*
X201961841Y-96525000D01*
X201982436Y-96760403D01*
X201982438Y-96760413D01*
X202043594Y-96988655D01*
X202043596Y-96988659D01*
X202043597Y-96988663D01*
X202101817Y-97113515D01*
X202143465Y-97202830D01*
X202143467Y-97202834D01*
X202195737Y-97277482D01*
X202279005Y-97396401D01*
X202446099Y-97563495D01*
X202556575Y-97640851D01*
X202632094Y-97693730D01*
X202675718Y-97748307D01*
X202682911Y-97817806D01*
X202651389Y-97880160D01*
X202632093Y-97896880D01*
X202556126Y-97950072D01*
X202556125Y-97950072D01*
X203188090Y-98582037D01*
X203124507Y-98599075D01*
X203010493Y-98664901D01*
X202917401Y-98757993D01*
X202851575Y-98872007D01*
X202834537Y-98935590D01*
X202202572Y-98303625D01*
X202143901Y-98387419D01*
X202044070Y-98601507D01*
X202044066Y-98601516D01*
X201982932Y-98829673D01*
X201982930Y-98829684D01*
X201962343Y-99064998D01*
X201962343Y-99065001D01*
X201982930Y-99300315D01*
X201982932Y-99300326D01*
X202044066Y-99528483D01*
X202044070Y-99528492D01*
X202143900Y-99742579D01*
X202143902Y-99742583D01*
X202202572Y-99826373D01*
X202202573Y-99826373D01*
X202834537Y-99194409D01*
X202851575Y-99257993D01*
X202917401Y-99372007D01*
X203010493Y-99465099D01*
X203124507Y-99530925D01*
X203188090Y-99547962D01*
X202556125Y-100179925D01*
X202632094Y-100233119D01*
X202675719Y-100287696D01*
X202682913Y-100357194D01*
X202651390Y-100419549D01*
X202632095Y-100436269D01*
X202446094Y-100566508D01*
X202279005Y-100733597D01*
X202143465Y-100927169D01*
X202143464Y-100927171D01*
X202043598Y-101141335D01*
X202043594Y-101141344D01*
X201982438Y-101369586D01*
X201982436Y-101369596D01*
X201961841Y-101604999D01*
X201961841Y-101605000D01*
X198296500Y-101605000D01*
X198296500Y-80010005D01*
X203584357Y-80010005D01*
X203604890Y-80257812D01*
X203604892Y-80257824D01*
X203665936Y-80498881D01*
X203765826Y-80726606D01*
X203901833Y-80934782D01*
X203901836Y-80934785D01*
X204070256Y-81117738D01*
X204266491Y-81270474D01*
X204346044Y-81313526D01*
X204474023Y-81382785D01*
X204485190Y-81388828D01*
X204720386Y-81469571D01*
X204965665Y-81510500D01*
X205214335Y-81510500D01*
X205459614Y-81469571D01*
X205694810Y-81388828D01*
X205913509Y-81270474D01*
X206109744Y-81117738D01*
X206278164Y-80934785D01*
X206414173Y-80726607D01*
X206514063Y-80498881D01*
X206575108Y-80257821D01*
X206575109Y-80257812D01*
X206595643Y-80010005D01*
X206595643Y-80009994D01*
X206575109Y-79762187D01*
X206575107Y-79762175D01*
X206514063Y-79521118D01*
X206414173Y-79293393D01*
X206278166Y-79085217D01*
X206176698Y-78974994D01*
X206109744Y-78902262D01*
X205913509Y-78749526D01*
X205913507Y-78749525D01*
X205913506Y-78749524D01*
X205694811Y-78631172D01*
X205694802Y-78631169D01*
X205459616Y-78550429D01*
X205214335Y-78509500D01*
X204965665Y-78509500D01*
X204720383Y-78550429D01*
X204485197Y-78631169D01*
X204485188Y-78631172D01*
X204266493Y-78749524D01*
X204070257Y-78902261D01*
X203901833Y-79085217D01*
X203765826Y-79293393D01*
X203665936Y-79521118D01*
X203604892Y-79762175D01*
X203604890Y-79762187D01*
X203584357Y-80009994D01*
X203584357Y-80010005D01*
X198296500Y-80010005D01*
X198296500Y-71484063D01*
X198291270Y-71457768D01*
X198291270Y-71457766D01*
X198291270Y-71457765D01*
X198272387Y-71362838D01*
X198272386Y-71362831D01*
X198227412Y-71254258D01*
X198225764Y-71249652D01*
X198156414Y-71145862D01*
X198156413Y-71145860D01*
X198118368Y-71107815D01*
X198069008Y-71058455D01*
X193905553Y-66895000D01*
X205629953Y-66895000D01*
X205648092Y-67067576D01*
X205648093Y-67067579D01*
X205701712Y-67232607D01*
X205701713Y-67232609D01*
X205701714Y-67232611D01*
X205716662Y-67258501D01*
X205733134Y-67326401D01*
X205716663Y-67382498D01*
X205702173Y-67407596D01*
X205648585Y-67572523D01*
X205648584Y-67572526D01*
X205630456Y-67745000D01*
X205648584Y-67917473D01*
X205648585Y-67917476D01*
X205702174Y-68082407D01*
X205726648Y-68124797D01*
X205726649Y-68124797D01*
X206125811Y-67725634D01*
X206187134Y-67692149D01*
X206239270Y-67692025D01*
X206263345Y-67697142D01*
X206260000Y-67705218D01*
X206260000Y-67784782D01*
X206290448Y-67858291D01*
X206346709Y-67914552D01*
X206420218Y-67945000D01*
X206499782Y-67945000D01*
X206573291Y-67914552D01*
X206629552Y-67858291D01*
X206652803Y-67802156D01*
X206661429Y-67862147D01*
X206632404Y-67925703D01*
X206626372Y-67932181D01*
X206110688Y-68447864D01*
X206049365Y-68481349D01*
X205988783Y-68477016D01*
X205964478Y-68477016D01*
X205952089Y-68489407D01*
X205952082Y-68489415D01*
X205848124Y-68644999D01*
X205848119Y-68645008D01*
X205776507Y-68817896D01*
X205776506Y-68817899D01*
X205771115Y-68844999D01*
X205771116Y-68845000D01*
X206523012Y-68845000D01*
X206505795Y-68854940D01*
X206449940Y-68910795D01*
X206410444Y-68979204D01*
X206390000Y-69055504D01*
X206390000Y-69134496D01*
X206410444Y-69210796D01*
X206449940Y-69279205D01*
X206505795Y-69335060D01*
X206523012Y-69345000D01*
X205771116Y-69345000D01*
X205776506Y-69372100D01*
X205776507Y-69372103D01*
X205848119Y-69544991D01*
X205848124Y-69545000D01*
X205952086Y-69700589D01*
X205952089Y-69700593D01*
X206084406Y-69832910D01*
X206084410Y-69832913D01*
X206239999Y-69936875D01*
X206240008Y-69936880D01*
X206412894Y-70008491D01*
X206412902Y-70008493D01*
X206596428Y-70044999D01*
X206596431Y-70045000D01*
X207190000Y-70045000D01*
X207190000Y-69395000D01*
X207690000Y-69395000D01*
X207690000Y-70045000D01*
X208283569Y-70045000D01*
X208283571Y-70044999D01*
X208467097Y-70008493D01*
X208467105Y-70008491D01*
X208639991Y-69936880D01*
X208640000Y-69936875D01*
X208795589Y-69832913D01*
X208795593Y-69832910D01*
X208927910Y-69700593D01*
X208927913Y-69700589D01*
X209031875Y-69545000D01*
X209031880Y-69544991D01*
X209103492Y-69372103D01*
X209103493Y-69372100D01*
X209108884Y-69345000D01*
X208356988Y-69345000D01*
X208374205Y-69335060D01*
X208430060Y-69279205D01*
X208469556Y-69210796D01*
X208490000Y-69134496D01*
X208490000Y-69055504D01*
X208469556Y-68979204D01*
X208430060Y-68910795D01*
X208374205Y-68854940D01*
X208356988Y-68845000D01*
X209108884Y-68845000D01*
X209108884Y-68844999D01*
X209501115Y-68844999D01*
X209501116Y-68845000D01*
X210253012Y-68845000D01*
X210235795Y-68854940D01*
X210179940Y-68910795D01*
X210140444Y-68979204D01*
X210120000Y-69055504D01*
X210120000Y-69134496D01*
X210140444Y-69210796D01*
X210179940Y-69279205D01*
X210235795Y-69335060D01*
X210253012Y-69345000D01*
X209501116Y-69345000D01*
X209506506Y-69372100D01*
X209506507Y-69372103D01*
X209578119Y-69544991D01*
X209578124Y-69545000D01*
X209682086Y-69700589D01*
X209682089Y-69700593D01*
X209814406Y-69832910D01*
X209814410Y-69832913D01*
X209969999Y-69936875D01*
X209970008Y-69936880D01*
X210142894Y-70008491D01*
X210142902Y-70008493D01*
X210326428Y-70044999D01*
X210326431Y-70045000D01*
X210570000Y-70045000D01*
X210570000Y-69395000D01*
X211070000Y-69395000D01*
X211070000Y-70045000D01*
X211313569Y-70045000D01*
X211313571Y-70044999D01*
X211497097Y-70008493D01*
X211497105Y-70008491D01*
X211669991Y-69936880D01*
X211670000Y-69936875D01*
X211825589Y-69832913D01*
X211825593Y-69832910D01*
X211957910Y-69700593D01*
X211957913Y-69700589D01*
X212061875Y-69545000D01*
X212061880Y-69544991D01*
X212133492Y-69372103D01*
X212133493Y-69372100D01*
X212138884Y-69345000D01*
X211386988Y-69345000D01*
X211404205Y-69335060D01*
X211460060Y-69279205D01*
X211499556Y-69210796D01*
X211520000Y-69134496D01*
X211520000Y-69055504D01*
X211499556Y-68979204D01*
X211460060Y-68910795D01*
X211404205Y-68854940D01*
X211386988Y-68845000D01*
X212138884Y-68845000D01*
X212138884Y-68844999D01*
X212133493Y-68817899D01*
X212133492Y-68817896D01*
X212061880Y-68645008D01*
X212061875Y-68644999D01*
X211957913Y-68489410D01*
X211957910Y-68489406D01*
X211825593Y-68357089D01*
X211825589Y-68357086D01*
X211670000Y-68253124D01*
X211669991Y-68253119D01*
X211497105Y-68181508D01*
X211497097Y-68181506D01*
X211313570Y-68145000D01*
X211070000Y-68145000D01*
X211070000Y-68795000D01*
X210570000Y-68795000D01*
X210570000Y-68145000D01*
X210326430Y-68145000D01*
X210142902Y-68181506D01*
X210142894Y-68181508D01*
X209970008Y-68253119D01*
X209969999Y-68253124D01*
X209814410Y-68357086D01*
X209814406Y-68357089D01*
X209682089Y-68489406D01*
X209682086Y-68489410D01*
X209578124Y-68644999D01*
X209578119Y-68645008D01*
X209506507Y-68817896D01*
X209506506Y-68817899D01*
X209501115Y-68844999D01*
X209108884Y-68844999D01*
X209103493Y-68817899D01*
X209103492Y-68817896D01*
X209031880Y-68645008D01*
X209031875Y-68644999D01*
X208927913Y-68489410D01*
X208927910Y-68489406D01*
X208795593Y-68357089D01*
X208795589Y-68357086D01*
X208640000Y-68253124D01*
X208639986Y-68253117D01*
X208632486Y-68250010D01*
X208578084Y-68206167D01*
X208556022Y-68139872D01*
X208565964Y-68088634D01*
X208565818Y-68088587D01*
X208566204Y-68087397D01*
X208566669Y-68085004D01*
X208567827Y-68082403D01*
X208621414Y-67917476D01*
X208621415Y-67917473D01*
X208639543Y-67745000D01*
X208621415Y-67572528D01*
X208608267Y-67532063D01*
X208606272Y-67462222D01*
X208642351Y-67402389D01*
X208657301Y-67390646D01*
X208669627Y-67382411D01*
X208757030Y-67295008D01*
X208949411Y-67102627D01*
X208988250Y-67044500D01*
X209018083Y-66999852D01*
X209042667Y-66940500D01*
X209065386Y-66885653D01*
X209089500Y-66764422D01*
X209089500Y-66640816D01*
X209089500Y-62775578D01*
X209089300Y-62774575D01*
X209083930Y-62747578D01*
X209075576Y-62705578D01*
X209065386Y-62654347D01*
X209029523Y-62567768D01*
X209018083Y-62540148D01*
X208977667Y-62479661D01*
X208949414Y-62437377D01*
X208949413Y-62437375D01*
X208913915Y-62401877D01*
X208862008Y-62349970D01*
X208793535Y-62281497D01*
X208669630Y-62157591D01*
X208669622Y-62157585D01*
X208659896Y-62151086D01*
X208659896Y-62151087D01*
X208657314Y-62149362D01*
X208612505Y-62095752D01*
X208603793Y-62026428D01*
X208608268Y-62007934D01*
X208621414Y-61967475D01*
X208621415Y-61967473D01*
X208639543Y-61795000D01*
X208621415Y-61622526D01*
X208621414Y-61622523D01*
X208567828Y-61457600D01*
X208566666Y-61454991D01*
X208566445Y-61453343D01*
X208565818Y-61451414D01*
X208566170Y-61451299D01*
X208557376Y-61385741D01*
X208587000Y-61322463D01*
X208632500Y-61289981D01*
X208640001Y-61286874D01*
X208795589Y-61182913D01*
X208795593Y-61182910D01*
X208927910Y-61050593D01*
X208927913Y-61050589D01*
X209031875Y-60895000D01*
X209031880Y-60894991D01*
X209103492Y-60722103D01*
X209103493Y-60722100D01*
X209108884Y-60695000D01*
X208356988Y-60695000D01*
X208374205Y-60685060D01*
X208430060Y-60629205D01*
X208469556Y-60560796D01*
X208490000Y-60484496D01*
X208490000Y-60405504D01*
X208469556Y-60329204D01*
X208430060Y-60260795D01*
X208374205Y-60204940D01*
X208356988Y-60195000D01*
X209108884Y-60195000D01*
X209108884Y-60194999D01*
X209501115Y-60194999D01*
X209501116Y-60195000D01*
X210253012Y-60195000D01*
X210235795Y-60204940D01*
X210179940Y-60260795D01*
X210140444Y-60329204D01*
X210120000Y-60405504D01*
X210120000Y-60484496D01*
X210140444Y-60560796D01*
X210179940Y-60629205D01*
X210235795Y-60685060D01*
X210253012Y-60695000D01*
X209501116Y-60695000D01*
X209506506Y-60722100D01*
X209506507Y-60722103D01*
X209578119Y-60894991D01*
X209578124Y-60895000D01*
X209682086Y-61050589D01*
X209682089Y-61050593D01*
X209814406Y-61182910D01*
X209814410Y-61182913D01*
X209969999Y-61286875D01*
X209970008Y-61286880D01*
X210142894Y-61358491D01*
X210142902Y-61358493D01*
X210326428Y-61394999D01*
X210326431Y-61395000D01*
X210570000Y-61395000D01*
X210570000Y-60745000D01*
X211070000Y-60745000D01*
X211070000Y-61395000D01*
X211313569Y-61395000D01*
X211313571Y-61394999D01*
X211497097Y-61358493D01*
X211497105Y-61358491D01*
X211669991Y-61286880D01*
X211670000Y-61286875D01*
X211825589Y-61182913D01*
X211825593Y-61182910D01*
X211957910Y-61050593D01*
X211957913Y-61050589D01*
X212061875Y-60895000D01*
X212061880Y-60894991D01*
X212133492Y-60722103D01*
X212133493Y-60722100D01*
X212138884Y-60695000D01*
X211386988Y-60695000D01*
X211404205Y-60685060D01*
X211460060Y-60629205D01*
X211499556Y-60560796D01*
X211520000Y-60484496D01*
X211520000Y-60405504D01*
X211499556Y-60329204D01*
X211460060Y-60260795D01*
X211404205Y-60204940D01*
X211386988Y-60195000D01*
X212138884Y-60195000D01*
X212138884Y-60194999D01*
X212133493Y-60167899D01*
X212133492Y-60167896D01*
X212061880Y-59995008D01*
X212061875Y-59994999D01*
X211957913Y-59839410D01*
X211957910Y-59839406D01*
X211825593Y-59707089D01*
X211825589Y-59707086D01*
X211670000Y-59603124D01*
X211669991Y-59603119D01*
X211497105Y-59531508D01*
X211497097Y-59531506D01*
X211313570Y-59495000D01*
X211070000Y-59495000D01*
X211070000Y-60145000D01*
X210570000Y-60145000D01*
X210570000Y-59495000D01*
X210326430Y-59495000D01*
X210142902Y-59531506D01*
X210142894Y-59531508D01*
X209970008Y-59603119D01*
X209969999Y-59603124D01*
X209814410Y-59707086D01*
X209814406Y-59707089D01*
X209682089Y-59839406D01*
X209682086Y-59839410D01*
X209578124Y-59994999D01*
X209578119Y-59995008D01*
X209506507Y-60167896D01*
X209506506Y-60167899D01*
X209501115Y-60194999D01*
X209108884Y-60194999D01*
X209103493Y-60167899D01*
X209103492Y-60167896D01*
X209031880Y-59995008D01*
X209031875Y-59994999D01*
X208927913Y-59839410D01*
X208927910Y-59839406D01*
X208795593Y-59707089D01*
X208795589Y-59707086D01*
X208640000Y-59603124D01*
X208639991Y-59603119D01*
X208467105Y-59531508D01*
X208467097Y-59531506D01*
X208283570Y-59495000D01*
X207690000Y-59495000D01*
X207690000Y-60145000D01*
X207190000Y-60145000D01*
X207190000Y-59495000D01*
X206596430Y-59495000D01*
X206412902Y-59531506D01*
X206412894Y-59531508D01*
X206240008Y-59603119D01*
X206239999Y-59603124D01*
X206084410Y-59707086D01*
X206084406Y-59707089D01*
X205952089Y-59839406D01*
X205952086Y-59839410D01*
X205848124Y-59994999D01*
X205848119Y-59995008D01*
X205776507Y-60167896D01*
X205776506Y-60167899D01*
X205771115Y-60194999D01*
X205771116Y-60195000D01*
X206523012Y-60195000D01*
X206505795Y-60204940D01*
X206449940Y-60260795D01*
X206410444Y-60329204D01*
X206390000Y-60405504D01*
X206390000Y-60484496D01*
X206410444Y-60560796D01*
X206449940Y-60629205D01*
X206505795Y-60685060D01*
X206523012Y-60695000D01*
X205771116Y-60695000D01*
X205776506Y-60722100D01*
X205776507Y-60722103D01*
X205848119Y-60894991D01*
X205848124Y-60895000D01*
X205952086Y-61050589D01*
X205952089Y-61050593D01*
X205964478Y-61062982D01*
X205988709Y-61062982D01*
X205996639Y-61058651D01*
X206066331Y-61063630D01*
X206110687Y-61092134D01*
X206626372Y-61607819D01*
X206659857Y-61669142D01*
X206654873Y-61738834D01*
X206653804Y-61740261D01*
X206629552Y-61681709D01*
X206573291Y-61625448D01*
X206499782Y-61595000D01*
X206420218Y-61595000D01*
X206346709Y-61625448D01*
X206290448Y-61681709D01*
X206260000Y-61755218D01*
X206260000Y-61834782D01*
X206263344Y-61842857D01*
X206239273Y-61847974D01*
X206169606Y-61842658D01*
X206125812Y-61814365D01*
X205726649Y-61415202D01*
X205702173Y-61457595D01*
X205648585Y-61622523D01*
X205648584Y-61622526D01*
X205630456Y-61795000D01*
X205648584Y-61967473D01*
X205648585Y-61967476D01*
X205702174Y-62132407D01*
X205702176Y-62132411D01*
X205716661Y-62157501D01*
X205733132Y-62225402D01*
X205716662Y-62281497D01*
X205701713Y-62307390D01*
X205659479Y-62437377D01*
X205648092Y-62472424D01*
X205629953Y-62645000D01*
X205648092Y-62817576D01*
X205648093Y-62817579D01*
X205701713Y-62982610D01*
X205701716Y-62982616D01*
X205716372Y-63008002D01*
X205732843Y-63075902D01*
X205716372Y-63131998D01*
X205701716Y-63157383D01*
X205701713Y-63157389D01*
X205651563Y-63311740D01*
X205648092Y-63322424D01*
X205629953Y-63495000D01*
X205648092Y-63667576D01*
X205648093Y-63667579D01*
X205701713Y-63832610D01*
X205701716Y-63832616D01*
X205716372Y-63858002D01*
X205732843Y-63925902D01*
X205716372Y-63981998D01*
X205701716Y-64007383D01*
X205701713Y-64007389D01*
X205655746Y-64148866D01*
X205648092Y-64172424D01*
X205629953Y-64345000D01*
X205648092Y-64517576D01*
X205648093Y-64517579D01*
X205701713Y-64682610D01*
X205701716Y-64682616D01*
X205716372Y-64708002D01*
X205732843Y-64775902D01*
X205716372Y-64831998D01*
X205701716Y-64857383D01*
X205701713Y-64857389D01*
X205678724Y-64928145D01*
X205648092Y-65022424D01*
X205629953Y-65195000D01*
X205648092Y-65367576D01*
X205648093Y-65367579D01*
X205701713Y-65532610D01*
X205701716Y-65532616D01*
X205716372Y-65558002D01*
X205732843Y-65625902D01*
X205716372Y-65681998D01*
X205701716Y-65707383D01*
X205701713Y-65707389D01*
X205654812Y-65851740D01*
X205648092Y-65872424D01*
X205629953Y-66045000D01*
X205648092Y-66217576D01*
X205648093Y-66217579D01*
X205701713Y-66382610D01*
X205701716Y-66382616D01*
X205716372Y-66408002D01*
X205732843Y-66475902D01*
X205716372Y-66531998D01*
X205701716Y-66557383D01*
X205701713Y-66557389D01*
X205658995Y-66688866D01*
X205648092Y-66722424D01*
X205629953Y-66895000D01*
X193905553Y-66895000D01*
X193418555Y-66408002D01*
X188753145Y-61742591D01*
X188753141Y-61742588D01*
X188650373Y-61673920D01*
X188650360Y-61673913D01*
X188609051Y-61656803D01*
X188536169Y-61626614D01*
X188536161Y-61626612D01*
X188414941Y-61602500D01*
X188414937Y-61602500D01*
X184846804Y-61602500D01*
X184723197Y-61602500D01*
X184723192Y-61602500D01*
X184601973Y-61626611D01*
X184601973Y-61626612D01*
X184601970Y-61626613D01*
X184601966Y-61626614D01*
X184535070Y-61654323D01*
X184535068Y-61654323D01*
X184487770Y-61673915D01*
X184384989Y-61742590D01*
X184384988Y-61742591D01*
X184199400Y-61928181D01*
X184138077Y-61961666D01*
X184111719Y-61964500D01*
X184055354Y-61964500D01*
X184041358Y-61967475D01*
X183870197Y-62003855D01*
X183870192Y-62003857D01*
X183697270Y-62080848D01*
X183697265Y-62080851D01*
X183544129Y-62192111D01*
X183417466Y-62332785D01*
X183322821Y-62496715D01*
X183322818Y-62496722D01*
X183284278Y-62615338D01*
X183264326Y-62676744D01*
X183244540Y-62865000D01*
X183264326Y-63053256D01*
X183264327Y-63053259D01*
X183322818Y-63233277D01*
X183322821Y-63233284D01*
X183417467Y-63397216D01*
X183527999Y-63519974D01*
X183544129Y-63537888D01*
X183697265Y-63649148D01*
X183697270Y-63649151D01*
X183870192Y-63726142D01*
X183870197Y-63726144D01*
X184055354Y-63765500D01*
X184055355Y-63765500D01*
X184244644Y-63765500D01*
X184244646Y-63765500D01*
X184429803Y-63726144D01*
X184602730Y-63649151D01*
X184755871Y-63537888D01*
X184882533Y-63397216D01*
X184930486Y-63314157D01*
X184981052Y-63265943D01*
X185049659Y-63252719D01*
X185114524Y-63278687D01*
X185155053Y-63335601D01*
X185161193Y-63389117D01*
X185153157Y-63465582D01*
X185150066Y-63495000D01*
X185149540Y-63500000D01*
X185169326Y-63688256D01*
X185169327Y-63688259D01*
X185227818Y-63868277D01*
X185227821Y-63868284D01*
X185322467Y-64032216D01*
X185395651Y-64113494D01*
X185425880Y-64176484D01*
X185427500Y-64196465D01*
X185427500Y-64589941D01*
X185451612Y-64711162D01*
X185451615Y-64711172D01*
X185465631Y-64745009D01*
X185498915Y-64825363D01*
X185498920Y-64825373D01*
X185547293Y-64897767D01*
X185547294Y-64897768D01*
X185567590Y-64928144D01*
X185567591Y-64928145D01*
X196278181Y-75638734D01*
X196311666Y-75700057D01*
X196314500Y-75726415D01*
X196314500Y-86784584D01*
X196294815Y-86851623D01*
X196242011Y-86897378D01*
X196172853Y-86907322D01*
X196109297Y-86878297D01*
X196102819Y-86872265D01*
X189240559Y-80010005D01*
X192184357Y-80010005D01*
X192204890Y-80257812D01*
X192204892Y-80257824D01*
X192265936Y-80498881D01*
X192365826Y-80726606D01*
X192501833Y-80934782D01*
X192501836Y-80934785D01*
X192670256Y-81117738D01*
X192866491Y-81270474D01*
X192946044Y-81313526D01*
X193074023Y-81382785D01*
X193085190Y-81388828D01*
X193320386Y-81469571D01*
X193565665Y-81510500D01*
X193814335Y-81510500D01*
X194059614Y-81469571D01*
X194294810Y-81388828D01*
X194513509Y-81270474D01*
X194709744Y-81117738D01*
X194878164Y-80934785D01*
X195014173Y-80726607D01*
X195114063Y-80498881D01*
X195175108Y-80257821D01*
X195175109Y-80257812D01*
X195195643Y-80010005D01*
X195195643Y-80009994D01*
X195175109Y-79762187D01*
X195175107Y-79762175D01*
X195114063Y-79521118D01*
X195014173Y-79293393D01*
X194878166Y-79085217D01*
X194776698Y-78974994D01*
X194709744Y-78902262D01*
X194513509Y-78749526D01*
X194513507Y-78749525D01*
X194513506Y-78749524D01*
X194294811Y-78631172D01*
X194294802Y-78631169D01*
X194059616Y-78550429D01*
X193814335Y-78509500D01*
X193565665Y-78509500D01*
X193320383Y-78550429D01*
X193085197Y-78631169D01*
X193085188Y-78631172D01*
X192866493Y-78749524D01*
X192670257Y-78902261D01*
X192501833Y-79085217D01*
X192365826Y-79293393D01*
X192265936Y-79521118D01*
X192204892Y-79762175D01*
X192204890Y-79762187D01*
X192184357Y-80009994D01*
X192184357Y-80010005D01*
X189240559Y-80010005D01*
X180498147Y-71267593D01*
X180498143Y-71267590D01*
X180498142Y-71267589D01*
X180469772Y-71248633D01*
X180469770Y-71248631D01*
X180395373Y-71198920D01*
X180395360Y-71198913D01*
X180354051Y-71181803D01*
X180281169Y-71151614D01*
X180281161Y-71151612D01*
X180159941Y-71127500D01*
X180159937Y-71127500D01*
X177231947Y-71127500D01*
X177164908Y-71107815D01*
X177139800Y-71086476D01*
X177135871Y-71082112D01*
X177135869Y-71082111D01*
X177135867Y-71082108D01*
X177135864Y-71082106D01*
X176982734Y-70970851D01*
X176982729Y-70970848D01*
X176809807Y-70893857D01*
X176809802Y-70893855D01*
X176664001Y-70862865D01*
X176624646Y-70854500D01*
X176435354Y-70854500D01*
X176402897Y-70861398D01*
X176250197Y-70893855D01*
X176250192Y-70893857D01*
X176077270Y-70970848D01*
X176077265Y-70970851D01*
X175924129Y-71082111D01*
X175797466Y-71222785D01*
X175702821Y-71386715D01*
X175702818Y-71386722D01*
X175669819Y-71488284D01*
X175644326Y-71566744D01*
X175624540Y-71755000D01*
X175644326Y-71943256D01*
X175644327Y-71943259D01*
X175702818Y-72123277D01*
X175702821Y-72123284D01*
X175797467Y-72287216D01*
X175887204Y-72386879D01*
X175924129Y-72427888D01*
X176077265Y-72539148D01*
X176077270Y-72539151D01*
X176250192Y-72616142D01*
X176250197Y-72616144D01*
X176435354Y-72655500D01*
X176435355Y-72655500D01*
X176624644Y-72655500D01*
X176624646Y-72655500D01*
X176809803Y-72616144D01*
X176982730Y-72539151D01*
X177135871Y-72427888D01*
X177139799Y-72423525D01*
X177199286Y-72386879D01*
X177231947Y-72382500D01*
X179786853Y-72382500D01*
X179853892Y-72402185D01*
X179874534Y-72418819D01*
X190726425Y-83270710D01*
X190759910Y-83332033D01*
X190754926Y-83401725D01*
X190713054Y-83457658D01*
X190647590Y-83482075D01*
X190638744Y-83482391D01*
X190610390Y-83482391D01*
X190543351Y-83462706D01*
X190522709Y-83446072D01*
X180792229Y-73715591D01*
X180792223Y-73715586D01*
X180790250Y-73714268D01*
X180790246Y-73714266D01*
X180689457Y-73646920D01*
X180689444Y-73646913D01*
X180656003Y-73633062D01*
X180575253Y-73599614D01*
X180575245Y-73599612D01*
X180454025Y-73575500D01*
X180454021Y-73575500D01*
X176669056Y-73575500D01*
X176602017Y-73555815D01*
X176576909Y-73534476D01*
X176572980Y-73530112D01*
X176572978Y-73530111D01*
X176572976Y-73530108D01*
X176572973Y-73530106D01*
X176419843Y-73418851D01*
X176419838Y-73418848D01*
X176246916Y-73341857D01*
X176246911Y-73341855D01*
X176101110Y-73310865D01*
X176061755Y-73302500D01*
X175872463Y-73302500D01*
X175840006Y-73309398D01*
X175687306Y-73341855D01*
X175687301Y-73341857D01*
X175514379Y-73418848D01*
X175514374Y-73418851D01*
X175361238Y-73530111D01*
X175234575Y-73670785D01*
X175139930Y-73834715D01*
X175139927Y-73834722D01*
X175092182Y-73981667D01*
X175052744Y-74039343D01*
X175000035Y-74064639D01*
X174980193Y-74068856D01*
X174980192Y-74068857D01*
X174807270Y-74145848D01*
X174807265Y-74145851D01*
X174654132Y-74257109D01*
X174654129Y-74257111D01*
X174654129Y-74257112D01*
X174537177Y-74387000D01*
X174528545Y-74396587D01*
X174469058Y-74433235D01*
X174399201Y-74431904D01*
X174348714Y-74401295D01*
X173120012Y-73172592D01*
X173120008Y-73172589D01*
X173088627Y-73151621D01*
X173088625Y-73151620D01*
X173088625Y-73151619D01*
X173017238Y-73103920D01*
X173017226Y-73103913D01*
X172975917Y-73086803D01*
X172903035Y-73056614D01*
X172903027Y-73056612D01*
X172781807Y-73032500D01*
X172781803Y-73032500D01*
X161991947Y-73032500D01*
X161924908Y-73012815D01*
X161899800Y-72991476D01*
X161895871Y-72987112D01*
X161895869Y-72987111D01*
X161895867Y-72987108D01*
X161895864Y-72987106D01*
X161742734Y-72875851D01*
X161742729Y-72875848D01*
X161619043Y-72820779D01*
X161565806Y-72775529D01*
X161545485Y-72708680D01*
X161564531Y-72641456D01*
X161616897Y-72595201D01*
X161619043Y-72594221D01*
X161671498Y-72570865D01*
X161742730Y-72539151D01*
X161895871Y-72427888D01*
X162022533Y-72287216D01*
X162117179Y-72123284D01*
X162175674Y-71943256D01*
X162195460Y-71755000D01*
X162175674Y-71566744D01*
X162117179Y-71386716D01*
X162022533Y-71222784D01*
X161895871Y-71082112D01*
X161895870Y-71082111D01*
X161742734Y-70970851D01*
X161742729Y-70970848D01*
X161569807Y-70893857D01*
X161569802Y-70893855D01*
X161424001Y-70862865D01*
X161384646Y-70854500D01*
X161195354Y-70854500D01*
X161162897Y-70861398D01*
X161010197Y-70893855D01*
X161010192Y-70893857D01*
X160837270Y-70970848D01*
X160837265Y-70970851D01*
X160684129Y-71082111D01*
X160557466Y-71222785D01*
X160462821Y-71386715D01*
X160462818Y-71386722D01*
X160429819Y-71488284D01*
X160404326Y-71566744D01*
X160395343Y-71652215D01*
X160387011Y-71731489D01*
X160360426Y-71796103D01*
X160351371Y-71806208D01*
X159161400Y-72996181D01*
X159100077Y-73029666D01*
X159073719Y-73032500D01*
X158816947Y-73032500D01*
X158749908Y-73012815D01*
X158724800Y-72991476D01*
X158720871Y-72987112D01*
X158720869Y-72987111D01*
X158720867Y-72987108D01*
X158720866Y-72987107D01*
X158655556Y-72939658D01*
X158612889Y-72884328D01*
X158606910Y-72814715D01*
X158639515Y-72752920D01*
X158640687Y-72751730D01*
X161513600Y-69878819D01*
X161574923Y-69845334D01*
X161601281Y-69842500D01*
X161858053Y-69842500D01*
X161925092Y-69862185D01*
X161950199Y-69883523D01*
X161954129Y-69887888D01*
X161954132Y-69887891D01*
X161954135Y-69887893D01*
X162107265Y-69999148D01*
X162107270Y-69999151D01*
X162280192Y-70076142D01*
X162280197Y-70076144D01*
X162465354Y-70115500D01*
X162465355Y-70115500D01*
X162654644Y-70115500D01*
X162654646Y-70115500D01*
X162839803Y-70076144D01*
X163012730Y-69999151D01*
X163165871Y-69887888D01*
X163292533Y-69747216D01*
X163387179Y-69583284D01*
X163445674Y-69403256D01*
X163465460Y-69215000D01*
X163445674Y-69026744D01*
X163387179Y-68846716D01*
X163292533Y-68682784D01*
X163165871Y-68542112D01*
X163165870Y-68542111D01*
X163012734Y-68430851D01*
X163012729Y-68430848D01*
X162839807Y-68353857D01*
X162839802Y-68353855D01*
X162694001Y-68322865D01*
X162654646Y-68314500D01*
X162465354Y-68314500D01*
X162432897Y-68321398D01*
X162280197Y-68353855D01*
X162280192Y-68353857D01*
X162107270Y-68430848D01*
X162107265Y-68430851D01*
X161954135Y-68542106D01*
X161954132Y-68542108D01*
X161952175Y-68544281D01*
X161950200Y-68546474D01*
X161890714Y-68583121D01*
X161858053Y-68587500D01*
X161228192Y-68587500D01*
X161106973Y-68611612D01*
X161106965Y-68611614D01*
X161052280Y-68634266D01*
X161052279Y-68634266D01*
X160992773Y-68658913D01*
X160992760Y-68658920D01*
X160889992Y-68727588D01*
X160889988Y-68727591D01*
X156821757Y-72795822D01*
X156784513Y-72821420D01*
X156662264Y-72875850D01*
X156509128Y-72987110D01*
X156504297Y-72991460D01*
X156502832Y-72989833D01*
X156451973Y-73021163D01*
X156382116Y-73019830D01*
X156331635Y-72989222D01*
X150073007Y-66730593D01*
X150073001Y-66730588D01*
X150055028Y-66718579D01*
X149970233Y-66661920D01*
X149970220Y-66661913D01*
X149936779Y-66648062D01*
X149856029Y-66614614D01*
X149856021Y-66614612D01*
X149734801Y-66590500D01*
X149734797Y-66590500D01*
X136678803Y-66590500D01*
X136555196Y-66590500D01*
X136555194Y-66590500D01*
X136433970Y-66614613D01*
X136433960Y-66614616D01*
X136319773Y-66661913D01*
X136319760Y-66661920D01*
X136216992Y-66730588D01*
X136216988Y-66730591D01*
X129589400Y-73358181D01*
X129528077Y-73391666D01*
X129501719Y-73394500D01*
X129445354Y-73394500D01*
X129412897Y-73401398D01*
X129260197Y-73433855D01*
X129260192Y-73433857D01*
X129087270Y-73510848D01*
X129087265Y-73510851D01*
X128934129Y-73622111D01*
X128807466Y-73762785D01*
X128712821Y-73926715D01*
X128712818Y-73926722D01*
X128666636Y-74068857D01*
X128654326Y-74106744D01*
X128634540Y-74295000D01*
X128654326Y-74483256D01*
X128654327Y-74483259D01*
X128712818Y-74663277D01*
X128712821Y-74663284D01*
X128807467Y-74827216D01*
X128915772Y-74947500D01*
X128934129Y-74967888D01*
X129087265Y-75079148D01*
X129087270Y-75079151D01*
X129220913Y-75138654D01*
X129274150Y-75183904D01*
X129294471Y-75250754D01*
X129275425Y-75317977D01*
X129223059Y-75364232D01*
X129170477Y-75375933D01*
X111239714Y-75375933D01*
X111172675Y-75356248D01*
X111152033Y-75339614D01*
X105078628Y-69266209D01*
X105045143Y-69204886D01*
X105042990Y-69191506D01*
X105025674Y-69026744D01*
X104967179Y-68846716D01*
X104872533Y-68682784D01*
X104745871Y-68542112D01*
X104745870Y-68542111D01*
X104592734Y-68430851D01*
X104592729Y-68430848D01*
X104419807Y-68353857D01*
X104419802Y-68353855D01*
X104274001Y-68322865D01*
X104234646Y-68314500D01*
X104045354Y-68314500D01*
X104012897Y-68321398D01*
X103860197Y-68353855D01*
X103860192Y-68353857D01*
X103687270Y-68430848D01*
X103687265Y-68430851D01*
X103534129Y-68542111D01*
X103407466Y-68682785D01*
X103312821Y-68846715D01*
X103312818Y-68846722D01*
X103254327Y-69026740D01*
X103254326Y-69026744D01*
X103234540Y-69215000D01*
X103254326Y-69403256D01*
X103254327Y-69403259D01*
X103312818Y-69583277D01*
X103312821Y-69583284D01*
X103407467Y-69747216D01*
X103495813Y-69845334D01*
X103534129Y-69887888D01*
X103687265Y-69999148D01*
X103687270Y-69999151D01*
X103860192Y-70076142D01*
X103860197Y-70076144D01*
X104045354Y-70115500D01*
X104101719Y-70115500D01*
X104168758Y-70135185D01*
X104189400Y-70151819D01*
X110441022Y-76403441D01*
X110528425Y-76490844D01*
X110528426Y-76490845D01*
X110631193Y-76559512D01*
X110631197Y-76559514D01*
X110631200Y-76559516D01*
X110652365Y-76568283D01*
X110652367Y-76568284D01*
X110652368Y-76568284D01*
X110745398Y-76606819D01*
X110866625Y-76630932D01*
X110866629Y-76630933D01*
X110866630Y-76630933D01*
X133479620Y-76630933D01*
X133546659Y-76650618D01*
X133571766Y-76671956D01*
X133575696Y-76676321D01*
X133575699Y-76676324D01*
X133575702Y-76676326D01*
X133728832Y-76787581D01*
X133728837Y-76787584D01*
X133901759Y-76864575D01*
X133901764Y-76864577D01*
X134086921Y-76903933D01*
X134086922Y-76903933D01*
X134276211Y-76903933D01*
X134276213Y-76903933D01*
X134461370Y-76864577D01*
X134634297Y-76787584D01*
X134787438Y-76676321D01*
X134914100Y-76535649D01*
X135008746Y-76371717D01*
X135067241Y-76191689D01*
X135087027Y-76003433D01*
X135067241Y-75815177D01*
X135008746Y-75635149D01*
X134914100Y-75471217D01*
X134787438Y-75330545D01*
X134787437Y-75330544D01*
X134634301Y-75219284D01*
X134634296Y-75219281D01*
X134461374Y-75142290D01*
X134461369Y-75142288D01*
X134315568Y-75111298D01*
X134276213Y-75102933D01*
X134086921Y-75102933D01*
X134054464Y-75109831D01*
X133901764Y-75142288D01*
X133901759Y-75142290D01*
X133728837Y-75219281D01*
X133728832Y-75219284D01*
X133575702Y-75330539D01*
X133575699Y-75330541D01*
X133573742Y-75332714D01*
X133571767Y-75334907D01*
X133512281Y-75371554D01*
X133479620Y-75375933D01*
X129909523Y-75375933D01*
X129842484Y-75356248D01*
X129796729Y-75303444D01*
X129786785Y-75234286D01*
X129815810Y-75170730D01*
X129859087Y-75138654D01*
X129939315Y-75102933D01*
X129992730Y-75079151D01*
X130145871Y-74967888D01*
X130272533Y-74827216D01*
X130367179Y-74663284D01*
X130425674Y-74483256D01*
X130442989Y-74318505D01*
X130469572Y-74253894D01*
X130478619Y-74243798D01*
X136840600Y-67881819D01*
X136901923Y-67848334D01*
X136928281Y-67845500D01*
X148197432Y-67845500D01*
X148264471Y-67865185D01*
X148310226Y-67917989D01*
X148320752Y-67956535D01*
X148339326Y-68133256D01*
X148339327Y-68133259D01*
X148397818Y-68313277D01*
X148397820Y-68313282D01*
X148397821Y-68313284D01*
X148465696Y-68430848D01*
X148488887Y-68471015D01*
X148505500Y-68533015D01*
X148505500Y-76198719D01*
X148485815Y-76265758D01*
X148433011Y-76311513D01*
X148363853Y-76321457D01*
X148300297Y-76292432D01*
X148293819Y-76286400D01*
X148258628Y-76251209D01*
X148225143Y-76189886D01*
X148222990Y-76176506D01*
X148205674Y-76011744D01*
X148147179Y-75831716D01*
X148052533Y-75667784D01*
X147925871Y-75527112D01*
X147925870Y-75527111D01*
X147772734Y-75415851D01*
X147772729Y-75415848D01*
X147599807Y-75338857D01*
X147599802Y-75338855D01*
X147433201Y-75303444D01*
X147414646Y-75299500D01*
X147225354Y-75299500D01*
X147206799Y-75303444D01*
X147040197Y-75338855D01*
X147040192Y-75338857D01*
X146867270Y-75415848D01*
X146867265Y-75415851D01*
X146714129Y-75527111D01*
X146587466Y-75667785D01*
X146492821Y-75831715D01*
X146492818Y-75831722D01*
X146437026Y-76003433D01*
X146434326Y-76011744D01*
X146414540Y-76200000D01*
X146434326Y-76388256D01*
X146434327Y-76388259D01*
X146492818Y-76568277D01*
X146492820Y-76568281D01*
X146492821Y-76568284D01*
X146587467Y-76732216D01*
X146604186Y-76750784D01*
X146714129Y-76872888D01*
X146867265Y-76984148D01*
X146867270Y-76984151D01*
X147040192Y-77061142D01*
X147040197Y-77061144D01*
X147225354Y-77100500D01*
X147281719Y-77100500D01*
X147348758Y-77120185D01*
X147369400Y-77136819D01*
X147926181Y-77693600D01*
X147959666Y-77754923D01*
X147962500Y-77781281D01*
X147962500Y-79620500D01*
X147942815Y-79687539D01*
X147890011Y-79733294D01*
X147838500Y-79744500D01*
X147768354Y-79744500D01*
X147735897Y-79751398D01*
X147583197Y-79783855D01*
X147583192Y-79783857D01*
X147410270Y-79860848D01*
X147410265Y-79860851D01*
X147257135Y-79972106D01*
X147257132Y-79972108D01*
X147255175Y-79974281D01*
X147253200Y-79976474D01*
X147193714Y-80013121D01*
X147161053Y-80017500D01*
X141514281Y-80017500D01*
X141447242Y-79997815D01*
X141401487Y-79945011D01*
X141391543Y-79875853D01*
X141420568Y-79812297D01*
X141426600Y-79805819D01*
X147270600Y-73961819D01*
X147331923Y-73928334D01*
X147358281Y-73925500D01*
X147414644Y-73925500D01*
X147414646Y-73925500D01*
X147599803Y-73886144D01*
X147772730Y-73809151D01*
X147925871Y-73697888D01*
X148052533Y-73557216D01*
X148147179Y-73393284D01*
X148205674Y-73213256D01*
X148225460Y-73025000D01*
X148205674Y-72836744D01*
X148147179Y-72656716D01*
X148052533Y-72492784D01*
X147925871Y-72352112D01*
X147925870Y-72352111D01*
X147772734Y-72240851D01*
X147772729Y-72240848D01*
X147599807Y-72163857D01*
X147599802Y-72163855D01*
X147454001Y-72132865D01*
X147414646Y-72124500D01*
X147225354Y-72124500D01*
X147192897Y-72131398D01*
X147040197Y-72163855D01*
X147040192Y-72163857D01*
X146867270Y-72240848D01*
X146867265Y-72240851D01*
X146714129Y-72352111D01*
X146587466Y-72492785D01*
X146492821Y-72656715D01*
X146492818Y-72656722D01*
X146439513Y-72820779D01*
X146434326Y-72836744D01*
X146430216Y-72875849D01*
X146417011Y-73001489D01*
X146390426Y-73066103D01*
X146381371Y-73076208D01*
X140292400Y-79165181D01*
X140231077Y-79198666D01*
X140204719Y-79201500D01*
X139397563Y-79201500D01*
X139330524Y-79181815D01*
X139284769Y-79129011D01*
X139274825Y-79059853D01*
X139279632Y-79039182D01*
X139300487Y-78974996D01*
X139315674Y-78928256D01*
X139335460Y-78740000D01*
X139315674Y-78551744D01*
X139257179Y-78371716D01*
X139162533Y-78207784D01*
X139035871Y-78067112D01*
X139023350Y-78058015D01*
X138882734Y-77955851D01*
X138882729Y-77955848D01*
X138709807Y-77878857D01*
X138709802Y-77878855D01*
X138564001Y-77847865D01*
X138524646Y-77839500D01*
X138335354Y-77839500D01*
X138302897Y-77846398D01*
X138150197Y-77878855D01*
X138150192Y-77878857D01*
X137977270Y-77955848D01*
X137977265Y-77955851D01*
X137824129Y-78067111D01*
X137697466Y-78207785D01*
X137602821Y-78371715D01*
X137602818Y-78371722D01*
X137558052Y-78509500D01*
X137544326Y-78551744D01*
X137535421Y-78636463D01*
X137508839Y-78701076D01*
X137451542Y-78741061D01*
X137412102Y-78747500D01*
X117413195Y-78747500D01*
X117291970Y-78771613D01*
X117291960Y-78771616D01*
X117177771Y-78818914D01*
X117177764Y-78818918D01*
X117155880Y-78833541D01*
X117129158Y-78851396D01*
X117074988Y-78887591D01*
X108817696Y-87144883D01*
X108756373Y-87178368D01*
X108686681Y-87173384D01*
X108637866Y-87140175D01*
X108555871Y-87049112D01*
X108555870Y-87049111D01*
X108402734Y-86937851D01*
X108402729Y-86937848D01*
X108229807Y-86860857D01*
X108229802Y-86860855D01*
X108084001Y-86829865D01*
X108044646Y-86821500D01*
X107855354Y-86821500D01*
X107822897Y-86828398D01*
X107670197Y-86860855D01*
X107670192Y-86860857D01*
X107497270Y-86937848D01*
X107497265Y-86937851D01*
X107344135Y-87049106D01*
X107344132Y-87049108D01*
X107342175Y-87051281D01*
X107340200Y-87053474D01*
X107280714Y-87090121D01*
X107248053Y-87094500D01*
X105983195Y-87094500D01*
X105861970Y-87118613D01*
X105861960Y-87118616D01*
X105747773Y-87165913D01*
X105747761Y-87165920D01*
X105665114Y-87221144D01*
X105665113Y-87221145D01*
X105644989Y-87234590D01*
X105644988Y-87234591D01*
X104824400Y-88055181D01*
X104763077Y-88088666D01*
X104736719Y-88091500D01*
X104680354Y-88091500D01*
X104647897Y-88098398D01*
X104495197Y-88130855D01*
X104495192Y-88130857D01*
X104322270Y-88207848D01*
X104322265Y-88207851D01*
X104169129Y-88319111D01*
X104042466Y-88459785D01*
X103947821Y-88623715D01*
X103947818Y-88623722D01*
X103898836Y-88774474D01*
X103889326Y-88803744D01*
X103869540Y-88992000D01*
X103889326Y-89180256D01*
X103889327Y-89180259D01*
X103947818Y-89360277D01*
X103947821Y-89360284D01*
X104042467Y-89524216D01*
X104169129Y-89664888D01*
X104322265Y-89776148D01*
X104322270Y-89776151D01*
X104495192Y-89853142D01*
X104495197Y-89853144D01*
X104680354Y-89892500D01*
X104680355Y-89892500D01*
X104869644Y-89892500D01*
X104869646Y-89892500D01*
X105054803Y-89853144D01*
X105227730Y-89776151D01*
X105380871Y-89664888D01*
X105507533Y-89524216D01*
X105602179Y-89360284D01*
X105660674Y-89180256D01*
X105677989Y-89015505D01*
X105704572Y-88950894D01*
X105713618Y-88940799D01*
X106268600Y-88385819D01*
X106329923Y-88352334D01*
X106356281Y-88349500D01*
X107248053Y-88349500D01*
X107315092Y-88369185D01*
X107340199Y-88390523D01*
X107344129Y-88394888D01*
X107344973Y-88395501D01*
X107356157Y-88403627D01*
X107398823Y-88458957D01*
X107404802Y-88528570D01*
X107372196Y-88590365D01*
X107370953Y-88591626D01*
X102919400Y-93043181D01*
X102858077Y-93076666D01*
X102831719Y-93079500D01*
X102775354Y-93079500D01*
X102742897Y-93086398D01*
X102590197Y-93118855D01*
X102590192Y-93118857D01*
X102417270Y-93195848D01*
X102417265Y-93195851D01*
X102264129Y-93307111D01*
X102137466Y-93447785D01*
X102042821Y-93611715D01*
X102042818Y-93611722D01*
X101986447Y-93785216D01*
X101984326Y-93791744D01*
X101964540Y-93980000D01*
X90805000Y-93980000D01*
X90805000Y-92075000D01*
X94529341Y-92075000D01*
X94549936Y-92310403D01*
X94549938Y-92310413D01*
X94611094Y-92538655D01*
X94611096Y-92538659D01*
X94611097Y-92538663D01*
X94690800Y-92709586D01*
X94710965Y-92752830D01*
X94710967Y-92752834D01*
X94769462Y-92836373D01*
X94846505Y-92946401D01*
X95013599Y-93113495D01*
X95021257Y-93118857D01*
X95207165Y-93249032D01*
X95207167Y-93249033D01*
X95207170Y-93249035D01*
X95421337Y-93348903D01*
X95649592Y-93410063D01*
X95807975Y-93423920D01*
X95884999Y-93430659D01*
X95885000Y-93430659D01*
X95885001Y-93430659D01*
X95924234Y-93427226D01*
X96120408Y-93410063D01*
X96348663Y-93348903D01*
X96562830Y-93249035D01*
X96756401Y-93113495D01*
X96923495Y-92946401D01*
X97053732Y-92760403D01*
X97108307Y-92716780D01*
X97177805Y-92709586D01*
X97240160Y-92741109D01*
X97256880Y-92760405D01*
X97310073Y-92836373D01*
X97942037Y-92204409D01*
X97959075Y-92267993D01*
X98024901Y-92382007D01*
X98117993Y-92475099D01*
X98232007Y-92540925D01*
X98295590Y-92557962D01*
X97663625Y-93189925D01*
X97747421Y-93248599D01*
X97961507Y-93348429D01*
X97961516Y-93348433D01*
X98189673Y-93409567D01*
X98189684Y-93409569D01*
X98424998Y-93430157D01*
X98425002Y-93430157D01*
X98660315Y-93409569D01*
X98660326Y-93409567D01*
X98888483Y-93348433D01*
X98888492Y-93348429D01*
X99102578Y-93248600D01*
X99102582Y-93248598D01*
X99186373Y-93189926D01*
X99186373Y-93189925D01*
X98554409Y-92557962D01*
X98617993Y-92540925D01*
X98732007Y-92475099D01*
X98825099Y-92382007D01*
X98890925Y-92267993D01*
X98907962Y-92204410D01*
X99539925Y-92836373D01*
X99539926Y-92836373D01*
X99598598Y-92752582D01*
X99598600Y-92752578D01*
X99698429Y-92538492D01*
X99698433Y-92538483D01*
X99759567Y-92310326D01*
X99759569Y-92310315D01*
X99780157Y-92075001D01*
X99780157Y-92074998D01*
X99759569Y-91839684D01*
X99759567Y-91839673D01*
X99698433Y-91611516D01*
X99698429Y-91611507D01*
X99598600Y-91397423D01*
X99598599Y-91397421D01*
X99539925Y-91313626D01*
X99539925Y-91313625D01*
X98907962Y-91945589D01*
X98890925Y-91882007D01*
X98825099Y-91767993D01*
X98732007Y-91674901D01*
X98617993Y-91609075D01*
X98554410Y-91592037D01*
X99186373Y-90960073D01*
X99186373Y-90960072D01*
X99110405Y-90906880D01*
X99066780Y-90852304D01*
X99059586Y-90782805D01*
X99091108Y-90720451D01*
X99110399Y-90703734D01*
X99296401Y-90573495D01*
X99463495Y-90406401D01*
X99599035Y-90212830D01*
X99698903Y-89998663D01*
X99760063Y-89770408D01*
X99780659Y-89535000D01*
X99760063Y-89299592D01*
X99699810Y-89074722D01*
X99698905Y-89071344D01*
X99698904Y-89071343D01*
X99698903Y-89071337D01*
X99599035Y-88857171D01*
X99593425Y-88849158D01*
X99463494Y-88663597D01*
X99296402Y-88496506D01*
X99296396Y-88496501D01*
X99110842Y-88366575D01*
X99067217Y-88311998D01*
X99060023Y-88242500D01*
X99091546Y-88180145D01*
X99110842Y-88163425D01*
X99176554Y-88117413D01*
X99296401Y-88033495D01*
X99463495Y-87866401D01*
X99599035Y-87672830D01*
X99698903Y-87458663D01*
X99760063Y-87230408D01*
X99780659Y-86995000D01*
X99760063Y-86759592D01*
X99698903Y-86531337D01*
X99599035Y-86317171D01*
X99589922Y-86304155D01*
X99463494Y-86123597D01*
X99296402Y-85956506D01*
X99296395Y-85956501D01*
X99288744Y-85951144D01*
X99247484Y-85922253D01*
X99102834Y-85820967D01*
X99102830Y-85820965D01*
X99062777Y-85802288D01*
X98888663Y-85721097D01*
X98888659Y-85721096D01*
X98888655Y-85721094D01*
X98660413Y-85659938D01*
X98660403Y-85659936D01*
X98425001Y-85639341D01*
X98424999Y-85639341D01*
X98189596Y-85659936D01*
X98189586Y-85659938D01*
X97961344Y-85721094D01*
X97961335Y-85721098D01*
X97747171Y-85820964D01*
X97747169Y-85820965D01*
X97553597Y-85956505D01*
X97386503Y-86123599D01*
X97385349Y-86124975D01*
X97384688Y-86125414D01*
X97382676Y-86127427D01*
X97382271Y-86127022D01*
X97327173Y-86163671D01*
X97257312Y-86164772D01*
X97197946Y-86127928D01*
X97172663Y-86084265D01*
X97169814Y-86075666D01*
X97077712Y-85926344D01*
X96953656Y-85802288D01*
X96860888Y-85745069D01*
X96804336Y-85710187D01*
X96804331Y-85710185D01*
X96734698Y-85687111D01*
X96637797Y-85655001D01*
X96637795Y-85655000D01*
X96535010Y-85644500D01*
X95234998Y-85644500D01*
X95234981Y-85644501D01*
X95132203Y-85655000D01*
X95132200Y-85655001D01*
X94965668Y-85710185D01*
X94965663Y-85710187D01*
X94816342Y-85802289D01*
X94692289Y-85926342D01*
X94600187Y-86075663D01*
X94600185Y-86075668D01*
X94583701Y-86125414D01*
X94545001Y-86242203D01*
X94545001Y-86242204D01*
X94545000Y-86242204D01*
X94534500Y-86344983D01*
X94534500Y-87645001D01*
X94534501Y-87645018D01*
X94545000Y-87747796D01*
X94545001Y-87747799D01*
X94600185Y-87914331D01*
X94600187Y-87914336D01*
X94633107Y-87967708D01*
X94692288Y-88063656D01*
X94816344Y-88187712D01*
X94965666Y-88279814D01*
X94974264Y-88282663D01*
X95031707Y-88322433D01*
X95058531Y-88386948D01*
X95046217Y-88455724D01*
X95017234Y-88492483D01*
X95017427Y-88492676D01*
X95015798Y-88494304D01*
X95014975Y-88495349D01*
X95013599Y-88496503D01*
X94846505Y-88663597D01*
X94710965Y-88857169D01*
X94710964Y-88857171D01*
X94611098Y-89071335D01*
X94611094Y-89071344D01*
X94549938Y-89299586D01*
X94549936Y-89299596D01*
X94529341Y-89534999D01*
X94529341Y-89535000D01*
X94549936Y-89770403D01*
X94549938Y-89770413D01*
X94611094Y-89998655D01*
X94611096Y-89998659D01*
X94611097Y-89998663D01*
X94615000Y-90007032D01*
X94710965Y-90212830D01*
X94710967Y-90212834D01*
X94737341Y-90250499D01*
X94846501Y-90406396D01*
X94846506Y-90406402D01*
X95013597Y-90573493D01*
X95013603Y-90573498D01*
X95199158Y-90703425D01*
X95242783Y-90758002D01*
X95249977Y-90827500D01*
X95218454Y-90889855D01*
X95199158Y-90906575D01*
X95013597Y-91036505D01*
X94846505Y-91203597D01*
X94710965Y-91397169D01*
X94710964Y-91397171D01*
X94611098Y-91611335D01*
X94611094Y-91611344D01*
X94549938Y-91839586D01*
X94549936Y-91839596D01*
X94529341Y-92074999D01*
X94529341Y-92075000D01*
X90805000Y-92075000D01*
X90805000Y-76195000D01*
X92624341Y-76195000D01*
X92644936Y-76430403D01*
X92644938Y-76430413D01*
X92706094Y-76658655D01*
X92706096Y-76658659D01*
X92706097Y-76658663D01*
X92766213Y-76787581D01*
X92805965Y-76872830D01*
X92805967Y-76872834D01*
X92835298Y-76914722D01*
X92941501Y-77066396D01*
X92941506Y-77066402D01*
X93063430Y-77188326D01*
X93096915Y-77249649D01*
X93091931Y-77319341D01*
X93050059Y-77375274D01*
X93019083Y-77392189D01*
X92887669Y-77441203D01*
X92887664Y-77441206D01*
X92772455Y-77527452D01*
X92772452Y-77527455D01*
X92686206Y-77642664D01*
X92686202Y-77642671D01*
X92635908Y-77777517D01*
X92629501Y-77837116D01*
X92629501Y-77837123D01*
X92629500Y-77837135D01*
X92629500Y-79632870D01*
X92629501Y-79632876D01*
X92635908Y-79692483D01*
X92686202Y-79827328D01*
X92686206Y-79827335D01*
X92772452Y-79942544D01*
X92772455Y-79942547D01*
X92887664Y-80028793D01*
X92887671Y-80028797D01*
X93022517Y-80079091D01*
X93022516Y-80079091D01*
X93029444Y-80079835D01*
X93082127Y-80085500D01*
X94877872Y-80085499D01*
X94937483Y-80079091D01*
X95072331Y-80028796D01*
X95187546Y-79942546D01*
X95273796Y-79827331D01*
X95324091Y-79692483D01*
X95330500Y-79632873D01*
X95330499Y-77837128D01*
X95324091Y-77777517D01*
X95273796Y-77642669D01*
X95273795Y-77642668D01*
X95273793Y-77642664D01*
X95187547Y-77527455D01*
X95187544Y-77527452D01*
X95072335Y-77441206D01*
X95072328Y-77441202D01*
X94940917Y-77392189D01*
X94884983Y-77350318D01*
X94860566Y-77284853D01*
X94875418Y-77216580D01*
X94896563Y-77188332D01*
X95018495Y-77066401D01*
X95154035Y-76872830D01*
X95253903Y-76658663D01*
X95315063Y-76430408D01*
X95335659Y-76195000D01*
X95334039Y-76176489D01*
X95319625Y-76011740D01*
X95315063Y-75959592D01*
X95253903Y-75731337D01*
X95154035Y-75517171D01*
X95148603Y-75509412D01*
X95018494Y-75323597D01*
X94851402Y-75156506D01*
X94851396Y-75156501D01*
X94665842Y-75026575D01*
X94622217Y-74971998D01*
X94615023Y-74902500D01*
X94646546Y-74840145D01*
X94665842Y-74823425D01*
X94763167Y-74755277D01*
X94851401Y-74693495D01*
X95018495Y-74526401D01*
X95154035Y-74332830D01*
X95253903Y-74118663D01*
X95315063Y-73890408D01*
X95335659Y-73655000D01*
X95334951Y-73646913D01*
X95315063Y-73419596D01*
X95315063Y-73419592D01*
X95253903Y-73191337D01*
X95154035Y-72977171D01*
X95127769Y-72939658D01*
X95018494Y-72783597D01*
X94851402Y-72616506D01*
X94851396Y-72616501D01*
X94665842Y-72486575D01*
X94622217Y-72431998D01*
X94615023Y-72362500D01*
X94646546Y-72300145D01*
X94665842Y-72283425D01*
X94726648Y-72240848D01*
X94851401Y-72153495D01*
X95018495Y-71986401D01*
X95154035Y-71792830D01*
X95253903Y-71578663D01*
X95315063Y-71350408D01*
X95335659Y-71115000D01*
X95315063Y-70879592D01*
X95253903Y-70651337D01*
X95154035Y-70437171D01*
X95083091Y-70335851D01*
X95018494Y-70243597D01*
X94851402Y-70076506D01*
X94851396Y-70076501D01*
X94665842Y-69946575D01*
X94622217Y-69891998D01*
X94615023Y-69822500D01*
X94646546Y-69760145D01*
X94665842Y-69743425D01*
X94727018Y-69700589D01*
X94851401Y-69613495D01*
X95018495Y-69446401D01*
X95154035Y-69252830D01*
X95253903Y-69038663D01*
X95315063Y-68810408D01*
X95335659Y-68575000D01*
X95315063Y-68339592D01*
X95253903Y-68111337D01*
X95154035Y-67897171D01*
X95143286Y-67881819D01*
X95018494Y-67703597D01*
X94851402Y-67536506D01*
X94851395Y-67536501D01*
X94657834Y-67400967D01*
X94657830Y-67400965D01*
X94619066Y-67382889D01*
X94443663Y-67301097D01*
X94443659Y-67301096D01*
X94443655Y-67301094D01*
X94215413Y-67239938D01*
X94215403Y-67239936D01*
X93980001Y-67219341D01*
X93979999Y-67219341D01*
X93744596Y-67239936D01*
X93744586Y-67239938D01*
X93516344Y-67301094D01*
X93516335Y-67301098D01*
X93302171Y-67400964D01*
X93302169Y-67400965D01*
X93108597Y-67536505D01*
X92941505Y-67703597D01*
X92805965Y-67897169D01*
X92805964Y-67897171D01*
X92706098Y-68111335D01*
X92706094Y-68111344D01*
X92644938Y-68339586D01*
X92644936Y-68339596D01*
X92624341Y-68574999D01*
X92624341Y-68575000D01*
X92644936Y-68810403D01*
X92644938Y-68810413D01*
X92706094Y-69038655D01*
X92706096Y-69038659D01*
X92706097Y-69038663D01*
X92750785Y-69134496D01*
X92805965Y-69252830D01*
X92805967Y-69252834D01*
X92941501Y-69446395D01*
X92941506Y-69446402D01*
X93108597Y-69613493D01*
X93108603Y-69613498D01*
X93294158Y-69743425D01*
X93337783Y-69798002D01*
X93344977Y-69867500D01*
X93313454Y-69929855D01*
X93294158Y-69946575D01*
X93108597Y-70076505D01*
X92941505Y-70243597D01*
X92805965Y-70437169D01*
X92805964Y-70437171D01*
X92706098Y-70651335D01*
X92706094Y-70651344D01*
X92644938Y-70879586D01*
X92644936Y-70879596D01*
X92624341Y-71114999D01*
X92624341Y-71115000D01*
X92644936Y-71350403D01*
X92644938Y-71350413D01*
X92706094Y-71578655D01*
X92706096Y-71578659D01*
X92706097Y-71578663D01*
X92777361Y-71731489D01*
X92805965Y-71792830D01*
X92805967Y-71792834D01*
X92941501Y-71986395D01*
X92941506Y-71986402D01*
X93108597Y-72153493D01*
X93108603Y-72153498D01*
X93294158Y-72283425D01*
X93337783Y-72338002D01*
X93344977Y-72407500D01*
X93313454Y-72469855D01*
X93294158Y-72486575D01*
X93108597Y-72616505D01*
X92941505Y-72783597D01*
X92805965Y-72977169D01*
X92805964Y-72977171D01*
X92706098Y-73191335D01*
X92706094Y-73191344D01*
X92644938Y-73419586D01*
X92644936Y-73419596D01*
X92624341Y-73654999D01*
X92624341Y-73655000D01*
X92644936Y-73890403D01*
X92644938Y-73890413D01*
X92706094Y-74118655D01*
X92706096Y-74118659D01*
X92706097Y-74118663D01*
X92770656Y-74257109D01*
X92805965Y-74332830D01*
X92805967Y-74332834D01*
X92911297Y-74483259D01*
X92932355Y-74513334D01*
X92941501Y-74526395D01*
X92941506Y-74526402D01*
X93108597Y-74693493D01*
X93108603Y-74693498D01*
X93294158Y-74823425D01*
X93337783Y-74878002D01*
X93344977Y-74947500D01*
X93313454Y-75009855D01*
X93294158Y-75026575D01*
X93108597Y-75156505D01*
X92941505Y-75323597D01*
X92805965Y-75517169D01*
X92805964Y-75517171D01*
X92706098Y-75731335D01*
X92706094Y-75731344D01*
X92644938Y-75959586D01*
X92644936Y-75959596D01*
X92624341Y-76194999D01*
X92624341Y-76195000D01*
X90805000Y-76195000D01*
X90805000Y-63145001D01*
X97544500Y-63145001D01*
X97544501Y-63145018D01*
X97555000Y-63247796D01*
X97555001Y-63247799D01*
X97604513Y-63397214D01*
X97610186Y-63414334D01*
X97702288Y-63563656D01*
X97826344Y-63687712D01*
X97975666Y-63779814D01*
X98142203Y-63834999D01*
X98244991Y-63845500D01*
X99585008Y-63845499D01*
X99687797Y-63834999D01*
X99854334Y-63779814D01*
X100003656Y-63687712D01*
X100127712Y-63563656D01*
X100219814Y-63414334D01*
X100219817Y-63414323D01*
X100220353Y-63413177D01*
X100220934Y-63412516D01*
X100223605Y-63408187D01*
X100224344Y-63408643D01*
X100266521Y-63360734D01*
X100333713Y-63341577D01*
X100400596Y-63361788D01*
X100420420Y-63377892D01*
X100562502Y-63519974D01*
X100736963Y-63646728D01*
X100929098Y-63744627D01*
X101134190Y-63811266D01*
X101205000Y-63822481D01*
X101205000Y-62792709D01*
X101225339Y-62804452D01*
X101376667Y-62845000D01*
X101533333Y-62845000D01*
X101684661Y-62804452D01*
X101705000Y-62792709D01*
X101705000Y-63822480D01*
X101775809Y-63811266D01*
X101980901Y-63744627D01*
X102173036Y-63646728D01*
X102347496Y-63519974D01*
X102347497Y-63519974D01*
X102499974Y-63367497D01*
X102499974Y-63367496D01*
X102626728Y-63193036D01*
X102651203Y-63145001D01*
X104674500Y-63145001D01*
X104674501Y-63145018D01*
X104685000Y-63247796D01*
X104685001Y-63247799D01*
X104734513Y-63397214D01*
X104740186Y-63414334D01*
X104832288Y-63563656D01*
X104956344Y-63687712D01*
X105105666Y-63779814D01*
X105272203Y-63834999D01*
X105374991Y-63845500D01*
X106715008Y-63845499D01*
X106817797Y-63834999D01*
X106984334Y-63779814D01*
X107133656Y-63687712D01*
X107257712Y-63563656D01*
X107349814Y-63414334D01*
X107349817Y-63414323D01*
X107350353Y-63413177D01*
X107350934Y-63412516D01*
X107353605Y-63408187D01*
X107354344Y-63408643D01*
X107396521Y-63360734D01*
X107463713Y-63341577D01*
X107530596Y-63361788D01*
X107550420Y-63377892D01*
X107692502Y-63519974D01*
X107866963Y-63646728D01*
X108059098Y-63744627D01*
X108264190Y-63811266D01*
X108335000Y-63822481D01*
X108335000Y-62792709D01*
X108355339Y-62804452D01*
X108506667Y-62845000D01*
X108663333Y-62845000D01*
X108814661Y-62804452D01*
X108835000Y-62792709D01*
X108835000Y-63822480D01*
X108905809Y-63811266D01*
X109110901Y-63744627D01*
X109303036Y-63646728D01*
X109477496Y-63519974D01*
X109477497Y-63519974D01*
X109629974Y-63367497D01*
X109629974Y-63367496D01*
X109756728Y-63193036D01*
X109781203Y-63145001D01*
X111804500Y-63145001D01*
X111804501Y-63145018D01*
X111815000Y-63247796D01*
X111815001Y-63247799D01*
X111864513Y-63397214D01*
X111870186Y-63414334D01*
X111962288Y-63563656D01*
X112086344Y-63687712D01*
X112235666Y-63779814D01*
X112402203Y-63834999D01*
X112504991Y-63845500D01*
X113845008Y-63845499D01*
X113947797Y-63834999D01*
X114114334Y-63779814D01*
X114263656Y-63687712D01*
X114387712Y-63563656D01*
X114479814Y-63414334D01*
X114479817Y-63414323D01*
X114480353Y-63413177D01*
X114480934Y-63412516D01*
X114483605Y-63408187D01*
X114484344Y-63408643D01*
X114526521Y-63360734D01*
X114593713Y-63341577D01*
X114660596Y-63361788D01*
X114680420Y-63377892D01*
X114822502Y-63519974D01*
X114996963Y-63646728D01*
X115189098Y-63744627D01*
X115394190Y-63811266D01*
X115465000Y-63822481D01*
X115465000Y-62792709D01*
X115485339Y-62804452D01*
X115636667Y-62845000D01*
X115793333Y-62845000D01*
X115944661Y-62804452D01*
X115965000Y-62792709D01*
X115965000Y-63822480D01*
X116035809Y-63811266D01*
X116240901Y-63744627D01*
X116433036Y-63646728D01*
X116607496Y-63519974D01*
X116607497Y-63519974D01*
X116759974Y-63367497D01*
X116759974Y-63367496D01*
X116886728Y-63193036D01*
X116911203Y-63145001D01*
X119279500Y-63145001D01*
X119279501Y-63145018D01*
X119290000Y-63247796D01*
X119290001Y-63247799D01*
X119339513Y-63397214D01*
X119345186Y-63414334D01*
X119437288Y-63563656D01*
X119561344Y-63687712D01*
X119710666Y-63779814D01*
X119877203Y-63834999D01*
X119979991Y-63845500D01*
X121320008Y-63845499D01*
X121422797Y-63834999D01*
X121589334Y-63779814D01*
X121738656Y-63687712D01*
X121862712Y-63563656D01*
X121954814Y-63414334D01*
X121954817Y-63414323D01*
X121955353Y-63413177D01*
X121955934Y-63412516D01*
X121958605Y-63408187D01*
X121959344Y-63408643D01*
X122001521Y-63360734D01*
X122068713Y-63341577D01*
X122135596Y-63361788D01*
X122155420Y-63377892D01*
X122297502Y-63519974D01*
X122471963Y-63646728D01*
X122664098Y-63744627D01*
X122869190Y-63811266D01*
X122940000Y-63822481D01*
X122940000Y-62792709D01*
X122960339Y-62804452D01*
X123111667Y-62845000D01*
X123268333Y-62845000D01*
X123419661Y-62804452D01*
X123440000Y-62792709D01*
X123440000Y-63822480D01*
X123510809Y-63811266D01*
X123715901Y-63744627D01*
X123908036Y-63646728D01*
X124082496Y-63519974D01*
X124082497Y-63519974D01*
X124102471Y-63500000D01*
X161654540Y-63500000D01*
X161674326Y-63688256D01*
X161674327Y-63688259D01*
X161732818Y-63868277D01*
X161732821Y-63868284D01*
X161827467Y-64032216D01*
X161953708Y-64172420D01*
X161954129Y-64172888D01*
X162107265Y-64284148D01*
X162107270Y-64284151D01*
X162280192Y-64361142D01*
X162280197Y-64361144D01*
X162465354Y-64400500D01*
X162465355Y-64400500D01*
X162654644Y-64400500D01*
X162654646Y-64400500D01*
X162839803Y-64361144D01*
X163012730Y-64284151D01*
X163165871Y-64172888D01*
X163292533Y-64032216D01*
X163387179Y-63868284D01*
X163445674Y-63688256D01*
X163465460Y-63500000D01*
X163445674Y-63311744D01*
X163387179Y-63131716D01*
X163292533Y-62967784D01*
X163219350Y-62886506D01*
X163189120Y-62823515D01*
X163187500Y-62803534D01*
X163187500Y-61906281D01*
X163207185Y-61839242D01*
X163223819Y-61818600D01*
X163780600Y-61261819D01*
X163841923Y-61228334D01*
X163868281Y-61225500D01*
X163924644Y-61225500D01*
X163924646Y-61225500D01*
X164109803Y-61186144D01*
X164282730Y-61109151D01*
X164435871Y-60997888D01*
X164562533Y-60857216D01*
X164657179Y-60693284D01*
X164715674Y-60513256D01*
X164735460Y-60325000D01*
X164715674Y-60136744D01*
X164657179Y-59956716D01*
X164562533Y-59792784D01*
X164435871Y-59652112D01*
X164368438Y-59603119D01*
X164282734Y-59540851D01*
X164282729Y-59540848D01*
X164109807Y-59463857D01*
X164109802Y-59463855D01*
X163964001Y-59432865D01*
X163924646Y-59424500D01*
X163735354Y-59424500D01*
X163702897Y-59431398D01*
X163550197Y-59463855D01*
X163550192Y-59463857D01*
X163377270Y-59540848D01*
X163377265Y-59540851D01*
X163224129Y-59652111D01*
X163097466Y-59792785D01*
X163002821Y-59956715D01*
X163002818Y-59956722D01*
X162944327Y-60136740D01*
X162944326Y-60136744D01*
X162931288Y-60260795D01*
X162927011Y-60301489D01*
X162900426Y-60366103D01*
X162891371Y-60376208D01*
X162331239Y-60936342D01*
X162159992Y-61107589D01*
X162135079Y-61132502D01*
X162072586Y-61194994D01*
X162072585Y-61194996D01*
X162003233Y-61298789D01*
X162001586Y-61303393D01*
X161956614Y-61411964D01*
X161956612Y-61411972D01*
X161937847Y-61506306D01*
X161937848Y-61506307D01*
X161932500Y-61533196D01*
X161932500Y-62803534D01*
X161912815Y-62870573D01*
X161900650Y-62886506D01*
X161827466Y-62967785D01*
X161732821Y-63131715D01*
X161732818Y-63131722D01*
X161674327Y-63311740D01*
X161674326Y-63311744D01*
X161654540Y-63500000D01*
X124102471Y-63500000D01*
X124234974Y-63367497D01*
X124234974Y-63367496D01*
X124361728Y-63193036D01*
X124459627Y-63000901D01*
X124526265Y-62795809D01*
X124560000Y-62582820D01*
X124560000Y-62500000D01*
X123732709Y-62500000D01*
X123744452Y-62479661D01*
X123785000Y-62328333D01*
X123785000Y-62171667D01*
X123744452Y-62020339D01*
X123732709Y-62000000D01*
X124560000Y-62000000D01*
X124560000Y-61917179D01*
X124526265Y-61704190D01*
X124490788Y-61595002D01*
X139824723Y-61595002D01*
X139843793Y-61812975D01*
X139843793Y-61812979D01*
X139900422Y-62024322D01*
X139900424Y-62024326D01*
X139900425Y-62024330D01*
X139933730Y-62095752D01*
X139992897Y-62222638D01*
X140017998Y-62258486D01*
X140118402Y-62401877D01*
X140273123Y-62556598D01*
X140452361Y-62682102D01*
X140650670Y-62774575D01*
X140650676Y-62774576D01*
X140650677Y-62774577D01*
X140654413Y-62775578D01*
X140862023Y-62831207D01*
X141044926Y-62847208D01*
X141079998Y-62850277D01*
X141080000Y-62850277D01*
X141080002Y-62850277D01*
X141108254Y-62847805D01*
X141297977Y-62831207D01*
X141509330Y-62774575D01*
X141707639Y-62682102D01*
X141886877Y-62556598D01*
X142041598Y-62401877D01*
X142167102Y-62222639D01*
X142259575Y-62024330D01*
X142316207Y-61812977D01*
X142335277Y-61595002D01*
X144704723Y-61595002D01*
X144723793Y-61812975D01*
X144723793Y-61812979D01*
X144780422Y-62024322D01*
X144780424Y-62024326D01*
X144780425Y-62024330D01*
X144813730Y-62095752D01*
X144872897Y-62222638D01*
X144897998Y-62258486D01*
X144998402Y-62401877D01*
X145153123Y-62556598D01*
X145332361Y-62682102D01*
X145530670Y-62774575D01*
X145530676Y-62774576D01*
X145530677Y-62774577D01*
X145534413Y-62775578D01*
X145742023Y-62831207D01*
X145924926Y-62847208D01*
X145959998Y-62850277D01*
X145960000Y-62850277D01*
X145960002Y-62850277D01*
X145988254Y-62847805D01*
X146177977Y-62831207D01*
X146389330Y-62774575D01*
X146587639Y-62682102D01*
X146766877Y-62556598D01*
X146921598Y-62401877D01*
X147047102Y-62222639D01*
X147139575Y-62024330D01*
X147196207Y-61812977D01*
X147215277Y-61595000D01*
X147196207Y-61377023D01*
X147145061Y-61186144D01*
X147139577Y-61165677D01*
X147139576Y-61165676D01*
X147139575Y-61165670D01*
X147047102Y-60967362D01*
X147047100Y-60967359D01*
X147047099Y-60967357D01*
X146921599Y-60788124D01*
X146853660Y-60720185D01*
X146766877Y-60633402D01*
X146628978Y-60536844D01*
X146587638Y-60507897D01*
X146488484Y-60461661D01*
X146389330Y-60415425D01*
X146389326Y-60415424D01*
X146389322Y-60415422D01*
X146177977Y-60358793D01*
X145960002Y-60339723D01*
X145959998Y-60339723D01*
X145814682Y-60352436D01*
X145742023Y-60358793D01*
X145742020Y-60358793D01*
X145530677Y-60415422D01*
X145530668Y-60415426D01*
X145332361Y-60507898D01*
X145332357Y-60507900D01*
X145153121Y-60633402D01*
X144998402Y-60788121D01*
X144872900Y-60967357D01*
X144872898Y-60967361D01*
X144807509Y-61107589D01*
X144785125Y-61155592D01*
X144780426Y-61165668D01*
X144780422Y-61165677D01*
X144723793Y-61377020D01*
X144723793Y-61377024D01*
X144704723Y-61594997D01*
X144704723Y-61595002D01*
X142335277Y-61595002D01*
X142335277Y-61595000D01*
X142316207Y-61377023D01*
X142265061Y-61186144D01*
X142259577Y-61165677D01*
X142259576Y-61165676D01*
X142259575Y-61165670D01*
X142167102Y-60967362D01*
X142167100Y-60967359D01*
X142167099Y-60967357D01*
X142041599Y-60788124D01*
X141973660Y-60720185D01*
X141886877Y-60633402D01*
X141748978Y-60536844D01*
X141707638Y-60507897D01*
X141608484Y-60461661D01*
X141509330Y-60415425D01*
X141509326Y-60415424D01*
X141509322Y-60415422D01*
X141297977Y-60358793D01*
X141080002Y-60339723D01*
X141079998Y-60339723D01*
X140934682Y-60352436D01*
X140862023Y-60358793D01*
X140862020Y-60358793D01*
X140650677Y-60415422D01*
X140650668Y-60415426D01*
X140452361Y-60507898D01*
X140452357Y-60507900D01*
X140273121Y-60633402D01*
X140118402Y-60788121D01*
X139992900Y-60967357D01*
X139992898Y-60967361D01*
X139927509Y-61107589D01*
X139905125Y-61155592D01*
X139900426Y-61165668D01*
X139900422Y-61165677D01*
X139843793Y-61377020D01*
X139843793Y-61377024D01*
X139824723Y-61594997D01*
X139824723Y-61595002D01*
X124490788Y-61595002D01*
X124459627Y-61499098D01*
X124361728Y-61306963D01*
X124234974Y-61132503D01*
X124234974Y-61132502D01*
X124082497Y-60980025D01*
X123908036Y-60853271D01*
X123715899Y-60755372D01*
X123510805Y-60688733D01*
X123440000Y-60677518D01*
X123440000Y-61707290D01*
X123419661Y-61695548D01*
X123268333Y-61655000D01*
X123111667Y-61655000D01*
X122960339Y-61695548D01*
X122940000Y-61707290D01*
X122940000Y-60677518D01*
X122939999Y-60677518D01*
X122869194Y-60688733D01*
X122664100Y-60755372D01*
X122471963Y-60853271D01*
X122297506Y-60980022D01*
X122155420Y-61122108D01*
X122094097Y-61155592D01*
X122024405Y-61150608D01*
X121968472Y-61108736D01*
X121955356Y-61086828D01*
X121954816Y-61085670D01*
X121938151Y-61058651D01*
X121862712Y-60936344D01*
X121738656Y-60812288D01*
X121589334Y-60720186D01*
X121422797Y-60665001D01*
X121422795Y-60665000D01*
X121320010Y-60654500D01*
X119979998Y-60654500D01*
X119979981Y-60654501D01*
X119877203Y-60665000D01*
X119877200Y-60665001D01*
X119710668Y-60720185D01*
X119710663Y-60720187D01*
X119561342Y-60812289D01*
X119437289Y-60936342D01*
X119345187Y-61085663D01*
X119345185Y-61085668D01*
X119337921Y-61107589D01*
X119290001Y-61252203D01*
X119290001Y-61252204D01*
X119290000Y-61252204D01*
X119279500Y-61354983D01*
X119279500Y-63145001D01*
X116911203Y-63145001D01*
X116984627Y-63000901D01*
X117051265Y-62795809D01*
X117085000Y-62582820D01*
X117085000Y-62500000D01*
X116257709Y-62500000D01*
X116269452Y-62479661D01*
X116310000Y-62328333D01*
X116310000Y-62171667D01*
X116269452Y-62020339D01*
X116257709Y-62000000D01*
X117085000Y-62000000D01*
X117085000Y-61917179D01*
X117051265Y-61704190D01*
X116984627Y-61499098D01*
X116886728Y-61306963D01*
X116759974Y-61132503D01*
X116759974Y-61132502D01*
X116607497Y-60980025D01*
X116433036Y-60853271D01*
X116240899Y-60755372D01*
X116035805Y-60688733D01*
X115965000Y-60677518D01*
X115965000Y-61707290D01*
X115944661Y-61695548D01*
X115793333Y-61655000D01*
X115636667Y-61655000D01*
X115485339Y-61695548D01*
X115465000Y-61707290D01*
X115465000Y-60677518D01*
X115464999Y-60677518D01*
X115394194Y-60688733D01*
X115189100Y-60755372D01*
X114996963Y-60853271D01*
X114822506Y-60980022D01*
X114680420Y-61122108D01*
X114619097Y-61155592D01*
X114549405Y-61150608D01*
X114493472Y-61108736D01*
X114480356Y-61086828D01*
X114479816Y-61085670D01*
X114463151Y-61058651D01*
X114387712Y-60936344D01*
X114263656Y-60812288D01*
X114114334Y-60720186D01*
X113947797Y-60665001D01*
X113947795Y-60665000D01*
X113845010Y-60654500D01*
X112504998Y-60654500D01*
X112504981Y-60654501D01*
X112402203Y-60665000D01*
X112402200Y-60665001D01*
X112235668Y-60720185D01*
X112235663Y-60720187D01*
X112086342Y-60812289D01*
X111962289Y-60936342D01*
X111870187Y-61085663D01*
X111870185Y-61085668D01*
X111862921Y-61107589D01*
X111815001Y-61252203D01*
X111815001Y-61252204D01*
X111815000Y-61252204D01*
X111804500Y-61354983D01*
X111804500Y-63145001D01*
X109781203Y-63145001D01*
X109854627Y-63000901D01*
X109921265Y-62795809D01*
X109955000Y-62582820D01*
X109955000Y-62500000D01*
X109127709Y-62500000D01*
X109139452Y-62479661D01*
X109180000Y-62328333D01*
X109180000Y-62171667D01*
X109139452Y-62020339D01*
X109127709Y-62000000D01*
X109955000Y-62000000D01*
X109955000Y-61917179D01*
X109921265Y-61704190D01*
X109854627Y-61499098D01*
X109756728Y-61306963D01*
X109629974Y-61132503D01*
X109629974Y-61132502D01*
X109477497Y-60980025D01*
X109303036Y-60853271D01*
X109110899Y-60755372D01*
X108905805Y-60688733D01*
X108835000Y-60677518D01*
X108835000Y-61707290D01*
X108814661Y-61695548D01*
X108663333Y-61655000D01*
X108506667Y-61655000D01*
X108355339Y-61695548D01*
X108335000Y-61707290D01*
X108335000Y-60677518D01*
X108334999Y-60677518D01*
X108264194Y-60688733D01*
X108059100Y-60755372D01*
X107866963Y-60853271D01*
X107692506Y-60980022D01*
X107550420Y-61122108D01*
X107489097Y-61155592D01*
X107419405Y-61150608D01*
X107363472Y-61108736D01*
X107350356Y-61086828D01*
X107349816Y-61085670D01*
X107333151Y-61058651D01*
X107257712Y-60936344D01*
X107133656Y-60812288D01*
X106984334Y-60720186D01*
X106817797Y-60665001D01*
X106817795Y-60665000D01*
X106715010Y-60654500D01*
X105374998Y-60654500D01*
X105374981Y-60654501D01*
X105272203Y-60665000D01*
X105272200Y-60665001D01*
X105105668Y-60720185D01*
X105105663Y-60720187D01*
X104956342Y-60812289D01*
X104832289Y-60936342D01*
X104740187Y-61085663D01*
X104740185Y-61085668D01*
X104732921Y-61107589D01*
X104685001Y-61252203D01*
X104685001Y-61252204D01*
X104685000Y-61252204D01*
X104674500Y-61354983D01*
X104674500Y-63145001D01*
X102651203Y-63145001D01*
X102724627Y-63000901D01*
X102791265Y-62795809D01*
X102825000Y-62582820D01*
X102825000Y-62500000D01*
X101997709Y-62500000D01*
X102009452Y-62479661D01*
X102050000Y-62328333D01*
X102050000Y-62171667D01*
X102009452Y-62020339D01*
X101997709Y-62000000D01*
X102825000Y-62000000D01*
X102825000Y-61917179D01*
X102791265Y-61704190D01*
X102724627Y-61499098D01*
X102626728Y-61306963D01*
X102499974Y-61132503D01*
X102499974Y-61132502D01*
X102347497Y-60980025D01*
X102173036Y-60853271D01*
X101980899Y-60755372D01*
X101775805Y-60688733D01*
X101705000Y-60677518D01*
X101705000Y-61707290D01*
X101684661Y-61695548D01*
X101533333Y-61655000D01*
X101376667Y-61655000D01*
X101225339Y-61695548D01*
X101205000Y-61707290D01*
X101205000Y-60677518D01*
X101204999Y-60677518D01*
X101134194Y-60688733D01*
X100929100Y-60755372D01*
X100736963Y-60853271D01*
X100562506Y-60980022D01*
X100420420Y-61122108D01*
X100359097Y-61155592D01*
X100289405Y-61150608D01*
X100233472Y-61108736D01*
X100220356Y-61086828D01*
X100219816Y-61085670D01*
X100203151Y-61058651D01*
X100127712Y-60936344D01*
X100003656Y-60812288D01*
X99854334Y-60720186D01*
X99687797Y-60665001D01*
X99687795Y-60665000D01*
X99585010Y-60654500D01*
X98244998Y-60654500D01*
X98244981Y-60654501D01*
X98142203Y-60665000D01*
X98142200Y-60665001D01*
X97975668Y-60720185D01*
X97975663Y-60720187D01*
X97826342Y-60812289D01*
X97702289Y-60936342D01*
X97610187Y-61085663D01*
X97610185Y-61085668D01*
X97602921Y-61107589D01*
X97555001Y-61252203D01*
X97555001Y-61252204D01*
X97555000Y-61252204D01*
X97544500Y-61354983D01*
X97544500Y-63145001D01*
X90805000Y-63145001D01*
X90805000Y-57274000D01*
X90824685Y-57206961D01*
X90877489Y-57161206D01*
X90929000Y-57150000D01*
X212601000Y-57150000D01*
X212668039Y-57169685D01*
G37*
%TD.AperFunction*%
%TD*%
M02*
