%TF.GenerationSoftware,KiCad,Pcbnew,8.0.1*%
%TF.CreationDate,2024-04-13T21:31:32-05:00*%
%TF.ProjectId,ECE445-Wattbalance-PCB,45434534-3435-42d5-9761-747462616c61,rev?*%
%TF.SameCoordinates,Original*%
%TF.FileFunction,Legend,Top*%
%TF.FilePolarity,Positive*%
%FSLAX46Y46*%
G04 Gerber Fmt 4.6, Leading zero omitted, Abs format (unit mm)*
G04 Created by KiCad (PCBNEW 8.0.1) date 2024-04-13 21:31:32*
%MOMM*%
%LPD*%
G01*
G04 APERTURE LIST*
%ADD10C,0.150000*%
%ADD11C,0.120000*%
%ADD12C,0.200000*%
G04 APERTURE END LIST*
D10*
X116888332Y-75659931D02*
X117126427Y-76659931D01*
X117126427Y-76659931D02*
X117316903Y-75945645D01*
X117316903Y-75945645D02*
X117507379Y-76659931D01*
X117507379Y-76659931D02*
X117745475Y-75659931D01*
X118554998Y-76659931D02*
X118554998Y-76136121D01*
X118554998Y-76136121D02*
X118507379Y-76040883D01*
X118507379Y-76040883D02*
X118412141Y-75993264D01*
X118412141Y-75993264D02*
X118221665Y-75993264D01*
X118221665Y-75993264D02*
X118126427Y-76040883D01*
X118554998Y-76612312D02*
X118459760Y-76659931D01*
X118459760Y-76659931D02*
X118221665Y-76659931D01*
X118221665Y-76659931D02*
X118126427Y-76612312D01*
X118126427Y-76612312D02*
X118078808Y-76517073D01*
X118078808Y-76517073D02*
X118078808Y-76421835D01*
X118078808Y-76421835D02*
X118126427Y-76326597D01*
X118126427Y-76326597D02*
X118221665Y-76278978D01*
X118221665Y-76278978D02*
X118459760Y-76278978D01*
X118459760Y-76278978D02*
X118554998Y-76231359D01*
X118888332Y-75993264D02*
X119269284Y-75993264D01*
X119031189Y-75659931D02*
X119031189Y-76517073D01*
X119031189Y-76517073D02*
X119078808Y-76612312D01*
X119078808Y-76612312D02*
X119174046Y-76659931D01*
X119174046Y-76659931D02*
X119269284Y-76659931D01*
X119459761Y-75993264D02*
X119840713Y-75993264D01*
X119602618Y-75659931D02*
X119602618Y-76517073D01*
X119602618Y-76517073D02*
X119650237Y-76612312D01*
X119650237Y-76612312D02*
X119745475Y-76659931D01*
X119745475Y-76659931D02*
X119840713Y-76659931D01*
X120174047Y-76659931D02*
X120174047Y-75659931D01*
X120174047Y-76040883D02*
X120269285Y-75993264D01*
X120269285Y-75993264D02*
X120459761Y-75993264D01*
X120459761Y-75993264D02*
X120554999Y-76040883D01*
X120554999Y-76040883D02*
X120602618Y-76088502D01*
X120602618Y-76088502D02*
X120650237Y-76183740D01*
X120650237Y-76183740D02*
X120650237Y-76469454D01*
X120650237Y-76469454D02*
X120602618Y-76564692D01*
X120602618Y-76564692D02*
X120554999Y-76612312D01*
X120554999Y-76612312D02*
X120459761Y-76659931D01*
X120459761Y-76659931D02*
X120269285Y-76659931D01*
X120269285Y-76659931D02*
X120174047Y-76612312D01*
X121507380Y-76659931D02*
X121507380Y-76136121D01*
X121507380Y-76136121D02*
X121459761Y-76040883D01*
X121459761Y-76040883D02*
X121364523Y-75993264D01*
X121364523Y-75993264D02*
X121174047Y-75993264D01*
X121174047Y-75993264D02*
X121078809Y-76040883D01*
X121507380Y-76612312D02*
X121412142Y-76659931D01*
X121412142Y-76659931D02*
X121174047Y-76659931D01*
X121174047Y-76659931D02*
X121078809Y-76612312D01*
X121078809Y-76612312D02*
X121031190Y-76517073D01*
X121031190Y-76517073D02*
X121031190Y-76421835D01*
X121031190Y-76421835D02*
X121078809Y-76326597D01*
X121078809Y-76326597D02*
X121174047Y-76278978D01*
X121174047Y-76278978D02*
X121412142Y-76278978D01*
X121412142Y-76278978D02*
X121507380Y-76231359D01*
X122126428Y-76659931D02*
X122031190Y-76612312D01*
X122031190Y-76612312D02*
X121983571Y-76517073D01*
X121983571Y-76517073D02*
X121983571Y-75659931D01*
X122935952Y-76659931D02*
X122935952Y-76136121D01*
X122935952Y-76136121D02*
X122888333Y-76040883D01*
X122888333Y-76040883D02*
X122793095Y-75993264D01*
X122793095Y-75993264D02*
X122602619Y-75993264D01*
X122602619Y-75993264D02*
X122507381Y-76040883D01*
X122935952Y-76612312D02*
X122840714Y-76659931D01*
X122840714Y-76659931D02*
X122602619Y-76659931D01*
X122602619Y-76659931D02*
X122507381Y-76612312D01*
X122507381Y-76612312D02*
X122459762Y-76517073D01*
X122459762Y-76517073D02*
X122459762Y-76421835D01*
X122459762Y-76421835D02*
X122507381Y-76326597D01*
X122507381Y-76326597D02*
X122602619Y-76278978D01*
X122602619Y-76278978D02*
X122840714Y-76278978D01*
X122840714Y-76278978D02*
X122935952Y-76231359D01*
X123412143Y-75993264D02*
X123412143Y-76659931D01*
X123412143Y-76088502D02*
X123459762Y-76040883D01*
X123459762Y-76040883D02*
X123555000Y-75993264D01*
X123555000Y-75993264D02*
X123697857Y-75993264D01*
X123697857Y-75993264D02*
X123793095Y-76040883D01*
X123793095Y-76040883D02*
X123840714Y-76136121D01*
X123840714Y-76136121D02*
X123840714Y-76659931D01*
X124745476Y-76612312D02*
X124650238Y-76659931D01*
X124650238Y-76659931D02*
X124459762Y-76659931D01*
X124459762Y-76659931D02*
X124364524Y-76612312D01*
X124364524Y-76612312D02*
X124316905Y-76564692D01*
X124316905Y-76564692D02*
X124269286Y-76469454D01*
X124269286Y-76469454D02*
X124269286Y-76183740D01*
X124269286Y-76183740D02*
X124316905Y-76088502D01*
X124316905Y-76088502D02*
X124364524Y-76040883D01*
X124364524Y-76040883D02*
X124459762Y-75993264D01*
X124459762Y-75993264D02*
X124650238Y-75993264D01*
X124650238Y-75993264D02*
X124745476Y-76040883D01*
X125555000Y-76612312D02*
X125459762Y-76659931D01*
X125459762Y-76659931D02*
X125269286Y-76659931D01*
X125269286Y-76659931D02*
X125174048Y-76612312D01*
X125174048Y-76612312D02*
X125126429Y-76517073D01*
X125126429Y-76517073D02*
X125126429Y-76136121D01*
X125126429Y-76136121D02*
X125174048Y-76040883D01*
X125174048Y-76040883D02*
X125269286Y-75993264D01*
X125269286Y-75993264D02*
X125459762Y-75993264D01*
X125459762Y-75993264D02*
X125555000Y-76040883D01*
X125555000Y-76040883D02*
X125602619Y-76136121D01*
X125602619Y-76136121D02*
X125602619Y-76231359D01*
X125602619Y-76231359D02*
X125126429Y-76326597D01*
X126650239Y-75659931D02*
X126983572Y-76659931D01*
X126983572Y-76659931D02*
X127316905Y-75659931D01*
X127602620Y-75755169D02*
X127650239Y-75707550D01*
X127650239Y-75707550D02*
X127745477Y-75659931D01*
X127745477Y-75659931D02*
X127983572Y-75659931D01*
X127983572Y-75659931D02*
X128078810Y-75707550D01*
X128078810Y-75707550D02*
X128126429Y-75755169D01*
X128126429Y-75755169D02*
X128174048Y-75850407D01*
X128174048Y-75850407D02*
X128174048Y-75945645D01*
X128174048Y-75945645D02*
X128126429Y-76088502D01*
X128126429Y-76088502D02*
X127555001Y-76659931D01*
X127555001Y-76659931D02*
X128174048Y-76659931D01*
X117697857Y-77365113D02*
X117745476Y-77317494D01*
X117745476Y-77317494D02*
X117840714Y-77269875D01*
X117840714Y-77269875D02*
X118078809Y-77269875D01*
X118078809Y-77269875D02*
X118174047Y-77317494D01*
X118174047Y-77317494D02*
X118221666Y-77365113D01*
X118221666Y-77365113D02*
X118269285Y-77460351D01*
X118269285Y-77460351D02*
X118269285Y-77555589D01*
X118269285Y-77555589D02*
X118221666Y-77698446D01*
X118221666Y-77698446D02*
X117650238Y-78269875D01*
X117650238Y-78269875D02*
X118269285Y-78269875D01*
X118888333Y-77269875D02*
X118983571Y-77269875D01*
X118983571Y-77269875D02*
X119078809Y-77317494D01*
X119078809Y-77317494D02*
X119126428Y-77365113D01*
X119126428Y-77365113D02*
X119174047Y-77460351D01*
X119174047Y-77460351D02*
X119221666Y-77650827D01*
X119221666Y-77650827D02*
X119221666Y-77888922D01*
X119221666Y-77888922D02*
X119174047Y-78079398D01*
X119174047Y-78079398D02*
X119126428Y-78174636D01*
X119126428Y-78174636D02*
X119078809Y-78222256D01*
X119078809Y-78222256D02*
X118983571Y-78269875D01*
X118983571Y-78269875D02*
X118888333Y-78269875D01*
X118888333Y-78269875D02*
X118793095Y-78222256D01*
X118793095Y-78222256D02*
X118745476Y-78174636D01*
X118745476Y-78174636D02*
X118697857Y-78079398D01*
X118697857Y-78079398D02*
X118650238Y-77888922D01*
X118650238Y-77888922D02*
X118650238Y-77650827D01*
X118650238Y-77650827D02*
X118697857Y-77460351D01*
X118697857Y-77460351D02*
X118745476Y-77365113D01*
X118745476Y-77365113D02*
X118793095Y-77317494D01*
X118793095Y-77317494D02*
X118888333Y-77269875D01*
X119602619Y-77365113D02*
X119650238Y-77317494D01*
X119650238Y-77317494D02*
X119745476Y-77269875D01*
X119745476Y-77269875D02*
X119983571Y-77269875D01*
X119983571Y-77269875D02*
X120078809Y-77317494D01*
X120078809Y-77317494D02*
X120126428Y-77365113D01*
X120126428Y-77365113D02*
X120174047Y-77460351D01*
X120174047Y-77460351D02*
X120174047Y-77555589D01*
X120174047Y-77555589D02*
X120126428Y-77698446D01*
X120126428Y-77698446D02*
X119555000Y-78269875D01*
X119555000Y-78269875D02*
X120174047Y-78269875D01*
X121031190Y-77603208D02*
X121031190Y-78269875D01*
X120793095Y-77222256D02*
X120555000Y-77936541D01*
X120555000Y-77936541D02*
X121174047Y-77936541D01*
X121555000Y-77888922D02*
X122316905Y-77888922D01*
X122983571Y-77269875D02*
X123078809Y-77269875D01*
X123078809Y-77269875D02*
X123174047Y-77317494D01*
X123174047Y-77317494D02*
X123221666Y-77365113D01*
X123221666Y-77365113D02*
X123269285Y-77460351D01*
X123269285Y-77460351D02*
X123316904Y-77650827D01*
X123316904Y-77650827D02*
X123316904Y-77888922D01*
X123316904Y-77888922D02*
X123269285Y-78079398D01*
X123269285Y-78079398D02*
X123221666Y-78174636D01*
X123221666Y-78174636D02*
X123174047Y-78222256D01*
X123174047Y-78222256D02*
X123078809Y-78269875D01*
X123078809Y-78269875D02*
X122983571Y-78269875D01*
X122983571Y-78269875D02*
X122888333Y-78222256D01*
X122888333Y-78222256D02*
X122840714Y-78174636D01*
X122840714Y-78174636D02*
X122793095Y-78079398D01*
X122793095Y-78079398D02*
X122745476Y-77888922D01*
X122745476Y-77888922D02*
X122745476Y-77650827D01*
X122745476Y-77650827D02*
X122793095Y-77460351D01*
X122793095Y-77460351D02*
X122840714Y-77365113D01*
X122840714Y-77365113D02*
X122888333Y-77317494D01*
X122888333Y-77317494D02*
X122983571Y-77269875D01*
X124174047Y-77603208D02*
X124174047Y-78269875D01*
X123935952Y-77222256D02*
X123697857Y-77936541D01*
X123697857Y-77936541D02*
X124316904Y-77936541D01*
X124697857Y-77888922D02*
X125459762Y-77888922D01*
X126459761Y-78269875D02*
X125888333Y-78269875D01*
X126174047Y-78269875D02*
X126174047Y-77269875D01*
X126174047Y-77269875D02*
X126078809Y-77412732D01*
X126078809Y-77412732D02*
X125983571Y-77507970D01*
X125983571Y-77507970D02*
X125888333Y-77555589D01*
X126793095Y-77269875D02*
X127412142Y-77269875D01*
X127412142Y-77269875D02*
X127078809Y-77650827D01*
X127078809Y-77650827D02*
X127221666Y-77650827D01*
X127221666Y-77650827D02*
X127316904Y-77698446D01*
X127316904Y-77698446D02*
X127364523Y-77746065D01*
X127364523Y-77746065D02*
X127412142Y-77841303D01*
X127412142Y-77841303D02*
X127412142Y-78079398D01*
X127412142Y-78079398D02*
X127364523Y-78174636D01*
X127364523Y-78174636D02*
X127316904Y-78222256D01*
X127316904Y-78222256D02*
X127221666Y-78269875D01*
X127221666Y-78269875D02*
X126935952Y-78269875D01*
X126935952Y-78269875D02*
X126840714Y-78222256D01*
X126840714Y-78222256D02*
X126793095Y-78174636D01*
X119388333Y-78879819D02*
X119959761Y-78879819D01*
X119674047Y-79879819D02*
X119674047Y-78879819D01*
X120674047Y-79832200D02*
X120578809Y-79879819D01*
X120578809Y-79879819D02*
X120388333Y-79879819D01*
X120388333Y-79879819D02*
X120293095Y-79832200D01*
X120293095Y-79832200D02*
X120245476Y-79736961D01*
X120245476Y-79736961D02*
X120245476Y-79356009D01*
X120245476Y-79356009D02*
X120293095Y-79260771D01*
X120293095Y-79260771D02*
X120388333Y-79213152D01*
X120388333Y-79213152D02*
X120578809Y-79213152D01*
X120578809Y-79213152D02*
X120674047Y-79260771D01*
X120674047Y-79260771D02*
X120721666Y-79356009D01*
X120721666Y-79356009D02*
X120721666Y-79451247D01*
X120721666Y-79451247D02*
X120245476Y-79546485D01*
X121578809Y-79879819D02*
X121578809Y-79356009D01*
X121578809Y-79356009D02*
X121531190Y-79260771D01*
X121531190Y-79260771D02*
X121435952Y-79213152D01*
X121435952Y-79213152D02*
X121245476Y-79213152D01*
X121245476Y-79213152D02*
X121150238Y-79260771D01*
X121578809Y-79832200D02*
X121483571Y-79879819D01*
X121483571Y-79879819D02*
X121245476Y-79879819D01*
X121245476Y-79879819D02*
X121150238Y-79832200D01*
X121150238Y-79832200D02*
X121102619Y-79736961D01*
X121102619Y-79736961D02*
X121102619Y-79641723D01*
X121102619Y-79641723D02*
X121150238Y-79546485D01*
X121150238Y-79546485D02*
X121245476Y-79498866D01*
X121245476Y-79498866D02*
X121483571Y-79498866D01*
X121483571Y-79498866D02*
X121578809Y-79451247D01*
X122055000Y-79879819D02*
X122055000Y-79213152D01*
X122055000Y-79308390D02*
X122102619Y-79260771D01*
X122102619Y-79260771D02*
X122197857Y-79213152D01*
X122197857Y-79213152D02*
X122340714Y-79213152D01*
X122340714Y-79213152D02*
X122435952Y-79260771D01*
X122435952Y-79260771D02*
X122483571Y-79356009D01*
X122483571Y-79356009D02*
X122483571Y-79879819D01*
X122483571Y-79356009D02*
X122531190Y-79260771D01*
X122531190Y-79260771D02*
X122626428Y-79213152D01*
X122626428Y-79213152D02*
X122769285Y-79213152D01*
X122769285Y-79213152D02*
X122864524Y-79260771D01*
X122864524Y-79260771D02*
X122912143Y-79356009D01*
X122912143Y-79356009D02*
X122912143Y-79879819D01*
X124055000Y-78879819D02*
X124721666Y-78879819D01*
X124721666Y-78879819D02*
X124293095Y-79879819D01*
X125531190Y-78879819D02*
X125340714Y-78879819D01*
X125340714Y-78879819D02*
X125245476Y-78927438D01*
X125245476Y-78927438D02*
X125197857Y-78975057D01*
X125197857Y-78975057D02*
X125102619Y-79117914D01*
X125102619Y-79117914D02*
X125055000Y-79308390D01*
X125055000Y-79308390D02*
X125055000Y-79689342D01*
X125055000Y-79689342D02*
X125102619Y-79784580D01*
X125102619Y-79784580D02*
X125150238Y-79832200D01*
X125150238Y-79832200D02*
X125245476Y-79879819D01*
X125245476Y-79879819D02*
X125435952Y-79879819D01*
X125435952Y-79879819D02*
X125531190Y-79832200D01*
X125531190Y-79832200D02*
X125578809Y-79784580D01*
X125578809Y-79784580D02*
X125626428Y-79689342D01*
X125626428Y-79689342D02*
X125626428Y-79451247D01*
X125626428Y-79451247D02*
X125578809Y-79356009D01*
X125578809Y-79356009D02*
X125531190Y-79308390D01*
X125531190Y-79308390D02*
X125435952Y-79260771D01*
X125435952Y-79260771D02*
X125245476Y-79260771D01*
X125245476Y-79260771D02*
X125150238Y-79308390D01*
X125150238Y-79308390D02*
X125102619Y-79356009D01*
X125102619Y-79356009D02*
X125055000Y-79451247D01*
X189738095Y-67404819D02*
X189738095Y-68214342D01*
X189738095Y-68214342D02*
X189785714Y-68309580D01*
X189785714Y-68309580D02*
X189833333Y-68357200D01*
X189833333Y-68357200D02*
X189928571Y-68404819D01*
X189928571Y-68404819D02*
X190119047Y-68404819D01*
X190119047Y-68404819D02*
X190214285Y-68357200D01*
X190214285Y-68357200D02*
X190261904Y-68309580D01*
X190261904Y-68309580D02*
X190309523Y-68214342D01*
X190309523Y-68214342D02*
X190309523Y-67404819D01*
X190928571Y-67833390D02*
X190833333Y-67785771D01*
X190833333Y-67785771D02*
X190785714Y-67738152D01*
X190785714Y-67738152D02*
X190738095Y-67642914D01*
X190738095Y-67642914D02*
X190738095Y-67595295D01*
X190738095Y-67595295D02*
X190785714Y-67500057D01*
X190785714Y-67500057D02*
X190833333Y-67452438D01*
X190833333Y-67452438D02*
X190928571Y-67404819D01*
X190928571Y-67404819D02*
X191119047Y-67404819D01*
X191119047Y-67404819D02*
X191214285Y-67452438D01*
X191214285Y-67452438D02*
X191261904Y-67500057D01*
X191261904Y-67500057D02*
X191309523Y-67595295D01*
X191309523Y-67595295D02*
X191309523Y-67642914D01*
X191309523Y-67642914D02*
X191261904Y-67738152D01*
X191261904Y-67738152D02*
X191214285Y-67785771D01*
X191214285Y-67785771D02*
X191119047Y-67833390D01*
X191119047Y-67833390D02*
X190928571Y-67833390D01*
X190928571Y-67833390D02*
X190833333Y-67881009D01*
X190833333Y-67881009D02*
X190785714Y-67928628D01*
X190785714Y-67928628D02*
X190738095Y-68023866D01*
X190738095Y-68023866D02*
X190738095Y-68214342D01*
X190738095Y-68214342D02*
X190785714Y-68309580D01*
X190785714Y-68309580D02*
X190833333Y-68357200D01*
X190833333Y-68357200D02*
X190928571Y-68404819D01*
X190928571Y-68404819D02*
X191119047Y-68404819D01*
X191119047Y-68404819D02*
X191214285Y-68357200D01*
X191214285Y-68357200D02*
X191261904Y-68309580D01*
X191261904Y-68309580D02*
X191309523Y-68214342D01*
X191309523Y-68214342D02*
X191309523Y-68023866D01*
X191309523Y-68023866D02*
X191261904Y-67928628D01*
X191261904Y-67928628D02*
X191214285Y-67881009D01*
X191214285Y-67881009D02*
X191119047Y-67833390D01*
X112445000Y-66403866D02*
X113206905Y-66403866D01*
X112825952Y-66784819D02*
X112825952Y-66022914D01*
X113587857Y-65784819D02*
X114206904Y-65784819D01*
X114206904Y-65784819D02*
X113873571Y-66165771D01*
X113873571Y-66165771D02*
X114016428Y-66165771D01*
X114016428Y-66165771D02*
X114111666Y-66213390D01*
X114111666Y-66213390D02*
X114159285Y-66261009D01*
X114159285Y-66261009D02*
X114206904Y-66356247D01*
X114206904Y-66356247D02*
X114206904Y-66594342D01*
X114206904Y-66594342D02*
X114159285Y-66689580D01*
X114159285Y-66689580D02*
X114111666Y-66737200D01*
X114111666Y-66737200D02*
X114016428Y-66784819D01*
X114016428Y-66784819D02*
X113730714Y-66784819D01*
X113730714Y-66784819D02*
X113635476Y-66737200D01*
X113635476Y-66737200D02*
X113587857Y-66689580D01*
X114635476Y-66689580D02*
X114683095Y-66737200D01*
X114683095Y-66737200D02*
X114635476Y-66784819D01*
X114635476Y-66784819D02*
X114587857Y-66737200D01*
X114587857Y-66737200D02*
X114635476Y-66689580D01*
X114635476Y-66689580D02*
X114635476Y-66784819D01*
X115016428Y-65784819D02*
X115635475Y-65784819D01*
X115635475Y-65784819D02*
X115302142Y-66165771D01*
X115302142Y-66165771D02*
X115444999Y-66165771D01*
X115444999Y-66165771D02*
X115540237Y-66213390D01*
X115540237Y-66213390D02*
X115587856Y-66261009D01*
X115587856Y-66261009D02*
X115635475Y-66356247D01*
X115635475Y-66356247D02*
X115635475Y-66594342D01*
X115635475Y-66594342D02*
X115587856Y-66689580D01*
X115587856Y-66689580D02*
X115540237Y-66737200D01*
X115540237Y-66737200D02*
X115444999Y-66784819D01*
X115444999Y-66784819D02*
X115159285Y-66784819D01*
X115159285Y-66784819D02*
X115064047Y-66737200D01*
X115064047Y-66737200D02*
X115016428Y-66689580D01*
X115921190Y-65784819D02*
X116254523Y-66784819D01*
X116254523Y-66784819D02*
X116587856Y-65784819D01*
X112794048Y-57858866D02*
X113555953Y-57858866D01*
X113175000Y-58239819D02*
X113175000Y-57477914D01*
X115334048Y-57858866D02*
X116095953Y-57858866D01*
X105315000Y-66403866D02*
X106076905Y-66403866D01*
X105695952Y-66784819D02*
X105695952Y-66022914D01*
X106457857Y-65784819D02*
X107076904Y-65784819D01*
X107076904Y-65784819D02*
X106743571Y-66165771D01*
X106743571Y-66165771D02*
X106886428Y-66165771D01*
X106886428Y-66165771D02*
X106981666Y-66213390D01*
X106981666Y-66213390D02*
X107029285Y-66261009D01*
X107029285Y-66261009D02*
X107076904Y-66356247D01*
X107076904Y-66356247D02*
X107076904Y-66594342D01*
X107076904Y-66594342D02*
X107029285Y-66689580D01*
X107029285Y-66689580D02*
X106981666Y-66737200D01*
X106981666Y-66737200D02*
X106886428Y-66784819D01*
X106886428Y-66784819D02*
X106600714Y-66784819D01*
X106600714Y-66784819D02*
X106505476Y-66737200D01*
X106505476Y-66737200D02*
X106457857Y-66689580D01*
X107505476Y-66689580D02*
X107553095Y-66737200D01*
X107553095Y-66737200D02*
X107505476Y-66784819D01*
X107505476Y-66784819D02*
X107457857Y-66737200D01*
X107457857Y-66737200D02*
X107505476Y-66689580D01*
X107505476Y-66689580D02*
X107505476Y-66784819D01*
X107886428Y-65784819D02*
X108505475Y-65784819D01*
X108505475Y-65784819D02*
X108172142Y-66165771D01*
X108172142Y-66165771D02*
X108314999Y-66165771D01*
X108314999Y-66165771D02*
X108410237Y-66213390D01*
X108410237Y-66213390D02*
X108457856Y-66261009D01*
X108457856Y-66261009D02*
X108505475Y-66356247D01*
X108505475Y-66356247D02*
X108505475Y-66594342D01*
X108505475Y-66594342D02*
X108457856Y-66689580D01*
X108457856Y-66689580D02*
X108410237Y-66737200D01*
X108410237Y-66737200D02*
X108314999Y-66784819D01*
X108314999Y-66784819D02*
X108029285Y-66784819D01*
X108029285Y-66784819D02*
X107934047Y-66737200D01*
X107934047Y-66737200D02*
X107886428Y-66689580D01*
X108791190Y-65784819D02*
X109124523Y-66784819D01*
X109124523Y-66784819D02*
X109457856Y-65784819D01*
X105664048Y-57858866D02*
X106425953Y-57858866D01*
X106045000Y-58239819D02*
X106045000Y-57477914D01*
X108349048Y-57858866D02*
X109110953Y-57858866D01*
X98185000Y-66403866D02*
X98946905Y-66403866D01*
X98565952Y-66784819D02*
X98565952Y-66022914D01*
X99327857Y-65784819D02*
X99946904Y-65784819D01*
X99946904Y-65784819D02*
X99613571Y-66165771D01*
X99613571Y-66165771D02*
X99756428Y-66165771D01*
X99756428Y-66165771D02*
X99851666Y-66213390D01*
X99851666Y-66213390D02*
X99899285Y-66261009D01*
X99899285Y-66261009D02*
X99946904Y-66356247D01*
X99946904Y-66356247D02*
X99946904Y-66594342D01*
X99946904Y-66594342D02*
X99899285Y-66689580D01*
X99899285Y-66689580D02*
X99851666Y-66737200D01*
X99851666Y-66737200D02*
X99756428Y-66784819D01*
X99756428Y-66784819D02*
X99470714Y-66784819D01*
X99470714Y-66784819D02*
X99375476Y-66737200D01*
X99375476Y-66737200D02*
X99327857Y-66689580D01*
X100375476Y-66689580D02*
X100423095Y-66737200D01*
X100423095Y-66737200D02*
X100375476Y-66784819D01*
X100375476Y-66784819D02*
X100327857Y-66737200D01*
X100327857Y-66737200D02*
X100375476Y-66689580D01*
X100375476Y-66689580D02*
X100375476Y-66784819D01*
X100756428Y-65784819D02*
X101375475Y-65784819D01*
X101375475Y-65784819D02*
X101042142Y-66165771D01*
X101042142Y-66165771D02*
X101184999Y-66165771D01*
X101184999Y-66165771D02*
X101280237Y-66213390D01*
X101280237Y-66213390D02*
X101327856Y-66261009D01*
X101327856Y-66261009D02*
X101375475Y-66356247D01*
X101375475Y-66356247D02*
X101375475Y-66594342D01*
X101375475Y-66594342D02*
X101327856Y-66689580D01*
X101327856Y-66689580D02*
X101280237Y-66737200D01*
X101280237Y-66737200D02*
X101184999Y-66784819D01*
X101184999Y-66784819D02*
X100899285Y-66784819D01*
X100899285Y-66784819D02*
X100804047Y-66737200D01*
X100804047Y-66737200D02*
X100756428Y-66689580D01*
X101661190Y-65784819D02*
X101994523Y-66784819D01*
X101994523Y-66784819D02*
X102327856Y-65784819D01*
X98534048Y-57858866D02*
X99295953Y-57858866D01*
X98915000Y-58239819D02*
X98915000Y-57477914D01*
X101364048Y-57858866D02*
X102125953Y-57858866D01*
X140081190Y-136844580D02*
X140033571Y-136892200D01*
X140033571Y-136892200D02*
X139890714Y-136939819D01*
X139890714Y-136939819D02*
X139795476Y-136939819D01*
X139795476Y-136939819D02*
X139652619Y-136892200D01*
X139652619Y-136892200D02*
X139557381Y-136796961D01*
X139557381Y-136796961D02*
X139509762Y-136701723D01*
X139509762Y-136701723D02*
X139462143Y-136511247D01*
X139462143Y-136511247D02*
X139462143Y-136368390D01*
X139462143Y-136368390D02*
X139509762Y-136177914D01*
X139509762Y-136177914D02*
X139557381Y-136082676D01*
X139557381Y-136082676D02*
X139652619Y-135987438D01*
X139652619Y-135987438D02*
X139795476Y-135939819D01*
X139795476Y-135939819D02*
X139890714Y-135939819D01*
X139890714Y-135939819D02*
X140033571Y-135987438D01*
X140033571Y-135987438D02*
X140081190Y-136035057D01*
X140652619Y-136939819D02*
X140557381Y-136892200D01*
X140557381Y-136892200D02*
X140509762Y-136844580D01*
X140509762Y-136844580D02*
X140462143Y-136749342D01*
X140462143Y-136749342D02*
X140462143Y-136463628D01*
X140462143Y-136463628D02*
X140509762Y-136368390D01*
X140509762Y-136368390D02*
X140557381Y-136320771D01*
X140557381Y-136320771D02*
X140652619Y-136273152D01*
X140652619Y-136273152D02*
X140795476Y-136273152D01*
X140795476Y-136273152D02*
X140890714Y-136320771D01*
X140890714Y-136320771D02*
X140938333Y-136368390D01*
X140938333Y-136368390D02*
X140985952Y-136463628D01*
X140985952Y-136463628D02*
X140985952Y-136749342D01*
X140985952Y-136749342D02*
X140938333Y-136844580D01*
X140938333Y-136844580D02*
X140890714Y-136892200D01*
X140890714Y-136892200D02*
X140795476Y-136939819D01*
X140795476Y-136939819D02*
X140652619Y-136939819D01*
X141414524Y-136939819D02*
X141414524Y-136273152D01*
X141414524Y-135939819D02*
X141366905Y-135987438D01*
X141366905Y-135987438D02*
X141414524Y-136035057D01*
X141414524Y-136035057D02*
X141462143Y-135987438D01*
X141462143Y-135987438D02*
X141414524Y-135939819D01*
X141414524Y-135939819D02*
X141414524Y-136035057D01*
X142033571Y-136939819D02*
X141938333Y-136892200D01*
X141938333Y-136892200D02*
X141890714Y-136796961D01*
X141890714Y-136796961D02*
X141890714Y-135939819D01*
X143509762Y-136416009D02*
X143652619Y-136463628D01*
X143652619Y-136463628D02*
X143700238Y-136511247D01*
X143700238Y-136511247D02*
X143747857Y-136606485D01*
X143747857Y-136606485D02*
X143747857Y-136749342D01*
X143747857Y-136749342D02*
X143700238Y-136844580D01*
X143700238Y-136844580D02*
X143652619Y-136892200D01*
X143652619Y-136892200D02*
X143557381Y-136939819D01*
X143557381Y-136939819D02*
X143176429Y-136939819D01*
X143176429Y-136939819D02*
X143176429Y-135939819D01*
X143176429Y-135939819D02*
X143509762Y-135939819D01*
X143509762Y-135939819D02*
X143605000Y-135987438D01*
X143605000Y-135987438D02*
X143652619Y-136035057D01*
X143652619Y-136035057D02*
X143700238Y-136130295D01*
X143700238Y-136130295D02*
X143700238Y-136225533D01*
X143700238Y-136225533D02*
X143652619Y-136320771D01*
X143652619Y-136320771D02*
X143605000Y-136368390D01*
X143605000Y-136368390D02*
X143509762Y-136416009D01*
X143509762Y-136416009D02*
X143176429Y-136416009D01*
X143255951Y-135141133D02*
X142494047Y-135141133D01*
X142874999Y-134760180D02*
X142874999Y-135522085D01*
X140715951Y-135141133D02*
X139954047Y-135141133D01*
X93059762Y-98344104D02*
X93535952Y-98344104D01*
X92964524Y-98629819D02*
X93297857Y-97629819D01*
X93297857Y-97629819D02*
X93631190Y-98629819D01*
X93821667Y-97629819D02*
X94155000Y-98629819D01*
X94155000Y-98629819D02*
X94488333Y-97629819D01*
X95393095Y-98629819D02*
X95059762Y-98153628D01*
X94821667Y-98629819D02*
X94821667Y-97629819D01*
X94821667Y-97629819D02*
X95202619Y-97629819D01*
X95202619Y-97629819D02*
X95297857Y-97677438D01*
X95297857Y-97677438D02*
X95345476Y-97725057D01*
X95345476Y-97725057D02*
X95393095Y-97820295D01*
X95393095Y-97820295D02*
X95393095Y-97963152D01*
X95393095Y-97963152D02*
X95345476Y-98058390D01*
X95345476Y-98058390D02*
X95297857Y-98106009D01*
X95297857Y-98106009D02*
X95202619Y-98153628D01*
X95202619Y-98153628D02*
X94821667Y-98153628D01*
X95821667Y-98248866D02*
X96583572Y-98248866D01*
X97059762Y-98629819D02*
X97059762Y-97629819D01*
X97488333Y-98582200D02*
X97631190Y-98629819D01*
X97631190Y-98629819D02*
X97869285Y-98629819D01*
X97869285Y-98629819D02*
X97964523Y-98582200D01*
X97964523Y-98582200D02*
X98012142Y-98534580D01*
X98012142Y-98534580D02*
X98059761Y-98439342D01*
X98059761Y-98439342D02*
X98059761Y-98344104D01*
X98059761Y-98344104D02*
X98012142Y-98248866D01*
X98012142Y-98248866D02*
X97964523Y-98201247D01*
X97964523Y-98201247D02*
X97869285Y-98153628D01*
X97869285Y-98153628D02*
X97678809Y-98106009D01*
X97678809Y-98106009D02*
X97583571Y-98058390D01*
X97583571Y-98058390D02*
X97535952Y-98010771D01*
X97535952Y-98010771D02*
X97488333Y-97915533D01*
X97488333Y-97915533D02*
X97488333Y-97820295D01*
X97488333Y-97820295D02*
X97535952Y-97725057D01*
X97535952Y-97725057D02*
X97583571Y-97677438D01*
X97583571Y-97677438D02*
X97678809Y-97629819D01*
X97678809Y-97629819D02*
X97916904Y-97629819D01*
X97916904Y-97629819D02*
X98059761Y-97677438D01*
X98488333Y-98629819D02*
X98488333Y-97629819D01*
X98488333Y-97629819D02*
X98869285Y-97629819D01*
X98869285Y-97629819D02*
X98964523Y-97677438D01*
X98964523Y-97677438D02*
X99012142Y-97725057D01*
X99012142Y-97725057D02*
X99059761Y-97820295D01*
X99059761Y-97820295D02*
X99059761Y-97963152D01*
X99059761Y-97963152D02*
X99012142Y-98058390D01*
X99012142Y-98058390D02*
X98964523Y-98106009D01*
X98964523Y-98106009D02*
X98869285Y-98153628D01*
X98869285Y-98153628D02*
X98488333Y-98153628D01*
X99488333Y-98248866D02*
X100250238Y-98248866D01*
X101154999Y-97629819D02*
X100964523Y-97629819D01*
X100964523Y-97629819D02*
X100869285Y-97677438D01*
X100869285Y-97677438D02*
X100821666Y-97725057D01*
X100821666Y-97725057D02*
X100726428Y-97867914D01*
X100726428Y-97867914D02*
X100678809Y-98058390D01*
X100678809Y-98058390D02*
X100678809Y-98439342D01*
X100678809Y-98439342D02*
X100726428Y-98534580D01*
X100726428Y-98534580D02*
X100774047Y-98582200D01*
X100774047Y-98582200D02*
X100869285Y-98629819D01*
X100869285Y-98629819D02*
X101059761Y-98629819D01*
X101059761Y-98629819D02*
X101154999Y-98582200D01*
X101154999Y-98582200D02*
X101202618Y-98534580D01*
X101202618Y-98534580D02*
X101250237Y-98439342D01*
X101250237Y-98439342D02*
X101250237Y-98201247D01*
X101250237Y-98201247D02*
X101202618Y-98106009D01*
X101202618Y-98106009D02*
X101154999Y-98058390D01*
X101154999Y-98058390D02*
X101059761Y-98010771D01*
X101059761Y-98010771D02*
X100869285Y-98010771D01*
X100869285Y-98010771D02*
X100774047Y-98058390D01*
X100774047Y-98058390D02*
X100726428Y-98106009D01*
X100726428Y-98106009D02*
X100678809Y-98201247D01*
X201719819Y-66953333D02*
X202434104Y-66953333D01*
X202434104Y-66953333D02*
X202576961Y-67000952D01*
X202576961Y-67000952D02*
X202672200Y-67096190D01*
X202672200Y-67096190D02*
X202719819Y-67239047D01*
X202719819Y-67239047D02*
X202719819Y-67334285D01*
X201815057Y-66524761D02*
X201767438Y-66477142D01*
X201767438Y-66477142D02*
X201719819Y-66381904D01*
X201719819Y-66381904D02*
X201719819Y-66143809D01*
X201719819Y-66143809D02*
X201767438Y-66048571D01*
X201767438Y-66048571D02*
X201815057Y-66000952D01*
X201815057Y-66000952D02*
X201910295Y-65953333D01*
X201910295Y-65953333D02*
X202005533Y-65953333D01*
X202005533Y-65953333D02*
X202148390Y-66000952D01*
X202148390Y-66000952D02*
X202719819Y-66572380D01*
X202719819Y-66572380D02*
X202719819Y-65953333D01*
X181109580Y-121927857D02*
X181157200Y-121975476D01*
X181157200Y-121975476D02*
X181204819Y-122118333D01*
X181204819Y-122118333D02*
X181204819Y-122213571D01*
X181204819Y-122213571D02*
X181157200Y-122356428D01*
X181157200Y-122356428D02*
X181061961Y-122451666D01*
X181061961Y-122451666D02*
X180966723Y-122499285D01*
X180966723Y-122499285D02*
X180776247Y-122546904D01*
X180776247Y-122546904D02*
X180633390Y-122546904D01*
X180633390Y-122546904D02*
X180442914Y-122499285D01*
X180442914Y-122499285D02*
X180347676Y-122451666D01*
X180347676Y-122451666D02*
X180252438Y-122356428D01*
X180252438Y-122356428D02*
X180204819Y-122213571D01*
X180204819Y-122213571D02*
X180204819Y-122118333D01*
X180204819Y-122118333D02*
X180252438Y-121975476D01*
X180252438Y-121975476D02*
X180300057Y-121927857D01*
X181204819Y-120975476D02*
X181204819Y-121546904D01*
X181204819Y-121261190D02*
X180204819Y-121261190D01*
X180204819Y-121261190D02*
X180347676Y-121356428D01*
X180347676Y-121356428D02*
X180442914Y-121451666D01*
X180442914Y-121451666D02*
X180490533Y-121546904D01*
X180633390Y-120404047D02*
X180585771Y-120499285D01*
X180585771Y-120499285D02*
X180538152Y-120546904D01*
X180538152Y-120546904D02*
X180442914Y-120594523D01*
X180442914Y-120594523D02*
X180395295Y-120594523D01*
X180395295Y-120594523D02*
X180300057Y-120546904D01*
X180300057Y-120546904D02*
X180252438Y-120499285D01*
X180252438Y-120499285D02*
X180204819Y-120404047D01*
X180204819Y-120404047D02*
X180204819Y-120213571D01*
X180204819Y-120213571D02*
X180252438Y-120118333D01*
X180252438Y-120118333D02*
X180300057Y-120070714D01*
X180300057Y-120070714D02*
X180395295Y-120023095D01*
X180395295Y-120023095D02*
X180442914Y-120023095D01*
X180442914Y-120023095D02*
X180538152Y-120070714D01*
X180538152Y-120070714D02*
X180585771Y-120118333D01*
X180585771Y-120118333D02*
X180633390Y-120213571D01*
X180633390Y-120213571D02*
X180633390Y-120404047D01*
X180633390Y-120404047D02*
X180681009Y-120499285D01*
X180681009Y-120499285D02*
X180728628Y-120546904D01*
X180728628Y-120546904D02*
X180823866Y-120594523D01*
X180823866Y-120594523D02*
X181014342Y-120594523D01*
X181014342Y-120594523D02*
X181109580Y-120546904D01*
X181109580Y-120546904D02*
X181157200Y-120499285D01*
X181157200Y-120499285D02*
X181204819Y-120404047D01*
X181204819Y-120404047D02*
X181204819Y-120213571D01*
X181204819Y-120213571D02*
X181157200Y-120118333D01*
X181157200Y-120118333D02*
X181109580Y-120070714D01*
X181109580Y-120070714D02*
X181014342Y-120023095D01*
X181014342Y-120023095D02*
X180823866Y-120023095D01*
X180823866Y-120023095D02*
X180728628Y-120070714D01*
X180728628Y-120070714D02*
X180681009Y-120118333D01*
X180681009Y-120118333D02*
X180633390Y-120213571D01*
X196587499Y-90832200D02*
X196730356Y-90879819D01*
X196730356Y-90879819D02*
X196968451Y-90879819D01*
X196968451Y-90879819D02*
X197063689Y-90832200D01*
X197063689Y-90832200D02*
X197111308Y-90784580D01*
X197111308Y-90784580D02*
X197158927Y-90689342D01*
X197158927Y-90689342D02*
X197158927Y-90594104D01*
X197158927Y-90594104D02*
X197111308Y-90498866D01*
X197111308Y-90498866D02*
X197063689Y-90451247D01*
X197063689Y-90451247D02*
X196968451Y-90403628D01*
X196968451Y-90403628D02*
X196777975Y-90356009D01*
X196777975Y-90356009D02*
X196682737Y-90308390D01*
X196682737Y-90308390D02*
X196635118Y-90260771D01*
X196635118Y-90260771D02*
X196587499Y-90165533D01*
X196587499Y-90165533D02*
X196587499Y-90070295D01*
X196587499Y-90070295D02*
X196635118Y-89975057D01*
X196635118Y-89975057D02*
X196682737Y-89927438D01*
X196682737Y-89927438D02*
X196777975Y-89879819D01*
X196777975Y-89879819D02*
X197016070Y-89879819D01*
X197016070Y-89879819D02*
X197158927Y-89927438D01*
X197587499Y-90879819D02*
X197587499Y-89879819D01*
X197587499Y-89879819D02*
X197968451Y-89879819D01*
X197968451Y-89879819D02*
X198063689Y-89927438D01*
X198063689Y-89927438D02*
X198111308Y-89975057D01*
X198111308Y-89975057D02*
X198158927Y-90070295D01*
X198158927Y-90070295D02*
X198158927Y-90213152D01*
X198158927Y-90213152D02*
X198111308Y-90308390D01*
X198111308Y-90308390D02*
X198063689Y-90356009D01*
X198063689Y-90356009D02*
X197968451Y-90403628D01*
X197968451Y-90403628D02*
X197587499Y-90403628D01*
X198587499Y-90879819D02*
X198587499Y-89879819D01*
X198825594Y-90975057D02*
X199587498Y-90975057D01*
X200016070Y-89879819D02*
X200206546Y-89879819D01*
X200206546Y-89879819D02*
X200301784Y-89927438D01*
X200301784Y-89927438D02*
X200397022Y-90022676D01*
X200397022Y-90022676D02*
X200444641Y-90213152D01*
X200444641Y-90213152D02*
X200444641Y-90546485D01*
X200444641Y-90546485D02*
X200397022Y-90736961D01*
X200397022Y-90736961D02*
X200301784Y-90832200D01*
X200301784Y-90832200D02*
X200206546Y-90879819D01*
X200206546Y-90879819D02*
X200016070Y-90879819D01*
X200016070Y-90879819D02*
X199920832Y-90832200D01*
X199920832Y-90832200D02*
X199825594Y-90736961D01*
X199825594Y-90736961D02*
X199777975Y-90546485D01*
X199777975Y-90546485D02*
X199777975Y-90213152D01*
X199777975Y-90213152D02*
X199825594Y-90022676D01*
X199825594Y-90022676D02*
X199920832Y-89927438D01*
X199920832Y-89927438D02*
X200016070Y-89879819D01*
X200873213Y-89879819D02*
X200873213Y-90689342D01*
X200873213Y-90689342D02*
X200920832Y-90784580D01*
X200920832Y-90784580D02*
X200968451Y-90832200D01*
X200968451Y-90832200D02*
X201063689Y-90879819D01*
X201063689Y-90879819D02*
X201254165Y-90879819D01*
X201254165Y-90879819D02*
X201349403Y-90832200D01*
X201349403Y-90832200D02*
X201397022Y-90784580D01*
X201397022Y-90784580D02*
X201444641Y-90689342D01*
X201444641Y-90689342D02*
X201444641Y-89879819D01*
X201777975Y-89879819D02*
X202349403Y-89879819D01*
X202063689Y-90879819D02*
X202063689Y-89879819D01*
X202444642Y-90975057D02*
X203206546Y-90975057D01*
X203444642Y-90879819D02*
X203444642Y-89879819D01*
X203444642Y-90356009D02*
X204016070Y-90356009D01*
X204016070Y-90879819D02*
X204016070Y-89879819D01*
X204444642Y-90594104D02*
X204920832Y-90594104D01*
X204349404Y-90879819D02*
X204682737Y-89879819D01*
X204682737Y-89879819D02*
X205016070Y-90879819D01*
X205825594Y-90879819D02*
X205349404Y-90879819D01*
X205349404Y-90879819D02*
X205349404Y-89879819D01*
X206635118Y-90879819D02*
X206158928Y-90879819D01*
X206158928Y-90879819D02*
X206158928Y-89879819D01*
X206730357Y-90975057D02*
X207492261Y-90975057D01*
X207730357Y-90356009D02*
X208063690Y-90356009D01*
X208206547Y-90879819D02*
X207730357Y-90879819D01*
X207730357Y-90879819D02*
X207730357Y-89879819D01*
X207730357Y-89879819D02*
X208206547Y-89879819D01*
X208968452Y-90356009D02*
X208635119Y-90356009D01*
X208635119Y-90879819D02*
X208635119Y-89879819D01*
X208635119Y-89879819D02*
X209111309Y-89879819D01*
X209825595Y-90356009D02*
X209492262Y-90356009D01*
X209492262Y-90879819D02*
X209492262Y-89879819D01*
X209492262Y-89879819D02*
X209968452Y-89879819D01*
X210349405Y-90356009D02*
X210682738Y-90356009D01*
X210825595Y-90879819D02*
X210349405Y-90879819D01*
X210349405Y-90879819D02*
X210349405Y-89879819D01*
X210349405Y-89879819D02*
X210825595Y-89879819D01*
X211825595Y-90784580D02*
X211777976Y-90832200D01*
X211777976Y-90832200D02*
X211635119Y-90879819D01*
X211635119Y-90879819D02*
X211539881Y-90879819D01*
X211539881Y-90879819D02*
X211397024Y-90832200D01*
X211397024Y-90832200D02*
X211301786Y-90736961D01*
X211301786Y-90736961D02*
X211254167Y-90641723D01*
X211254167Y-90641723D02*
X211206548Y-90451247D01*
X211206548Y-90451247D02*
X211206548Y-90308390D01*
X211206548Y-90308390D02*
X211254167Y-90117914D01*
X211254167Y-90117914D02*
X211301786Y-90022676D01*
X211301786Y-90022676D02*
X211397024Y-89927438D01*
X211397024Y-89927438D02*
X211539881Y-89879819D01*
X211539881Y-89879819D02*
X211635119Y-89879819D01*
X211635119Y-89879819D02*
X211777976Y-89927438D01*
X211777976Y-89927438D02*
X211825595Y-89975057D01*
X212111310Y-89879819D02*
X212682738Y-89879819D01*
X212397024Y-90879819D02*
X212397024Y-89879819D01*
X175919047Y-137499580D02*
X175871428Y-137547200D01*
X175871428Y-137547200D02*
X175728571Y-137594819D01*
X175728571Y-137594819D02*
X175633333Y-137594819D01*
X175633333Y-137594819D02*
X175490476Y-137547200D01*
X175490476Y-137547200D02*
X175395238Y-137451961D01*
X175395238Y-137451961D02*
X175347619Y-137356723D01*
X175347619Y-137356723D02*
X175300000Y-137166247D01*
X175300000Y-137166247D02*
X175300000Y-137023390D01*
X175300000Y-137023390D02*
X175347619Y-136832914D01*
X175347619Y-136832914D02*
X175395238Y-136737676D01*
X175395238Y-136737676D02*
X175490476Y-136642438D01*
X175490476Y-136642438D02*
X175633333Y-136594819D01*
X175633333Y-136594819D02*
X175728571Y-136594819D01*
X175728571Y-136594819D02*
X175871428Y-136642438D01*
X175871428Y-136642438D02*
X175919047Y-136690057D01*
X176490476Y-137594819D02*
X176395238Y-137547200D01*
X176395238Y-137547200D02*
X176347619Y-137499580D01*
X176347619Y-137499580D02*
X176300000Y-137404342D01*
X176300000Y-137404342D02*
X176300000Y-137118628D01*
X176300000Y-137118628D02*
X176347619Y-137023390D01*
X176347619Y-137023390D02*
X176395238Y-136975771D01*
X176395238Y-136975771D02*
X176490476Y-136928152D01*
X176490476Y-136928152D02*
X176633333Y-136928152D01*
X176633333Y-136928152D02*
X176728571Y-136975771D01*
X176728571Y-136975771D02*
X176776190Y-137023390D01*
X176776190Y-137023390D02*
X176823809Y-137118628D01*
X176823809Y-137118628D02*
X176823809Y-137404342D01*
X176823809Y-137404342D02*
X176776190Y-137499580D01*
X176776190Y-137499580D02*
X176728571Y-137547200D01*
X176728571Y-137547200D02*
X176633333Y-137594819D01*
X176633333Y-137594819D02*
X176490476Y-137594819D01*
X177252381Y-137594819D02*
X177252381Y-136928152D01*
X177252381Y-136594819D02*
X177204762Y-136642438D01*
X177204762Y-136642438D02*
X177252381Y-136690057D01*
X177252381Y-136690057D02*
X177300000Y-136642438D01*
X177300000Y-136642438D02*
X177252381Y-136594819D01*
X177252381Y-136594819D02*
X177252381Y-136690057D01*
X177871428Y-137594819D02*
X177776190Y-137547200D01*
X177776190Y-137547200D02*
X177728571Y-137451961D01*
X177728571Y-137451961D02*
X177728571Y-136594819D01*
X179014286Y-137071009D02*
X179347619Y-137071009D01*
X179490476Y-137594819D02*
X179014286Y-137594819D01*
X179014286Y-137594819D02*
X179014286Y-136594819D01*
X179014286Y-136594819D02*
X179490476Y-136594819D01*
X179823810Y-137594819D02*
X180347619Y-136928152D01*
X179823810Y-136928152D02*
X180347619Y-137594819D01*
X179450951Y-135796133D02*
X178689047Y-135796133D01*
X179069999Y-135415180D02*
X179069999Y-136177085D01*
X176910951Y-135816133D02*
X176149047Y-135816133D01*
X149280714Y-100714819D02*
X149280714Y-99714819D01*
X149280714Y-99714819D02*
X149518809Y-99714819D01*
X149518809Y-99714819D02*
X149661666Y-99762438D01*
X149661666Y-99762438D02*
X149756904Y-99857676D01*
X149756904Y-99857676D02*
X149804523Y-99952914D01*
X149804523Y-99952914D02*
X149852142Y-100143390D01*
X149852142Y-100143390D02*
X149852142Y-100286247D01*
X149852142Y-100286247D02*
X149804523Y-100476723D01*
X149804523Y-100476723D02*
X149756904Y-100571961D01*
X149756904Y-100571961D02*
X149661666Y-100667200D01*
X149661666Y-100667200D02*
X149518809Y-100714819D01*
X149518809Y-100714819D02*
X149280714Y-100714819D01*
X150804523Y-100714819D02*
X150233095Y-100714819D01*
X150518809Y-100714819D02*
X150518809Y-99714819D01*
X150518809Y-99714819D02*
X150423571Y-99857676D01*
X150423571Y-99857676D02*
X150328333Y-99952914D01*
X150328333Y-99952914D02*
X150233095Y-100000533D01*
X151756904Y-100714819D02*
X151185476Y-100714819D01*
X151471190Y-100714819D02*
X151471190Y-99714819D01*
X151471190Y-99714819D02*
X151375952Y-99857676D01*
X151375952Y-99857676D02*
X151280714Y-99952914D01*
X151280714Y-99952914D02*
X151185476Y-100000533D01*
X154043095Y-100344819D02*
X154043095Y-99344819D01*
X154614523Y-100344819D02*
X154185952Y-99773390D01*
X154614523Y-99344819D02*
X154043095Y-99916247D01*
X148010714Y-103394819D02*
X148010714Y-102394819D01*
X148010714Y-102394819D02*
X148248809Y-102394819D01*
X148248809Y-102394819D02*
X148391666Y-102442438D01*
X148391666Y-102442438D02*
X148486904Y-102537676D01*
X148486904Y-102537676D02*
X148534523Y-102632914D01*
X148534523Y-102632914D02*
X148582142Y-102823390D01*
X148582142Y-102823390D02*
X148582142Y-102966247D01*
X148582142Y-102966247D02*
X148534523Y-103156723D01*
X148534523Y-103156723D02*
X148486904Y-103251961D01*
X148486904Y-103251961D02*
X148391666Y-103347200D01*
X148391666Y-103347200D02*
X148248809Y-103394819D01*
X148248809Y-103394819D02*
X148010714Y-103394819D01*
X149534523Y-103394819D02*
X148963095Y-103394819D01*
X149248809Y-103394819D02*
X149248809Y-102394819D01*
X149248809Y-102394819D02*
X149153571Y-102537676D01*
X149153571Y-102537676D02*
X149058333Y-102632914D01*
X149058333Y-102632914D02*
X148963095Y-102680533D01*
X149915476Y-102490057D02*
X149963095Y-102442438D01*
X149963095Y-102442438D02*
X150058333Y-102394819D01*
X150058333Y-102394819D02*
X150296428Y-102394819D01*
X150296428Y-102394819D02*
X150391666Y-102442438D01*
X150391666Y-102442438D02*
X150439285Y-102490057D01*
X150439285Y-102490057D02*
X150486904Y-102585295D01*
X150486904Y-102585295D02*
X150486904Y-102680533D01*
X150486904Y-102680533D02*
X150439285Y-102823390D01*
X150439285Y-102823390D02*
X149867857Y-103394819D01*
X149867857Y-103394819D02*
X150486904Y-103394819D01*
X145153095Y-103764819D02*
X145153095Y-102764819D01*
X145724523Y-103764819D02*
X145295952Y-103193390D01*
X145724523Y-102764819D02*
X145153095Y-103336247D01*
X143043809Y-65098628D02*
X143043809Y-65574819D01*
X142710476Y-64574819D02*
X143043809Y-65098628D01*
X143043809Y-65098628D02*
X143377142Y-64574819D01*
X144234285Y-65574819D02*
X143662857Y-65574819D01*
X143948571Y-65574819D02*
X143948571Y-64574819D01*
X143948571Y-64574819D02*
X143853333Y-64717676D01*
X143853333Y-64717676D02*
X143758095Y-64812914D01*
X143758095Y-64812914D02*
X143662857Y-64860533D01*
X184023095Y-95749819D02*
X184023095Y-96559342D01*
X184023095Y-96559342D02*
X184070714Y-96654580D01*
X184070714Y-96654580D02*
X184118333Y-96702200D01*
X184118333Y-96702200D02*
X184213571Y-96749819D01*
X184213571Y-96749819D02*
X184404047Y-96749819D01*
X184404047Y-96749819D02*
X184499285Y-96702200D01*
X184499285Y-96702200D02*
X184546904Y-96654580D01*
X184546904Y-96654580D02*
X184594523Y-96559342D01*
X184594523Y-96559342D02*
X184594523Y-95749819D01*
X185118333Y-96749819D02*
X185308809Y-96749819D01*
X185308809Y-96749819D02*
X185404047Y-96702200D01*
X185404047Y-96702200D02*
X185451666Y-96654580D01*
X185451666Y-96654580D02*
X185546904Y-96511723D01*
X185546904Y-96511723D02*
X185594523Y-96321247D01*
X185594523Y-96321247D02*
X185594523Y-95940295D01*
X185594523Y-95940295D02*
X185546904Y-95845057D01*
X185546904Y-95845057D02*
X185499285Y-95797438D01*
X185499285Y-95797438D02*
X185404047Y-95749819D01*
X185404047Y-95749819D02*
X185213571Y-95749819D01*
X185213571Y-95749819D02*
X185118333Y-95797438D01*
X185118333Y-95797438D02*
X185070714Y-95845057D01*
X185070714Y-95845057D02*
X185023095Y-95940295D01*
X185023095Y-95940295D02*
X185023095Y-96178390D01*
X185023095Y-96178390D02*
X185070714Y-96273628D01*
X185070714Y-96273628D02*
X185118333Y-96321247D01*
X185118333Y-96321247D02*
X185213571Y-96368866D01*
X185213571Y-96368866D02*
X185404047Y-96368866D01*
X185404047Y-96368866D02*
X185499285Y-96321247D01*
X185499285Y-96321247D02*
X185546904Y-96273628D01*
X185546904Y-96273628D02*
X185594523Y-96178390D01*
X185185237Y-136027438D02*
X185089999Y-135979819D01*
X185089999Y-135979819D02*
X184947142Y-135979819D01*
X184947142Y-135979819D02*
X184804285Y-136027438D01*
X184804285Y-136027438D02*
X184709047Y-136122676D01*
X184709047Y-136122676D02*
X184661428Y-136217914D01*
X184661428Y-136217914D02*
X184613809Y-136408390D01*
X184613809Y-136408390D02*
X184613809Y-136551247D01*
X184613809Y-136551247D02*
X184661428Y-136741723D01*
X184661428Y-136741723D02*
X184709047Y-136836961D01*
X184709047Y-136836961D02*
X184804285Y-136932200D01*
X184804285Y-136932200D02*
X184947142Y-136979819D01*
X184947142Y-136979819D02*
X185042380Y-136979819D01*
X185042380Y-136979819D02*
X185185237Y-136932200D01*
X185185237Y-136932200D02*
X185232856Y-136884580D01*
X185232856Y-136884580D02*
X185232856Y-136551247D01*
X185232856Y-136551247D02*
X185042380Y-136551247D01*
X186232856Y-136979819D02*
X185899523Y-136503628D01*
X185661428Y-136979819D02*
X185661428Y-135979819D01*
X185661428Y-135979819D02*
X186042380Y-135979819D01*
X186042380Y-135979819D02*
X186137618Y-136027438D01*
X186137618Y-136027438D02*
X186185237Y-136075057D01*
X186185237Y-136075057D02*
X186232856Y-136170295D01*
X186232856Y-136170295D02*
X186232856Y-136313152D01*
X186232856Y-136313152D02*
X186185237Y-136408390D01*
X186185237Y-136408390D02*
X186137618Y-136456009D01*
X186137618Y-136456009D02*
X186042380Y-136503628D01*
X186042380Y-136503628D02*
X185661428Y-136503628D01*
X186661428Y-136456009D02*
X186994761Y-136456009D01*
X187137618Y-136979819D02*
X186661428Y-136979819D01*
X186661428Y-136979819D02*
X186661428Y-135979819D01*
X186661428Y-135979819D02*
X187137618Y-135979819D01*
X187566190Y-136456009D02*
X187899523Y-136456009D01*
X188042380Y-136979819D02*
X187566190Y-136979819D01*
X187566190Y-136979819D02*
X187566190Y-135979819D01*
X187566190Y-135979819D02*
X188042380Y-135979819D01*
X188470952Y-136979819D02*
X188470952Y-135979819D01*
X188470952Y-135979819D02*
X189042380Y-136979819D01*
X189042380Y-136979819D02*
X189042380Y-135979819D01*
X190756666Y-136979819D02*
X190280476Y-136979819D01*
X190280476Y-136979819D02*
X190280476Y-135979819D01*
X191090000Y-136456009D02*
X191423333Y-136456009D01*
X191566190Y-136979819D02*
X191090000Y-136979819D01*
X191090000Y-136979819D02*
X191090000Y-135979819D01*
X191090000Y-135979819D02*
X191566190Y-135979819D01*
X191994762Y-136979819D02*
X191994762Y-135979819D01*
X191994762Y-135979819D02*
X192232857Y-135979819D01*
X192232857Y-135979819D02*
X192375714Y-136027438D01*
X192375714Y-136027438D02*
X192470952Y-136122676D01*
X192470952Y-136122676D02*
X192518571Y-136217914D01*
X192518571Y-136217914D02*
X192566190Y-136408390D01*
X192566190Y-136408390D02*
X192566190Y-136551247D01*
X192566190Y-136551247D02*
X192518571Y-136741723D01*
X192518571Y-136741723D02*
X192470952Y-136836961D01*
X192470952Y-136836961D02*
X192375714Y-136932200D01*
X192375714Y-136932200D02*
X192232857Y-136979819D01*
X192232857Y-136979819D02*
X191994762Y-136979819D01*
X118618095Y-118574819D02*
X118618095Y-119384342D01*
X118618095Y-119384342D02*
X118665714Y-119479580D01*
X118665714Y-119479580D02*
X118713333Y-119527200D01*
X118713333Y-119527200D02*
X118808571Y-119574819D01*
X118808571Y-119574819D02*
X118999047Y-119574819D01*
X118999047Y-119574819D02*
X119094285Y-119527200D01*
X119094285Y-119527200D02*
X119141904Y-119479580D01*
X119141904Y-119479580D02*
X119189523Y-119384342D01*
X119189523Y-119384342D02*
X119189523Y-118574819D01*
X120141904Y-118574819D02*
X119665714Y-118574819D01*
X119665714Y-118574819D02*
X119618095Y-119051009D01*
X119618095Y-119051009D02*
X119665714Y-119003390D01*
X119665714Y-119003390D02*
X119760952Y-118955771D01*
X119760952Y-118955771D02*
X119999047Y-118955771D01*
X119999047Y-118955771D02*
X120094285Y-119003390D01*
X120094285Y-119003390D02*
X120141904Y-119051009D01*
X120141904Y-119051009D02*
X120189523Y-119146247D01*
X120189523Y-119146247D02*
X120189523Y-119384342D01*
X120189523Y-119384342D02*
X120141904Y-119479580D01*
X120141904Y-119479580D02*
X120094285Y-119527200D01*
X120094285Y-119527200D02*
X119999047Y-119574819D01*
X119999047Y-119574819D02*
X119760952Y-119574819D01*
X119760952Y-119574819D02*
X119665714Y-119527200D01*
X119665714Y-119527200D02*
X119618095Y-119479580D01*
X117467142Y-109354580D02*
X117419523Y-109402200D01*
X117419523Y-109402200D02*
X117276666Y-109449819D01*
X117276666Y-109449819D02*
X117181428Y-109449819D01*
X117181428Y-109449819D02*
X117038571Y-109402200D01*
X117038571Y-109402200D02*
X116943333Y-109306961D01*
X116943333Y-109306961D02*
X116895714Y-109211723D01*
X116895714Y-109211723D02*
X116848095Y-109021247D01*
X116848095Y-109021247D02*
X116848095Y-108878390D01*
X116848095Y-108878390D02*
X116895714Y-108687914D01*
X116895714Y-108687914D02*
X116943333Y-108592676D01*
X116943333Y-108592676D02*
X117038571Y-108497438D01*
X117038571Y-108497438D02*
X117181428Y-108449819D01*
X117181428Y-108449819D02*
X117276666Y-108449819D01*
X117276666Y-108449819D02*
X117419523Y-108497438D01*
X117419523Y-108497438D02*
X117467142Y-108545057D01*
X118419523Y-109449819D02*
X117848095Y-109449819D01*
X118133809Y-109449819D02*
X118133809Y-108449819D01*
X118133809Y-108449819D02*
X118038571Y-108592676D01*
X118038571Y-108592676D02*
X117943333Y-108687914D01*
X117943333Y-108687914D02*
X117848095Y-108735533D01*
X119038571Y-108449819D02*
X119133809Y-108449819D01*
X119133809Y-108449819D02*
X119229047Y-108497438D01*
X119229047Y-108497438D02*
X119276666Y-108545057D01*
X119276666Y-108545057D02*
X119324285Y-108640295D01*
X119324285Y-108640295D02*
X119371904Y-108830771D01*
X119371904Y-108830771D02*
X119371904Y-109068866D01*
X119371904Y-109068866D02*
X119324285Y-109259342D01*
X119324285Y-109259342D02*
X119276666Y-109354580D01*
X119276666Y-109354580D02*
X119229047Y-109402200D01*
X119229047Y-109402200D02*
X119133809Y-109449819D01*
X119133809Y-109449819D02*
X119038571Y-109449819D01*
X119038571Y-109449819D02*
X118943333Y-109402200D01*
X118943333Y-109402200D02*
X118895714Y-109354580D01*
X118895714Y-109354580D02*
X118848095Y-109259342D01*
X118848095Y-109259342D02*
X118800476Y-109068866D01*
X118800476Y-109068866D02*
X118800476Y-108830771D01*
X118800476Y-108830771D02*
X118848095Y-108640295D01*
X118848095Y-108640295D02*
X118895714Y-108545057D01*
X118895714Y-108545057D02*
X118943333Y-108497438D01*
X118943333Y-108497438D02*
X119038571Y-108449819D01*
X142374580Y-69381666D02*
X142422200Y-69429285D01*
X142422200Y-69429285D02*
X142469819Y-69572142D01*
X142469819Y-69572142D02*
X142469819Y-69667380D01*
X142469819Y-69667380D02*
X142422200Y-69810237D01*
X142422200Y-69810237D02*
X142326961Y-69905475D01*
X142326961Y-69905475D02*
X142231723Y-69953094D01*
X142231723Y-69953094D02*
X142041247Y-70000713D01*
X142041247Y-70000713D02*
X141898390Y-70000713D01*
X141898390Y-70000713D02*
X141707914Y-69953094D01*
X141707914Y-69953094D02*
X141612676Y-69905475D01*
X141612676Y-69905475D02*
X141517438Y-69810237D01*
X141517438Y-69810237D02*
X141469819Y-69667380D01*
X141469819Y-69667380D02*
X141469819Y-69572142D01*
X141469819Y-69572142D02*
X141517438Y-69429285D01*
X141517438Y-69429285D02*
X141565057Y-69381666D01*
X141469819Y-69048332D02*
X141469819Y-68429285D01*
X141469819Y-68429285D02*
X141850771Y-68762618D01*
X141850771Y-68762618D02*
X141850771Y-68619761D01*
X141850771Y-68619761D02*
X141898390Y-68524523D01*
X141898390Y-68524523D02*
X141946009Y-68476904D01*
X141946009Y-68476904D02*
X142041247Y-68429285D01*
X142041247Y-68429285D02*
X142279342Y-68429285D01*
X142279342Y-68429285D02*
X142374580Y-68476904D01*
X142374580Y-68476904D02*
X142422200Y-68524523D01*
X142422200Y-68524523D02*
X142469819Y-68619761D01*
X142469819Y-68619761D02*
X142469819Y-68905475D01*
X142469819Y-68905475D02*
X142422200Y-69000713D01*
X142422200Y-69000713D02*
X142374580Y-69048332D01*
X162552142Y-92274819D02*
X162218809Y-91798628D01*
X161980714Y-92274819D02*
X161980714Y-91274819D01*
X161980714Y-91274819D02*
X162361666Y-91274819D01*
X162361666Y-91274819D02*
X162456904Y-91322438D01*
X162456904Y-91322438D02*
X162504523Y-91370057D01*
X162504523Y-91370057D02*
X162552142Y-91465295D01*
X162552142Y-91465295D02*
X162552142Y-91608152D01*
X162552142Y-91608152D02*
X162504523Y-91703390D01*
X162504523Y-91703390D02*
X162456904Y-91751009D01*
X162456904Y-91751009D02*
X162361666Y-91798628D01*
X162361666Y-91798628D02*
X161980714Y-91798628D01*
X163504523Y-92274819D02*
X162933095Y-92274819D01*
X163218809Y-92274819D02*
X163218809Y-91274819D01*
X163218809Y-91274819D02*
X163123571Y-91417676D01*
X163123571Y-91417676D02*
X163028333Y-91512914D01*
X163028333Y-91512914D02*
X162933095Y-91560533D01*
X164123571Y-91274819D02*
X164218809Y-91274819D01*
X164218809Y-91274819D02*
X164314047Y-91322438D01*
X164314047Y-91322438D02*
X164361666Y-91370057D01*
X164361666Y-91370057D02*
X164409285Y-91465295D01*
X164409285Y-91465295D02*
X164456904Y-91655771D01*
X164456904Y-91655771D02*
X164456904Y-91893866D01*
X164456904Y-91893866D02*
X164409285Y-92084342D01*
X164409285Y-92084342D02*
X164361666Y-92179580D01*
X164361666Y-92179580D02*
X164314047Y-92227200D01*
X164314047Y-92227200D02*
X164218809Y-92274819D01*
X164218809Y-92274819D02*
X164123571Y-92274819D01*
X164123571Y-92274819D02*
X164028333Y-92227200D01*
X164028333Y-92227200D02*
X163980714Y-92179580D01*
X163980714Y-92179580D02*
X163933095Y-92084342D01*
X163933095Y-92084342D02*
X163885476Y-91893866D01*
X163885476Y-91893866D02*
X163885476Y-91655771D01*
X163885476Y-91655771D02*
X163933095Y-91465295D01*
X163933095Y-91465295D02*
X163980714Y-91370057D01*
X163980714Y-91370057D02*
X164028333Y-91322438D01*
X164028333Y-91322438D02*
X164123571Y-91274819D01*
X168108333Y-84019819D02*
X167775000Y-83543628D01*
X167536905Y-84019819D02*
X167536905Y-83019819D01*
X167536905Y-83019819D02*
X167917857Y-83019819D01*
X167917857Y-83019819D02*
X168013095Y-83067438D01*
X168013095Y-83067438D02*
X168060714Y-83115057D01*
X168060714Y-83115057D02*
X168108333Y-83210295D01*
X168108333Y-83210295D02*
X168108333Y-83353152D01*
X168108333Y-83353152D02*
X168060714Y-83448390D01*
X168060714Y-83448390D02*
X168013095Y-83496009D01*
X168013095Y-83496009D02*
X167917857Y-83543628D01*
X167917857Y-83543628D02*
X167536905Y-83543628D01*
X169060714Y-84019819D02*
X168489286Y-84019819D01*
X168775000Y-84019819D02*
X168775000Y-83019819D01*
X168775000Y-83019819D02*
X168679762Y-83162676D01*
X168679762Y-83162676D02*
X168584524Y-83257914D01*
X168584524Y-83257914D02*
X168489286Y-83305533D01*
X136993333Y-92149819D02*
X136660000Y-91673628D01*
X136421905Y-92149819D02*
X136421905Y-91149819D01*
X136421905Y-91149819D02*
X136802857Y-91149819D01*
X136802857Y-91149819D02*
X136898095Y-91197438D01*
X136898095Y-91197438D02*
X136945714Y-91245057D01*
X136945714Y-91245057D02*
X136993333Y-91340295D01*
X136993333Y-91340295D02*
X136993333Y-91483152D01*
X136993333Y-91483152D02*
X136945714Y-91578390D01*
X136945714Y-91578390D02*
X136898095Y-91626009D01*
X136898095Y-91626009D02*
X136802857Y-91673628D01*
X136802857Y-91673628D02*
X136421905Y-91673628D01*
X137469524Y-92149819D02*
X137660000Y-92149819D01*
X137660000Y-92149819D02*
X137755238Y-92102200D01*
X137755238Y-92102200D02*
X137802857Y-92054580D01*
X137802857Y-92054580D02*
X137898095Y-91911723D01*
X137898095Y-91911723D02*
X137945714Y-91721247D01*
X137945714Y-91721247D02*
X137945714Y-91340295D01*
X137945714Y-91340295D02*
X137898095Y-91245057D01*
X137898095Y-91245057D02*
X137850476Y-91197438D01*
X137850476Y-91197438D02*
X137755238Y-91149819D01*
X137755238Y-91149819D02*
X137564762Y-91149819D01*
X137564762Y-91149819D02*
X137469524Y-91197438D01*
X137469524Y-91197438D02*
X137421905Y-91245057D01*
X137421905Y-91245057D02*
X137374286Y-91340295D01*
X137374286Y-91340295D02*
X137374286Y-91578390D01*
X137374286Y-91578390D02*
X137421905Y-91673628D01*
X137421905Y-91673628D02*
X137469524Y-91721247D01*
X137469524Y-91721247D02*
X137564762Y-91768866D01*
X137564762Y-91768866D02*
X137755238Y-91768866D01*
X137755238Y-91768866D02*
X137850476Y-91721247D01*
X137850476Y-91721247D02*
X137898095Y-91673628D01*
X137898095Y-91673628D02*
X137945714Y-91578390D01*
X208479819Y-124626666D02*
X208003628Y-124959999D01*
X208479819Y-125198094D02*
X207479819Y-125198094D01*
X207479819Y-125198094D02*
X207479819Y-124817142D01*
X207479819Y-124817142D02*
X207527438Y-124721904D01*
X207527438Y-124721904D02*
X207575057Y-124674285D01*
X207575057Y-124674285D02*
X207670295Y-124626666D01*
X207670295Y-124626666D02*
X207813152Y-124626666D01*
X207813152Y-124626666D02*
X207908390Y-124674285D01*
X207908390Y-124674285D02*
X207956009Y-124721904D01*
X207956009Y-124721904D02*
X208003628Y-124817142D01*
X208003628Y-124817142D02*
X208003628Y-125198094D01*
X207479819Y-123721904D02*
X207479819Y-124198094D01*
X207479819Y-124198094D02*
X207956009Y-124245713D01*
X207956009Y-124245713D02*
X207908390Y-124198094D01*
X207908390Y-124198094D02*
X207860771Y-124102856D01*
X207860771Y-124102856D02*
X207860771Y-123864761D01*
X207860771Y-123864761D02*
X207908390Y-123769523D01*
X207908390Y-123769523D02*
X207956009Y-123721904D01*
X207956009Y-123721904D02*
X208051247Y-123674285D01*
X208051247Y-123674285D02*
X208289342Y-123674285D01*
X208289342Y-123674285D02*
X208384580Y-123721904D01*
X208384580Y-123721904D02*
X208432200Y-123769523D01*
X208432200Y-123769523D02*
X208479819Y-123864761D01*
X208479819Y-123864761D02*
X208479819Y-124102856D01*
X208479819Y-124102856D02*
X208432200Y-124198094D01*
X208432200Y-124198094D02*
X208384580Y-124245713D01*
X157948333Y-66174580D02*
X157900714Y-66222200D01*
X157900714Y-66222200D02*
X157757857Y-66269819D01*
X157757857Y-66269819D02*
X157662619Y-66269819D01*
X157662619Y-66269819D02*
X157519762Y-66222200D01*
X157519762Y-66222200D02*
X157424524Y-66126961D01*
X157424524Y-66126961D02*
X157376905Y-66031723D01*
X157376905Y-66031723D02*
X157329286Y-65841247D01*
X157329286Y-65841247D02*
X157329286Y-65698390D01*
X157329286Y-65698390D02*
X157376905Y-65507914D01*
X157376905Y-65507914D02*
X157424524Y-65412676D01*
X157424524Y-65412676D02*
X157519762Y-65317438D01*
X157519762Y-65317438D02*
X157662619Y-65269819D01*
X157662619Y-65269819D02*
X157757857Y-65269819D01*
X157757857Y-65269819D02*
X157900714Y-65317438D01*
X157900714Y-65317438D02*
X157948333Y-65365057D01*
X158519762Y-65698390D02*
X158424524Y-65650771D01*
X158424524Y-65650771D02*
X158376905Y-65603152D01*
X158376905Y-65603152D02*
X158329286Y-65507914D01*
X158329286Y-65507914D02*
X158329286Y-65460295D01*
X158329286Y-65460295D02*
X158376905Y-65365057D01*
X158376905Y-65365057D02*
X158424524Y-65317438D01*
X158424524Y-65317438D02*
X158519762Y-65269819D01*
X158519762Y-65269819D02*
X158710238Y-65269819D01*
X158710238Y-65269819D02*
X158805476Y-65317438D01*
X158805476Y-65317438D02*
X158853095Y-65365057D01*
X158853095Y-65365057D02*
X158900714Y-65460295D01*
X158900714Y-65460295D02*
X158900714Y-65507914D01*
X158900714Y-65507914D02*
X158853095Y-65603152D01*
X158853095Y-65603152D02*
X158805476Y-65650771D01*
X158805476Y-65650771D02*
X158710238Y-65698390D01*
X158710238Y-65698390D02*
X158519762Y-65698390D01*
X158519762Y-65698390D02*
X158424524Y-65746009D01*
X158424524Y-65746009D02*
X158376905Y-65793628D01*
X158376905Y-65793628D02*
X158329286Y-65888866D01*
X158329286Y-65888866D02*
X158329286Y-66079342D01*
X158329286Y-66079342D02*
X158376905Y-66174580D01*
X158376905Y-66174580D02*
X158424524Y-66222200D01*
X158424524Y-66222200D02*
X158519762Y-66269819D01*
X158519762Y-66269819D02*
X158710238Y-66269819D01*
X158710238Y-66269819D02*
X158805476Y-66222200D01*
X158805476Y-66222200D02*
X158853095Y-66174580D01*
X158853095Y-66174580D02*
X158900714Y-66079342D01*
X158900714Y-66079342D02*
X158900714Y-65888866D01*
X158900714Y-65888866D02*
X158853095Y-65793628D01*
X158853095Y-65793628D02*
X158805476Y-65746009D01*
X158805476Y-65746009D02*
X158710238Y-65698390D01*
X125294819Y-108592857D02*
X124818628Y-108926190D01*
X125294819Y-109164285D02*
X124294819Y-109164285D01*
X124294819Y-109164285D02*
X124294819Y-108783333D01*
X124294819Y-108783333D02*
X124342438Y-108688095D01*
X124342438Y-108688095D02*
X124390057Y-108640476D01*
X124390057Y-108640476D02*
X124485295Y-108592857D01*
X124485295Y-108592857D02*
X124628152Y-108592857D01*
X124628152Y-108592857D02*
X124723390Y-108640476D01*
X124723390Y-108640476D02*
X124771009Y-108688095D01*
X124771009Y-108688095D02*
X124818628Y-108783333D01*
X124818628Y-108783333D02*
X124818628Y-109164285D01*
X125294819Y-107640476D02*
X125294819Y-108211904D01*
X125294819Y-107926190D02*
X124294819Y-107926190D01*
X124294819Y-107926190D02*
X124437676Y-108021428D01*
X124437676Y-108021428D02*
X124532914Y-108116666D01*
X124532914Y-108116666D02*
X124580533Y-108211904D01*
X124723390Y-107069047D02*
X124675771Y-107164285D01*
X124675771Y-107164285D02*
X124628152Y-107211904D01*
X124628152Y-107211904D02*
X124532914Y-107259523D01*
X124532914Y-107259523D02*
X124485295Y-107259523D01*
X124485295Y-107259523D02*
X124390057Y-107211904D01*
X124390057Y-107211904D02*
X124342438Y-107164285D01*
X124342438Y-107164285D02*
X124294819Y-107069047D01*
X124294819Y-107069047D02*
X124294819Y-106878571D01*
X124294819Y-106878571D02*
X124342438Y-106783333D01*
X124342438Y-106783333D02*
X124390057Y-106735714D01*
X124390057Y-106735714D02*
X124485295Y-106688095D01*
X124485295Y-106688095D02*
X124532914Y-106688095D01*
X124532914Y-106688095D02*
X124628152Y-106735714D01*
X124628152Y-106735714D02*
X124675771Y-106783333D01*
X124675771Y-106783333D02*
X124723390Y-106878571D01*
X124723390Y-106878571D02*
X124723390Y-107069047D01*
X124723390Y-107069047D02*
X124771009Y-107164285D01*
X124771009Y-107164285D02*
X124818628Y-107211904D01*
X124818628Y-107211904D02*
X124913866Y-107259523D01*
X124913866Y-107259523D02*
X125104342Y-107259523D01*
X125104342Y-107259523D02*
X125199580Y-107211904D01*
X125199580Y-107211904D02*
X125247200Y-107164285D01*
X125247200Y-107164285D02*
X125294819Y-107069047D01*
X125294819Y-107069047D02*
X125294819Y-106878571D01*
X125294819Y-106878571D02*
X125247200Y-106783333D01*
X125247200Y-106783333D02*
X125199580Y-106735714D01*
X125199580Y-106735714D02*
X125104342Y-106688095D01*
X125104342Y-106688095D02*
X124913866Y-106688095D01*
X124913866Y-106688095D02*
X124818628Y-106735714D01*
X124818628Y-106735714D02*
X124771009Y-106783333D01*
X124771009Y-106783333D02*
X124723390Y-106878571D01*
X107823095Y-119219819D02*
X107823095Y-120029342D01*
X107823095Y-120029342D02*
X107870714Y-120124580D01*
X107870714Y-120124580D02*
X107918333Y-120172200D01*
X107918333Y-120172200D02*
X108013571Y-120219819D01*
X108013571Y-120219819D02*
X108204047Y-120219819D01*
X108204047Y-120219819D02*
X108299285Y-120172200D01*
X108299285Y-120172200D02*
X108346904Y-120124580D01*
X108346904Y-120124580D02*
X108394523Y-120029342D01*
X108394523Y-120029342D02*
X108394523Y-119219819D01*
X108823095Y-119315057D02*
X108870714Y-119267438D01*
X108870714Y-119267438D02*
X108965952Y-119219819D01*
X108965952Y-119219819D02*
X109204047Y-119219819D01*
X109204047Y-119219819D02*
X109299285Y-119267438D01*
X109299285Y-119267438D02*
X109346904Y-119315057D01*
X109346904Y-119315057D02*
X109394523Y-119410295D01*
X109394523Y-119410295D02*
X109394523Y-119505533D01*
X109394523Y-119505533D02*
X109346904Y-119648390D01*
X109346904Y-119648390D02*
X108775476Y-120219819D01*
X108775476Y-120219819D02*
X109394523Y-120219819D01*
X117467142Y-101549580D02*
X117419523Y-101597200D01*
X117419523Y-101597200D02*
X117276666Y-101644819D01*
X117276666Y-101644819D02*
X117181428Y-101644819D01*
X117181428Y-101644819D02*
X117038571Y-101597200D01*
X117038571Y-101597200D02*
X116943333Y-101501961D01*
X116943333Y-101501961D02*
X116895714Y-101406723D01*
X116895714Y-101406723D02*
X116848095Y-101216247D01*
X116848095Y-101216247D02*
X116848095Y-101073390D01*
X116848095Y-101073390D02*
X116895714Y-100882914D01*
X116895714Y-100882914D02*
X116943333Y-100787676D01*
X116943333Y-100787676D02*
X117038571Y-100692438D01*
X117038571Y-100692438D02*
X117181428Y-100644819D01*
X117181428Y-100644819D02*
X117276666Y-100644819D01*
X117276666Y-100644819D02*
X117419523Y-100692438D01*
X117419523Y-100692438D02*
X117467142Y-100740057D01*
X118419523Y-101644819D02*
X117848095Y-101644819D01*
X118133809Y-101644819D02*
X118133809Y-100644819D01*
X118133809Y-100644819D02*
X118038571Y-100787676D01*
X118038571Y-100787676D02*
X117943333Y-100882914D01*
X117943333Y-100882914D02*
X117848095Y-100930533D01*
X119371904Y-101644819D02*
X118800476Y-101644819D01*
X119086190Y-101644819D02*
X119086190Y-100644819D01*
X119086190Y-100644819D02*
X118990952Y-100787676D01*
X118990952Y-100787676D02*
X118895714Y-100882914D01*
X118895714Y-100882914D02*
X118800476Y-100930533D01*
X189179580Y-62396666D02*
X189227200Y-62444285D01*
X189227200Y-62444285D02*
X189274819Y-62587142D01*
X189274819Y-62587142D02*
X189274819Y-62682380D01*
X189274819Y-62682380D02*
X189227200Y-62825237D01*
X189227200Y-62825237D02*
X189131961Y-62920475D01*
X189131961Y-62920475D02*
X189036723Y-62968094D01*
X189036723Y-62968094D02*
X188846247Y-63015713D01*
X188846247Y-63015713D02*
X188703390Y-63015713D01*
X188703390Y-63015713D02*
X188512914Y-62968094D01*
X188512914Y-62968094D02*
X188417676Y-62920475D01*
X188417676Y-62920475D02*
X188322438Y-62825237D01*
X188322438Y-62825237D02*
X188274819Y-62682380D01*
X188274819Y-62682380D02*
X188274819Y-62587142D01*
X188274819Y-62587142D02*
X188322438Y-62444285D01*
X188322438Y-62444285D02*
X188370057Y-62396666D01*
X188274819Y-62063332D02*
X188274819Y-61396666D01*
X188274819Y-61396666D02*
X189274819Y-61825237D01*
X202719047Y-136979819D02*
X202385714Y-136503628D01*
X202147619Y-136979819D02*
X202147619Y-135979819D01*
X202147619Y-135979819D02*
X202528571Y-135979819D01*
X202528571Y-135979819D02*
X202623809Y-136027438D01*
X202623809Y-136027438D02*
X202671428Y-136075057D01*
X202671428Y-136075057D02*
X202719047Y-136170295D01*
X202719047Y-136170295D02*
X202719047Y-136313152D01*
X202719047Y-136313152D02*
X202671428Y-136408390D01*
X202671428Y-136408390D02*
X202623809Y-136456009D01*
X202623809Y-136456009D02*
X202528571Y-136503628D01*
X202528571Y-136503628D02*
X202147619Y-136503628D01*
X203147619Y-136456009D02*
X203480952Y-136456009D01*
X203623809Y-136979819D02*
X203147619Y-136979819D01*
X203147619Y-136979819D02*
X203147619Y-135979819D01*
X203147619Y-135979819D02*
X203623809Y-135979819D01*
X204052381Y-136979819D02*
X204052381Y-135979819D01*
X204052381Y-135979819D02*
X204290476Y-135979819D01*
X204290476Y-135979819D02*
X204433333Y-136027438D01*
X204433333Y-136027438D02*
X204528571Y-136122676D01*
X204528571Y-136122676D02*
X204576190Y-136217914D01*
X204576190Y-136217914D02*
X204623809Y-136408390D01*
X204623809Y-136408390D02*
X204623809Y-136551247D01*
X204623809Y-136551247D02*
X204576190Y-136741723D01*
X204576190Y-136741723D02*
X204528571Y-136836961D01*
X204528571Y-136836961D02*
X204433333Y-136932200D01*
X204433333Y-136932200D02*
X204290476Y-136979819D01*
X204290476Y-136979819D02*
X204052381Y-136979819D01*
X206290476Y-136979819D02*
X205814286Y-136979819D01*
X205814286Y-136979819D02*
X205814286Y-135979819D01*
X206623810Y-136456009D02*
X206957143Y-136456009D01*
X207100000Y-136979819D02*
X206623810Y-136979819D01*
X206623810Y-136979819D02*
X206623810Y-135979819D01*
X206623810Y-135979819D02*
X207100000Y-135979819D01*
X207528572Y-136979819D02*
X207528572Y-135979819D01*
X207528572Y-135979819D02*
X207766667Y-135979819D01*
X207766667Y-135979819D02*
X207909524Y-136027438D01*
X207909524Y-136027438D02*
X208004762Y-136122676D01*
X208004762Y-136122676D02*
X208052381Y-136217914D01*
X208052381Y-136217914D02*
X208100000Y-136408390D01*
X208100000Y-136408390D02*
X208100000Y-136551247D01*
X208100000Y-136551247D02*
X208052381Y-136741723D01*
X208052381Y-136741723D02*
X208004762Y-136836961D01*
X208004762Y-136836961D02*
X207909524Y-136932200D01*
X207909524Y-136932200D02*
X207766667Y-136979819D01*
X207766667Y-136979819D02*
X207528572Y-136979819D01*
X158742142Y-117424580D02*
X158694523Y-117472200D01*
X158694523Y-117472200D02*
X158551666Y-117519819D01*
X158551666Y-117519819D02*
X158456428Y-117519819D01*
X158456428Y-117519819D02*
X158313571Y-117472200D01*
X158313571Y-117472200D02*
X158218333Y-117376961D01*
X158218333Y-117376961D02*
X158170714Y-117281723D01*
X158170714Y-117281723D02*
X158123095Y-117091247D01*
X158123095Y-117091247D02*
X158123095Y-116948390D01*
X158123095Y-116948390D02*
X158170714Y-116757914D01*
X158170714Y-116757914D02*
X158218333Y-116662676D01*
X158218333Y-116662676D02*
X158313571Y-116567438D01*
X158313571Y-116567438D02*
X158456428Y-116519819D01*
X158456428Y-116519819D02*
X158551666Y-116519819D01*
X158551666Y-116519819D02*
X158694523Y-116567438D01*
X158694523Y-116567438D02*
X158742142Y-116615057D01*
X159694523Y-117519819D02*
X159123095Y-117519819D01*
X159408809Y-117519819D02*
X159408809Y-116519819D01*
X159408809Y-116519819D02*
X159313571Y-116662676D01*
X159313571Y-116662676D02*
X159218333Y-116757914D01*
X159218333Y-116757914D02*
X159123095Y-116805533D01*
X160027857Y-116519819D02*
X160694523Y-116519819D01*
X160694523Y-116519819D02*
X160265952Y-117519819D01*
X186110714Y-117224819D02*
X186110714Y-116224819D01*
X186110714Y-116224819D02*
X186348809Y-116224819D01*
X186348809Y-116224819D02*
X186491666Y-116272438D01*
X186491666Y-116272438D02*
X186586904Y-116367676D01*
X186586904Y-116367676D02*
X186634523Y-116462914D01*
X186634523Y-116462914D02*
X186682142Y-116653390D01*
X186682142Y-116653390D02*
X186682142Y-116796247D01*
X186682142Y-116796247D02*
X186634523Y-116986723D01*
X186634523Y-116986723D02*
X186586904Y-117081961D01*
X186586904Y-117081961D02*
X186491666Y-117177200D01*
X186491666Y-117177200D02*
X186348809Y-117224819D01*
X186348809Y-117224819D02*
X186110714Y-117224819D01*
X187634523Y-117224819D02*
X187063095Y-117224819D01*
X187348809Y-117224819D02*
X187348809Y-116224819D01*
X187348809Y-116224819D02*
X187253571Y-116367676D01*
X187253571Y-116367676D02*
X187158333Y-116462914D01*
X187158333Y-116462914D02*
X187063095Y-116510533D01*
X187967857Y-116224819D02*
X188586904Y-116224819D01*
X188586904Y-116224819D02*
X188253571Y-116605771D01*
X188253571Y-116605771D02*
X188396428Y-116605771D01*
X188396428Y-116605771D02*
X188491666Y-116653390D01*
X188491666Y-116653390D02*
X188539285Y-116701009D01*
X188539285Y-116701009D02*
X188586904Y-116796247D01*
X188586904Y-116796247D02*
X188586904Y-117034342D01*
X188586904Y-117034342D02*
X188539285Y-117129580D01*
X188539285Y-117129580D02*
X188491666Y-117177200D01*
X188491666Y-117177200D02*
X188396428Y-117224819D01*
X188396428Y-117224819D02*
X188110714Y-117224819D01*
X188110714Y-117224819D02*
X188015476Y-117177200D01*
X188015476Y-117177200D02*
X187967857Y-117129580D01*
X190873095Y-116854819D02*
X190873095Y-115854819D01*
X191444523Y-116854819D02*
X191015952Y-116283390D01*
X191444523Y-115854819D02*
X190873095Y-116426247D01*
X165092142Y-99009580D02*
X165044523Y-99057200D01*
X165044523Y-99057200D02*
X164901666Y-99104819D01*
X164901666Y-99104819D02*
X164806428Y-99104819D01*
X164806428Y-99104819D02*
X164663571Y-99057200D01*
X164663571Y-99057200D02*
X164568333Y-98961961D01*
X164568333Y-98961961D02*
X164520714Y-98866723D01*
X164520714Y-98866723D02*
X164473095Y-98676247D01*
X164473095Y-98676247D02*
X164473095Y-98533390D01*
X164473095Y-98533390D02*
X164520714Y-98342914D01*
X164520714Y-98342914D02*
X164568333Y-98247676D01*
X164568333Y-98247676D02*
X164663571Y-98152438D01*
X164663571Y-98152438D02*
X164806428Y-98104819D01*
X164806428Y-98104819D02*
X164901666Y-98104819D01*
X164901666Y-98104819D02*
X165044523Y-98152438D01*
X165044523Y-98152438D02*
X165092142Y-98200057D01*
X166044523Y-99104819D02*
X165473095Y-99104819D01*
X165758809Y-99104819D02*
X165758809Y-98104819D01*
X165758809Y-98104819D02*
X165663571Y-98247676D01*
X165663571Y-98247676D02*
X165568333Y-98342914D01*
X165568333Y-98342914D02*
X165473095Y-98390533D01*
X166901666Y-98438152D02*
X166901666Y-99104819D01*
X166663571Y-98057200D02*
X166425476Y-98771485D01*
X166425476Y-98771485D02*
X167044523Y-98771485D01*
X112387142Y-110624580D02*
X112339523Y-110672200D01*
X112339523Y-110672200D02*
X112196666Y-110719819D01*
X112196666Y-110719819D02*
X112101428Y-110719819D01*
X112101428Y-110719819D02*
X111958571Y-110672200D01*
X111958571Y-110672200D02*
X111863333Y-110576961D01*
X111863333Y-110576961D02*
X111815714Y-110481723D01*
X111815714Y-110481723D02*
X111768095Y-110291247D01*
X111768095Y-110291247D02*
X111768095Y-110148390D01*
X111768095Y-110148390D02*
X111815714Y-109957914D01*
X111815714Y-109957914D02*
X111863333Y-109862676D01*
X111863333Y-109862676D02*
X111958571Y-109767438D01*
X111958571Y-109767438D02*
X112101428Y-109719819D01*
X112101428Y-109719819D02*
X112196666Y-109719819D01*
X112196666Y-109719819D02*
X112339523Y-109767438D01*
X112339523Y-109767438D02*
X112387142Y-109815057D01*
X113339523Y-110719819D02*
X112768095Y-110719819D01*
X113053809Y-110719819D02*
X113053809Y-109719819D01*
X113053809Y-109719819D02*
X112958571Y-109862676D01*
X112958571Y-109862676D02*
X112863333Y-109957914D01*
X112863333Y-109957914D02*
X112768095Y-110005533D01*
X113720476Y-109815057D02*
X113768095Y-109767438D01*
X113768095Y-109767438D02*
X113863333Y-109719819D01*
X113863333Y-109719819D02*
X114101428Y-109719819D01*
X114101428Y-109719819D02*
X114196666Y-109767438D01*
X114196666Y-109767438D02*
X114244285Y-109815057D01*
X114244285Y-109815057D02*
X114291904Y-109910295D01*
X114291904Y-109910295D02*
X114291904Y-110005533D01*
X114291904Y-110005533D02*
X114244285Y-110148390D01*
X114244285Y-110148390D02*
X113672857Y-110719819D01*
X113672857Y-110719819D02*
X114291904Y-110719819D01*
X92980000Y-65747438D02*
X92884762Y-65699819D01*
X92884762Y-65699819D02*
X92741905Y-65699819D01*
X92741905Y-65699819D02*
X92599048Y-65747438D01*
X92599048Y-65747438D02*
X92503810Y-65842676D01*
X92503810Y-65842676D02*
X92456191Y-65937914D01*
X92456191Y-65937914D02*
X92408572Y-66128390D01*
X92408572Y-66128390D02*
X92408572Y-66271247D01*
X92408572Y-66271247D02*
X92456191Y-66461723D01*
X92456191Y-66461723D02*
X92503810Y-66556961D01*
X92503810Y-66556961D02*
X92599048Y-66652200D01*
X92599048Y-66652200D02*
X92741905Y-66699819D01*
X92741905Y-66699819D02*
X92837143Y-66699819D01*
X92837143Y-66699819D02*
X92980000Y-66652200D01*
X92980000Y-66652200D02*
X93027619Y-66604580D01*
X93027619Y-66604580D02*
X93027619Y-66271247D01*
X93027619Y-66271247D02*
X92837143Y-66271247D01*
X93456191Y-66699819D02*
X93456191Y-65699819D01*
X93456191Y-65699819D02*
X93837143Y-65699819D01*
X93837143Y-65699819D02*
X93932381Y-65747438D01*
X93932381Y-65747438D02*
X93980000Y-65795057D01*
X93980000Y-65795057D02*
X94027619Y-65890295D01*
X94027619Y-65890295D02*
X94027619Y-66033152D01*
X94027619Y-66033152D02*
X93980000Y-66128390D01*
X93980000Y-66128390D02*
X93932381Y-66176009D01*
X93932381Y-66176009D02*
X93837143Y-66223628D01*
X93837143Y-66223628D02*
X93456191Y-66223628D01*
X94456191Y-66699819D02*
X94456191Y-65699819D01*
X95122857Y-65699819D02*
X95313333Y-65699819D01*
X95313333Y-65699819D02*
X95408571Y-65747438D01*
X95408571Y-65747438D02*
X95503809Y-65842676D01*
X95503809Y-65842676D02*
X95551428Y-66033152D01*
X95551428Y-66033152D02*
X95551428Y-66366485D01*
X95551428Y-66366485D02*
X95503809Y-66556961D01*
X95503809Y-66556961D02*
X95408571Y-66652200D01*
X95408571Y-66652200D02*
X95313333Y-66699819D01*
X95313333Y-66699819D02*
X95122857Y-66699819D01*
X95122857Y-66699819D02*
X95027619Y-66652200D01*
X95027619Y-66652200D02*
X94932381Y-66556961D01*
X94932381Y-66556961D02*
X94884762Y-66366485D01*
X94884762Y-66366485D02*
X94884762Y-66033152D01*
X94884762Y-66033152D02*
X94932381Y-65842676D01*
X94932381Y-65842676D02*
X95027619Y-65747438D01*
X95027619Y-65747438D02*
X95122857Y-65699819D01*
X95916905Y-79194819D02*
X95916905Y-78194819D01*
X95916905Y-78194819D02*
X96297857Y-78194819D01*
X96297857Y-78194819D02*
X96393095Y-78242438D01*
X96393095Y-78242438D02*
X96440714Y-78290057D01*
X96440714Y-78290057D02*
X96488333Y-78385295D01*
X96488333Y-78385295D02*
X96488333Y-78528152D01*
X96488333Y-78528152D02*
X96440714Y-78623390D01*
X96440714Y-78623390D02*
X96393095Y-78671009D01*
X96393095Y-78671009D02*
X96297857Y-78718628D01*
X96297857Y-78718628D02*
X95916905Y-78718628D01*
X97250238Y-78671009D02*
X97393095Y-78718628D01*
X97393095Y-78718628D02*
X97440714Y-78766247D01*
X97440714Y-78766247D02*
X97488333Y-78861485D01*
X97488333Y-78861485D02*
X97488333Y-79004342D01*
X97488333Y-79004342D02*
X97440714Y-79099580D01*
X97440714Y-79099580D02*
X97393095Y-79147200D01*
X97393095Y-79147200D02*
X97297857Y-79194819D01*
X97297857Y-79194819D02*
X96916905Y-79194819D01*
X96916905Y-79194819D02*
X96916905Y-78194819D01*
X96916905Y-78194819D02*
X97250238Y-78194819D01*
X97250238Y-78194819D02*
X97345476Y-78242438D01*
X97345476Y-78242438D02*
X97393095Y-78290057D01*
X97393095Y-78290057D02*
X97440714Y-78385295D01*
X97440714Y-78385295D02*
X97440714Y-78480533D01*
X97440714Y-78480533D02*
X97393095Y-78575771D01*
X97393095Y-78575771D02*
X97345476Y-78623390D01*
X97345476Y-78623390D02*
X97250238Y-78671009D01*
X97250238Y-78671009D02*
X96916905Y-78671009D01*
X98107381Y-78194819D02*
X98202619Y-78194819D01*
X98202619Y-78194819D02*
X98297857Y-78242438D01*
X98297857Y-78242438D02*
X98345476Y-78290057D01*
X98345476Y-78290057D02*
X98393095Y-78385295D01*
X98393095Y-78385295D02*
X98440714Y-78575771D01*
X98440714Y-78575771D02*
X98440714Y-78813866D01*
X98440714Y-78813866D02*
X98393095Y-79004342D01*
X98393095Y-79004342D02*
X98345476Y-79099580D01*
X98345476Y-79099580D02*
X98297857Y-79147200D01*
X98297857Y-79147200D02*
X98202619Y-79194819D01*
X98202619Y-79194819D02*
X98107381Y-79194819D01*
X98107381Y-79194819D02*
X98012143Y-79147200D01*
X98012143Y-79147200D02*
X97964524Y-79099580D01*
X97964524Y-79099580D02*
X97916905Y-79004342D01*
X97916905Y-79004342D02*
X97869286Y-78813866D01*
X97869286Y-78813866D02*
X97869286Y-78575771D01*
X97869286Y-78575771D02*
X97916905Y-78385295D01*
X97916905Y-78385295D02*
X97964524Y-78290057D01*
X97964524Y-78290057D02*
X98012143Y-78242438D01*
X98012143Y-78242438D02*
X98107381Y-78194819D01*
X95916905Y-76654819D02*
X95916905Y-75654819D01*
X95916905Y-75654819D02*
X96297857Y-75654819D01*
X96297857Y-75654819D02*
X96393095Y-75702438D01*
X96393095Y-75702438D02*
X96440714Y-75750057D01*
X96440714Y-75750057D02*
X96488333Y-75845295D01*
X96488333Y-75845295D02*
X96488333Y-75988152D01*
X96488333Y-75988152D02*
X96440714Y-76083390D01*
X96440714Y-76083390D02*
X96393095Y-76131009D01*
X96393095Y-76131009D02*
X96297857Y-76178628D01*
X96297857Y-76178628D02*
X95916905Y-76178628D01*
X97250238Y-76131009D02*
X97393095Y-76178628D01*
X97393095Y-76178628D02*
X97440714Y-76226247D01*
X97440714Y-76226247D02*
X97488333Y-76321485D01*
X97488333Y-76321485D02*
X97488333Y-76464342D01*
X97488333Y-76464342D02*
X97440714Y-76559580D01*
X97440714Y-76559580D02*
X97393095Y-76607200D01*
X97393095Y-76607200D02*
X97297857Y-76654819D01*
X97297857Y-76654819D02*
X96916905Y-76654819D01*
X96916905Y-76654819D02*
X96916905Y-75654819D01*
X96916905Y-75654819D02*
X97250238Y-75654819D01*
X97250238Y-75654819D02*
X97345476Y-75702438D01*
X97345476Y-75702438D02*
X97393095Y-75750057D01*
X97393095Y-75750057D02*
X97440714Y-75845295D01*
X97440714Y-75845295D02*
X97440714Y-75940533D01*
X97440714Y-75940533D02*
X97393095Y-76035771D01*
X97393095Y-76035771D02*
X97345476Y-76083390D01*
X97345476Y-76083390D02*
X97250238Y-76131009D01*
X97250238Y-76131009D02*
X96916905Y-76131009D01*
X98440714Y-76654819D02*
X97869286Y-76654819D01*
X98155000Y-76654819D02*
X98155000Y-75654819D01*
X98155000Y-75654819D02*
X98059762Y-75797676D01*
X98059762Y-75797676D02*
X97964524Y-75892914D01*
X97964524Y-75892914D02*
X97869286Y-75940533D01*
X95916905Y-74114819D02*
X95916905Y-73114819D01*
X95916905Y-73114819D02*
X96297857Y-73114819D01*
X96297857Y-73114819D02*
X96393095Y-73162438D01*
X96393095Y-73162438D02*
X96440714Y-73210057D01*
X96440714Y-73210057D02*
X96488333Y-73305295D01*
X96488333Y-73305295D02*
X96488333Y-73448152D01*
X96488333Y-73448152D02*
X96440714Y-73543390D01*
X96440714Y-73543390D02*
X96393095Y-73591009D01*
X96393095Y-73591009D02*
X96297857Y-73638628D01*
X96297857Y-73638628D02*
X95916905Y-73638628D01*
X97250238Y-73591009D02*
X97393095Y-73638628D01*
X97393095Y-73638628D02*
X97440714Y-73686247D01*
X97440714Y-73686247D02*
X97488333Y-73781485D01*
X97488333Y-73781485D02*
X97488333Y-73924342D01*
X97488333Y-73924342D02*
X97440714Y-74019580D01*
X97440714Y-74019580D02*
X97393095Y-74067200D01*
X97393095Y-74067200D02*
X97297857Y-74114819D01*
X97297857Y-74114819D02*
X96916905Y-74114819D01*
X96916905Y-74114819D02*
X96916905Y-73114819D01*
X96916905Y-73114819D02*
X97250238Y-73114819D01*
X97250238Y-73114819D02*
X97345476Y-73162438D01*
X97345476Y-73162438D02*
X97393095Y-73210057D01*
X97393095Y-73210057D02*
X97440714Y-73305295D01*
X97440714Y-73305295D02*
X97440714Y-73400533D01*
X97440714Y-73400533D02*
X97393095Y-73495771D01*
X97393095Y-73495771D02*
X97345476Y-73543390D01*
X97345476Y-73543390D02*
X97250238Y-73591009D01*
X97250238Y-73591009D02*
X96916905Y-73591009D01*
X97869286Y-73210057D02*
X97916905Y-73162438D01*
X97916905Y-73162438D02*
X98012143Y-73114819D01*
X98012143Y-73114819D02*
X98250238Y-73114819D01*
X98250238Y-73114819D02*
X98345476Y-73162438D01*
X98345476Y-73162438D02*
X98393095Y-73210057D01*
X98393095Y-73210057D02*
X98440714Y-73305295D01*
X98440714Y-73305295D02*
X98440714Y-73400533D01*
X98440714Y-73400533D02*
X98393095Y-73543390D01*
X98393095Y-73543390D02*
X97821667Y-74114819D01*
X97821667Y-74114819D02*
X98440714Y-74114819D01*
X95916905Y-71574819D02*
X95916905Y-70574819D01*
X95916905Y-70574819D02*
X96297857Y-70574819D01*
X96297857Y-70574819D02*
X96393095Y-70622438D01*
X96393095Y-70622438D02*
X96440714Y-70670057D01*
X96440714Y-70670057D02*
X96488333Y-70765295D01*
X96488333Y-70765295D02*
X96488333Y-70908152D01*
X96488333Y-70908152D02*
X96440714Y-71003390D01*
X96440714Y-71003390D02*
X96393095Y-71051009D01*
X96393095Y-71051009D02*
X96297857Y-71098628D01*
X96297857Y-71098628D02*
X95916905Y-71098628D01*
X96916905Y-71574819D02*
X96916905Y-70574819D01*
X96916905Y-70574819D02*
X97155000Y-70574819D01*
X97155000Y-70574819D02*
X97297857Y-70622438D01*
X97297857Y-70622438D02*
X97393095Y-70717676D01*
X97393095Y-70717676D02*
X97440714Y-70812914D01*
X97440714Y-70812914D02*
X97488333Y-71003390D01*
X97488333Y-71003390D02*
X97488333Y-71146247D01*
X97488333Y-71146247D02*
X97440714Y-71336723D01*
X97440714Y-71336723D02*
X97393095Y-71431961D01*
X97393095Y-71431961D02*
X97297857Y-71527200D01*
X97297857Y-71527200D02*
X97155000Y-71574819D01*
X97155000Y-71574819D02*
X96916905Y-71574819D01*
X97869286Y-70670057D02*
X97916905Y-70622438D01*
X97916905Y-70622438D02*
X98012143Y-70574819D01*
X98012143Y-70574819D02*
X98250238Y-70574819D01*
X98250238Y-70574819D02*
X98345476Y-70622438D01*
X98345476Y-70622438D02*
X98393095Y-70670057D01*
X98393095Y-70670057D02*
X98440714Y-70765295D01*
X98440714Y-70765295D02*
X98440714Y-70860533D01*
X98440714Y-70860533D02*
X98393095Y-71003390D01*
X98393095Y-71003390D02*
X97821667Y-71574819D01*
X97821667Y-71574819D02*
X98440714Y-71574819D01*
X95916905Y-69034819D02*
X95916905Y-68034819D01*
X95916905Y-68034819D02*
X96297857Y-68034819D01*
X96297857Y-68034819D02*
X96393095Y-68082438D01*
X96393095Y-68082438D02*
X96440714Y-68130057D01*
X96440714Y-68130057D02*
X96488333Y-68225295D01*
X96488333Y-68225295D02*
X96488333Y-68368152D01*
X96488333Y-68368152D02*
X96440714Y-68463390D01*
X96440714Y-68463390D02*
X96393095Y-68511009D01*
X96393095Y-68511009D02*
X96297857Y-68558628D01*
X96297857Y-68558628D02*
X95916905Y-68558628D01*
X96916905Y-69034819D02*
X96916905Y-68034819D01*
X96916905Y-68034819D02*
X97155000Y-68034819D01*
X97155000Y-68034819D02*
X97297857Y-68082438D01*
X97297857Y-68082438D02*
X97393095Y-68177676D01*
X97393095Y-68177676D02*
X97440714Y-68272914D01*
X97440714Y-68272914D02*
X97488333Y-68463390D01*
X97488333Y-68463390D02*
X97488333Y-68606247D01*
X97488333Y-68606247D02*
X97440714Y-68796723D01*
X97440714Y-68796723D02*
X97393095Y-68891961D01*
X97393095Y-68891961D02*
X97297857Y-68987200D01*
X97297857Y-68987200D02*
X97155000Y-69034819D01*
X97155000Y-69034819D02*
X96916905Y-69034819D01*
X97821667Y-68034819D02*
X98440714Y-68034819D01*
X98440714Y-68034819D02*
X98107381Y-68415771D01*
X98107381Y-68415771D02*
X98250238Y-68415771D01*
X98250238Y-68415771D02*
X98345476Y-68463390D01*
X98345476Y-68463390D02*
X98393095Y-68511009D01*
X98393095Y-68511009D02*
X98440714Y-68606247D01*
X98440714Y-68606247D02*
X98440714Y-68844342D01*
X98440714Y-68844342D02*
X98393095Y-68939580D01*
X98393095Y-68939580D02*
X98345476Y-68987200D01*
X98345476Y-68987200D02*
X98250238Y-69034819D01*
X98250238Y-69034819D02*
X97964524Y-69034819D01*
X97964524Y-69034819D02*
X97869286Y-68987200D01*
X97869286Y-68987200D02*
X97821667Y-68939580D01*
X149852142Y-92274819D02*
X149518809Y-91798628D01*
X149280714Y-92274819D02*
X149280714Y-91274819D01*
X149280714Y-91274819D02*
X149661666Y-91274819D01*
X149661666Y-91274819D02*
X149756904Y-91322438D01*
X149756904Y-91322438D02*
X149804523Y-91370057D01*
X149804523Y-91370057D02*
X149852142Y-91465295D01*
X149852142Y-91465295D02*
X149852142Y-91608152D01*
X149852142Y-91608152D02*
X149804523Y-91703390D01*
X149804523Y-91703390D02*
X149756904Y-91751009D01*
X149756904Y-91751009D02*
X149661666Y-91798628D01*
X149661666Y-91798628D02*
X149280714Y-91798628D01*
X150804523Y-92274819D02*
X150233095Y-92274819D01*
X150518809Y-92274819D02*
X150518809Y-91274819D01*
X150518809Y-91274819D02*
X150423571Y-91417676D01*
X150423571Y-91417676D02*
X150328333Y-91512914D01*
X150328333Y-91512914D02*
X150233095Y-91560533D01*
X151137857Y-91274819D02*
X151756904Y-91274819D01*
X151756904Y-91274819D02*
X151423571Y-91655771D01*
X151423571Y-91655771D02*
X151566428Y-91655771D01*
X151566428Y-91655771D02*
X151661666Y-91703390D01*
X151661666Y-91703390D02*
X151709285Y-91751009D01*
X151709285Y-91751009D02*
X151756904Y-91846247D01*
X151756904Y-91846247D02*
X151756904Y-92084342D01*
X151756904Y-92084342D02*
X151709285Y-92179580D01*
X151709285Y-92179580D02*
X151661666Y-92227200D01*
X151661666Y-92227200D02*
X151566428Y-92274819D01*
X151566428Y-92274819D02*
X151280714Y-92274819D01*
X151280714Y-92274819D02*
X151185476Y-92227200D01*
X151185476Y-92227200D02*
X151137857Y-92179580D01*
X154773333Y-73159580D02*
X154725714Y-73207200D01*
X154725714Y-73207200D02*
X154582857Y-73254819D01*
X154582857Y-73254819D02*
X154487619Y-73254819D01*
X154487619Y-73254819D02*
X154344762Y-73207200D01*
X154344762Y-73207200D02*
X154249524Y-73111961D01*
X154249524Y-73111961D02*
X154201905Y-73016723D01*
X154201905Y-73016723D02*
X154154286Y-72826247D01*
X154154286Y-72826247D02*
X154154286Y-72683390D01*
X154154286Y-72683390D02*
X154201905Y-72492914D01*
X154201905Y-72492914D02*
X154249524Y-72397676D01*
X154249524Y-72397676D02*
X154344762Y-72302438D01*
X154344762Y-72302438D02*
X154487619Y-72254819D01*
X154487619Y-72254819D02*
X154582857Y-72254819D01*
X154582857Y-72254819D02*
X154725714Y-72302438D01*
X154725714Y-72302438D02*
X154773333Y-72350057D01*
X155630476Y-72588152D02*
X155630476Y-73254819D01*
X155392381Y-72207200D02*
X155154286Y-72921485D01*
X155154286Y-72921485D02*
X155773333Y-72921485D01*
X167624286Y-127418866D02*
X168386191Y-127418866D01*
X168005238Y-127799819D02*
X168005238Y-127037914D01*
X169338571Y-126799819D02*
X168862381Y-126799819D01*
X168862381Y-126799819D02*
X168814762Y-127276009D01*
X168814762Y-127276009D02*
X168862381Y-127228390D01*
X168862381Y-127228390D02*
X168957619Y-127180771D01*
X168957619Y-127180771D02*
X169195714Y-127180771D01*
X169195714Y-127180771D02*
X169290952Y-127228390D01*
X169290952Y-127228390D02*
X169338571Y-127276009D01*
X169338571Y-127276009D02*
X169386190Y-127371247D01*
X169386190Y-127371247D02*
X169386190Y-127609342D01*
X169386190Y-127609342D02*
X169338571Y-127704580D01*
X169338571Y-127704580D02*
X169290952Y-127752200D01*
X169290952Y-127752200D02*
X169195714Y-127799819D01*
X169195714Y-127799819D02*
X168957619Y-127799819D01*
X168957619Y-127799819D02*
X168862381Y-127752200D01*
X168862381Y-127752200D02*
X168814762Y-127704580D01*
X169671905Y-126799819D02*
X170005238Y-127799819D01*
X170005238Y-127799819D02*
X170338571Y-126799819D01*
X170251133Y-135509048D02*
X170251133Y-136270953D01*
X169870180Y-135890000D02*
X170632085Y-135890000D01*
X167404048Y-135963866D02*
X168165953Y-135963866D01*
X191904580Y-89701666D02*
X191952200Y-89749285D01*
X191952200Y-89749285D02*
X191999819Y-89892142D01*
X191999819Y-89892142D02*
X191999819Y-89987380D01*
X191999819Y-89987380D02*
X191952200Y-90130237D01*
X191952200Y-90130237D02*
X191856961Y-90225475D01*
X191856961Y-90225475D02*
X191761723Y-90273094D01*
X191761723Y-90273094D02*
X191571247Y-90320713D01*
X191571247Y-90320713D02*
X191428390Y-90320713D01*
X191428390Y-90320713D02*
X191237914Y-90273094D01*
X191237914Y-90273094D02*
X191142676Y-90225475D01*
X191142676Y-90225475D02*
X191047438Y-90130237D01*
X191047438Y-90130237D02*
X190999819Y-89987380D01*
X190999819Y-89987380D02*
X190999819Y-89892142D01*
X190999819Y-89892142D02*
X191047438Y-89749285D01*
X191047438Y-89749285D02*
X191095057Y-89701666D01*
X191999819Y-89225475D02*
X191999819Y-89034999D01*
X191999819Y-89034999D02*
X191952200Y-88939761D01*
X191952200Y-88939761D02*
X191904580Y-88892142D01*
X191904580Y-88892142D02*
X191761723Y-88796904D01*
X191761723Y-88796904D02*
X191571247Y-88749285D01*
X191571247Y-88749285D02*
X191190295Y-88749285D01*
X191190295Y-88749285D02*
X191095057Y-88796904D01*
X191095057Y-88796904D02*
X191047438Y-88844523D01*
X191047438Y-88844523D02*
X190999819Y-88939761D01*
X190999819Y-88939761D02*
X190999819Y-89130237D01*
X190999819Y-89130237D02*
X191047438Y-89225475D01*
X191047438Y-89225475D02*
X191095057Y-89273094D01*
X191095057Y-89273094D02*
X191190295Y-89320713D01*
X191190295Y-89320713D02*
X191428390Y-89320713D01*
X191428390Y-89320713D02*
X191523628Y-89273094D01*
X191523628Y-89273094D02*
X191571247Y-89225475D01*
X191571247Y-89225475D02*
X191618866Y-89130237D01*
X191618866Y-89130237D02*
X191618866Y-88939761D01*
X191618866Y-88939761D02*
X191571247Y-88844523D01*
X191571247Y-88844523D02*
X191523628Y-88796904D01*
X191523628Y-88796904D02*
X191428390Y-88749285D01*
X157472142Y-126564819D02*
X157138809Y-126088628D01*
X156900714Y-126564819D02*
X156900714Y-125564819D01*
X156900714Y-125564819D02*
X157281666Y-125564819D01*
X157281666Y-125564819D02*
X157376904Y-125612438D01*
X157376904Y-125612438D02*
X157424523Y-125660057D01*
X157424523Y-125660057D02*
X157472142Y-125755295D01*
X157472142Y-125755295D02*
X157472142Y-125898152D01*
X157472142Y-125898152D02*
X157424523Y-125993390D01*
X157424523Y-125993390D02*
X157376904Y-126041009D01*
X157376904Y-126041009D02*
X157281666Y-126088628D01*
X157281666Y-126088628D02*
X156900714Y-126088628D01*
X158424523Y-126564819D02*
X157853095Y-126564819D01*
X158138809Y-126564819D02*
X158138809Y-125564819D01*
X158138809Y-125564819D02*
X158043571Y-125707676D01*
X158043571Y-125707676D02*
X157948333Y-125802914D01*
X157948333Y-125802914D02*
X157853095Y-125850533D01*
X159281666Y-125898152D02*
X159281666Y-126564819D01*
X159043571Y-125517200D02*
X158805476Y-126231485D01*
X158805476Y-126231485D02*
X159424523Y-126231485D01*
X158107142Y-113229819D02*
X157773809Y-112753628D01*
X157535714Y-113229819D02*
X157535714Y-112229819D01*
X157535714Y-112229819D02*
X157916666Y-112229819D01*
X157916666Y-112229819D02*
X158011904Y-112277438D01*
X158011904Y-112277438D02*
X158059523Y-112325057D01*
X158059523Y-112325057D02*
X158107142Y-112420295D01*
X158107142Y-112420295D02*
X158107142Y-112563152D01*
X158107142Y-112563152D02*
X158059523Y-112658390D01*
X158059523Y-112658390D02*
X158011904Y-112706009D01*
X158011904Y-112706009D02*
X157916666Y-112753628D01*
X157916666Y-112753628D02*
X157535714Y-112753628D01*
X159059523Y-113229819D02*
X158488095Y-113229819D01*
X158773809Y-113229819D02*
X158773809Y-112229819D01*
X158773809Y-112229819D02*
X158678571Y-112372676D01*
X158678571Y-112372676D02*
X158583333Y-112467914D01*
X158583333Y-112467914D02*
X158488095Y-112515533D01*
X159916666Y-112229819D02*
X159726190Y-112229819D01*
X159726190Y-112229819D02*
X159630952Y-112277438D01*
X159630952Y-112277438D02*
X159583333Y-112325057D01*
X159583333Y-112325057D02*
X159488095Y-112467914D01*
X159488095Y-112467914D02*
X159440476Y-112658390D01*
X159440476Y-112658390D02*
X159440476Y-113039342D01*
X159440476Y-113039342D02*
X159488095Y-113134580D01*
X159488095Y-113134580D02*
X159535714Y-113182200D01*
X159535714Y-113182200D02*
X159630952Y-113229819D01*
X159630952Y-113229819D02*
X159821428Y-113229819D01*
X159821428Y-113229819D02*
X159916666Y-113182200D01*
X159916666Y-113182200D02*
X159964285Y-113134580D01*
X159964285Y-113134580D02*
X160011904Y-113039342D01*
X160011904Y-113039342D02*
X160011904Y-112801247D01*
X160011904Y-112801247D02*
X159964285Y-112706009D01*
X159964285Y-112706009D02*
X159916666Y-112658390D01*
X159916666Y-112658390D02*
X159821428Y-112610771D01*
X159821428Y-112610771D02*
X159630952Y-112610771D01*
X159630952Y-112610771D02*
X159535714Y-112658390D01*
X159535714Y-112658390D02*
X159488095Y-112706009D01*
X159488095Y-112706009D02*
X159440476Y-112801247D01*
X119920000Y-66403866D02*
X120681905Y-66403866D01*
X120300952Y-66784819D02*
X120300952Y-66022914D01*
X121062857Y-65784819D02*
X121681904Y-65784819D01*
X121681904Y-65784819D02*
X121348571Y-66165771D01*
X121348571Y-66165771D02*
X121491428Y-66165771D01*
X121491428Y-66165771D02*
X121586666Y-66213390D01*
X121586666Y-66213390D02*
X121634285Y-66261009D01*
X121634285Y-66261009D02*
X121681904Y-66356247D01*
X121681904Y-66356247D02*
X121681904Y-66594342D01*
X121681904Y-66594342D02*
X121634285Y-66689580D01*
X121634285Y-66689580D02*
X121586666Y-66737200D01*
X121586666Y-66737200D02*
X121491428Y-66784819D01*
X121491428Y-66784819D02*
X121205714Y-66784819D01*
X121205714Y-66784819D02*
X121110476Y-66737200D01*
X121110476Y-66737200D02*
X121062857Y-66689580D01*
X122110476Y-66689580D02*
X122158095Y-66737200D01*
X122158095Y-66737200D02*
X122110476Y-66784819D01*
X122110476Y-66784819D02*
X122062857Y-66737200D01*
X122062857Y-66737200D02*
X122110476Y-66689580D01*
X122110476Y-66689580D02*
X122110476Y-66784819D01*
X122491428Y-65784819D02*
X123110475Y-65784819D01*
X123110475Y-65784819D02*
X122777142Y-66165771D01*
X122777142Y-66165771D02*
X122919999Y-66165771D01*
X122919999Y-66165771D02*
X123015237Y-66213390D01*
X123015237Y-66213390D02*
X123062856Y-66261009D01*
X123062856Y-66261009D02*
X123110475Y-66356247D01*
X123110475Y-66356247D02*
X123110475Y-66594342D01*
X123110475Y-66594342D02*
X123062856Y-66689580D01*
X123062856Y-66689580D02*
X123015237Y-66737200D01*
X123015237Y-66737200D02*
X122919999Y-66784819D01*
X122919999Y-66784819D02*
X122634285Y-66784819D01*
X122634285Y-66784819D02*
X122539047Y-66737200D01*
X122539047Y-66737200D02*
X122491428Y-66689580D01*
X123396190Y-65784819D02*
X123729523Y-66784819D01*
X123729523Y-66784819D02*
X124062856Y-65784819D01*
X120723866Y-58165951D02*
X120723866Y-57404047D01*
X121104819Y-57784999D02*
X120342914Y-57784999D01*
X123570951Y-57711133D02*
X122809047Y-57711133D01*
X175133095Y-57339819D02*
X175133095Y-58149342D01*
X175133095Y-58149342D02*
X175180714Y-58244580D01*
X175180714Y-58244580D02*
X175228333Y-58292200D01*
X175228333Y-58292200D02*
X175323571Y-58339819D01*
X175323571Y-58339819D02*
X175514047Y-58339819D01*
X175514047Y-58339819D02*
X175609285Y-58292200D01*
X175609285Y-58292200D02*
X175656904Y-58244580D01*
X175656904Y-58244580D02*
X175704523Y-58149342D01*
X175704523Y-58149342D02*
X175704523Y-57339819D01*
X176085476Y-57339819D02*
X176704523Y-57339819D01*
X176704523Y-57339819D02*
X176371190Y-57720771D01*
X176371190Y-57720771D02*
X176514047Y-57720771D01*
X176514047Y-57720771D02*
X176609285Y-57768390D01*
X176609285Y-57768390D02*
X176656904Y-57816009D01*
X176656904Y-57816009D02*
X176704523Y-57911247D01*
X176704523Y-57911247D02*
X176704523Y-58149342D01*
X176704523Y-58149342D02*
X176656904Y-58244580D01*
X176656904Y-58244580D02*
X176609285Y-58292200D01*
X176609285Y-58292200D02*
X176514047Y-58339819D01*
X176514047Y-58339819D02*
X176228333Y-58339819D01*
X176228333Y-58339819D02*
X176133095Y-58292200D01*
X176133095Y-58292200D02*
X176085476Y-58244580D01*
X194509819Y-124626666D02*
X194033628Y-124959999D01*
X194509819Y-125198094D02*
X193509819Y-125198094D01*
X193509819Y-125198094D02*
X193509819Y-124817142D01*
X193509819Y-124817142D02*
X193557438Y-124721904D01*
X193557438Y-124721904D02*
X193605057Y-124674285D01*
X193605057Y-124674285D02*
X193700295Y-124626666D01*
X193700295Y-124626666D02*
X193843152Y-124626666D01*
X193843152Y-124626666D02*
X193938390Y-124674285D01*
X193938390Y-124674285D02*
X193986009Y-124721904D01*
X193986009Y-124721904D02*
X194033628Y-124817142D01*
X194033628Y-124817142D02*
X194033628Y-125198094D01*
X193509819Y-124293332D02*
X193509819Y-123626666D01*
X193509819Y-123626666D02*
X194509819Y-124055237D01*
X161489819Y-107322857D02*
X161013628Y-107656190D01*
X161489819Y-107894285D02*
X160489819Y-107894285D01*
X160489819Y-107894285D02*
X160489819Y-107513333D01*
X160489819Y-107513333D02*
X160537438Y-107418095D01*
X160537438Y-107418095D02*
X160585057Y-107370476D01*
X160585057Y-107370476D02*
X160680295Y-107322857D01*
X160680295Y-107322857D02*
X160823152Y-107322857D01*
X160823152Y-107322857D02*
X160918390Y-107370476D01*
X160918390Y-107370476D02*
X160966009Y-107418095D01*
X160966009Y-107418095D02*
X161013628Y-107513333D01*
X161013628Y-107513333D02*
X161013628Y-107894285D01*
X161489819Y-106370476D02*
X161489819Y-106941904D01*
X161489819Y-106656190D02*
X160489819Y-106656190D01*
X160489819Y-106656190D02*
X160632676Y-106751428D01*
X160632676Y-106751428D02*
X160727914Y-106846666D01*
X160727914Y-106846666D02*
X160775533Y-106941904D01*
X160489819Y-106037142D02*
X160489819Y-105370476D01*
X160489819Y-105370476D02*
X161489819Y-105799047D01*
X148419580Y-69306666D02*
X148467200Y-69354285D01*
X148467200Y-69354285D02*
X148514819Y-69497142D01*
X148514819Y-69497142D02*
X148514819Y-69592380D01*
X148514819Y-69592380D02*
X148467200Y-69735237D01*
X148467200Y-69735237D02*
X148371961Y-69830475D01*
X148371961Y-69830475D02*
X148276723Y-69878094D01*
X148276723Y-69878094D02*
X148086247Y-69925713D01*
X148086247Y-69925713D02*
X147943390Y-69925713D01*
X147943390Y-69925713D02*
X147752914Y-69878094D01*
X147752914Y-69878094D02*
X147657676Y-69830475D01*
X147657676Y-69830475D02*
X147562438Y-69735237D01*
X147562438Y-69735237D02*
X147514819Y-69592380D01*
X147514819Y-69592380D02*
X147514819Y-69497142D01*
X147514819Y-69497142D02*
X147562438Y-69354285D01*
X147562438Y-69354285D02*
X147610057Y-69306666D01*
X147610057Y-68925713D02*
X147562438Y-68878094D01*
X147562438Y-68878094D02*
X147514819Y-68782856D01*
X147514819Y-68782856D02*
X147514819Y-68544761D01*
X147514819Y-68544761D02*
X147562438Y-68449523D01*
X147562438Y-68449523D02*
X147610057Y-68401904D01*
X147610057Y-68401904D02*
X147705295Y-68354285D01*
X147705295Y-68354285D02*
X147800533Y-68354285D01*
X147800533Y-68354285D02*
X147943390Y-68401904D01*
X147943390Y-68401904D02*
X148514819Y-68973332D01*
X148514819Y-68973332D02*
X148514819Y-68354285D01*
X197559819Y-124626666D02*
X197083628Y-124959999D01*
X197559819Y-125198094D02*
X196559819Y-125198094D01*
X196559819Y-125198094D02*
X196559819Y-124817142D01*
X196559819Y-124817142D02*
X196607438Y-124721904D01*
X196607438Y-124721904D02*
X196655057Y-124674285D01*
X196655057Y-124674285D02*
X196750295Y-124626666D01*
X196750295Y-124626666D02*
X196893152Y-124626666D01*
X196893152Y-124626666D02*
X196988390Y-124674285D01*
X196988390Y-124674285D02*
X197036009Y-124721904D01*
X197036009Y-124721904D02*
X197083628Y-124817142D01*
X197083628Y-124817142D02*
X197083628Y-125198094D01*
X196559819Y-123769523D02*
X196559819Y-123959999D01*
X196559819Y-123959999D02*
X196607438Y-124055237D01*
X196607438Y-124055237D02*
X196655057Y-124102856D01*
X196655057Y-124102856D02*
X196797914Y-124198094D01*
X196797914Y-124198094D02*
X196988390Y-124245713D01*
X196988390Y-124245713D02*
X197369342Y-124245713D01*
X197369342Y-124245713D02*
X197464580Y-124198094D01*
X197464580Y-124198094D02*
X197512200Y-124150475D01*
X197512200Y-124150475D02*
X197559819Y-124055237D01*
X197559819Y-124055237D02*
X197559819Y-123864761D01*
X197559819Y-123864761D02*
X197512200Y-123769523D01*
X197512200Y-123769523D02*
X197464580Y-123721904D01*
X197464580Y-123721904D02*
X197369342Y-123674285D01*
X197369342Y-123674285D02*
X197131247Y-123674285D01*
X197131247Y-123674285D02*
X197036009Y-123721904D01*
X197036009Y-123721904D02*
X196988390Y-123769523D01*
X196988390Y-123769523D02*
X196940771Y-123864761D01*
X196940771Y-123864761D02*
X196940771Y-124055237D01*
X196940771Y-124055237D02*
X196988390Y-124150475D01*
X196988390Y-124150475D02*
X197036009Y-124198094D01*
X197036009Y-124198094D02*
X197131247Y-124245713D01*
X159369286Y-127438866D02*
X160131191Y-127438866D01*
X161083571Y-126819819D02*
X160607381Y-126819819D01*
X160607381Y-126819819D02*
X160559762Y-127296009D01*
X160559762Y-127296009D02*
X160607381Y-127248390D01*
X160607381Y-127248390D02*
X160702619Y-127200771D01*
X160702619Y-127200771D02*
X160940714Y-127200771D01*
X160940714Y-127200771D02*
X161035952Y-127248390D01*
X161035952Y-127248390D02*
X161083571Y-127296009D01*
X161083571Y-127296009D02*
X161131190Y-127391247D01*
X161131190Y-127391247D02*
X161131190Y-127629342D01*
X161131190Y-127629342D02*
X161083571Y-127724580D01*
X161083571Y-127724580D02*
X161035952Y-127772200D01*
X161035952Y-127772200D02*
X160940714Y-127819819D01*
X160940714Y-127819819D02*
X160702619Y-127819819D01*
X160702619Y-127819819D02*
X160607381Y-127772200D01*
X160607381Y-127772200D02*
X160559762Y-127724580D01*
X161416905Y-126819819D02*
X161750238Y-127819819D01*
X161750238Y-127819819D02*
X162083571Y-126819819D01*
X161706133Y-135529048D02*
X161706133Y-136290953D01*
X161325180Y-135910000D02*
X162087085Y-135910000D01*
X158859048Y-135983866D02*
X159620953Y-135983866D01*
X162552142Y-97354819D02*
X162218809Y-96878628D01*
X161980714Y-97354819D02*
X161980714Y-96354819D01*
X161980714Y-96354819D02*
X162361666Y-96354819D01*
X162361666Y-96354819D02*
X162456904Y-96402438D01*
X162456904Y-96402438D02*
X162504523Y-96450057D01*
X162504523Y-96450057D02*
X162552142Y-96545295D01*
X162552142Y-96545295D02*
X162552142Y-96688152D01*
X162552142Y-96688152D02*
X162504523Y-96783390D01*
X162504523Y-96783390D02*
X162456904Y-96831009D01*
X162456904Y-96831009D02*
X162361666Y-96878628D01*
X162361666Y-96878628D02*
X161980714Y-96878628D01*
X163504523Y-97354819D02*
X162933095Y-97354819D01*
X163218809Y-97354819D02*
X163218809Y-96354819D01*
X163218809Y-96354819D02*
X163123571Y-96497676D01*
X163123571Y-96497676D02*
X163028333Y-96592914D01*
X163028333Y-96592914D02*
X162933095Y-96640533D01*
X164456904Y-97354819D02*
X163885476Y-97354819D01*
X164171190Y-97354819D02*
X164171190Y-96354819D01*
X164171190Y-96354819D02*
X164075952Y-96497676D01*
X164075952Y-96497676D02*
X163980714Y-96592914D01*
X163980714Y-96592914D02*
X163885476Y-96640533D01*
X109354580Y-110021666D02*
X109402200Y-110069285D01*
X109402200Y-110069285D02*
X109449819Y-110212142D01*
X109449819Y-110212142D02*
X109449819Y-110307380D01*
X109449819Y-110307380D02*
X109402200Y-110450237D01*
X109402200Y-110450237D02*
X109306961Y-110545475D01*
X109306961Y-110545475D02*
X109211723Y-110593094D01*
X109211723Y-110593094D02*
X109021247Y-110640713D01*
X109021247Y-110640713D02*
X108878390Y-110640713D01*
X108878390Y-110640713D02*
X108687914Y-110593094D01*
X108687914Y-110593094D02*
X108592676Y-110545475D01*
X108592676Y-110545475D02*
X108497438Y-110450237D01*
X108497438Y-110450237D02*
X108449819Y-110307380D01*
X108449819Y-110307380D02*
X108449819Y-110212142D01*
X108449819Y-110212142D02*
X108497438Y-110069285D01*
X108497438Y-110069285D02*
X108545057Y-110021666D01*
X109449819Y-109069285D02*
X109449819Y-109640713D01*
X109449819Y-109354999D02*
X108449819Y-109354999D01*
X108449819Y-109354999D02*
X108592676Y-109450237D01*
X108592676Y-109450237D02*
X108687914Y-109545475D01*
X108687914Y-109545475D02*
X108735533Y-109640713D01*
X179839580Y-74461666D02*
X179887200Y-74509285D01*
X179887200Y-74509285D02*
X179934819Y-74652142D01*
X179934819Y-74652142D02*
X179934819Y-74747380D01*
X179934819Y-74747380D02*
X179887200Y-74890237D01*
X179887200Y-74890237D02*
X179791961Y-74985475D01*
X179791961Y-74985475D02*
X179696723Y-75033094D01*
X179696723Y-75033094D02*
X179506247Y-75080713D01*
X179506247Y-75080713D02*
X179363390Y-75080713D01*
X179363390Y-75080713D02*
X179172914Y-75033094D01*
X179172914Y-75033094D02*
X179077676Y-74985475D01*
X179077676Y-74985475D02*
X178982438Y-74890237D01*
X178982438Y-74890237D02*
X178934819Y-74747380D01*
X178934819Y-74747380D02*
X178934819Y-74652142D01*
X178934819Y-74652142D02*
X178982438Y-74509285D01*
X178982438Y-74509285D02*
X179030057Y-74461666D01*
X178934819Y-73604523D02*
X178934819Y-73794999D01*
X178934819Y-73794999D02*
X178982438Y-73890237D01*
X178982438Y-73890237D02*
X179030057Y-73937856D01*
X179030057Y-73937856D02*
X179172914Y-74033094D01*
X179172914Y-74033094D02*
X179363390Y-74080713D01*
X179363390Y-74080713D02*
X179744342Y-74080713D01*
X179744342Y-74080713D02*
X179839580Y-74033094D01*
X179839580Y-74033094D02*
X179887200Y-73985475D01*
X179887200Y-73985475D02*
X179934819Y-73890237D01*
X179934819Y-73890237D02*
X179934819Y-73699761D01*
X179934819Y-73699761D02*
X179887200Y-73604523D01*
X179887200Y-73604523D02*
X179839580Y-73556904D01*
X179839580Y-73556904D02*
X179744342Y-73509285D01*
X179744342Y-73509285D02*
X179506247Y-73509285D01*
X179506247Y-73509285D02*
X179411009Y-73556904D01*
X179411009Y-73556904D02*
X179363390Y-73604523D01*
X179363390Y-73604523D02*
X179315771Y-73699761D01*
X179315771Y-73699761D02*
X179315771Y-73890237D01*
X179315771Y-73890237D02*
X179363390Y-73985475D01*
X179363390Y-73985475D02*
X179411009Y-74033094D01*
X179411009Y-74033094D02*
X179506247Y-74080713D01*
X199223333Y-60399819D02*
X198890000Y-59923628D01*
X198651905Y-60399819D02*
X198651905Y-59399819D01*
X198651905Y-59399819D02*
X199032857Y-59399819D01*
X199032857Y-59399819D02*
X199128095Y-59447438D01*
X199128095Y-59447438D02*
X199175714Y-59495057D01*
X199175714Y-59495057D02*
X199223333Y-59590295D01*
X199223333Y-59590295D02*
X199223333Y-59733152D01*
X199223333Y-59733152D02*
X199175714Y-59828390D01*
X199175714Y-59828390D02*
X199128095Y-59876009D01*
X199128095Y-59876009D02*
X199032857Y-59923628D01*
X199032857Y-59923628D02*
X198651905Y-59923628D01*
X200080476Y-59733152D02*
X200080476Y-60399819D01*
X199842381Y-59352200D02*
X199604286Y-60066485D01*
X199604286Y-60066485D02*
X200223333Y-60066485D01*
X149733095Y-117154819D02*
X149733095Y-117964342D01*
X149733095Y-117964342D02*
X149780714Y-118059580D01*
X149780714Y-118059580D02*
X149828333Y-118107200D01*
X149828333Y-118107200D02*
X149923571Y-118154819D01*
X149923571Y-118154819D02*
X150114047Y-118154819D01*
X150114047Y-118154819D02*
X150209285Y-118107200D01*
X150209285Y-118107200D02*
X150256904Y-118059580D01*
X150256904Y-118059580D02*
X150304523Y-117964342D01*
X150304523Y-117964342D02*
X150304523Y-117154819D01*
X150685476Y-117154819D02*
X151352142Y-117154819D01*
X151352142Y-117154819D02*
X150923571Y-118154819D01*
X199223333Y-70684819D02*
X198890000Y-70208628D01*
X198651905Y-70684819D02*
X198651905Y-69684819D01*
X198651905Y-69684819D02*
X199032857Y-69684819D01*
X199032857Y-69684819D02*
X199128095Y-69732438D01*
X199128095Y-69732438D02*
X199175714Y-69780057D01*
X199175714Y-69780057D02*
X199223333Y-69875295D01*
X199223333Y-69875295D02*
X199223333Y-70018152D01*
X199223333Y-70018152D02*
X199175714Y-70113390D01*
X199175714Y-70113390D02*
X199128095Y-70161009D01*
X199128095Y-70161009D02*
X199032857Y-70208628D01*
X199032857Y-70208628D02*
X198651905Y-70208628D01*
X199556667Y-69684819D02*
X200175714Y-69684819D01*
X200175714Y-69684819D02*
X199842381Y-70065771D01*
X199842381Y-70065771D02*
X199985238Y-70065771D01*
X199985238Y-70065771D02*
X200080476Y-70113390D01*
X200080476Y-70113390D02*
X200128095Y-70161009D01*
X200128095Y-70161009D02*
X200175714Y-70256247D01*
X200175714Y-70256247D02*
X200175714Y-70494342D01*
X200175714Y-70494342D02*
X200128095Y-70589580D01*
X200128095Y-70589580D02*
X200080476Y-70637200D01*
X200080476Y-70637200D02*
X199985238Y-70684819D01*
X199985238Y-70684819D02*
X199699524Y-70684819D01*
X199699524Y-70684819D02*
X199604286Y-70637200D01*
X199604286Y-70637200D02*
X199556667Y-70589580D01*
X141169819Y-111767857D02*
X140693628Y-112101190D01*
X141169819Y-112339285D02*
X140169819Y-112339285D01*
X140169819Y-112339285D02*
X140169819Y-111958333D01*
X140169819Y-111958333D02*
X140217438Y-111863095D01*
X140217438Y-111863095D02*
X140265057Y-111815476D01*
X140265057Y-111815476D02*
X140360295Y-111767857D01*
X140360295Y-111767857D02*
X140503152Y-111767857D01*
X140503152Y-111767857D02*
X140598390Y-111815476D01*
X140598390Y-111815476D02*
X140646009Y-111863095D01*
X140646009Y-111863095D02*
X140693628Y-111958333D01*
X140693628Y-111958333D02*
X140693628Y-112339285D01*
X141169819Y-110815476D02*
X141169819Y-111386904D01*
X141169819Y-111101190D02*
X140169819Y-111101190D01*
X140169819Y-111101190D02*
X140312676Y-111196428D01*
X140312676Y-111196428D02*
X140407914Y-111291666D01*
X140407914Y-111291666D02*
X140455533Y-111386904D01*
X140265057Y-110434523D02*
X140217438Y-110386904D01*
X140217438Y-110386904D02*
X140169819Y-110291666D01*
X140169819Y-110291666D02*
X140169819Y-110053571D01*
X140169819Y-110053571D02*
X140217438Y-109958333D01*
X140217438Y-109958333D02*
X140265057Y-109910714D01*
X140265057Y-109910714D02*
X140360295Y-109863095D01*
X140360295Y-109863095D02*
X140455533Y-109863095D01*
X140455533Y-109863095D02*
X140598390Y-109910714D01*
X140598390Y-109910714D02*
X141169819Y-110482142D01*
X141169819Y-110482142D02*
X141169819Y-109863095D01*
X139120714Y-85614819D02*
X139120714Y-84614819D01*
X139120714Y-84614819D02*
X139358809Y-84614819D01*
X139358809Y-84614819D02*
X139501666Y-84662438D01*
X139501666Y-84662438D02*
X139596904Y-84757676D01*
X139596904Y-84757676D02*
X139644523Y-84852914D01*
X139644523Y-84852914D02*
X139692142Y-85043390D01*
X139692142Y-85043390D02*
X139692142Y-85186247D01*
X139692142Y-85186247D02*
X139644523Y-85376723D01*
X139644523Y-85376723D02*
X139596904Y-85471961D01*
X139596904Y-85471961D02*
X139501666Y-85567200D01*
X139501666Y-85567200D02*
X139358809Y-85614819D01*
X139358809Y-85614819D02*
X139120714Y-85614819D01*
X140644523Y-85614819D02*
X140073095Y-85614819D01*
X140358809Y-85614819D02*
X140358809Y-84614819D01*
X140358809Y-84614819D02*
X140263571Y-84757676D01*
X140263571Y-84757676D02*
X140168333Y-84852914D01*
X140168333Y-84852914D02*
X140073095Y-84900533D01*
X141263571Y-84614819D02*
X141358809Y-84614819D01*
X141358809Y-84614819D02*
X141454047Y-84662438D01*
X141454047Y-84662438D02*
X141501666Y-84710057D01*
X141501666Y-84710057D02*
X141549285Y-84805295D01*
X141549285Y-84805295D02*
X141596904Y-84995771D01*
X141596904Y-84995771D02*
X141596904Y-85233866D01*
X141596904Y-85233866D02*
X141549285Y-85424342D01*
X141549285Y-85424342D02*
X141501666Y-85519580D01*
X141501666Y-85519580D02*
X141454047Y-85567200D01*
X141454047Y-85567200D02*
X141358809Y-85614819D01*
X141358809Y-85614819D02*
X141263571Y-85614819D01*
X141263571Y-85614819D02*
X141168333Y-85567200D01*
X141168333Y-85567200D02*
X141120714Y-85519580D01*
X141120714Y-85519580D02*
X141073095Y-85424342D01*
X141073095Y-85424342D02*
X141025476Y-85233866D01*
X141025476Y-85233866D02*
X141025476Y-84995771D01*
X141025476Y-84995771D02*
X141073095Y-84805295D01*
X141073095Y-84805295D02*
X141120714Y-84710057D01*
X141120714Y-84710057D02*
X141168333Y-84662438D01*
X141168333Y-84662438D02*
X141263571Y-84614819D01*
X136263095Y-85984819D02*
X136263095Y-84984819D01*
X136834523Y-85984819D02*
X136405952Y-85413390D01*
X136834523Y-84984819D02*
X136263095Y-85556247D01*
X177792142Y-108149819D02*
X177458809Y-107673628D01*
X177220714Y-108149819D02*
X177220714Y-107149819D01*
X177220714Y-107149819D02*
X177601666Y-107149819D01*
X177601666Y-107149819D02*
X177696904Y-107197438D01*
X177696904Y-107197438D02*
X177744523Y-107245057D01*
X177744523Y-107245057D02*
X177792142Y-107340295D01*
X177792142Y-107340295D02*
X177792142Y-107483152D01*
X177792142Y-107483152D02*
X177744523Y-107578390D01*
X177744523Y-107578390D02*
X177696904Y-107626009D01*
X177696904Y-107626009D02*
X177601666Y-107673628D01*
X177601666Y-107673628D02*
X177220714Y-107673628D01*
X178173095Y-107245057D02*
X178220714Y-107197438D01*
X178220714Y-107197438D02*
X178315952Y-107149819D01*
X178315952Y-107149819D02*
X178554047Y-107149819D01*
X178554047Y-107149819D02*
X178649285Y-107197438D01*
X178649285Y-107197438D02*
X178696904Y-107245057D01*
X178696904Y-107245057D02*
X178744523Y-107340295D01*
X178744523Y-107340295D02*
X178744523Y-107435533D01*
X178744523Y-107435533D02*
X178696904Y-107578390D01*
X178696904Y-107578390D02*
X178125476Y-108149819D01*
X178125476Y-108149819D02*
X178744523Y-108149819D01*
X179363571Y-107149819D02*
X179458809Y-107149819D01*
X179458809Y-107149819D02*
X179554047Y-107197438D01*
X179554047Y-107197438D02*
X179601666Y-107245057D01*
X179601666Y-107245057D02*
X179649285Y-107340295D01*
X179649285Y-107340295D02*
X179696904Y-107530771D01*
X179696904Y-107530771D02*
X179696904Y-107768866D01*
X179696904Y-107768866D02*
X179649285Y-107959342D01*
X179649285Y-107959342D02*
X179601666Y-108054580D01*
X179601666Y-108054580D02*
X179554047Y-108102200D01*
X179554047Y-108102200D02*
X179458809Y-108149819D01*
X179458809Y-108149819D02*
X179363571Y-108149819D01*
X179363571Y-108149819D02*
X179268333Y-108102200D01*
X179268333Y-108102200D02*
X179220714Y-108054580D01*
X179220714Y-108054580D02*
X179173095Y-107959342D01*
X179173095Y-107959342D02*
X179125476Y-107768866D01*
X179125476Y-107768866D02*
X179125476Y-107530771D01*
X179125476Y-107530771D02*
X179173095Y-107340295D01*
X179173095Y-107340295D02*
X179220714Y-107245057D01*
X179220714Y-107245057D02*
X179268333Y-107197438D01*
X179268333Y-107197438D02*
X179363571Y-107149819D01*
X194444580Y-96527857D02*
X194492200Y-96575476D01*
X194492200Y-96575476D02*
X194539819Y-96718333D01*
X194539819Y-96718333D02*
X194539819Y-96813571D01*
X194539819Y-96813571D02*
X194492200Y-96956428D01*
X194492200Y-96956428D02*
X194396961Y-97051666D01*
X194396961Y-97051666D02*
X194301723Y-97099285D01*
X194301723Y-97099285D02*
X194111247Y-97146904D01*
X194111247Y-97146904D02*
X193968390Y-97146904D01*
X193968390Y-97146904D02*
X193777914Y-97099285D01*
X193777914Y-97099285D02*
X193682676Y-97051666D01*
X193682676Y-97051666D02*
X193587438Y-96956428D01*
X193587438Y-96956428D02*
X193539819Y-96813571D01*
X193539819Y-96813571D02*
X193539819Y-96718333D01*
X193539819Y-96718333D02*
X193587438Y-96575476D01*
X193587438Y-96575476D02*
X193635057Y-96527857D01*
X193635057Y-96146904D02*
X193587438Y-96099285D01*
X193587438Y-96099285D02*
X193539819Y-96004047D01*
X193539819Y-96004047D02*
X193539819Y-95765952D01*
X193539819Y-95765952D02*
X193587438Y-95670714D01*
X193587438Y-95670714D02*
X193635057Y-95623095D01*
X193635057Y-95623095D02*
X193730295Y-95575476D01*
X193730295Y-95575476D02*
X193825533Y-95575476D01*
X193825533Y-95575476D02*
X193968390Y-95623095D01*
X193968390Y-95623095D02*
X194539819Y-96194523D01*
X194539819Y-96194523D02*
X194539819Y-95575476D01*
X193539819Y-94956428D02*
X193539819Y-94861190D01*
X193539819Y-94861190D02*
X193587438Y-94765952D01*
X193587438Y-94765952D02*
X193635057Y-94718333D01*
X193635057Y-94718333D02*
X193730295Y-94670714D01*
X193730295Y-94670714D02*
X193920771Y-94623095D01*
X193920771Y-94623095D02*
X194158866Y-94623095D01*
X194158866Y-94623095D02*
X194349342Y-94670714D01*
X194349342Y-94670714D02*
X194444580Y-94718333D01*
X194444580Y-94718333D02*
X194492200Y-94765952D01*
X194492200Y-94765952D02*
X194539819Y-94861190D01*
X194539819Y-94861190D02*
X194539819Y-94956428D01*
X194539819Y-94956428D02*
X194492200Y-95051666D01*
X194492200Y-95051666D02*
X194444580Y-95099285D01*
X194444580Y-95099285D02*
X194349342Y-95146904D01*
X194349342Y-95146904D02*
X194158866Y-95194523D01*
X194158866Y-95194523D02*
X193920771Y-95194523D01*
X193920771Y-95194523D02*
X193730295Y-95146904D01*
X193730295Y-95146904D02*
X193635057Y-95099285D01*
X193635057Y-95099285D02*
X193587438Y-95051666D01*
X193587438Y-95051666D02*
X193539819Y-94956428D01*
X193797380Y-136456009D02*
X193940237Y-136503628D01*
X193940237Y-136503628D02*
X193987856Y-136551247D01*
X193987856Y-136551247D02*
X194035475Y-136646485D01*
X194035475Y-136646485D02*
X194035475Y-136789342D01*
X194035475Y-136789342D02*
X193987856Y-136884580D01*
X193987856Y-136884580D02*
X193940237Y-136932200D01*
X193940237Y-136932200D02*
X193844999Y-136979819D01*
X193844999Y-136979819D02*
X193464047Y-136979819D01*
X193464047Y-136979819D02*
X193464047Y-135979819D01*
X193464047Y-135979819D02*
X193797380Y-135979819D01*
X193797380Y-135979819D02*
X193892618Y-136027438D01*
X193892618Y-136027438D02*
X193940237Y-136075057D01*
X193940237Y-136075057D02*
X193987856Y-136170295D01*
X193987856Y-136170295D02*
X193987856Y-136265533D01*
X193987856Y-136265533D02*
X193940237Y-136360771D01*
X193940237Y-136360771D02*
X193892618Y-136408390D01*
X193892618Y-136408390D02*
X193797380Y-136456009D01*
X193797380Y-136456009D02*
X193464047Y-136456009D01*
X194940237Y-136979819D02*
X194464047Y-136979819D01*
X194464047Y-136979819D02*
X194464047Y-135979819D01*
X195273571Y-135979819D02*
X195273571Y-136789342D01*
X195273571Y-136789342D02*
X195321190Y-136884580D01*
X195321190Y-136884580D02*
X195368809Y-136932200D01*
X195368809Y-136932200D02*
X195464047Y-136979819D01*
X195464047Y-136979819D02*
X195654523Y-136979819D01*
X195654523Y-136979819D02*
X195749761Y-136932200D01*
X195749761Y-136932200D02*
X195797380Y-136884580D01*
X195797380Y-136884580D02*
X195844999Y-136789342D01*
X195844999Y-136789342D02*
X195844999Y-135979819D01*
X196321190Y-136456009D02*
X196654523Y-136456009D01*
X196797380Y-136979819D02*
X196321190Y-136979819D01*
X196321190Y-136979819D02*
X196321190Y-135979819D01*
X196321190Y-135979819D02*
X196797380Y-135979819D01*
X198464047Y-136979819D02*
X197987857Y-136979819D01*
X197987857Y-136979819D02*
X197987857Y-135979819D01*
X198797381Y-136456009D02*
X199130714Y-136456009D01*
X199273571Y-136979819D02*
X198797381Y-136979819D01*
X198797381Y-136979819D02*
X198797381Y-135979819D01*
X198797381Y-135979819D02*
X199273571Y-135979819D01*
X199702143Y-136979819D02*
X199702143Y-135979819D01*
X199702143Y-135979819D02*
X199940238Y-135979819D01*
X199940238Y-135979819D02*
X200083095Y-136027438D01*
X200083095Y-136027438D02*
X200178333Y-136122676D01*
X200178333Y-136122676D02*
X200225952Y-136217914D01*
X200225952Y-136217914D02*
X200273571Y-136408390D01*
X200273571Y-136408390D02*
X200273571Y-136551247D01*
X200273571Y-136551247D02*
X200225952Y-136741723D01*
X200225952Y-136741723D02*
X200178333Y-136836961D01*
X200178333Y-136836961D02*
X200083095Y-136932200D01*
X200083095Y-136932200D02*
X199940238Y-136979819D01*
X199940238Y-136979819D02*
X199702143Y-136979819D01*
X179839580Y-100972857D02*
X179887200Y-101020476D01*
X179887200Y-101020476D02*
X179934819Y-101163333D01*
X179934819Y-101163333D02*
X179934819Y-101258571D01*
X179934819Y-101258571D02*
X179887200Y-101401428D01*
X179887200Y-101401428D02*
X179791961Y-101496666D01*
X179791961Y-101496666D02*
X179696723Y-101544285D01*
X179696723Y-101544285D02*
X179506247Y-101591904D01*
X179506247Y-101591904D02*
X179363390Y-101591904D01*
X179363390Y-101591904D02*
X179172914Y-101544285D01*
X179172914Y-101544285D02*
X179077676Y-101496666D01*
X179077676Y-101496666D02*
X178982438Y-101401428D01*
X178982438Y-101401428D02*
X178934819Y-101258571D01*
X178934819Y-101258571D02*
X178934819Y-101163333D01*
X178934819Y-101163333D02*
X178982438Y-101020476D01*
X178982438Y-101020476D02*
X179030057Y-100972857D01*
X179030057Y-100591904D02*
X178982438Y-100544285D01*
X178982438Y-100544285D02*
X178934819Y-100449047D01*
X178934819Y-100449047D02*
X178934819Y-100210952D01*
X178934819Y-100210952D02*
X178982438Y-100115714D01*
X178982438Y-100115714D02*
X179030057Y-100068095D01*
X179030057Y-100068095D02*
X179125295Y-100020476D01*
X179125295Y-100020476D02*
X179220533Y-100020476D01*
X179220533Y-100020476D02*
X179363390Y-100068095D01*
X179363390Y-100068095D02*
X179934819Y-100639523D01*
X179934819Y-100639523D02*
X179934819Y-100020476D01*
X179934819Y-99068095D02*
X179934819Y-99639523D01*
X179934819Y-99353809D02*
X178934819Y-99353809D01*
X178934819Y-99353809D02*
X179077676Y-99449047D01*
X179077676Y-99449047D02*
X179172914Y-99544285D01*
X179172914Y-99544285D02*
X179220533Y-99639523D01*
X149852142Y-127199819D02*
X149518809Y-126723628D01*
X149280714Y-127199819D02*
X149280714Y-126199819D01*
X149280714Y-126199819D02*
X149661666Y-126199819D01*
X149661666Y-126199819D02*
X149756904Y-126247438D01*
X149756904Y-126247438D02*
X149804523Y-126295057D01*
X149804523Y-126295057D02*
X149852142Y-126390295D01*
X149852142Y-126390295D02*
X149852142Y-126533152D01*
X149852142Y-126533152D02*
X149804523Y-126628390D01*
X149804523Y-126628390D02*
X149756904Y-126676009D01*
X149756904Y-126676009D02*
X149661666Y-126723628D01*
X149661666Y-126723628D02*
X149280714Y-126723628D01*
X150804523Y-127199819D02*
X150233095Y-127199819D01*
X150518809Y-127199819D02*
X150518809Y-126199819D01*
X150518809Y-126199819D02*
X150423571Y-126342676D01*
X150423571Y-126342676D02*
X150328333Y-126437914D01*
X150328333Y-126437914D02*
X150233095Y-126485533D01*
X151709285Y-126199819D02*
X151233095Y-126199819D01*
X151233095Y-126199819D02*
X151185476Y-126676009D01*
X151185476Y-126676009D02*
X151233095Y-126628390D01*
X151233095Y-126628390D02*
X151328333Y-126580771D01*
X151328333Y-126580771D02*
X151566428Y-126580771D01*
X151566428Y-126580771D02*
X151661666Y-126628390D01*
X151661666Y-126628390D02*
X151709285Y-126676009D01*
X151709285Y-126676009D02*
X151756904Y-126771247D01*
X151756904Y-126771247D02*
X151756904Y-127009342D01*
X151756904Y-127009342D02*
X151709285Y-127104580D01*
X151709285Y-127104580D02*
X151661666Y-127152200D01*
X151661666Y-127152200D02*
X151566428Y-127199819D01*
X151566428Y-127199819D02*
X151328333Y-127199819D01*
X151328333Y-127199819D02*
X151233095Y-127152200D01*
X151233095Y-127152200D02*
X151185476Y-127104580D01*
X135088333Y-109419819D02*
X134755000Y-108943628D01*
X134516905Y-109419819D02*
X134516905Y-108419819D01*
X134516905Y-108419819D02*
X134897857Y-108419819D01*
X134897857Y-108419819D02*
X134993095Y-108467438D01*
X134993095Y-108467438D02*
X135040714Y-108515057D01*
X135040714Y-108515057D02*
X135088333Y-108610295D01*
X135088333Y-108610295D02*
X135088333Y-108753152D01*
X135088333Y-108753152D02*
X135040714Y-108848390D01*
X135040714Y-108848390D02*
X134993095Y-108896009D01*
X134993095Y-108896009D02*
X134897857Y-108943628D01*
X134897857Y-108943628D02*
X134516905Y-108943628D01*
X135659762Y-108848390D02*
X135564524Y-108800771D01*
X135564524Y-108800771D02*
X135516905Y-108753152D01*
X135516905Y-108753152D02*
X135469286Y-108657914D01*
X135469286Y-108657914D02*
X135469286Y-108610295D01*
X135469286Y-108610295D02*
X135516905Y-108515057D01*
X135516905Y-108515057D02*
X135564524Y-108467438D01*
X135564524Y-108467438D02*
X135659762Y-108419819D01*
X135659762Y-108419819D02*
X135850238Y-108419819D01*
X135850238Y-108419819D02*
X135945476Y-108467438D01*
X135945476Y-108467438D02*
X135993095Y-108515057D01*
X135993095Y-108515057D02*
X136040714Y-108610295D01*
X136040714Y-108610295D02*
X136040714Y-108657914D01*
X136040714Y-108657914D02*
X135993095Y-108753152D01*
X135993095Y-108753152D02*
X135945476Y-108800771D01*
X135945476Y-108800771D02*
X135850238Y-108848390D01*
X135850238Y-108848390D02*
X135659762Y-108848390D01*
X135659762Y-108848390D02*
X135564524Y-108896009D01*
X135564524Y-108896009D02*
X135516905Y-108943628D01*
X135516905Y-108943628D02*
X135469286Y-109038866D01*
X135469286Y-109038866D02*
X135469286Y-109229342D01*
X135469286Y-109229342D02*
X135516905Y-109324580D01*
X135516905Y-109324580D02*
X135564524Y-109372200D01*
X135564524Y-109372200D02*
X135659762Y-109419819D01*
X135659762Y-109419819D02*
X135850238Y-109419819D01*
X135850238Y-109419819D02*
X135945476Y-109372200D01*
X135945476Y-109372200D02*
X135993095Y-109324580D01*
X135993095Y-109324580D02*
X136040714Y-109229342D01*
X136040714Y-109229342D02*
X136040714Y-109038866D01*
X136040714Y-109038866D02*
X135993095Y-108943628D01*
X135993095Y-108943628D02*
X135945476Y-108896009D01*
X135945476Y-108896009D02*
X135850238Y-108848390D01*
X157472142Y-62364580D02*
X157424523Y-62412200D01*
X157424523Y-62412200D02*
X157281666Y-62459819D01*
X157281666Y-62459819D02*
X157186428Y-62459819D01*
X157186428Y-62459819D02*
X157043571Y-62412200D01*
X157043571Y-62412200D02*
X156948333Y-62316961D01*
X156948333Y-62316961D02*
X156900714Y-62221723D01*
X156900714Y-62221723D02*
X156853095Y-62031247D01*
X156853095Y-62031247D02*
X156853095Y-61888390D01*
X156853095Y-61888390D02*
X156900714Y-61697914D01*
X156900714Y-61697914D02*
X156948333Y-61602676D01*
X156948333Y-61602676D02*
X157043571Y-61507438D01*
X157043571Y-61507438D02*
X157186428Y-61459819D01*
X157186428Y-61459819D02*
X157281666Y-61459819D01*
X157281666Y-61459819D02*
X157424523Y-61507438D01*
X157424523Y-61507438D02*
X157472142Y-61555057D01*
X158424523Y-62459819D02*
X157853095Y-62459819D01*
X158138809Y-62459819D02*
X158138809Y-61459819D01*
X158138809Y-61459819D02*
X158043571Y-61602676D01*
X158043571Y-61602676D02*
X157948333Y-61697914D01*
X157948333Y-61697914D02*
X157853095Y-61745533D01*
X158900714Y-62459819D02*
X159091190Y-62459819D01*
X159091190Y-62459819D02*
X159186428Y-62412200D01*
X159186428Y-62412200D02*
X159234047Y-62364580D01*
X159234047Y-62364580D02*
X159329285Y-62221723D01*
X159329285Y-62221723D02*
X159376904Y-62031247D01*
X159376904Y-62031247D02*
X159376904Y-61650295D01*
X159376904Y-61650295D02*
X159329285Y-61555057D01*
X159329285Y-61555057D02*
X159281666Y-61507438D01*
X159281666Y-61507438D02*
X159186428Y-61459819D01*
X159186428Y-61459819D02*
X158995952Y-61459819D01*
X158995952Y-61459819D02*
X158900714Y-61507438D01*
X158900714Y-61507438D02*
X158853095Y-61555057D01*
X158853095Y-61555057D02*
X158805476Y-61650295D01*
X158805476Y-61650295D02*
X158805476Y-61888390D01*
X158805476Y-61888390D02*
X158853095Y-61983628D01*
X158853095Y-61983628D02*
X158900714Y-62031247D01*
X158900714Y-62031247D02*
X158995952Y-62078866D01*
X158995952Y-62078866D02*
X159186428Y-62078866D01*
X159186428Y-62078866D02*
X159281666Y-62031247D01*
X159281666Y-62031247D02*
X159329285Y-61983628D01*
X159329285Y-61983628D02*
X159376904Y-61888390D01*
X157074819Y-101091904D02*
X157884342Y-101091904D01*
X157884342Y-101091904D02*
X157979580Y-101044285D01*
X157979580Y-101044285D02*
X158027200Y-100996666D01*
X158027200Y-100996666D02*
X158074819Y-100901428D01*
X158074819Y-100901428D02*
X158074819Y-100710952D01*
X158074819Y-100710952D02*
X158027200Y-100615714D01*
X158027200Y-100615714D02*
X157979580Y-100568095D01*
X157979580Y-100568095D02*
X157884342Y-100520476D01*
X157884342Y-100520476D02*
X157074819Y-100520476D01*
X157074819Y-99615714D02*
X157074819Y-99806190D01*
X157074819Y-99806190D02*
X157122438Y-99901428D01*
X157122438Y-99901428D02*
X157170057Y-99949047D01*
X157170057Y-99949047D02*
X157312914Y-100044285D01*
X157312914Y-100044285D02*
X157503390Y-100091904D01*
X157503390Y-100091904D02*
X157884342Y-100091904D01*
X157884342Y-100091904D02*
X157979580Y-100044285D01*
X157979580Y-100044285D02*
X158027200Y-99996666D01*
X158027200Y-99996666D02*
X158074819Y-99901428D01*
X158074819Y-99901428D02*
X158074819Y-99710952D01*
X158074819Y-99710952D02*
X158027200Y-99615714D01*
X158027200Y-99615714D02*
X157979580Y-99568095D01*
X157979580Y-99568095D02*
X157884342Y-99520476D01*
X157884342Y-99520476D02*
X157646247Y-99520476D01*
X157646247Y-99520476D02*
X157551009Y-99568095D01*
X157551009Y-99568095D02*
X157503390Y-99615714D01*
X157503390Y-99615714D02*
X157455771Y-99710952D01*
X157455771Y-99710952D02*
X157455771Y-99901428D01*
X157455771Y-99901428D02*
X157503390Y-99996666D01*
X157503390Y-99996666D02*
X157551009Y-100044285D01*
X157551009Y-100044285D02*
X157646247Y-100091904D01*
X160854819Y-70651666D02*
X160378628Y-70984999D01*
X160854819Y-71223094D02*
X159854819Y-71223094D01*
X159854819Y-71223094D02*
X159854819Y-70842142D01*
X159854819Y-70842142D02*
X159902438Y-70746904D01*
X159902438Y-70746904D02*
X159950057Y-70699285D01*
X159950057Y-70699285D02*
X160045295Y-70651666D01*
X160045295Y-70651666D02*
X160188152Y-70651666D01*
X160188152Y-70651666D02*
X160283390Y-70699285D01*
X160283390Y-70699285D02*
X160331009Y-70746904D01*
X160331009Y-70746904D02*
X160378628Y-70842142D01*
X160378628Y-70842142D02*
X160378628Y-71223094D01*
X159950057Y-70270713D02*
X159902438Y-70223094D01*
X159902438Y-70223094D02*
X159854819Y-70127856D01*
X159854819Y-70127856D02*
X159854819Y-69889761D01*
X159854819Y-69889761D02*
X159902438Y-69794523D01*
X159902438Y-69794523D02*
X159950057Y-69746904D01*
X159950057Y-69746904D02*
X160045295Y-69699285D01*
X160045295Y-69699285D02*
X160140533Y-69699285D01*
X160140533Y-69699285D02*
X160283390Y-69746904D01*
X160283390Y-69746904D02*
X160854819Y-70318332D01*
X160854819Y-70318332D02*
X160854819Y-69699285D01*
X165092142Y-105544580D02*
X165044523Y-105592200D01*
X165044523Y-105592200D02*
X164901666Y-105639819D01*
X164901666Y-105639819D02*
X164806428Y-105639819D01*
X164806428Y-105639819D02*
X164663571Y-105592200D01*
X164663571Y-105592200D02*
X164568333Y-105496961D01*
X164568333Y-105496961D02*
X164520714Y-105401723D01*
X164520714Y-105401723D02*
X164473095Y-105211247D01*
X164473095Y-105211247D02*
X164473095Y-105068390D01*
X164473095Y-105068390D02*
X164520714Y-104877914D01*
X164520714Y-104877914D02*
X164568333Y-104782676D01*
X164568333Y-104782676D02*
X164663571Y-104687438D01*
X164663571Y-104687438D02*
X164806428Y-104639819D01*
X164806428Y-104639819D02*
X164901666Y-104639819D01*
X164901666Y-104639819D02*
X165044523Y-104687438D01*
X165044523Y-104687438D02*
X165092142Y-104735057D01*
X166044523Y-105639819D02*
X165473095Y-105639819D01*
X165758809Y-105639819D02*
X165758809Y-104639819D01*
X165758809Y-104639819D02*
X165663571Y-104782676D01*
X165663571Y-104782676D02*
X165568333Y-104877914D01*
X165568333Y-104877914D02*
X165473095Y-104925533D01*
X166949285Y-104639819D02*
X166473095Y-104639819D01*
X166473095Y-104639819D02*
X166425476Y-105116009D01*
X166425476Y-105116009D02*
X166473095Y-105068390D01*
X166473095Y-105068390D02*
X166568333Y-105020771D01*
X166568333Y-105020771D02*
X166806428Y-105020771D01*
X166806428Y-105020771D02*
X166901666Y-105068390D01*
X166901666Y-105068390D02*
X166949285Y-105116009D01*
X166949285Y-105116009D02*
X166996904Y-105211247D01*
X166996904Y-105211247D02*
X166996904Y-105449342D01*
X166996904Y-105449342D02*
X166949285Y-105544580D01*
X166949285Y-105544580D02*
X166901666Y-105592200D01*
X166901666Y-105592200D02*
X166806428Y-105639819D01*
X166806428Y-105639819D02*
X166568333Y-105639819D01*
X166568333Y-105639819D02*
X166473095Y-105592200D01*
X166473095Y-105592200D02*
X166425476Y-105544580D01*
X136421905Y-100714819D02*
X136421905Y-99714819D01*
X136421905Y-99714819D02*
X136660000Y-99714819D01*
X136660000Y-99714819D02*
X136802857Y-99762438D01*
X136802857Y-99762438D02*
X136898095Y-99857676D01*
X136898095Y-99857676D02*
X136945714Y-99952914D01*
X136945714Y-99952914D02*
X136993333Y-100143390D01*
X136993333Y-100143390D02*
X136993333Y-100286247D01*
X136993333Y-100286247D02*
X136945714Y-100476723D01*
X136945714Y-100476723D02*
X136898095Y-100571961D01*
X136898095Y-100571961D02*
X136802857Y-100667200D01*
X136802857Y-100667200D02*
X136660000Y-100714819D01*
X136660000Y-100714819D02*
X136421905Y-100714819D01*
X137469524Y-100714819D02*
X137660000Y-100714819D01*
X137660000Y-100714819D02*
X137755238Y-100667200D01*
X137755238Y-100667200D02*
X137802857Y-100619580D01*
X137802857Y-100619580D02*
X137898095Y-100476723D01*
X137898095Y-100476723D02*
X137945714Y-100286247D01*
X137945714Y-100286247D02*
X137945714Y-99905295D01*
X137945714Y-99905295D02*
X137898095Y-99810057D01*
X137898095Y-99810057D02*
X137850476Y-99762438D01*
X137850476Y-99762438D02*
X137755238Y-99714819D01*
X137755238Y-99714819D02*
X137564762Y-99714819D01*
X137564762Y-99714819D02*
X137469524Y-99762438D01*
X137469524Y-99762438D02*
X137421905Y-99810057D01*
X137421905Y-99810057D02*
X137374286Y-99905295D01*
X137374286Y-99905295D02*
X137374286Y-100143390D01*
X137374286Y-100143390D02*
X137421905Y-100238628D01*
X137421905Y-100238628D02*
X137469524Y-100286247D01*
X137469524Y-100286247D02*
X137564762Y-100333866D01*
X137564762Y-100333866D02*
X137755238Y-100333866D01*
X137755238Y-100333866D02*
X137850476Y-100286247D01*
X137850476Y-100286247D02*
X137898095Y-100238628D01*
X137898095Y-100238628D02*
X137945714Y-100143390D01*
X140708095Y-100344819D02*
X140708095Y-99344819D01*
X141279523Y-100344819D02*
X140850952Y-99773390D01*
X141279523Y-99344819D02*
X140708095Y-99916247D01*
X184142142Y-108149819D02*
X183808809Y-107673628D01*
X183570714Y-108149819D02*
X183570714Y-107149819D01*
X183570714Y-107149819D02*
X183951666Y-107149819D01*
X183951666Y-107149819D02*
X184046904Y-107197438D01*
X184046904Y-107197438D02*
X184094523Y-107245057D01*
X184094523Y-107245057D02*
X184142142Y-107340295D01*
X184142142Y-107340295D02*
X184142142Y-107483152D01*
X184142142Y-107483152D02*
X184094523Y-107578390D01*
X184094523Y-107578390D02*
X184046904Y-107626009D01*
X184046904Y-107626009D02*
X183951666Y-107673628D01*
X183951666Y-107673628D02*
X183570714Y-107673628D01*
X185094523Y-108149819D02*
X184523095Y-108149819D01*
X184808809Y-108149819D02*
X184808809Y-107149819D01*
X184808809Y-107149819D02*
X184713571Y-107292676D01*
X184713571Y-107292676D02*
X184618333Y-107387914D01*
X184618333Y-107387914D02*
X184523095Y-107435533D01*
X185570714Y-108149819D02*
X185761190Y-108149819D01*
X185761190Y-108149819D02*
X185856428Y-108102200D01*
X185856428Y-108102200D02*
X185904047Y-108054580D01*
X185904047Y-108054580D02*
X185999285Y-107911723D01*
X185999285Y-107911723D02*
X186046904Y-107721247D01*
X186046904Y-107721247D02*
X186046904Y-107340295D01*
X186046904Y-107340295D02*
X185999285Y-107245057D01*
X185999285Y-107245057D02*
X185951666Y-107197438D01*
X185951666Y-107197438D02*
X185856428Y-107149819D01*
X185856428Y-107149819D02*
X185665952Y-107149819D01*
X185665952Y-107149819D02*
X185570714Y-107197438D01*
X185570714Y-107197438D02*
X185523095Y-107245057D01*
X185523095Y-107245057D02*
X185475476Y-107340295D01*
X185475476Y-107340295D02*
X185475476Y-107578390D01*
X185475476Y-107578390D02*
X185523095Y-107673628D01*
X185523095Y-107673628D02*
X185570714Y-107721247D01*
X185570714Y-107721247D02*
X185665952Y-107768866D01*
X185665952Y-107768866D02*
X185856428Y-107768866D01*
X185856428Y-107768866D02*
X185951666Y-107721247D01*
X185951666Y-107721247D02*
X185999285Y-107673628D01*
X185999285Y-107673628D02*
X186046904Y-107578390D01*
X111656905Y-89449819D02*
X111656905Y-88449819D01*
X111656905Y-88449819D02*
X111895000Y-88449819D01*
X111895000Y-88449819D02*
X112037857Y-88497438D01*
X112037857Y-88497438D02*
X112133095Y-88592676D01*
X112133095Y-88592676D02*
X112180714Y-88687914D01*
X112180714Y-88687914D02*
X112228333Y-88878390D01*
X112228333Y-88878390D02*
X112228333Y-89021247D01*
X112228333Y-89021247D02*
X112180714Y-89211723D01*
X112180714Y-89211723D02*
X112133095Y-89306961D01*
X112133095Y-89306961D02*
X112037857Y-89402200D01*
X112037857Y-89402200D02*
X111895000Y-89449819D01*
X111895000Y-89449819D02*
X111656905Y-89449819D01*
X113180714Y-89449819D02*
X112609286Y-89449819D01*
X112895000Y-89449819D02*
X112895000Y-88449819D01*
X112895000Y-88449819D02*
X112799762Y-88592676D01*
X112799762Y-88592676D02*
X112704524Y-88687914D01*
X112704524Y-88687914D02*
X112609286Y-88735533D01*
X130627618Y-136864580D02*
X130579999Y-136912200D01*
X130579999Y-136912200D02*
X130437142Y-136959819D01*
X130437142Y-136959819D02*
X130341904Y-136959819D01*
X130341904Y-136959819D02*
X130199047Y-136912200D01*
X130199047Y-136912200D02*
X130103809Y-136816961D01*
X130103809Y-136816961D02*
X130056190Y-136721723D01*
X130056190Y-136721723D02*
X130008571Y-136531247D01*
X130008571Y-136531247D02*
X130008571Y-136388390D01*
X130008571Y-136388390D02*
X130056190Y-136197914D01*
X130056190Y-136197914D02*
X130103809Y-136102676D01*
X130103809Y-136102676D02*
X130199047Y-136007438D01*
X130199047Y-136007438D02*
X130341904Y-135959819D01*
X130341904Y-135959819D02*
X130437142Y-135959819D01*
X130437142Y-135959819D02*
X130579999Y-136007438D01*
X130579999Y-136007438D02*
X130627618Y-136055057D01*
X131199047Y-136959819D02*
X131103809Y-136912200D01*
X131103809Y-136912200D02*
X131056190Y-136864580D01*
X131056190Y-136864580D02*
X131008571Y-136769342D01*
X131008571Y-136769342D02*
X131008571Y-136483628D01*
X131008571Y-136483628D02*
X131056190Y-136388390D01*
X131056190Y-136388390D02*
X131103809Y-136340771D01*
X131103809Y-136340771D02*
X131199047Y-136293152D01*
X131199047Y-136293152D02*
X131341904Y-136293152D01*
X131341904Y-136293152D02*
X131437142Y-136340771D01*
X131437142Y-136340771D02*
X131484761Y-136388390D01*
X131484761Y-136388390D02*
X131532380Y-136483628D01*
X131532380Y-136483628D02*
X131532380Y-136769342D01*
X131532380Y-136769342D02*
X131484761Y-136864580D01*
X131484761Y-136864580D02*
X131437142Y-136912200D01*
X131437142Y-136912200D02*
X131341904Y-136959819D01*
X131341904Y-136959819D02*
X131199047Y-136959819D01*
X131960952Y-136959819D02*
X131960952Y-136293152D01*
X131960952Y-135959819D02*
X131913333Y-136007438D01*
X131913333Y-136007438D02*
X131960952Y-136055057D01*
X131960952Y-136055057D02*
X132008571Y-136007438D01*
X132008571Y-136007438D02*
X131960952Y-135959819D01*
X131960952Y-135959819D02*
X131960952Y-136055057D01*
X132579999Y-136959819D02*
X132484761Y-136912200D01*
X132484761Y-136912200D02*
X132437142Y-136816961D01*
X132437142Y-136816961D02*
X132437142Y-135959819D01*
X133675238Y-136674104D02*
X134151428Y-136674104D01*
X133580000Y-136959819D02*
X133913333Y-135959819D01*
X133913333Y-135959819D02*
X134246666Y-136959819D01*
X133730951Y-135161133D02*
X132969047Y-135161133D01*
X133349999Y-134780180D02*
X133349999Y-135542085D01*
X131190951Y-135161133D02*
X130429047Y-135161133D01*
X174045714Y-117224819D02*
X174045714Y-116224819D01*
X174045714Y-116224819D02*
X174283809Y-116224819D01*
X174283809Y-116224819D02*
X174426666Y-116272438D01*
X174426666Y-116272438D02*
X174521904Y-116367676D01*
X174521904Y-116367676D02*
X174569523Y-116462914D01*
X174569523Y-116462914D02*
X174617142Y-116653390D01*
X174617142Y-116653390D02*
X174617142Y-116796247D01*
X174617142Y-116796247D02*
X174569523Y-116986723D01*
X174569523Y-116986723D02*
X174521904Y-117081961D01*
X174521904Y-117081961D02*
X174426666Y-117177200D01*
X174426666Y-117177200D02*
X174283809Y-117224819D01*
X174283809Y-117224819D02*
X174045714Y-117224819D01*
X175569523Y-117224819D02*
X174998095Y-117224819D01*
X175283809Y-117224819D02*
X175283809Y-116224819D01*
X175283809Y-116224819D02*
X175188571Y-116367676D01*
X175188571Y-116367676D02*
X175093333Y-116462914D01*
X175093333Y-116462914D02*
X174998095Y-116510533D01*
X176426666Y-116558152D02*
X176426666Y-117224819D01*
X176188571Y-116177200D02*
X175950476Y-116891485D01*
X175950476Y-116891485D02*
X176569523Y-116891485D01*
X178808095Y-116854819D02*
X178808095Y-115854819D01*
X179379523Y-116854819D02*
X178950952Y-116283390D01*
X179379523Y-115854819D02*
X178808095Y-116426247D01*
X178943095Y-92219819D02*
X178943095Y-93029342D01*
X178943095Y-93029342D02*
X178990714Y-93124580D01*
X178990714Y-93124580D02*
X179038333Y-93172200D01*
X179038333Y-93172200D02*
X179133571Y-93219819D01*
X179133571Y-93219819D02*
X179324047Y-93219819D01*
X179324047Y-93219819D02*
X179419285Y-93172200D01*
X179419285Y-93172200D02*
X179466904Y-93124580D01*
X179466904Y-93124580D02*
X179514523Y-93029342D01*
X179514523Y-93029342D02*
X179514523Y-92219819D01*
X180419285Y-92553152D02*
X180419285Y-93219819D01*
X180181190Y-92172200D02*
X179943095Y-92886485D01*
X179943095Y-92886485D02*
X180562142Y-92886485D01*
X158623095Y-73414819D02*
X158623095Y-74224342D01*
X158623095Y-74224342D02*
X158670714Y-74319580D01*
X158670714Y-74319580D02*
X158718333Y-74367200D01*
X158718333Y-74367200D02*
X158813571Y-74414819D01*
X158813571Y-74414819D02*
X159004047Y-74414819D01*
X159004047Y-74414819D02*
X159099285Y-74367200D01*
X159099285Y-74367200D02*
X159146904Y-74319580D01*
X159146904Y-74319580D02*
X159194523Y-74224342D01*
X159194523Y-74224342D02*
X159194523Y-73414819D01*
X160194523Y-74414819D02*
X159623095Y-74414819D01*
X159908809Y-74414819D02*
X159908809Y-73414819D01*
X159908809Y-73414819D02*
X159813571Y-73557676D01*
X159813571Y-73557676D02*
X159718333Y-73652914D01*
X159718333Y-73652914D02*
X159623095Y-73700533D01*
X170711905Y-81194819D02*
X170711905Y-80194819D01*
X170711905Y-80194819D02*
X170950000Y-80194819D01*
X170950000Y-80194819D02*
X171092857Y-80242438D01*
X171092857Y-80242438D02*
X171188095Y-80337676D01*
X171188095Y-80337676D02*
X171235714Y-80432914D01*
X171235714Y-80432914D02*
X171283333Y-80623390D01*
X171283333Y-80623390D02*
X171283333Y-80766247D01*
X171283333Y-80766247D02*
X171235714Y-80956723D01*
X171235714Y-80956723D02*
X171188095Y-81051961D01*
X171188095Y-81051961D02*
X171092857Y-81147200D01*
X171092857Y-81147200D02*
X170950000Y-81194819D01*
X170950000Y-81194819D02*
X170711905Y-81194819D01*
X171664286Y-80290057D02*
X171711905Y-80242438D01*
X171711905Y-80242438D02*
X171807143Y-80194819D01*
X171807143Y-80194819D02*
X172045238Y-80194819D01*
X172045238Y-80194819D02*
X172140476Y-80242438D01*
X172140476Y-80242438D02*
X172188095Y-80290057D01*
X172188095Y-80290057D02*
X172235714Y-80385295D01*
X172235714Y-80385295D02*
X172235714Y-80480533D01*
X172235714Y-80480533D02*
X172188095Y-80623390D01*
X172188095Y-80623390D02*
X171616667Y-81194819D01*
X171616667Y-81194819D02*
X172235714Y-81194819D01*
X149809580Y-75096666D02*
X149857200Y-75144285D01*
X149857200Y-75144285D02*
X149904819Y-75287142D01*
X149904819Y-75287142D02*
X149904819Y-75382380D01*
X149904819Y-75382380D02*
X149857200Y-75525237D01*
X149857200Y-75525237D02*
X149761961Y-75620475D01*
X149761961Y-75620475D02*
X149666723Y-75668094D01*
X149666723Y-75668094D02*
X149476247Y-75715713D01*
X149476247Y-75715713D02*
X149333390Y-75715713D01*
X149333390Y-75715713D02*
X149142914Y-75668094D01*
X149142914Y-75668094D02*
X149047676Y-75620475D01*
X149047676Y-75620475D02*
X148952438Y-75525237D01*
X148952438Y-75525237D02*
X148904819Y-75382380D01*
X148904819Y-75382380D02*
X148904819Y-75287142D01*
X148904819Y-75287142D02*
X148952438Y-75144285D01*
X148952438Y-75144285D02*
X149000057Y-75096666D01*
X148904819Y-74191904D02*
X148904819Y-74668094D01*
X148904819Y-74668094D02*
X149381009Y-74715713D01*
X149381009Y-74715713D02*
X149333390Y-74668094D01*
X149333390Y-74668094D02*
X149285771Y-74572856D01*
X149285771Y-74572856D02*
X149285771Y-74334761D01*
X149285771Y-74334761D02*
X149333390Y-74239523D01*
X149333390Y-74239523D02*
X149381009Y-74191904D01*
X149381009Y-74191904D02*
X149476247Y-74144285D01*
X149476247Y-74144285D02*
X149714342Y-74144285D01*
X149714342Y-74144285D02*
X149809580Y-74191904D01*
X149809580Y-74191904D02*
X149857200Y-74239523D01*
X149857200Y-74239523D02*
X149904819Y-74334761D01*
X149904819Y-74334761D02*
X149904819Y-74572856D01*
X149904819Y-74572856D02*
X149857200Y-74668094D01*
X149857200Y-74668094D02*
X149809580Y-74715713D01*
X135389580Y-118752857D02*
X135437200Y-118800476D01*
X135437200Y-118800476D02*
X135484819Y-118943333D01*
X135484819Y-118943333D02*
X135484819Y-119038571D01*
X135484819Y-119038571D02*
X135437200Y-119181428D01*
X135437200Y-119181428D02*
X135341961Y-119276666D01*
X135341961Y-119276666D02*
X135246723Y-119324285D01*
X135246723Y-119324285D02*
X135056247Y-119371904D01*
X135056247Y-119371904D02*
X134913390Y-119371904D01*
X134913390Y-119371904D02*
X134722914Y-119324285D01*
X134722914Y-119324285D02*
X134627676Y-119276666D01*
X134627676Y-119276666D02*
X134532438Y-119181428D01*
X134532438Y-119181428D02*
X134484819Y-119038571D01*
X134484819Y-119038571D02*
X134484819Y-118943333D01*
X134484819Y-118943333D02*
X134532438Y-118800476D01*
X134532438Y-118800476D02*
X134580057Y-118752857D01*
X135484819Y-117800476D02*
X135484819Y-118371904D01*
X135484819Y-118086190D02*
X134484819Y-118086190D01*
X134484819Y-118086190D02*
X134627676Y-118181428D01*
X134627676Y-118181428D02*
X134722914Y-118276666D01*
X134722914Y-118276666D02*
X134770533Y-118371904D01*
X134484819Y-117467142D02*
X134484819Y-116848095D01*
X134484819Y-116848095D02*
X134865771Y-117181428D01*
X134865771Y-117181428D02*
X134865771Y-117038571D01*
X134865771Y-117038571D02*
X134913390Y-116943333D01*
X134913390Y-116943333D02*
X134961009Y-116895714D01*
X134961009Y-116895714D02*
X135056247Y-116848095D01*
X135056247Y-116848095D02*
X135294342Y-116848095D01*
X135294342Y-116848095D02*
X135389580Y-116895714D01*
X135389580Y-116895714D02*
X135437200Y-116943333D01*
X135437200Y-116943333D02*
X135484819Y-117038571D01*
X135484819Y-117038571D02*
X135484819Y-117324285D01*
X135484819Y-117324285D02*
X135437200Y-117419523D01*
X135437200Y-117419523D02*
X135389580Y-117467142D01*
X141104580Y-116847857D02*
X141152200Y-116895476D01*
X141152200Y-116895476D02*
X141199819Y-117038333D01*
X141199819Y-117038333D02*
X141199819Y-117133571D01*
X141199819Y-117133571D02*
X141152200Y-117276428D01*
X141152200Y-117276428D02*
X141056961Y-117371666D01*
X141056961Y-117371666D02*
X140961723Y-117419285D01*
X140961723Y-117419285D02*
X140771247Y-117466904D01*
X140771247Y-117466904D02*
X140628390Y-117466904D01*
X140628390Y-117466904D02*
X140437914Y-117419285D01*
X140437914Y-117419285D02*
X140342676Y-117371666D01*
X140342676Y-117371666D02*
X140247438Y-117276428D01*
X140247438Y-117276428D02*
X140199819Y-117133571D01*
X140199819Y-117133571D02*
X140199819Y-117038333D01*
X140199819Y-117038333D02*
X140247438Y-116895476D01*
X140247438Y-116895476D02*
X140295057Y-116847857D01*
X141199819Y-115895476D02*
X141199819Y-116466904D01*
X141199819Y-116181190D02*
X140199819Y-116181190D01*
X140199819Y-116181190D02*
X140342676Y-116276428D01*
X140342676Y-116276428D02*
X140437914Y-116371666D01*
X140437914Y-116371666D02*
X140485533Y-116466904D01*
X140199819Y-115038333D02*
X140199819Y-115228809D01*
X140199819Y-115228809D02*
X140247438Y-115324047D01*
X140247438Y-115324047D02*
X140295057Y-115371666D01*
X140295057Y-115371666D02*
X140437914Y-115466904D01*
X140437914Y-115466904D02*
X140628390Y-115514523D01*
X140628390Y-115514523D02*
X141009342Y-115514523D01*
X141009342Y-115514523D02*
X141104580Y-115466904D01*
X141104580Y-115466904D02*
X141152200Y-115419285D01*
X141152200Y-115419285D02*
X141199819Y-115324047D01*
X141199819Y-115324047D02*
X141199819Y-115133571D01*
X141199819Y-115133571D02*
X141152200Y-115038333D01*
X141152200Y-115038333D02*
X141104580Y-114990714D01*
X141104580Y-114990714D02*
X141009342Y-114943095D01*
X141009342Y-114943095D02*
X140771247Y-114943095D01*
X140771247Y-114943095D02*
X140676009Y-114990714D01*
X140676009Y-114990714D02*
X140628390Y-115038333D01*
X140628390Y-115038333D02*
X140580771Y-115133571D01*
X140580771Y-115133571D02*
X140580771Y-115324047D01*
X140580771Y-115324047D02*
X140628390Y-115419285D01*
X140628390Y-115419285D02*
X140676009Y-115466904D01*
X140676009Y-115466904D02*
X140771247Y-115514523D01*
X198256666Y-83441009D02*
X197923333Y-83441009D01*
X197923333Y-83964819D02*
X197923333Y-82964819D01*
X197923333Y-82964819D02*
X198399523Y-82964819D01*
X199304285Y-83964819D02*
X198732857Y-83964819D01*
X199018571Y-83964819D02*
X199018571Y-82964819D01*
X199018571Y-82964819D02*
X198923333Y-83107676D01*
X198923333Y-83107676D02*
X198828095Y-83202914D01*
X198828095Y-83202914D02*
X198732857Y-83250533D01*
D11*
%TO.C,U8*%
X191150000Y-68950000D02*
X190050000Y-68950000D01*
X191150000Y-70750000D02*
X189850000Y-70750000D01*
X189800000Y-68950000D02*
X189520000Y-68950000D01*
X189800000Y-68670000D01*
X189800000Y-68950000D01*
G36*
X189800000Y-68950000D02*
G01*
X189520000Y-68950000D01*
X189800000Y-68670000D01*
X189800000Y-68950000D01*
G37*
%TO.C,J13*%
X111505000Y-60250000D02*
X111505000Y-64250000D01*
X111795000Y-59220000D02*
X111795000Y-65240000D01*
X111795000Y-65240000D02*
X117095000Y-65240000D01*
X112375000Y-59220000D02*
X112375000Y-59820000D01*
X112375000Y-59820000D02*
X113975000Y-59820000D01*
X113175000Y-64240000D02*
X113425000Y-63710000D01*
X113175000Y-64240000D02*
X115715000Y-64240000D01*
X113175000Y-65240000D02*
X113175000Y-64240000D01*
X113425000Y-63710000D02*
X115465000Y-63710000D01*
X113425000Y-65240000D02*
X113425000Y-64240000D01*
X113975000Y-59820000D02*
X113975000Y-59220000D01*
X114915000Y-59220000D02*
X114915000Y-59820000D01*
X114915000Y-59820000D02*
X116515000Y-59820000D01*
X115465000Y-63710000D02*
X115715000Y-64240000D01*
X115465000Y-65240000D02*
X115465000Y-64240000D01*
X115715000Y-64240000D02*
X115715000Y-65240000D01*
X116515000Y-59820000D02*
X116515000Y-59220000D01*
X117095000Y-59220000D02*
X111795000Y-59220000D01*
X117095000Y-65240000D02*
X117095000Y-59220000D01*
%TO.C,J12*%
X104375000Y-60250000D02*
X104375000Y-64250000D01*
X104665000Y-59220000D02*
X104665000Y-65240000D01*
X104665000Y-65240000D02*
X109965000Y-65240000D01*
X105245000Y-59220000D02*
X105245000Y-59820000D01*
X105245000Y-59820000D02*
X106845000Y-59820000D01*
X106045000Y-64240000D02*
X106295000Y-63710000D01*
X106045000Y-64240000D02*
X108585000Y-64240000D01*
X106045000Y-65240000D02*
X106045000Y-64240000D01*
X106295000Y-63710000D02*
X108335000Y-63710000D01*
X106295000Y-65240000D02*
X106295000Y-64240000D01*
X106845000Y-59820000D02*
X106845000Y-59220000D01*
X107785000Y-59220000D02*
X107785000Y-59820000D01*
X107785000Y-59820000D02*
X109385000Y-59820000D01*
X108335000Y-63710000D02*
X108585000Y-64240000D01*
X108335000Y-65240000D02*
X108335000Y-64240000D01*
X108585000Y-64240000D02*
X108585000Y-65240000D01*
X109385000Y-59820000D02*
X109385000Y-59220000D01*
X109965000Y-59220000D02*
X104665000Y-59220000D01*
X109965000Y-65240000D02*
X109965000Y-59220000D01*
%TO.C,J11*%
X97245000Y-60250000D02*
X97245000Y-64250000D01*
X97535000Y-59220000D02*
X97535000Y-65240000D01*
X97535000Y-65240000D02*
X102835000Y-65240000D01*
X98115000Y-59220000D02*
X98115000Y-59820000D01*
X98115000Y-59820000D02*
X99715000Y-59820000D01*
X98915000Y-64240000D02*
X99165000Y-63710000D01*
X98915000Y-64240000D02*
X101455000Y-64240000D01*
X98915000Y-65240000D02*
X98915000Y-64240000D01*
X99165000Y-63710000D02*
X101205000Y-63710000D01*
X99165000Y-65240000D02*
X99165000Y-64240000D01*
X99715000Y-59820000D02*
X99715000Y-59220000D01*
X100655000Y-59220000D02*
X100655000Y-59820000D01*
X100655000Y-59820000D02*
X102255000Y-59820000D01*
X101205000Y-63710000D02*
X101455000Y-64240000D01*
X101205000Y-65240000D02*
X101205000Y-64240000D01*
X101455000Y-64240000D02*
X101455000Y-65240000D01*
X102255000Y-59820000D02*
X102255000Y-59220000D01*
X102835000Y-59220000D02*
X97535000Y-59220000D01*
X102835000Y-65240000D02*
X102835000Y-59220000D01*
%TO.C,J6*%
X144545000Y-132790000D02*
X144545000Y-128790000D01*
X144255000Y-133820000D02*
X144255000Y-127800000D01*
X144255000Y-127800000D02*
X138955000Y-127800000D01*
X143675000Y-133820000D02*
X143675000Y-133220000D01*
X143675000Y-133220000D02*
X142075000Y-133220000D01*
X142875000Y-128800000D02*
X142625000Y-129330000D01*
X142875000Y-128800000D02*
X140335000Y-128800000D01*
X142875000Y-127800000D02*
X142875000Y-128800000D01*
X142625000Y-129330000D02*
X140585000Y-129330000D01*
X142625000Y-127800000D02*
X142625000Y-128800000D01*
X142075000Y-133220000D02*
X142075000Y-133820000D01*
X141135000Y-133820000D02*
X141135000Y-133220000D01*
X141135000Y-133220000D02*
X139535000Y-133220000D01*
X140585000Y-129330000D02*
X140335000Y-128800000D01*
X140585000Y-127800000D02*
X140585000Y-128800000D01*
X140335000Y-128800000D02*
X140335000Y-127800000D01*
X139535000Y-133220000D02*
X139535000Y-133820000D01*
X138955000Y-133820000D02*
X144255000Y-133820000D01*
X138955000Y-127800000D02*
X138955000Y-133820000D01*
%TO.C,J1*%
X101715000Y-81785000D02*
X101715000Y-97285000D01*
X92595000Y-81785000D02*
X101715000Y-81785000D01*
X100405000Y-83085000D02*
X100405000Y-95985000D01*
X93905000Y-83085000D02*
X100405000Y-83085000D01*
X91205000Y-86495000D02*
X91205000Y-87495000D01*
X92205000Y-86995000D02*
X91205000Y-86495000D01*
X93905000Y-87485000D02*
X93905000Y-83085000D01*
X92595000Y-87485000D02*
X93905000Y-87485000D01*
X91205000Y-87495000D02*
X92205000Y-86995000D01*
X93905000Y-91585000D02*
X93905000Y-91585000D01*
X93905000Y-91585000D02*
X92595000Y-91585000D01*
X100405000Y-95985000D02*
X93905000Y-95985000D01*
X93905000Y-95985000D02*
X93905000Y-91585000D01*
X101715000Y-97285000D02*
X92595000Y-97285000D01*
X92595000Y-97285000D02*
X92595000Y-81785000D01*
D12*
%TO.C,J2*%
X208970000Y-60300000D02*
X209650000Y-60300000D01*
X208970000Y-69240000D02*
X209650000Y-69240000D01*
X212210000Y-69240000D02*
X212560000Y-69240000D01*
X212560000Y-60300000D02*
X212210000Y-60300000D01*
X212560000Y-69240000D02*
X212560000Y-60300000D01*
X205220000Y-67745000D02*
G75*
G02*
X205020000Y-67745000I-100000J0D01*
G01*
X205020000Y-67745000D02*
G75*
G02*
X205220000Y-67745000I100000J0D01*
G01*
D11*
%TO.C,C18*%
X178335000Y-121023748D02*
X178335000Y-121546252D01*
X179805000Y-121023748D02*
X179805000Y-121546252D01*
%TO.C,J3*%
X209147500Y-91315000D02*
X209147500Y-106815000D01*
X200027500Y-91315000D02*
X209147500Y-91315000D01*
X207837500Y-92615000D02*
X207837500Y-97015000D01*
X201337500Y-92615000D02*
X207837500Y-92615000D01*
X207837500Y-97015000D02*
X209147500Y-97015000D01*
X207837500Y-97015000D02*
X207837500Y-97015000D01*
X210537500Y-101105000D02*
X209537500Y-101605000D01*
X209147500Y-101115000D02*
X207837500Y-101115000D01*
X207837500Y-101115000D02*
X207837500Y-105515000D01*
X209537500Y-101605000D02*
X210537500Y-102105000D01*
X210537500Y-102105000D02*
X210537500Y-101105000D01*
X207837500Y-105515000D02*
X201337500Y-105515000D01*
X201337500Y-105515000D02*
X201337500Y-92615000D01*
X209147500Y-106815000D02*
X200027500Y-106815000D01*
X200027500Y-106815000D02*
X200027500Y-91315000D01*
%TO.C,J7*%
X175150000Y-128435000D02*
X175150000Y-134455000D01*
X175150000Y-134455000D02*
X180450000Y-134455000D01*
X175730000Y-133855000D02*
X175730000Y-134455000D01*
X176530000Y-129435000D02*
X176530000Y-128435000D01*
X176780000Y-128435000D02*
X176780000Y-129435000D01*
X176780000Y-129965000D02*
X176530000Y-129435000D01*
X177330000Y-133855000D02*
X175730000Y-133855000D01*
X177330000Y-134455000D02*
X177330000Y-133855000D01*
X178270000Y-133855000D02*
X178270000Y-134455000D01*
X178820000Y-128435000D02*
X178820000Y-129435000D01*
X178820000Y-129965000D02*
X176780000Y-129965000D01*
X179070000Y-128435000D02*
X179070000Y-129435000D01*
X179070000Y-129435000D02*
X176530000Y-129435000D01*
X179070000Y-129435000D02*
X178820000Y-129965000D01*
X179870000Y-133855000D02*
X178270000Y-133855000D01*
X179870000Y-134455000D02*
X179870000Y-133855000D01*
X180450000Y-128435000D02*
X175150000Y-128435000D01*
X180450000Y-134455000D02*
X180450000Y-128435000D01*
X180740000Y-133425000D02*
X180740000Y-129425000D01*
%TO.C,D11*%
X147775000Y-96320000D02*
X147775000Y-96450000D01*
X147775000Y-99260000D02*
X147775000Y-99130000D01*
X152195000Y-99260000D02*
X152195000Y-96320000D01*
X152315000Y-99260000D02*
X152315000Y-96320000D01*
X152435000Y-99260000D02*
X152435000Y-96320000D01*
X153215000Y-96320000D02*
X147775000Y-96320000D01*
X153215000Y-96450000D02*
X153215000Y-96320000D01*
X153215000Y-99130000D02*
X153215000Y-99260000D01*
X153215000Y-99260000D02*
X147775000Y-99260000D01*
%TO.C,D12*%
X146505000Y-103940000D02*
X151945000Y-103940000D01*
X146505000Y-104070000D02*
X146505000Y-103940000D01*
X146505000Y-106750000D02*
X146505000Y-106880000D01*
X146505000Y-106880000D02*
X151945000Y-106880000D01*
X147285000Y-103940000D02*
X147285000Y-106880000D01*
X147405000Y-103940000D02*
X147405000Y-106880000D01*
X147525000Y-103940000D02*
X147525000Y-106880000D01*
X151945000Y-103940000D02*
X151945000Y-104070000D01*
X151945000Y-106880000D02*
X151945000Y-106750000D01*
%TO.C,Y1*%
X146645000Y-59070000D02*
X140395000Y-59070000D01*
X146645000Y-64120000D02*
X140395000Y-64120000D01*
X140395000Y-64120000D02*
G75*
G02*
X140395000Y-59070000I0J2525000D01*
G01*
X146645000Y-59070000D02*
G75*
G02*
X146645000Y-64120000I0J-2525000D01*
G01*
%TO.C,U9*%
X184785000Y-97135000D02*
X182835000Y-97135000D01*
X184785000Y-97135000D02*
X186735000Y-97135000D01*
X184785000Y-102255000D02*
X182835000Y-102255000D01*
X184785000Y-102255000D02*
X186735000Y-102255000D01*
X182085000Y-97230000D02*
X181845000Y-96900000D01*
X182325000Y-96900000D01*
X182085000Y-97230000D01*
G36*
X182085000Y-97230000D02*
G01*
X181845000Y-96900000D01*
X182325000Y-96900000D01*
X182085000Y-97230000D01*
G37*
%TO.C,D3*%
X186030000Y-130535000D02*
X186030000Y-133625000D01*
X186030001Y-130535170D02*
G75*
G02*
X191579999Y-132080462I2559999J-1544830D01*
G01*
X191580000Y-132079538D02*
G75*
G02*
X186030000Y-133624830I-2990000J-462D01*
G01*
X191090000Y-132080000D02*
G75*
G02*
X186090000Y-132080000I-2500000J0D01*
G01*
X186090000Y-132080000D02*
G75*
G02*
X191090000Y-132080000I2500000J0D01*
G01*
%TO.C,U5*%
X123260000Y-118085000D02*
X122930000Y-117845000D01*
X123260000Y-117605000D01*
X123260000Y-118085000D01*
G36*
X123260000Y-118085000D02*
G01*
X122930000Y-117845000D01*
X123260000Y-117605000D01*
X123260000Y-118085000D01*
G37*
D10*
X121630000Y-118295000D02*
X117130000Y-118295000D01*
X121630000Y-112845000D02*
X117130000Y-112845000D01*
D11*
%TO.C,C10*%
X118371252Y-106580000D02*
X117848748Y-106580000D01*
X118371252Y-108050000D02*
X117848748Y-108050000D01*
%TO.C,C3*%
X139600000Y-68953748D02*
X139600000Y-69476252D01*
X141070000Y-68953748D02*
X141070000Y-69476252D01*
%TO.C,R10*%
X163422064Y-89435000D02*
X162967936Y-89435000D01*
X163422064Y-90905000D02*
X162967936Y-90905000D01*
%TO.C,R1*%
X168502064Y-81180000D02*
X168047936Y-81180000D01*
X168502064Y-82650000D02*
X168047936Y-82650000D01*
%TO.C,R9*%
X136932936Y-92610000D02*
X137387064Y-92610000D01*
X136932936Y-94080000D02*
X137387064Y-94080000D01*
%TO.C,R5*%
X205640000Y-124232936D02*
X205640000Y-124687064D01*
X207110000Y-124232936D02*
X207110000Y-124687064D01*
%TO.C,C8*%
X158376252Y-64870000D02*
X157853748Y-64870000D01*
X158376252Y-63400000D02*
X157853748Y-63400000D01*
%TO.C,R18*%
X122455000Y-107722936D02*
X122455000Y-108177064D01*
X123925000Y-107722936D02*
X123925000Y-108177064D01*
%TO.C,U2*%
X112332500Y-119000000D02*
X111852500Y-119000000D01*
X112092500Y-118670000D01*
X112332500Y-119000000D01*
G36*
X112332500Y-119000000D02*
G01*
X111852500Y-119000000D01*
X112092500Y-118670000D01*
X112332500Y-119000000D01*
G37*
X111310000Y-118930000D02*
X111310000Y-118670000D01*
X111310000Y-113480000D02*
X111310000Y-113740000D01*
X108585000Y-118930000D02*
X111310000Y-118930000D01*
X108585000Y-118930000D02*
X105860000Y-118930000D01*
X108585000Y-113480000D02*
X111310000Y-113480000D01*
X108585000Y-113480000D02*
X105860000Y-113480000D01*
X105860000Y-118930000D02*
X105860000Y-118670000D01*
X105860000Y-113480000D02*
X105860000Y-113740000D01*
%TO.C,C11*%
X117848748Y-102135000D02*
X118371252Y-102135000D01*
X117848748Y-103605000D02*
X118371252Y-103605000D01*
%TO.C,C7*%
X189765000Y-62491252D02*
X189765000Y-61968748D01*
X191235000Y-62491252D02*
X191235000Y-61968748D01*
%TO.C,D5*%
X202540000Y-130535000D02*
X202540000Y-133625000D01*
X202540001Y-130535170D02*
G75*
G02*
X208089999Y-132080462I2559999J-1544830D01*
G01*
X208090000Y-132079538D02*
G75*
G02*
X202540000Y-133624830I-2990000J-462D01*
G01*
X207600000Y-132080000D02*
G75*
G02*
X202600000Y-132080000I-2500000J0D01*
G01*
X202600000Y-132080000D02*
G75*
G02*
X207600000Y-132080000I2500000J0D01*
G01*
%TO.C,C17*%
X159123748Y-119480000D02*
X159646252Y-119480000D01*
X159123748Y-118010000D02*
X159646252Y-118010000D01*
%TO.C,D13*%
X190045000Y-115770000D02*
X184605000Y-115770000D01*
X190045000Y-115640000D02*
X190045000Y-115770000D01*
X190045000Y-112960000D02*
X190045000Y-112830000D01*
X190045000Y-112830000D02*
X184605000Y-112830000D01*
X189265000Y-115770000D02*
X189265000Y-112830000D01*
X189145000Y-115770000D02*
X189145000Y-112830000D01*
X189025000Y-115770000D02*
X189025000Y-112830000D01*
X184605000Y-115770000D02*
X184605000Y-115640000D01*
X184605000Y-112830000D02*
X184605000Y-112960000D01*
%TO.C,C14*%
X165473748Y-99595000D02*
X165996252Y-99595000D01*
X165473748Y-101065000D02*
X165996252Y-101065000D01*
%TO.C,C12*%
X113291252Y-107850000D02*
X112768748Y-107850000D01*
X113291252Y-109320000D02*
X112768748Y-109320000D01*
%TO.C,J4*%
X95310000Y-80065000D02*
X93980000Y-80065000D01*
X95310000Y-78735000D02*
X95310000Y-80065000D01*
X92650000Y-77465000D02*
X92650000Y-67245000D01*
X95310000Y-77465000D02*
X92650000Y-77465000D01*
X95310000Y-77465000D02*
X95310000Y-67245000D01*
X95310000Y-67245000D02*
X92650000Y-67245000D01*
%TO.C,R13*%
X150722064Y-89435000D02*
X150267936Y-89435000D01*
X150722064Y-90905000D02*
X150267936Y-90905000D01*
%TO.C,C4*%
X155201252Y-71855000D02*
X154678748Y-71855000D01*
X155201252Y-70385000D02*
X154678748Y-70385000D01*
%TO.C,J10*%
X166260000Y-128435000D02*
X166260000Y-134455000D01*
X166260000Y-134455000D02*
X171560000Y-134455000D01*
X166840000Y-133855000D02*
X166840000Y-134455000D01*
X167640000Y-129435000D02*
X167640000Y-128435000D01*
X167890000Y-128435000D02*
X167890000Y-129435000D01*
X167890000Y-129965000D02*
X167640000Y-129435000D01*
X168440000Y-133855000D02*
X166840000Y-133855000D01*
X168440000Y-134455000D02*
X168440000Y-133855000D01*
X169380000Y-133855000D02*
X169380000Y-134455000D01*
X169930000Y-128435000D02*
X169930000Y-129435000D01*
X169930000Y-129965000D02*
X167890000Y-129965000D01*
X170180000Y-128435000D02*
X170180000Y-129435000D01*
X170180000Y-129435000D02*
X167640000Y-129435000D01*
X170180000Y-129435000D02*
X169930000Y-129965000D01*
X170980000Y-133855000D02*
X169380000Y-133855000D01*
X170980000Y-134455000D02*
X170980000Y-133855000D01*
X171560000Y-128435000D02*
X166260000Y-128435000D01*
X171560000Y-134455000D02*
X171560000Y-128435000D01*
X171850000Y-133425000D02*
X171850000Y-129425000D01*
%TO.C,C9*%
X190600000Y-89273748D02*
X190600000Y-89796252D01*
X189130000Y-89273748D02*
X189130000Y-89796252D01*
%TO.C,R14*%
X158342064Y-123725000D02*
X157887936Y-123725000D01*
X158342064Y-125195000D02*
X157887936Y-125195000D01*
%TO.C,R16*%
X158977064Y-111860000D02*
X158522936Y-111860000D01*
X158977064Y-110390000D02*
X158522936Y-110390000D01*
%TO.C,J9*%
X118980000Y-60250000D02*
X118980000Y-64250000D01*
X119270000Y-59220000D02*
X119270000Y-65240000D01*
X119270000Y-65240000D02*
X124570000Y-65240000D01*
X119850000Y-59220000D02*
X119850000Y-59820000D01*
X119850000Y-59820000D02*
X121450000Y-59820000D01*
X120650000Y-64240000D02*
X120900000Y-63710000D01*
X120650000Y-64240000D02*
X123190000Y-64240000D01*
X120650000Y-65240000D02*
X120650000Y-64240000D01*
X120900000Y-63710000D02*
X122940000Y-63710000D01*
X120900000Y-65240000D02*
X120900000Y-64240000D01*
X121450000Y-59820000D02*
X121450000Y-59220000D01*
X122390000Y-59220000D02*
X122390000Y-59820000D01*
X122390000Y-59820000D02*
X123990000Y-59820000D01*
X122940000Y-63710000D02*
X123190000Y-64240000D01*
X122940000Y-65240000D02*
X122940000Y-64240000D01*
X123190000Y-64240000D02*
X123190000Y-65240000D01*
X123990000Y-59820000D02*
X123990000Y-59220000D01*
X124570000Y-59220000D02*
X119270000Y-59220000D01*
X124570000Y-65240000D02*
X124570000Y-59220000D01*
%TO.C,U3*%
X172520000Y-59385000D02*
X172280000Y-59055000D01*
X172760000Y-59055000D01*
X172520000Y-59385000D01*
G36*
X172520000Y-59385000D02*
G01*
X172280000Y-59055000D01*
X172760000Y-59055000D01*
X172520000Y-59385000D01*
G37*
D10*
X178770000Y-68885000D02*
X178770000Y-69460000D01*
X178770000Y-58810000D02*
X178770000Y-59385000D01*
X173020000Y-69460000D02*
X178770000Y-69460000D01*
X173020000Y-68885000D02*
X173020000Y-69460000D01*
X173020000Y-58810000D02*
X178770000Y-58810000D01*
X173020000Y-58810000D02*
X173020000Y-59385000D01*
D11*
%TO.C,R7*%
X191670000Y-124232936D02*
X191670000Y-124687064D01*
X193140000Y-124232936D02*
X193140000Y-124687064D01*
%TO.C,R17*%
X160120000Y-106452936D02*
X160120000Y-106907064D01*
X158650000Y-106452936D02*
X158650000Y-106907064D01*
%TO.C,C2*%
X145645000Y-68878748D02*
X145645000Y-69401252D01*
X147115000Y-68878748D02*
X147115000Y-69401252D01*
%TO.C,R6*%
X198020000Y-124687064D02*
X198020000Y-124232936D01*
X199490000Y-124687064D02*
X199490000Y-124232936D01*
%TO.C,J8*%
X163595000Y-133445000D02*
X163595000Y-129445000D01*
X163305000Y-134475000D02*
X163305000Y-128455000D01*
X163305000Y-128455000D02*
X158005000Y-128455000D01*
X162725000Y-134475000D02*
X162725000Y-133875000D01*
X162725000Y-133875000D02*
X161125000Y-133875000D01*
X161925000Y-129455000D02*
X161675000Y-129985000D01*
X161925000Y-129455000D02*
X159385000Y-129455000D01*
X161925000Y-128455000D02*
X161925000Y-129455000D01*
X161675000Y-129985000D02*
X159635000Y-129985000D01*
X161675000Y-128455000D02*
X161675000Y-129455000D01*
X161125000Y-133875000D02*
X161125000Y-134475000D01*
X160185000Y-134475000D02*
X160185000Y-133875000D01*
X160185000Y-133875000D02*
X158585000Y-133875000D01*
X159635000Y-129985000D02*
X159385000Y-129455000D01*
X159635000Y-128455000D02*
X159635000Y-129455000D01*
X159385000Y-129455000D02*
X159385000Y-128455000D01*
X158585000Y-133875000D02*
X158585000Y-134475000D01*
X158005000Y-134475000D02*
X163305000Y-134475000D01*
X158005000Y-128455000D02*
X158005000Y-134475000D01*
%TO.C,R11*%
X163422064Y-94515000D02*
X162967936Y-94515000D01*
X163422064Y-95985000D02*
X162967936Y-95985000D01*
%TO.C,C1*%
X106580000Y-109593748D02*
X106580000Y-110116252D01*
X108050000Y-109593748D02*
X108050000Y-110116252D01*
%TO.C,C6*%
X178535000Y-74033748D02*
X178535000Y-74556252D01*
X177065000Y-74033748D02*
X177065000Y-74556252D01*
%TO.C,R4*%
X199162936Y-62330000D02*
X199617064Y-62330000D01*
X199162936Y-60860000D02*
X199617064Y-60860000D01*
%TO.C,U7*%
X150495000Y-116860000D02*
X152445000Y-116860000D01*
X150495000Y-116860000D02*
X148545000Y-116860000D01*
X150495000Y-111740000D02*
X152445000Y-111740000D01*
X150495000Y-111740000D02*
X148545000Y-111740000D01*
X153435000Y-117095000D02*
X152955000Y-117095000D01*
X153195000Y-116765000D01*
X153435000Y-117095000D01*
G36*
X153435000Y-117095000D02*
G01*
X152955000Y-117095000D01*
X153195000Y-116765000D01*
X153435000Y-117095000D01*
G37*
%TO.C,R3*%
X199617064Y-67845000D02*
X199162936Y-67845000D01*
X199617064Y-69315000D02*
X199162936Y-69315000D01*
%TO.C,R12*%
X139800000Y-110897936D02*
X139800000Y-111352064D01*
X138330000Y-110897936D02*
X138330000Y-111352064D01*
%TO.C,D10*%
X137615000Y-86160000D02*
X143055000Y-86160000D01*
X137615000Y-86290000D02*
X137615000Y-86160000D01*
X137615000Y-88970000D02*
X137615000Y-89100000D01*
X137615000Y-89100000D02*
X143055000Y-89100000D01*
X138395000Y-86160000D02*
X138395000Y-89100000D01*
X138515000Y-86160000D02*
X138515000Y-89100000D01*
X138635000Y-86160000D02*
X138635000Y-89100000D01*
X143055000Y-86160000D02*
X143055000Y-86290000D01*
X143055000Y-89100000D02*
X143055000Y-88970000D01*
%TO.C,R20*%
X178662064Y-106780000D02*
X178207936Y-106780000D01*
X178662064Y-105310000D02*
X178207936Y-105310000D01*
%TO.C,C20*%
X193140000Y-95623748D02*
X193140000Y-96146252D01*
X191670000Y-95623748D02*
X191670000Y-96146252D01*
%TO.C,D4*%
X194285000Y-130535000D02*
X194285000Y-133625000D01*
X194285001Y-130535170D02*
G75*
G02*
X199834999Y-132080462I2559999J-1544830D01*
G01*
X199835000Y-132079538D02*
G75*
G02*
X194285000Y-133624830I-2990000J-462D01*
G01*
X199345000Y-132080000D02*
G75*
G02*
X194345000Y-132080000I-2500000J0D01*
G01*
X194345000Y-132080000D02*
G75*
G02*
X199345000Y-132080000I2500000J0D01*
G01*
%TO.C,C21*%
X178535000Y-100068748D02*
X178535000Y-100591252D01*
X177065000Y-100068748D02*
X177065000Y-100591252D01*
%TO.C,R15*%
X150722064Y-125830000D02*
X150267936Y-125830000D01*
X150722064Y-124360000D02*
X150267936Y-124360000D01*
%TO.C,R8*%
X135482064Y-106580000D02*
X135027936Y-106580000D01*
X135482064Y-108050000D02*
X135027936Y-108050000D01*
%TO.C,C19*%
X158376252Y-61060000D02*
X157853748Y-61060000D01*
X158376252Y-59590000D02*
X157853748Y-59590000D01*
%TO.C,U6*%
X161580000Y-100330000D02*
X161580000Y-99530000D01*
X161580000Y-100330000D02*
X161580000Y-101130000D01*
X158460000Y-100330000D02*
X158460000Y-99530000D01*
X158460000Y-100330000D02*
X158460000Y-101130000D01*
X158510000Y-101630000D02*
X158180000Y-101870000D01*
X158180000Y-101390000D01*
X158510000Y-101630000D01*
G36*
X158510000Y-101630000D02*
G01*
X158180000Y-101870000D01*
X158180000Y-101390000D01*
X158510000Y-101630000D01*
G37*
%TO.C,R2*%
X159485000Y-70257936D02*
X159485000Y-70712064D01*
X158015000Y-70257936D02*
X158015000Y-70712064D01*
%TO.C,C15*%
X165996252Y-102770000D02*
X165473748Y-102770000D01*
X165996252Y-104240000D02*
X165473748Y-104240000D01*
%TO.C,D9*%
X134440000Y-96320000D02*
X134440000Y-96450000D01*
X134440000Y-99260000D02*
X134440000Y-99130000D01*
X138860000Y-99260000D02*
X138860000Y-96320000D01*
X138980000Y-99260000D02*
X138980000Y-96320000D01*
X139100000Y-99260000D02*
X139100000Y-96320000D01*
X139880000Y-96320000D02*
X134440000Y-96320000D01*
X139880000Y-96450000D02*
X139880000Y-96320000D01*
X139880000Y-99130000D02*
X139880000Y-99260000D01*
X139880000Y-99260000D02*
X134440000Y-99260000D01*
%TO.C,R19*%
X185012064Y-106780000D02*
X184557936Y-106780000D01*
X185012064Y-105310000D02*
X184557936Y-105310000D01*
%TO.C,D1*%
X114755000Y-85995000D02*
X110745000Y-85995000D01*
X114755000Y-87995000D02*
X114755000Y-85995000D01*
X114755000Y-87995000D02*
X110745000Y-87995000D01*
%TO.C,J5*%
X129430000Y-127800000D02*
X129430000Y-133820000D01*
X129430000Y-133820000D02*
X134730000Y-133820000D01*
X130010000Y-133220000D02*
X130010000Y-133820000D01*
X130810000Y-128800000D02*
X130810000Y-127800000D01*
X131060000Y-127800000D02*
X131060000Y-128800000D01*
X131060000Y-129330000D02*
X130810000Y-128800000D01*
X131610000Y-133220000D02*
X130010000Y-133220000D01*
X131610000Y-133820000D02*
X131610000Y-133220000D01*
X132550000Y-133220000D02*
X132550000Y-133820000D01*
X133100000Y-127800000D02*
X133100000Y-128800000D01*
X133100000Y-129330000D02*
X131060000Y-129330000D01*
X133350000Y-127800000D02*
X133350000Y-128800000D01*
X133350000Y-128800000D02*
X130810000Y-128800000D01*
X133350000Y-128800000D02*
X133100000Y-129330000D01*
X134150000Y-133220000D02*
X132550000Y-133220000D01*
X134150000Y-133820000D02*
X134150000Y-133220000D01*
X134730000Y-127800000D02*
X129430000Y-127800000D01*
X134730000Y-133820000D02*
X134730000Y-127800000D01*
X135020000Y-132790000D02*
X135020000Y-128790000D01*
%TO.C,D14*%
X177980000Y-115770000D02*
X172540000Y-115770000D01*
X177980000Y-115640000D02*
X177980000Y-115770000D01*
X177980000Y-112960000D02*
X177980000Y-112830000D01*
X177980000Y-112830000D02*
X172540000Y-112830000D01*
X177200000Y-115770000D02*
X177200000Y-112830000D01*
X177080000Y-115770000D02*
X177080000Y-112830000D01*
X176960000Y-115770000D02*
X176960000Y-112830000D01*
X172540000Y-115770000D02*
X172540000Y-115640000D01*
X172540000Y-112830000D02*
X172540000Y-112960000D01*
%TO.C,U4*%
X176595000Y-91715000D02*
X183015000Y-91715000D01*
X183015000Y-91715000D02*
X183015000Y-91445000D01*
X176595000Y-84815000D02*
X183015000Y-84815000D01*
X183015000Y-84815000D02*
X183015000Y-85085000D01*
X184670000Y-91755000D02*
X184190000Y-91755000D01*
X184430000Y-91425000D01*
X184670000Y-91755000D01*
G36*
X184670000Y-91755000D02*
G01*
X184190000Y-91755000D01*
X184430000Y-91425000D01*
X184670000Y-91755000D01*
G37*
%TO.C,U1*%
X154995000Y-76670000D02*
X154655000Y-76200000D01*
X155335000Y-76200000D01*
X154995000Y-76670000D01*
G36*
X154995000Y-76670000D02*
G01*
X154655000Y-76200000D01*
X155335000Y-76200000D01*
X154995000Y-76670000D01*
G37*
D10*
X163010000Y-83635000D02*
X163010000Y-83310000D01*
X163010000Y-83635000D02*
X162685000Y-83635000D01*
X163010000Y-76385000D02*
X163010000Y-76710000D01*
X163010000Y-76385000D02*
X162685000Y-76385000D01*
X155760000Y-83635000D02*
X156085000Y-83635000D01*
X155760000Y-83635000D02*
X155760000Y-83310000D01*
X155760000Y-76385000D02*
X156085000Y-76385000D01*
X155760000Y-76385000D02*
X155760000Y-76610000D01*
D11*
%TO.C,D2*%
X173810000Y-77740000D02*
X169800000Y-77740000D01*
X173810000Y-79740000D02*
X169800000Y-79740000D01*
X173810000Y-79740000D02*
X173810000Y-77740000D01*
%TO.C,C5*%
X151865000Y-75191252D02*
X151865000Y-74668748D01*
X150395000Y-75191252D02*
X150395000Y-74668748D01*
%TO.C,C13*%
X132615000Y-117848748D02*
X132615000Y-118371252D01*
X134085000Y-117848748D02*
X134085000Y-118371252D01*
%TO.C,C16*%
X138330000Y-115943748D02*
X138330000Y-116466252D01*
X139800000Y-115943748D02*
X139800000Y-116466252D01*
%TO.C,F1*%
X208840000Y-82660000D02*
X208840000Y-77360000D01*
X208840000Y-82660000D02*
X189940000Y-82660000D01*
X189940000Y-77360000D02*
X208840000Y-77360000D01*
X189940000Y-77360000D02*
X189940000Y-82660000D01*
%TD*%
M02*
