%TF.GenerationSoftware,KiCad,Pcbnew,8.0.1*%
%TF.CreationDate,2024-04-13T21:31:32-05:00*%
%TF.ProjectId,ECE445-Wattbalance-PCB,45434534-3435-42d5-9761-747462616c61,rev?*%
%TF.SameCoordinates,Original*%
%TF.FileFunction,Soldermask,Top*%
%TF.FilePolarity,Negative*%
%FSLAX46Y46*%
G04 Gerber Fmt 4.6, Leading zero omitted, Abs format (unit mm)*
G04 Created by KiCad (PCBNEW 8.0.1) date 2024-04-13 21:31:32*
%MOMM*%
%LPD*%
G01*
G04 APERTURE LIST*
G04 Aperture macros list*
%AMRoundRect*
0 Rectangle with rounded corners*
0 $1 Rounding radius*
0 $2 $3 $4 $5 $6 $7 $8 $9 X,Y pos of 4 corners*
0 Add a 4 corners polygon primitive as box body*
4,1,4,$2,$3,$4,$5,$6,$7,$8,$9,$2,$3,0*
0 Add four circle primitives for the rounded corners*
1,1,$1+$1,$2,$3*
1,1,$1+$1,$4,$5*
1,1,$1+$1,$6,$7*
1,1,$1+$1,$8,$9*
0 Add four rect primitives between the rounded corners*
20,1,$1+$1,$2,$3,$4,$5,0*
20,1,$1+$1,$4,$5,$6,$7,0*
20,1,$1+$1,$6,$7,$8,$9,0*
20,1,$1+$1,$8,$9,$2,$3,0*%
G04 Aperture macros list end*
%ADD10RoundRect,0.075000X-0.150000X-0.075000X0.150000X-0.075000X0.150000X0.075000X-0.150000X0.075000X0*%
%ADD11RoundRect,0.250000X-0.620000X-0.845000X0.620000X-0.845000X0.620000X0.845000X-0.620000X0.845000X0*%
%ADD12O,1.740000X2.190000*%
%ADD13RoundRect,0.250000X0.620000X0.845000X-0.620000X0.845000X-0.620000X-0.845000X0.620000X-0.845000X0*%
%ADD14C,1.700000*%
%ADD15RoundRect,0.250000X-0.600000X-0.600000X0.600000X-0.600000X0.600000X0.600000X-0.600000X0.600000X0*%
%ADD16C,0.854000*%
%ADD17O,1.904000X1.104000*%
%ADD18O,2.604000X1.104000*%
%ADD19RoundRect,0.250000X-0.475000X0.337500X-0.475000X-0.337500X0.475000X-0.337500X0.475000X0.337500X0*%
%ADD20RoundRect,0.250000X0.600000X0.600000X-0.600000X0.600000X-0.600000X-0.600000X0.600000X-0.600000X0*%
%ADD21C,3.200000*%
%ADD22R,2.200000X2.200000*%
%ADD23O,2.200000X2.200000*%
%ADD24C,1.500000*%
%ADD25RoundRect,0.150000X-0.825000X-0.150000X0.825000X-0.150000X0.825000X0.150000X-0.825000X0.150000X0*%
%ADD26R,1.800000X1.800000*%
%ADD27C,1.800000*%
%ADD28R,1.470000X0.895000*%
%ADD29R,1.050000X0.450000*%
%ADD30RoundRect,0.250000X0.337500X0.475000X-0.337500X0.475000X-0.337500X-0.475000X0.337500X-0.475000X0*%
%ADD31RoundRect,0.250000X0.350000X0.450000X-0.350000X0.450000X-0.350000X-0.450000X0.350000X-0.450000X0*%
%ADD32RoundRect,0.250000X-0.350000X-0.450000X0.350000X-0.450000X0.350000X0.450000X-0.350000X0.450000X0*%
%ADD33RoundRect,0.250000X-0.450000X0.350000X-0.450000X-0.350000X0.450000X-0.350000X0.450000X0.350000X0*%
%ADD34RoundRect,0.150000X0.650000X0.150000X-0.650000X0.150000X-0.650000X-0.150000X0.650000X-0.150000X0*%
%ADD35RoundRect,0.250000X-0.337500X-0.475000X0.337500X-0.475000X0.337500X0.475000X-0.337500X0.475000X0*%
%ADD36RoundRect,0.250000X0.475000X-0.337500X0.475000X0.337500X-0.475000X0.337500X-0.475000X-0.337500X0*%
%ADD37O,1.700000X1.700000*%
%ADD38R,1.700000X1.700000*%
%ADD39R,1.750000X0.450000*%
%ADD40RoundRect,0.250000X0.450000X-0.350000X0.450000X0.350000X-0.450000X0.350000X-0.450000X-0.350000X0*%
%ADD41RoundRect,0.150000X0.825000X0.150000X-0.825000X0.150000X-0.825000X-0.150000X0.825000X-0.150000X0*%
%ADD42RoundRect,0.150000X0.150000X-0.512500X0.150000X0.512500X-0.150000X0.512500X-0.150000X-0.512500X0*%
%ADD43RoundRect,0.225000X0.225000X0.375000X-0.225000X0.375000X-0.225000X-0.375000X0.225000X-0.375000X0*%
%ADD44RoundRect,0.250000X0.850000X0.350000X-0.850000X0.350000X-0.850000X-0.350000X0.850000X-0.350000X0*%
%ADD45RoundRect,0.249997X2.950003X2.650003X-2.950003X2.650003X-2.950003X-2.650003X2.950003X-2.650003X0*%
%ADD46R,0.550000X1.600000*%
%ADD47R,1.600000X0.550000*%
%ADD48C,2.000000*%
G04 APERTURE END LIST*
D10*
%TO.C,U8*%
X189800000Y-69350000D03*
X189800000Y-69850000D03*
X189800000Y-70350000D03*
X191200000Y-70350000D03*
X191200000Y-69350000D03*
%TD*%
D11*
%TO.C,J13*%
X113175000Y-62250000D03*
D12*
X115715000Y-62250000D03*
%TD*%
D11*
%TO.C,J12*%
X106045000Y-62250000D03*
D12*
X108585000Y-62250000D03*
%TD*%
D11*
%TO.C,J11*%
X98915000Y-62250000D03*
D12*
X101455000Y-62250000D03*
%TD*%
D13*
%TO.C,J6*%
X142875000Y-130790000D03*
D12*
X140335000Y-130790000D03*
%TD*%
D14*
%TO.C,J1*%
X98425000Y-92075000D03*
X95885000Y-92075000D03*
X98425000Y-89535000D03*
X95885000Y-89535000D03*
X98425000Y-86995000D03*
D15*
X95885000Y-86995000D03*
%TD*%
D16*
%TO.C,J2*%
X206460000Y-67745000D03*
X206460000Y-66895000D03*
X206460000Y-66045000D03*
X206460000Y-65195000D03*
X206460000Y-64345000D03*
X206460000Y-63495000D03*
X206460000Y-62645000D03*
X206460000Y-61795000D03*
X207810000Y-61795000D03*
X207810000Y-62645000D03*
X207810000Y-63495000D03*
X207810000Y-64345000D03*
X207810000Y-65195000D03*
X207810000Y-66045000D03*
X207810000Y-66895000D03*
X207810000Y-67745000D03*
D17*
X210820000Y-69095000D03*
X210820000Y-60445000D03*
D18*
X207440000Y-69095000D03*
X207440000Y-60445000D03*
%TD*%
D19*
%TO.C,C18*%
X179070000Y-122322500D03*
X179070000Y-120247500D03*
%TD*%
D20*
%TO.C,J3*%
X205857500Y-101605000D03*
D14*
X203317500Y-101605000D03*
X205857500Y-99065000D03*
X203317500Y-99065000D03*
X205857500Y-96525000D03*
X203317500Y-96525000D03*
%TD*%
D12*
%TO.C,J7*%
X176530000Y-131425000D03*
D13*
X179070000Y-131425000D03*
%TD*%
D21*
%TO.C,H3*%
X208915000Y-141605000D03*
%TD*%
D22*
%TO.C,D11*%
X154305000Y-97790000D03*
D23*
X146685000Y-97790000D03*
%TD*%
D22*
%TO.C,D12*%
X145415000Y-105410000D03*
D23*
X153035000Y-105410000D03*
%TD*%
D24*
%TO.C,Y1*%
X145960000Y-61595000D03*
X141080000Y-61595000D03*
%TD*%
D25*
%TO.C,U9*%
X182310000Y-97790000D03*
X182310000Y-99060000D03*
X182310000Y-100330000D03*
X182310000Y-101600000D03*
X187260000Y-101600000D03*
X187260000Y-100330000D03*
X187260000Y-99060000D03*
X187260000Y-97790000D03*
%TD*%
D26*
%TO.C,D3*%
X187320000Y-132080000D03*
D27*
X189860000Y-132080000D03*
%TD*%
D28*
%TO.C,U5*%
X118645000Y-114227500D03*
X118645000Y-115122500D03*
X118645000Y-116017500D03*
X118645000Y-116912500D03*
X120115000Y-114227500D03*
X120115000Y-115122500D03*
X120115000Y-116017500D03*
X120115000Y-116912500D03*
D29*
X116605000Y-117845000D03*
X116605000Y-117195000D03*
X116605000Y-116545000D03*
X116605000Y-115895000D03*
X116605000Y-115245000D03*
X116605000Y-114595000D03*
X116605000Y-113945000D03*
X116605000Y-113295000D03*
X122155000Y-113295000D03*
X122155000Y-113945000D03*
X122155000Y-114595000D03*
X122155000Y-115245000D03*
X122155000Y-115895000D03*
X122155000Y-116545000D03*
X122155000Y-117195000D03*
X122155000Y-117845000D03*
%TD*%
D30*
%TO.C,C10*%
X119147500Y-107315000D03*
X117072500Y-107315000D03*
%TD*%
D19*
%TO.C,C3*%
X140335000Y-68177500D03*
X140335000Y-70252500D03*
%TD*%
D31*
%TO.C,R10*%
X164195000Y-90170000D03*
X162195000Y-90170000D03*
%TD*%
%TO.C,R1*%
X169275000Y-81915000D03*
X167275000Y-81915000D03*
%TD*%
D32*
%TO.C,R9*%
X136160000Y-93345000D03*
X138160000Y-93345000D03*
%TD*%
D33*
%TO.C,R5*%
X206375000Y-123460000D03*
X206375000Y-125460000D03*
%TD*%
D30*
%TO.C,C8*%
X159152500Y-64135000D03*
X157077500Y-64135000D03*
%TD*%
D33*
%TO.C,R18*%
X123190000Y-106950000D03*
X123190000Y-108950000D03*
%TD*%
D34*
%TO.C,U2*%
X104985000Y-118110000D03*
X104985000Y-116840000D03*
X104985000Y-115570000D03*
X104985000Y-114300000D03*
X112185000Y-114300000D03*
X112185000Y-115570000D03*
X112185000Y-116840000D03*
X112185000Y-118110000D03*
%TD*%
D35*
%TO.C,C11*%
X117072500Y-102870000D03*
X119147500Y-102870000D03*
%TD*%
D36*
%TO.C,C7*%
X190500000Y-63267500D03*
X190500000Y-61192500D03*
%TD*%
D26*
%TO.C,D5*%
X203830000Y-132080000D03*
D27*
X206370000Y-132080000D03*
%TD*%
D35*
%TO.C,C17*%
X158347500Y-118745000D03*
X160422500Y-118745000D03*
%TD*%
D22*
%TO.C,D13*%
X191135000Y-114300000D03*
D23*
X183515000Y-114300000D03*
%TD*%
D35*
%TO.C,C14*%
X164697500Y-100330000D03*
X166772500Y-100330000D03*
%TD*%
D30*
%TO.C,C12*%
X114067500Y-108585000D03*
X111992500Y-108585000D03*
%TD*%
D37*
%TO.C,J4*%
X93980000Y-68575000D03*
X93980000Y-71115000D03*
X93980000Y-73655000D03*
X93980000Y-76195000D03*
D38*
X93980000Y-78735000D03*
%TD*%
D31*
%TO.C,R13*%
X151495000Y-90170000D03*
X149495000Y-90170000D03*
%TD*%
D30*
%TO.C,C4*%
X155977500Y-71120000D03*
X153902500Y-71120000D03*
%TD*%
D12*
%TO.C,J10*%
X167640000Y-131425000D03*
D13*
X170180000Y-131425000D03*
%TD*%
D19*
%TO.C,C9*%
X189865000Y-88497500D03*
X189865000Y-90572500D03*
%TD*%
D31*
%TO.C,R14*%
X157115000Y-124460000D03*
X159115000Y-124460000D03*
%TD*%
%TO.C,R16*%
X159750000Y-111125000D03*
X157750000Y-111125000D03*
%TD*%
D11*
%TO.C,J9*%
X120650000Y-62250000D03*
D12*
X123190000Y-62250000D03*
%TD*%
D39*
%TO.C,U3*%
X179495000Y-59910000D03*
X179495000Y-60560000D03*
X179495000Y-61210000D03*
X179495000Y-61860000D03*
X179495000Y-62510000D03*
X179495000Y-63160000D03*
X179495000Y-63810000D03*
X179495000Y-64460000D03*
X179495000Y-65110000D03*
X179495000Y-65760000D03*
X179495000Y-66410000D03*
X179495000Y-67060000D03*
X179495000Y-67710000D03*
X179495000Y-68360000D03*
X172295000Y-68360000D03*
X172295000Y-67710000D03*
X172295000Y-67060000D03*
X172295000Y-66410000D03*
X172295000Y-65760000D03*
X172295000Y-65110000D03*
X172295000Y-64460000D03*
X172295000Y-63810000D03*
X172295000Y-63160000D03*
X172295000Y-62510000D03*
X172295000Y-61860000D03*
X172295000Y-61210000D03*
X172295000Y-60560000D03*
X172295000Y-59910000D03*
%TD*%
D21*
%TO.C,H2*%
X94615000Y-53340000D03*
%TD*%
D33*
%TO.C,R7*%
X192405000Y-123460000D03*
X192405000Y-125460000D03*
%TD*%
%TO.C,R17*%
X159385000Y-105680000D03*
X159385000Y-107680000D03*
%TD*%
D19*
%TO.C,C2*%
X146380000Y-68102500D03*
X146380000Y-70177500D03*
%TD*%
D40*
%TO.C,R6*%
X198755000Y-125460000D03*
X198755000Y-123460000D03*
%TD*%
D13*
%TO.C,J8*%
X161925000Y-131445000D03*
D12*
X159385000Y-131445000D03*
%TD*%
D31*
%TO.C,R11*%
X164195000Y-95250000D03*
X162195000Y-95250000D03*
%TD*%
D19*
%TO.C,C1*%
X107315000Y-110892500D03*
X107315000Y-108817500D03*
%TD*%
%TO.C,C6*%
X177800000Y-73257500D03*
X177800000Y-75332500D03*
%TD*%
D32*
%TO.C,R4*%
X198390000Y-61595000D03*
X200390000Y-61595000D03*
%TD*%
D41*
%TO.C,U7*%
X152970000Y-116205000D03*
X152970000Y-114935000D03*
X152970000Y-113665000D03*
X152970000Y-112395000D03*
X148020000Y-112395000D03*
X148020000Y-113665000D03*
X148020000Y-114935000D03*
X148020000Y-116205000D03*
%TD*%
D31*
%TO.C,R3*%
X200390000Y-68580000D03*
X198390000Y-68580000D03*
%TD*%
D33*
%TO.C,R12*%
X139065000Y-112125000D03*
X139065000Y-110125000D03*
%TD*%
D22*
%TO.C,D10*%
X136525000Y-87630000D03*
D23*
X144145000Y-87630000D03*
%TD*%
D31*
%TO.C,R20*%
X179435000Y-106045000D03*
X177435000Y-106045000D03*
%TD*%
D19*
%TO.C,C20*%
X192405000Y-94847500D03*
X192405000Y-96922500D03*
%TD*%
D26*
%TO.C,D4*%
X195575000Y-132080000D03*
D27*
X198115000Y-132080000D03*
%TD*%
D19*
%TO.C,C21*%
X177800000Y-99292500D03*
X177800000Y-101367500D03*
%TD*%
D31*
%TO.C,R15*%
X151495000Y-125095000D03*
X149495000Y-125095000D03*
%TD*%
%TO.C,R8*%
X136255000Y-107315000D03*
X134255000Y-107315000D03*
%TD*%
D30*
%TO.C,C19*%
X159152500Y-60325000D03*
X157077500Y-60325000D03*
%TD*%
D42*
%TO.C,U6*%
X159070000Y-101467500D03*
X160020000Y-101467500D03*
X160970000Y-101467500D03*
X160970000Y-99192500D03*
X160020000Y-99192500D03*
X159070000Y-99192500D03*
%TD*%
D33*
%TO.C,R2*%
X158750000Y-69485000D03*
X158750000Y-71485000D03*
%TD*%
D30*
%TO.C,C15*%
X166772500Y-103505000D03*
X164697500Y-103505000D03*
%TD*%
D22*
%TO.C,D9*%
X140970000Y-97790000D03*
D23*
X133350000Y-97790000D03*
%TD*%
D31*
%TO.C,R19*%
X185785000Y-106045000D03*
X183785000Y-106045000D03*
%TD*%
D43*
%TO.C,D1*%
X114045000Y-86995000D03*
X110745000Y-86995000D03*
%TD*%
D12*
%TO.C,J5*%
X130810000Y-130790000D03*
D13*
X133350000Y-130790000D03*
%TD*%
D22*
%TO.C,D14*%
X179070000Y-114300000D03*
D23*
X171450000Y-114300000D03*
%TD*%
D44*
%TO.C,U4*%
X184745000Y-90545000D03*
X184745000Y-88265000D03*
D45*
X178445000Y-88265000D03*
D44*
X184745000Y-85985000D03*
%TD*%
D46*
%TO.C,U1*%
X156585000Y-75760000D03*
X157385000Y-75760000D03*
X158185000Y-75760000D03*
X158985000Y-75760000D03*
X159785000Y-75760000D03*
X160585000Y-75760000D03*
X161385000Y-75760000D03*
X162185000Y-75760000D03*
D47*
X163635000Y-77210000D03*
X163635000Y-78010000D03*
X163635000Y-78810000D03*
X163635000Y-79610000D03*
X163635000Y-80410000D03*
X163635000Y-81210000D03*
X163635000Y-82010000D03*
X163635000Y-82810000D03*
D46*
X162185000Y-84260000D03*
X161385000Y-84260000D03*
X160585000Y-84260000D03*
X159785000Y-84260000D03*
X158985000Y-84260000D03*
X158185000Y-84260000D03*
X157385000Y-84260000D03*
X156585000Y-84260000D03*
D47*
X155135000Y-82810000D03*
X155135000Y-82010000D03*
X155135000Y-81210000D03*
X155135000Y-80410000D03*
X155135000Y-79610000D03*
X155135000Y-78810000D03*
X155135000Y-78010000D03*
X155135000Y-77210000D03*
%TD*%
D43*
%TO.C,D2*%
X173100000Y-78740000D03*
X169800000Y-78740000D03*
%TD*%
D36*
%TO.C,C5*%
X151130000Y-75967500D03*
X151130000Y-73892500D03*
%TD*%
D19*
%TO.C,C13*%
X133350000Y-117072500D03*
X133350000Y-119147500D03*
%TD*%
D21*
%TO.C,H1*%
X208915000Y-53340000D03*
%TD*%
%TO.C,H4*%
X94615000Y-141605000D03*
%TD*%
D19*
%TO.C,C16*%
X139065000Y-115167500D03*
X139065000Y-117242500D03*
%TD*%
D48*
%TO.C,F1*%
X205090000Y-80010000D03*
X193690000Y-80010000D03*
%TD*%
M02*
